<?xml version="1.0" encoding="utf-8"?>
<!-- Generator: Adobe Illustrator 26.3.1, SVG Export Plug-In . SVG Version: 6.00 Build 0)  -->
<svg version="1.1" id="Layer_1" xmlns="http://www.w3.org/2000/svg" xmlns:xlink="http://www.w3.org/1999/xlink" x="0px" y="0px"
	 viewBox="0 0 250 250" style="enable-background:new 0 0 250 250;" xml:space="preserve">
<style type="text/css">
	.st0{fill:#FEF2F1;}
	
		.st1{clip-path:url(#SVGID_00000165924386846983477220000001878254381576030360_);fill:url(#SVGID_00000114762084863271613980000009113362620177953410_);}
	.st2{fill:#ED7464;}
	.st3{fill:#B16374;}
	
		.st4{clip-path:url(#SVGID_00000127038710981990817020000013713530914378572692_);fill:url(#SVGID_00000082341959806940057370000001031652997400449972_);}
	.st5{fill:url(#SVGID_00000030479094107627094250000003705284854545653916_);}
	.st6{fill:#FFFFFF;}
	.st7{fill:#F0F7EC;}
	.st8{fill:url(#SVGID_00000036230556089397663520000006005906632491591059_);}
	.st9{fill:url(#SVGID_00000137833687045550075210000015051947343437590937_);}
	.st10{fill:url(#SVGID_00000089541121537431009850000002131309380974928041_);}
	.st11{fill:url(#SVGID_00000060014393509475206970000016593527670998425533_);}
	.st12{fill:url(#SVGID_00000004522939338830737180000011043761380181709198_);}
	.st13{fill:url(#SVGID_00000036211534817264678050000005681898140929312400_);}
	.st14{fill:url(#SVGID_00000142857202251107656790000013782295879225751743_);}
	.st15{fill:url(#SVGID_00000087381487637023485260000015759683168382446738_);}
	.st16{fill:url(#SVGID_00000174597678086797249920000010366062241879481769_);}
	.st17{fill:url(#SVGID_00000059286890149400702930000009894164953254511025_);}
	.st18{fill:url(#SVGID_00000167363413341226491520000016638289303884088199_);}
	.st19{fill:url(#SVGID_00000141442918079977212650000006099675207571470470_);}
	.st20{fill:url(#SVGID_00000138572406187020976390000012629224215440318883_);}
	.st21{fill:url(#SVGID_00000023972738851603272910000016298316339499186343_);}
	.st22{fill:url(#SVGID_00000063593652522389509030000007412399843171556797_);}
</style>
<path class="st0" d="M235,129c0,60.8-49.2,110-110,110S15,189.8,15,129C15,68.2,64.2,19,125,19S235,68.2,235,129"/>
<g>
	<defs>
		<path id="SVGID_1_" d="M235,129c0,60.8-49.2,110-110,110S15,189.8,15,129C15,68.2,64.2,19,125,19S235,68.2,235,129"/>
	</defs>
	<clipPath id="SVGID_00000150097024540208090870000007353094460323492018_">
		<use xlink:href="#SVGID_1_"  style="overflow:visible;"/>
	</clipPath>
	
		<linearGradient id="SVGID_00000025411970409579518820000017523762586323846828_" gradientUnits="userSpaceOnUse" x1="-149.4969" y1="184.4905" x2="350.4493" y2="184.4905">
		<stop  offset="0" style="stop-color:#31498B"/>
		<stop  offset="1" style="stop-color:#F37662"/>
	</linearGradient>
	
		<rect x="-149.5" y="95.4" style="clip-path:url(#SVGID_00000150097024540208090870000007353094460323492018_);fill:url(#SVGID_00000025411970409579518820000017523762586323846828_);" width="499.9" height="178.2"/>
</g>
<path class="st0" d="M172.1,169.8l-2.3-6.5c-0.2,0.1-20.7,6.9-40.3-2.8l7.2-2.5l-2.3-6.4l-17.2,6.1l5.7,17.9l6.5-2.1l-2-6.4
	c9,4.3,17.9,5.6,25.5,5.6C163.7,172.6,171.5,170,172.1,169.8z"/>
<path class="st0" d="M95.1,118.2l5.8,4.7l4.3-5.3l-14-11.3l-12,11.5l4.7,4.9l4.4-4.2c1.8,23.2,15.6,35.7,16.2,36.3l4.5-5.2
	C108.9,149.5,96.8,138.3,95.1,118.2z"/>
<path class="st0" d="M69,95.4H52.7c0.6,4.6,1.2,15.5,3.8,28.6C45.5,150.9,20,169.2,20,169.2l3.3,3c13.6-6.6,30.2-27.7,36.2-35.7
	c3.2,11.1,8.2,22.8,15.9,33c-0.2,6.9-1.2,26.1-7.6,53.9l3.8,2.2c0,0,8.7-31,9.6-49.1c12.7,13.1,31.2,22.3,58.4,22c0,0,19,2,44.8-6
	v-6.3C184.5,186.1,67.6,218.6,69,95.4z"/>
<path class="st2" d="M69,94.1c0,0-0.7-29.1,6.3-63.2L52.4,45.7c0,0-2.3,37.1,0,48.3c0.1,0.3,0.1,0.8,0.2,1.3H69
	C69,94.9,69,94.5,69,94.1z"/>
<circle class="st3" cx="134.3" cy="193.9" r="2.6"/>
<circle class="st3" cx="118.9" cy="191.3" r="2.6"/>
<circle class="st3" cx="99.7" cy="183.2" r="2.6"/>
<circle class="st3" cx="85.9" cy="173" r="2.6"/>
<circle class="st3" cx="76.6" cy="159.9" r="2.6"/>
<circle class="st3" cx="68.8" cy="144.1" r="2.6"/>
<circle class="st3" cx="64.5" cy="127.4" r="2.6"/>
<circle class="st3" cx="61.9" cy="107.6" r="2.6"/>
<g>
	<g>
		
			<linearGradient id="SVGID_00000030474499634138417470000005394163101785839239_" gradientUnits="userSpaceOnUse" x1="132.204" y1="-12.1772" x2="266.7618" y2="122.3806">
			<stop  offset="0" style="stop-color:#31498B"/>
			<stop  offset="1" style="stop-color:#67C292"/>
		</linearGradient>
		<circle style="fill:url(#SVGID_00000030474499634138417470000005394163101785839239_);" cx="193.3" cy="48.9" r="40.6"/>
	</g>
	<g>
		<polygon class="st6" points="207.2,69.1 193.8,55.8 180.5,69 176.2,64.7 193.8,47.2 211.5,64.8 		"/>
	</g>
	<g>
		<polygon class="st6" points="207.2,48.9 193.8,35.6 180.5,48.8 176.2,44.5 193.8,27.1 211.5,44.6 		"/>
	</g>
</g>
<g>
	<path class="st6" d="M125,141.6v-4.3l17.3-19.6h-16v-4.4h22.6v4.4l-17,19.6h16.9v4.4H125z"/>
	<path class="st6" d="M153.1,141.6v-20.7h4.4l0.9,4.4l0.1,0.1c0-0.1,0.2-0.4,0.4-0.8c0.2-0.5,0.6-1,1.1-1.5c0.5-0.6,1.2-1.1,2.1-1.5
		c0.9-0.4,2-0.6,3.4-0.6c1.8,0,3.3,0.4,4.3,1.1c1,0.7,1.7,1.7,2.2,2.8c0.4,1.1,0.7,2.3,0.8,3.5c0.1,1.2,0.2,2.3,0.2,3.3v10h-5v-10.1
		c0-1.1-0.1-2.1-0.3-3c-0.2-0.9-0.6-1.7-1.3-2.3c-0.7-0.6-1.6-0.9-2.9-0.9c-1.3,0-2.4,0.3-3.1,1c-0.7,0.6-1.2,1.4-1.5,2.4
		c-0.3,1-0.4,2-0.4,3v9.9H153.1z"/>
</g>
</svg>
