<?xml version="1.0" encoding="utf-8"?>
<!-- Generator: Adobe Illustrator 26.3.1, SVG Export Plug-In . SVG Version: 6.00 Build 0)  -->
<svg version="1.1" id="Layer_1" xmlns="http://www.w3.org/2000/svg" xmlns:xlink="http://www.w3.org/1999/xlink" x="0px" y="0px"
	 viewBox="0 0 250 250" style="enable-background:new 0 0 250 250;" xml:space="preserve">
<style type="text/css">
	.st0{fill:#FEF2F1;}
	
		.st1{clip-path:url(#SVGID_00000075128392701452943280000004675047419823155623_);fill:url(#SVGID_00000110445818207898925310000002303058369591223723_);}
	.st2{fill:#ED7464;}
	.st3{fill:#B16374;}
	
		.st4{clip-path:url(#SVGID_00000026152618008873690520000015613205404349941943_);fill:url(#SVGID_00000057851166637514436800000006075559757523577778_);}
	.st5{fill:url(#SVGID_00000137100708283839208380000017928671989386139788_);}
	.st6{fill:#FFFFFF;}
	.st7{fill:#F0F7EC;}
	.st8{fill:url(#SVGID_00000134955793087719366810000016220448354225748925_);}
	.st9{fill:url(#SVGID_00000007414368609596314810000006634207411315591081_);}
	.st10{fill:url(#SVGID_00000168105791427517848340000009373328860219368095_);}
	.st11{fill:url(#SVGID_00000152975523705260172280000007579644362206751925_);}
	.st12{fill:url(#SVGID_00000084525759470391967470000009590169701237992836_);}
	.st13{fill:url(#SVGID_00000055674878898564922150000006905016036426412461_);}
	.st14{fill:url(#SVGID_00000020399875433615982330000002481802709382622596_);}
	.st15{fill:url(#SVGID_00000005962544214202590980000002259347927064465043_);}
	.st16{fill:url(#SVGID_00000139980477179703887280000012333149558733171890_);}
	.st17{fill:url(#SVGID_00000125585442785111850230000001604607050035168189_);}
	.st18{fill:url(#SVGID_00000181801939377970991630000014481688203154380181_);}
	.st19{fill:url(#SVGID_00000100380909240223330120000014753483998262891165_);}
	.st20{fill:url(#SVGID_00000141441874795347971780000005678537324385685171_);}
	.st21{fill:url(#SVGID_00000062911543107372560210000005195836341366579903_);}
	.st22{fill:url(#SVGID_00000018947706992441097360000005932241777021806261_);}
</style>
<g>
	<defs>
		<path id="SVGID_1_" d="M-51.8,129c0,60.8-49.2,110-110,110s-110-49.2-110-110c0-60.8,49.2-110,110-110S-51.8,68.2-51.8,129"/>
	</defs>
	<clipPath id="SVGID_00000011714485866408635040000002854695666642800284_">
		<use xlink:href="#SVGID_1_"  style="overflow:visible;"/>
	</clipPath>
	
		<linearGradient id="SVGID_00000013161763571548234310000009891874355289308829_" gradientUnits="userSpaceOnUse" x1="-436.3356" y1="184.4905" x2="63.6106" y2="184.4905">
		<stop  offset="0" style="stop-color:#31498B"/>
		<stop  offset="1" style="stop-color:#F37662"/>
	</linearGradient>
	
		<rect x="-436.3" y="95.4" style="clip-path:url(#SVGID_00000011714485866408635040000002854695666642800284_);fill:url(#SVGID_00000013161763571548234310000009891874355289308829_);" width="499.9" height="178.2"/>
</g>
<ellipse class="st7" cx="125" cy="129" rx="110" ry="110"/>
<path class="st6" d="M144.5,151.8c2.4-2.2,4.8-4.5,7.3-6.7c5.7-5.2,11.4-10.1,17-14.9c-4.6,2-10.4,5-16.5,9.6
	c-3.7,2.8-6.8,5.7-9.5,8.4C140.5,150.7,142.2,154,144.5,151.8z"/>
<g>
	
		<linearGradient id="SVGID_00000111902098211207789590000014498929190865142933_" gradientUnits="userSpaceOnUse" x1="139.0042" y1="-5.377" x2="250.4693" y2="106.088">
		<stop  offset="0" style="stop-color:#31498B"/>
		<stop  offset="1" style="stop-color:#67C292"/>
	</linearGradient>
	<circle style="fill:url(#SVGID_00000111902098211207789590000014498929190865142933_);" cx="193.3" cy="48.9" r="40.6"/>
</g>
<g>
	<path class="st6" d="M169.3,63.1v-4.3l17.3-19.6h-16v-4.4h22.6v4.4l-17,19.6h16.9v4.4H169.3z"/>
	<path class="st6" d="M197.5,63.1V42.4h4.4l0.9,4.4l0.1,0.1c0-0.1,0.2-0.4,0.4-0.8c0.2-0.5,0.6-1,1.1-1.5c0.5-0.6,1.2-1.1,2.1-1.5
		c0.9-0.4,2-0.6,3.4-0.6c1.8,0,3.3,0.4,4.3,1.1c1,0.7,1.7,1.7,2.2,2.8c0.4,1.1,0.7,2.3,0.8,3.5c0.1,1.2,0.2,2.3,0.2,3.3v10h-5V53
		c0-1.1-0.1-2.1-0.3-3c-0.2-0.9-0.6-1.7-1.3-2.3c-0.7-0.6-1.6-0.9-2.9-0.9c-1.3,0-2.4,0.3-3.1,1c-0.7,0.6-1.2,1.4-1.5,2.4
		c-0.3,1-0.4,2-0.4,3v9.9H197.5z"/>
</g>
<linearGradient id="SVGID_00000018209387985593547190000012562658452607900816_" gradientUnits="userSpaceOnUse" x1="74.9931" y1="128.9705" x2="175.0069" y2="128.9705">
	<stop  offset="0" style="stop-color:#D3E8C5"/>
	<stop  offset="1" style="stop-color:#48BFAE"/>
</linearGradient>
<path style="fill:url(#SVGID_00000018209387985593547190000012562658452607900816_);" d="M102.5,174.8c-3.8-1.3-7.2-3.1-10.2-5.5
	c-6.6-5.4-10.9-12.3-13.7-20.2c-3.4-9.4-4.3-19.2-3-29.1c1.4-10.6,5-20.2,12.2-28.3c3.7-4.2,8.2-7.6,13.6-9.4c0.5-0.2,0.9-0.2,1.4,0
	c9.5,4.3,14.2,11.4,13.7,21.1c-0.3,6.3-2.4,12.1-5.1,17.8c-2.6,5.4-5.9,10.5-8.3,16c-3,7-5.5,14.2-5.4,22c0,5.4,1.4,10.3,4.6,14.7
	c0.1,0.1,0.2,0.2,0.2,0.4C102.5,174.3,102.5,174.4,102.5,174.8z M132.6,170.2c-1-5.2,0.3-10,2.9-14.6c3.2-5.7,7.6-10.3,12.4-14.6
	c3.1-2.9,6-6,8.3-9.5c5.4-8.2,4.8-15.9-1.7-22.1c-0.5-0.5-1.1-0.7-1.8-0.7c-4.4,0.2-8.5,1.7-12.1,4.1c-14.7,9.5-22.1,31.6-16.1,48.1
	c1.7,4.8,4.4,8.9,8.9,12C133,171.7,132.8,170.9,132.6,170.2z M165.6,113.9c2.1,6,1.3,11.8-1.5,17.5c-2.9,5.9-7.1,10.6-11.9,15
	c-4.3,4-8.3,8.1-11.1,13.3c-3.2,6.1-2.5,11.2,2.2,15.3c1,0.9,1.9,0.9,3.1,0.8c7.7-1.2,13.6-5.3,18.4-11.2c7.5-9.3,10.8-20,9.9-31.9
	c-0.4-5.9-2.2-11.4-5.8-16.2c-1-1.3-2-2.5-3.6-3.5C165.5,113.4,165.5,113.6,165.6,113.9z M118.6,146.2c0.2-5.9,1.6-11.6,3.9-17
	c3.9-8.9,9.6-16.2,18.2-21c0.7-0.4,0.7-0.8,0.4-1.4c-1.1-2.7-2.3-5.4-3.8-7.9c-4.1-6.9-9.4-12.6-16.9-15.9c-0.4-0.2-0.8-0.6-1.3-0.2
	c6.1,7.6,7.7,16.2,6.2,25.6c-1.3,8.1-4.4,15.5-8.4,22.6c-3.8,6.9-7.5,13.8-9.1,21.6c-0.9,4.3-1.2,8.6,0.4,12.8
	c2.7,7,11.3,9.7,17.3,5.4C120.1,163.4,118.3,155.1,118.6,146.2z"/>
</svg>
