<?xml version="1.0" encoding="utf-8"?>
<!-- Generator: Adobe Illustrator 26.3.1, SVG Export Plug-In . SVG Version: 6.00 Build 0)  -->
<svg version="1.1" id="Layer_1" xmlns="http://www.w3.org/2000/svg" xmlns:xlink="http://www.w3.org/1999/xlink" x="0px" y="0px"
	 viewBox="0 0 450 596.1" style="enable-background:new 0 0 450 596.1;" xml:space="preserve">
<style type="text/css">
	.st0{fill:#D8D8D8;stroke:#41E09B;stroke-width:2;stroke-miterlimit:10;}
	.st1{fill:#C1C1C1;stroke:#41E09B;stroke-width:2;stroke-miterlimit:10;}
	.st2{fill:#D8D8D8;}
	.st3{fill:#18244C;}
	.st4{fill:#C1C1C1;}
</style>
<g>
	<path class="st0" d="M380,440.9c6.8,6,8.4,13.6,8.4,22c-0.1,37.2,0,63.1-0.1,100.4c0,12.8-6.9,22-18.4,24.8c-1.9,0.5-4,0.6-5.9,0.6
		c-42.5,0-221.3,0-263.8,0c-14.2,0-24.4-9.7-24.4-23.8c-0.2-38.9-0.1-66.5,0-105.5c0-7.3,2.8-13.5,8.2-18.3c-11-12-11-26.7,0.5-38.5
		c-11.2-14.3-11.2-24,0-38.3c-11.6-14.3-11.7-24.1-0.6-38.5c-10.8-10.1-8.9-23.1-7.2-35.7c0.6-3.9,3.4-7.7,6.1-10.9
		c11.7-13.3,23.7-26.2,35.9-39.6c-1.1-0.5-2-0.8-2.8-1.1c-5.1-1.8-8.2-5.5-8.2-11c-0.1-9.1-0.2-18.2,0-27.1
		c0.1-6.9,5-11.8,11.9-11.8c29.6-0.1,195.4-0.1,225.1,0c6.7,0,11.6,4.9,11.7,11.6c0.2,9.2,0.2,18.4,0,27.6
		c-0.1,6.8-4.7,10.2-11.2,11.9c4.2,4.5,8.1,8.9,11.9,13.1c8.1,8.9,16.1,17.8,24.3,26.7c3.9,4.2,6.5,9.1,6.7,14.8
		c0.2,5.2,0.2,10.4,0,15.7c-0.3,6.4-3.3,11.6-7.9,15.9c11,15.6,10.9,25.9-0.7,38.3c11.2,15.3,11.1,25.8,0,38.3
		C391,417.4,391.3,427.6,380,440.9z"/>
</g>
<g>
	<path class="st3" d="M154.4,515.4c-3.7,0-6.9-0.7-9.3-2s-4.4-3-5.7-5c-1.3-2-2.1-4-2.5-6l9.4-1.4c0.1,0.6,0.4,1.4,0.9,2.4
		c0.6,1,1.5,2,2.7,2.8c1.2,0.9,2.8,1.3,4.8,1.3c2.5,0,4.4-0.8,5.8-2.3c1.4-1.5,2.1-3.2,2.3-5c0.1-1.4-0.1-2.8-0.7-4.1
		c-0.5-1.3-1.4-2.4-2.7-3.2c-1.2-0.8-2.8-1.2-4.6-1.2c-1.7,0-3.1,0.3-4.1,1c-1,0.7-1.7,1.3-2.1,2c-0.4,0.7-0.7,1-0.7,1.1l-9.8-1.6
		l2.4-23.5H170v8h-22.9l-1.4,12.9c0.8-1.2,1.7-2.3,2.7-3.1c0.9-0.8,2.2-1.5,3.7-2.1c1.5-0.6,3.4-0.9,5.6-0.9c3.5,0,6.3,0.7,8.5,2.1
		c2.2,1.4,3.8,3.3,4.8,5.6c1,2.3,1.4,4.7,1.2,7.1c-0.2,2.5-1.1,4.9-2.5,7.2c-1.5,2.3-3.5,4.2-6,5.7
		C161,514.7,157.9,515.4,154.4,515.4z"/>
	<path class="st3" d="M197.1,515.7c-6.6,0-11.5-2.1-14.7-6.2c-3.2-4.1-4.8-9.7-4.8-16.7c0-4.6,0.7-8.6,2.1-12.1
		c1.4-3.4,3.5-6.1,6.4-8c2.9-1.9,6.6-2.8,11.1-2.8c6.7,0,11.6,2.1,14.8,6.2c3.2,4.1,4.8,9.7,4.8,16.7c0,4.5-0.7,8.5-2.1,12
		c-1.4,3.5-3.5,6.2-6.4,8.1S201.5,515.7,197.1,515.7z M197,507.9c3.7,0,6.5-1.3,8.3-3.8c1.8-2.5,2.7-6.3,2.7-11.3
		c0-5-0.9-8.8-2.6-11.3c-1.7-2.5-4.5-3.7-8.3-3.7c-3.6,0-6.3,1.2-8.1,3.6c-1.8,2.4-2.7,6.2-2.7,11.4c0,5,0.9,8.8,2.6,11.3
		C190.5,506.7,193.2,507.9,197,507.9z"/>
	<path class="st3" d="M240.8,515.7c-6.6,0-11.5-2.1-14.7-6.2c-3.2-4.1-4.8-9.7-4.8-16.7c0-4.6,0.7-8.6,2.1-12.1
		c1.4-3.4,3.5-6.1,6.4-8c2.9-1.9,6.6-2.8,11.1-2.8c6.7,0,11.6,2.1,14.8,6.2c3.2,4.1,4.8,9.7,4.8,16.7c0,4.5-0.7,8.5-2.1,12
		c-1.4,3.5-3.5,6.2-6.4,8.1S245.2,515.7,240.8,515.7z M240.7,507.9c3.7,0,6.5-1.3,8.3-3.8c1.8-2.5,2.7-6.3,2.7-11.3
		c0-5-0.9-8.8-2.6-11.3c-1.7-2.5-4.5-3.7-8.3-3.7c-3.6,0-6.3,1.2-8.1,3.6c-1.8,2.4-2.7,6.2-2.7,11.4c0,5,0.9,8.8,2.6,11.3
		C234.2,506.7,236.9,507.9,240.7,507.9z"/>
	<path class="st3" d="M265.4,514.6v-32.1h8.3l0.1,6.4h0.2c0-0.1,0.2-0.5,0.5-1.1c0.3-0.6,0.9-1.4,1.6-2.2c0.7-0.8,1.6-1.5,2.8-2.1
		c1.2-0.6,2.6-0.9,4.4-0.9c2.4,0,4.2,0.6,5.5,1.9c1.3,1.2,2.2,2.8,2.8,4.5h0.2c0-0.1,0.2-0.5,0.6-1.1c0.4-0.6,1-1.4,1.8-2.2
		c0.8-0.8,1.8-1.5,3-2.1c1.2-0.6,2.8-0.9,4.5-0.9c2,0,3.6,0.4,4.8,1.2c1.2,0.8,2.2,1.9,2.9,3.3c0.7,1.4,1.1,2.8,1.4,4.3
		c0.3,1.5,0.4,3,0.5,4.4c0.1,1.4,0.1,2.5,0.1,3.4v15.5h-7.9V499c0-1-0.1-2.1-0.2-3.4c-0.2-1.3-0.6-2.4-1.3-3.4c-0.7-1-2-1.4-3.7-1.4
		c-1.7,0-2.9,0.4-3.7,1.3s-1.3,1.9-1.5,3.2c-0.2,1.3-0.4,2.6-0.4,3.9v15.4h-7.9V499c0-1-0.1-2.1-0.2-3.4c-0.2-1.3-0.6-2.4-1.3-3.4
		c-0.7-1-2-1.4-3.7-1.4c-1.7,0-2.9,0.4-3.7,1.3c-0.8,0.9-1.3,1.9-1.5,3.2c-0.2,1.3-0.4,2.6-0.4,3.9v15.4H265.4z"/>
	<path class="st3" d="M317.7,514.6v-43.9h9.2v43.9H317.7z"/>
</g>
</svg>
