<?xml version="1.0" encoding="utf-8"?>
<!-- Generator: Adobe Illustrator 26.3.1, SVG Export Plug-In . SVG Version: 6.00 Build 0)  -->
<svg version="1.1" id="Layer_1" xmlns="http://www.w3.org/2000/svg" xmlns:xlink="http://www.w3.org/1999/xlink" x="0px" y="0px"
	 viewBox="0 0 450 596.1" style="enable-background:new 0 0 450 596.1;" xml:space="preserve">
<style type="text/css">
	.st0{fill:#D8D8D8;stroke:#41E09B;stroke-width:2;stroke-miterlimit:10;}
	.st1{fill:#C1C1C1;stroke:#41E09B;stroke-width:2;stroke-miterlimit:10;}
	.st2{fill:#D8D8D8;}
	.st3{fill:#18244C;}
	.st4{fill:#C1C1C1;}
</style>
<g>
	<path class="st0" d="M121,473.5c-6.9-14.2-6.8-27.8-0.1-41.9c-6.7-12.4-6.7-28.7,0.1-39.9c-6.8-14-6.7-27.6,0-42
		c-4.7-5-4.9-12-4.8-19.2c0.3-14.4-0.6-63,0.7-77.4c2.8-31.5,20.6-52.7,48.4-66.3c3.9-1.8,7.7-3.4,11.9-5.1c0-4.8,0-9.7,0-15.1
		c-2,0-4.2,0.1-6.2,0c-4.3-0.2-7-2.6-7-6.8c-0.1-9.7-0.3-19.3,0.1-29c0.5-10.1,9.2-18.5,19.3-18.5c27.7-0.2,55.5-0.2,83.2,0
		c10.8,0.1,19.4,9.1,19.6,20.1c0.1,8.5,0.1,17,0,25.5c0,6.4-2.3,8.6-8.7,8.7c-1.4,0-2.8,0-4.9,0c0,4.8-0.1,9.3,0.1,14
		c0,0.8,1.8,1.8,3,2.3c17.3,6.7,32.2,16.5,43.3,31.6c9.4,13.1,14.2,27.7,14.6,43.6c0.5,14.9,0.5,63.8,0,78.7
		c-0.1,4.5-2.4,9.1-4,14.3c6.4,12.7,6.1,26.3-0.2,40.2c6.6,13.4,6.5,26.9,0,40.8c6.6,13.4,6.6,27.1-0.3,41.4
		c4.2,4.8,4.9,11,4.8,17.7c-0.2,9.5,0,53-0.1,62.6c-0.1,19.9-14.9,34.7-34.6,34.7c-49.4,0.1-98.9,0.1-148.3,0
		c-19.8,0-34.5-14.9-34.6-34.7c-0.1-9.5,0.1-53-0.1-62.6C116.1,484.6,116.8,478.2,121,473.5z"/>
</g>
<g>
	<path class="st3" d="M218.3,506.6v8h-22.5v-8h7.3v-25.3c-0.4,2-1,3.5-1.9,4.6c-0.9,1.1-1.9,1.8-3,2.3c-1.1,0.4-2,0.7-2.9,0.7
		c-0.9,0.1-1.4,0.1-1.7,0.1v-10.4c0.3,0.1,1,0.1,2.1,0.1c1.1-0.1,2.2-0.3,3.4-0.7c1.2-0.4,2.3-1.2,3.3-2.4c1-1.1,1.5-2.8,1.6-4.8
		h8.4v35.9H218.3z"/>
	<path class="st3" d="M226.6,514.6v-43.9h9.4v35.9h20.3v8H226.6z"/>
</g>
</svg>
