<?xml version="1.0" encoding="utf-8"?>
<!-- Generator: Adobe Illustrator 26.3.1, SVG Export Plug-In . SVG Version: 6.00 Build 0)  -->
<svg version="1.1" id="Layer_1" xmlns="http://www.w3.org/2000/svg" xmlns:xlink="http://www.w3.org/1999/xlink" x="0px" y="0px"
	 viewBox="0 0 530.1 596.1" style="enable-background:new 0 0 530.1 596.1;" xml:space="preserve">
<style type="text/css">
	.st0{fill:#D8D8D8;stroke:#41E09B;stroke-width:2;stroke-miterlimit:10;}
	.st1{fill:#C1C1C1;stroke:#41E09B;stroke-width:2;stroke-miterlimit:10;}
	.st2{fill:#D8D8D8;}
	.st3{fill:#18244C;}
	.st4{fill:#C1C1C1;}
</style>
<g>
	<path class="st0" d="M77.6,575.4L61,111.2h414.5L459,575.4c0,0-52.2,13.4-190.7,13.4S77.6,575.4,77.6,575.4z"/>
	<path class="st1" d="M62.6,145.4l-14.7-1.9c0,0-3.4,50.5,5.2,72.6c0,0,6.7,12,13.4,19.9l0.8,18.9c0,0-27-43.3-30-72.3
		c-3-28.9-3.8-65.4,0-85.2h6.4l6.7-16.7l-0.3-17.2h432.1v15.2l8.3,16h8.3c0,0,10.5,65.1-7.9,109.6c0,0-8.1,45.1-22,55.7l0.9-20.5
		c0,0,15.5-10.1,16.6-39s1.5-57,1.5-57H471C471,143.5,264,151.5,62.6,145.4z"/>
	<polygon class="st2" points="50.5,80.7 43.7,97.5 490.6,97.5 482.3,78.8 	"/>
</g>
<g>
	<path class="st3" d="M221.9,506.6v8h-22.5v-8h7.3v-25.3c-0.4,2-1,3.5-1.9,4.6c-0.9,1.1-1.9,1.8-3,2.3c-1.1,0.4-2,0.7-2.9,0.7
		c-0.9,0.1-1.4,0.1-1.7,0.1v-10.4c0.3,0.1,1,0.1,2.1,0.1c1.1-0.1,2.2-0.3,3.4-0.7c1.2-0.4,2.3-1.2,3.3-2.4c1-1.1,1.5-2.8,1.6-4.8
		h8.4v35.9H221.9z"/>
	<path class="st3" d="M247.2,515.7c-6.6,0-11.5-2.1-14.7-6.2c-3.2-4.1-4.8-9.7-4.8-16.7c0-4.6,0.7-8.6,2.1-12.1
		c1.4-3.4,3.5-6.1,6.4-8c2.9-1.9,6.6-2.8,11.1-2.8c6.7,0,11.6,2.1,14.8,6.2c3.2,4.1,4.8,9.7,4.8,16.7c0,4.5-0.7,8.5-2.1,12
		c-1.4,3.5-3.5,6.2-6.4,8.1S251.6,515.7,247.2,515.7z M247.1,507.9c3.7,0,6.5-1.3,8.3-3.8c1.8-2.5,2.7-6.3,2.7-11.3
		c0-5-0.9-8.8-2.6-11.3c-1.7-2.5-4.5-3.7-8.3-3.7c-3.6,0-6.3,1.2-8.1,3.6c-1.8,2.4-2.7,6.2-2.7,11.4c0,5,0.9,8.8,2.6,11.3
		C240.6,506.7,243.3,507.9,247.1,507.9z"/>
	<path class="st3" d="M281.5,514.6H272v-43.9h9.5v25.6l11.8-14h11.5l-12.9,13.5l13.1,18.8h-11.2l-8.4-11.9l-3.8,4.1V514.6z"/>
	<path class="st3" d="M317,529.5v-8.9h13.2v-11.1h-0.2c-0.1,0.1-0.2,0.5-0.6,1.1c-0.3,0.6-0.9,1.3-1.7,2c-0.8,0.7-1.8,1.4-3.1,2
		c-1.3,0.6-2.9,0.9-4.8,0.9c-4.8,0-8.2-1.5-10.1-4.4s-2.9-6.9-2.9-11.9c0-5.2,1-9.3,3-12.2c2-2.9,5.3-4.4,10.1-4.4
		c2,0,3.7,0.3,5,0.9c1.3,0.6,2.3,1.4,3.1,2.2c0.8,0.8,1.3,1.6,1.6,2.2c0.3,0.7,0.5,1,0.5,1.1h0.2v-6.4h9.7V516c0,5.1-1,8.7-3,10.6
		c-2,2-5.1,2.9-9.2,2.9H317z M323,507.5c2.9,0,4.8-0.8,5.7-2.5c1-1.6,1.4-3.6,1.4-6c0-2.3-0.5-4.3-1.4-5.9c-0.9-1.6-2.8-2.5-5.6-2.5
		c-2,0-3.5,0.4-4.6,1.2c-1,0.8-1.7,1.8-2.1,3.1c-0.4,1.3-0.5,2.6-0.5,4c0,1.5,0.2,2.8,0.5,4.1c0.3,1.3,1,2.3,2,3.1
		C319.5,507.1,321,507.5,323,507.5z"/>
</g>
</svg>
