<?xml version="1.0" encoding="utf-8"?>
<!-- Generator: Adobe Illustrator 26.2.1, SVG Export Plug-In . SVG Version: 6.00 Build 0)  -->
<svg version="1.1" id="Layer_1" xmlns="http://www.w3.org/2000/svg" xmlns:xlink="http://www.w3.org/1999/xlink" x="0px" y="0px"
	 viewBox="0 0 100 100" style="enable-background:new 0 0 100 100;" xml:space="preserve">
<style type="text/css">
	.st0{fill:#FFFFFF;stroke:#000000;stroke-miterlimit:10;}
	.st1{fill:#304789;}
	.st2{fill:#41E5D8;}
	.st3{fill:url(#SVGID_1_);}
	.st4{fill:url(#SVGID_00000093139656481990878680000013419726894159970231_);}
	.st5{fill:url(#SVGID_00000090991545935341061770000015086797391865206964_);}
	.st6{fill:url(#SVGID_00000057131796982185945600000008302635479585322407_);}
	.st7{fill:url(#SVGID_00000111911354414879402220000000551600732852673688_);}
	.st8{fill:url(#SVGID_00000143588797728785712900000017849774689608154244_);}
	.st9{fill:url(#SVGID_00000179611713380062287510000011686873036054629269_);}
	.st10{fill:url(#SVGID_00000073691788111390835320000014055544167055873409_);}
	.st11{fill:url(#SVGID_00000071524291737368917430000006262339371151625627_);}
	.st12{fill:url(#SVGID_00000052067302087922972580000004879128895363844277_);}
	.st13{fill:url(#SVGID_00000169520037176772047180000001300722983617392551_);}
	.st14{fill:url(#SVGID_00000155140548752315718280000010648259135958461582_);}
	.st15{fill:url(#SVGID_00000169518187227495481080000011354132701026907325_);}
	.st16{fill:url(#SVGID_00000107570345521349536060000011499836282689253248_);}
</style>
<g>
	<linearGradient id="SVGID_1_" gradientUnits="userSpaceOnUse" x1="80.4016" y1="113.6111" x2="-8.9377" y2="30.8211">
		<stop  offset="0" style="stop-color:#845B77"/>
		<stop  offset="7.666349e-03" style="stop-color:#855B77"/>
		<stop  offset="0.3321" style="stop-color:#B6666D"/>
		<stop  offset="0.6172" style="stop-color:#D96E66"/>
		<stop  offset="0.8495" style="stop-color:#EF7362"/>
		<stop  offset="1" style="stop-color:#F77560"/>
	</linearGradient>
	<path class="st3" d="M5.4,90.5c2.1-5.2,4.1-10.3,6.2-15.5c0.3-0.7,0.6-1.4,0.9-2.1c0.8-1.5,2-2.3,3.7-2.4c1.7,0,3.4,0,5.1,0
		c0.9,0,1.5,0.6,1.5,1.4c0,0.8-0.6,1.4-1.5,1.4c-1.5,0-3.1,0-4.6,0c-1,0-1.5,0.4-1.9,1.2c-2.1,5.1-4.1,10.1-6.2,15.2
		c-0.7,1.6-0.1,2.4,1.6,2.4c10.1,0,20.2,0,30.3,0c16.5,0,32.9,0,49.4,0c0.3,0,0.6,0,0.9,0c1.3,0,1.9-0.9,1.4-2.1
		c-1.3-3.1-2.6-6.3-3.9-9.4c-0.8-2-1.7-4-2.5-6.1c-0.3-0.9-0.9-1.2-1.8-1.2c-1.5,0-3,0-4.5,0c-1.1,0-1.7-0.5-1.7-1.4
		c0-0.9,0.6-1.3,1.7-1.4c1.6,0,3.2,0,4.7,0c1.9,0,3.3,0.9,4,2.6c2.2,5.3,4.4,10.7,6.6,16C96,92,94,94.8,91,94.9c-0.3,0-0.6,0-1,0
		c-26.4,0-52.7,0-79.1,0c-3.4,0-4.5-0.8-5.5-4C5.4,90.8,5.4,90.6,5.4,90.5z"/>
	
		<linearGradient id="SVGID_00000026122948316106070120000017688666274417332876_" gradientUnits="userSpaceOnUse" x1="121.346" y1="69.4276" x2="32.0068" y2="-13.3623">
		<stop  offset="0" style="stop-color:#845B77"/>
		<stop  offset="7.666349e-03" style="stop-color:#855B77"/>
		<stop  offset="0.3321" style="stop-color:#B6666D"/>
		<stop  offset="0.6172" style="stop-color:#D96E66"/>
		<stop  offset="0.8495" style="stop-color:#EF7362"/>
		<stop  offset="1" style="stop-color:#F77560"/>
	</linearGradient>
	<path style="fill:url(#SVGID_00000026122948316106070120000017688666274417332876_);" d="M74.4,5.1c1.3,0.3,2.6,0.6,3.9,1.1
		c8.7,3.4,12.3,13.7,7.6,21.7c-3.9,6.6-7.8,13.2-11.7,19.9c-0.9,1.5-2,1.4-2.9,0c-3.9-6.6-7.9-13.2-11.7-19.9
		c-5.4-9.3,0.3-21.1,11-22.6c0.2,0,0.3-0.1,0.5-0.2C72.2,5.1,73.3,5.1,74.4,5.1z M72.7,44.5c0.1-0.1,0.2-0.2,0.2-0.3
		c3.6-6,7.3-12,10.7-18.1C88.1,18,82.2,7.9,73,7.9c-4.8,0-8.6,2-11,6.2c-2.4,4.2-2.3,8.4,0.1,12.6c3.3,5.8,6.8,11.5,10.2,17.2
		C72.4,44.1,72.6,44.3,72.7,44.5z"/>
	
		<linearGradient id="SVGID_00000087379347215196801150000009404713261125258406_" gradientUnits="userSpaceOnUse" x1="90.9157" y1="102.2651" x2="1.5765" y2="19.4752">
		<stop  offset="0" style="stop-color:#845B77"/>
		<stop  offset="7.666349e-03" style="stop-color:#855B77"/>
		<stop  offset="0.3321" style="stop-color:#B6666D"/>
		<stop  offset="0.6172" style="stop-color:#D96E66"/>
		<stop  offset="0.8495" style="stop-color:#EF7362"/>
		<stop  offset="1" style="stop-color:#F77560"/>
	</linearGradient>
	<path style="fill:url(#SVGID_00000087379347215196801150000009404713261125258406_);" d="M29.3,86.3c2.8,0,5.5,0,8.3,0
		c0-0.4,0-0.7,0-1c0-4.9,0.1-9.8,0-14.7c-0.1-3.1,2.4-4.8,4.7-4.7c5.3,0.1,10.6,0,16,0c2.9,0,4.7,1.8,4.7,4.6c0,4.9,0,9.9,0,14.8
		c0,0.3,0,0.6,0,1c2.8,0,5.5,0,8.4,0c0-0.3,0-0.7,0-1c0-10.1,0-20.3,0-30.4c0-1.4,0.4-2.1,1.4-2.1c1,0,1.4,0.7,1.4,2.1
		c0,10.7,0,21.5,0,32.2c0,1.7-0.4,2.1-2.1,2.1c-14.5,0-29,0-43.4,0c-1.7,0-2.1-0.4-2.1-2.1c0-20.1,0-40.1,0-60.2
		c0-3,1.8-4.8,4.8-4.8c7.1,0,14.2,0,21.3,0c0.2,0,0.4,0,0.6,0c0.8,0.1,1.2,0.6,1.2,1.3c0.1,0.7-0.3,1.2-1,1.4
		c-0.3,0.1-0.7,0.1-1,0.1c-7,0-13.9,0-20.9,0c-1.8,0-2.2,0.4-2.2,2.2c0,19.4,0,38.8,0,58.2C29.3,85.6,29.3,85.9,29.3,86.3z
		 M48.9,86.3c0-5.9,0-11.7,0-17.7c-2.1,0-4.3,0-6.4,0c-1.5,0-2,0.5-2,2c0,4.9,0,9.9,0,14.8c0,0.3,0,0.6,0,0.9
		C43.3,86.3,46.1,86.3,48.9,86.3z M51.8,86.3c2.9,0,5.6,0,8.4,0c0-0.1,0.1-0.2,0.1-0.3c0-5.3,0-10.5,0-15.8c0-1-0.6-1.5-1.6-1.6
		c-1,0-2.1,0-3.2,0c-1.2,0-2.4,0-3.7,0C51.8,74.5,51.8,80.4,51.8,86.3z"/>
	
		<linearGradient id="SVGID_00000071550338982875766690000008408566555864117930_" gradientUnits="userSpaceOnUse" x1="101.1942" y1="91.1736" x2="11.855" y2="8.3836">
		<stop  offset="0" style="stop-color:#845B77"/>
		<stop  offset="7.666349e-03" style="stop-color:#855B77"/>
		<stop  offset="0.3321" style="stop-color:#B6666D"/>
		<stop  offset="0.6172" style="stop-color:#D96E66"/>
		<stop  offset="0.8495" style="stop-color:#EF7362"/>
		<stop  offset="1" style="stop-color:#F77560"/>
	</linearGradient>
	<path style="fill:url(#SVGID_00000071550338982875766690000008408566555864117930_);" d="M59.6,58.3c-1.4,0-2.9,0-4.3,0
		c-1.2,0-1.6-0.5-1.7-1.7c0-2.7,0-5.3,0-8c0-1.2,0.5-1.6,1.7-1.6c2.9,0,5.8,0,8.7,0c1.1,0,1.6,0.5,1.6,1.6c0,2.7,0,5.4,0,8.1
		c0,1.1-0.5,1.6-1.6,1.6C62.5,58.3,61,58.3,59.6,58.3z M62.7,55.4c0-1.9,0-3.8,0-5.6c-2.1,0-4.2,0-6.2,0c0,1.9,0,3.7,0,5.6
		C58.6,55.4,60.6,55.4,62.7,55.4z"/>
	
		<linearGradient id="SVGID_00000127019621612271192730000010937351522474586047_" gradientUnits="userSpaceOnUse" x1="92.6449" y1="100.3992" x2="3.3057" y2="17.6092">
		<stop  offset="0" style="stop-color:#845B77"/>
		<stop  offset="7.666349e-03" style="stop-color:#855B77"/>
		<stop  offset="0.3321" style="stop-color:#B6666D"/>
		<stop  offset="0.6172" style="stop-color:#D96E66"/>
		<stop  offset="0.8495" style="stop-color:#EF7362"/>
		<stop  offset="1" style="stop-color:#F77560"/>
	</linearGradient>
	<path style="fill:url(#SVGID_00000127019621612271192730000010937351522474586047_);" d="M41.1,58.3c-1.4,0-2.9,0-4.3,0
		c-1.2,0-1.7-0.5-1.7-1.7c0-2.6,0-5.3,0-7.9c0-1.2,0.5-1.7,1.6-1.7c2.9,0,5.8,0,8.7,0c1.1,0,1.6,0.5,1.6,1.6c0,2.7,0,5.4,0,8.2
		c0,1.1-0.5,1.5-1.6,1.5C44,58.3,42.5,58.3,41.1,58.3z M44.2,49.9c-2.2,0-4.2,0-6.2,0c0,1.9,0,3.7,0,5.6c2.1,0,4.2,0,6.2,0
		C44.2,53.5,44.2,51.7,44.2,49.9z"/>
	
		<linearGradient id="SVGID_00000088823233312947588960000003993839984394516352_" gradientUnits="userSpaceOnUse" x1="101.1143" y1="91.2598" x2="11.7751" y2="8.4698">
		<stop  offset="0" style="stop-color:#845B77"/>
		<stop  offset="7.666349e-03" style="stop-color:#855B77"/>
		<stop  offset="0.3321" style="stop-color:#B6666D"/>
		<stop  offset="0.6172" style="stop-color:#D96E66"/>
		<stop  offset="0.8495" style="stop-color:#EF7362"/>
		<stop  offset="1" style="stop-color:#F77560"/>
	</linearGradient>
	<path style="fill:url(#SVGID_00000088823233312947588960000003993839984394516352_);" d="M41,41.3c-1.4,0-2.8,0-4.2,0
		c-1.2,0-1.7-0.5-1.7-1.7c0-2.6,0-5.3,0-7.9c0-1.2,0.5-1.7,1.7-1.7c2.9,0,5.7,0,8.6,0c1.2,0,1.6,0.5,1.7,1.7c0,2.7,0,5.3,0,8
		c0,1.2-0.5,1.7-1.7,1.7C43.9,41.3,42.5,41.3,41,41.3z M44.2,32.8c-2.1,0-4.2,0-6.3,0c0,1.9,0,3.7,0,5.6c2.1,0,4.2,0,6.3,0
		C44.2,36.5,44.2,34.7,44.2,32.8z"/>
	
		<linearGradient id="SVGID_00000136412634427540642350000017020036164016060598_" gradientUnits="userSpaceOnUse" x1="107.542" y1="84.3236" x2="18.2028" y2="1.5337">
		<stop  offset="0" style="stop-color:#845B77"/>
		<stop  offset="7.666349e-03" style="stop-color:#855B77"/>
		<stop  offset="0.3321" style="stop-color:#B6666D"/>
		<stop  offset="0.6172" style="stop-color:#D96E66"/>
		<stop  offset="0.8495" style="stop-color:#EF7362"/>
		<stop  offset="1" style="stop-color:#F77560"/>
	</linearGradient>
	<path style="fill:url(#SVGID_00000136412634427540642350000017020036164016060598_);" d="M56.4,38.5c1,0,2,0,2.9,0
		c1,0,1.7,0.5,1.7,1.4c0,0.8-0.6,1.4-1.7,1.4c-1.4,0-2.7,0-4.1,0c-1.1,0-1.6-0.5-1.6-1.6c0-2.7,0-5.4,0-8.1c0-1,0.5-1.6,1.3-1.6
		c0.9,0,1.4,0.6,1.4,1.6c0,2,0,3.9,0,5.9C56.4,37.8,56.4,38.1,56.4,38.5z"/>
	
		<linearGradient id="SVGID_00000085929778282633176020000018227733518972130181_" gradientUnits="userSpaceOnUse" x1="123.3988" y1="67.2123" x2="34.0596" y2="-15.5776">
		<stop  offset="0" style="stop-color:#845B77"/>
		<stop  offset="7.666349e-03" style="stop-color:#855B77"/>
		<stop  offset="0.3321" style="stop-color:#B6666D"/>
		<stop  offset="0.6172" style="stop-color:#D96E66"/>
		<stop  offset="0.8495" style="stop-color:#EF7362"/>
		<stop  offset="1" style="stop-color:#F77560"/>
	</linearGradient>
	<path style="fill:url(#SVGID_00000085929778282633176020000018227733518972130181_);" d="M64.7,20.2c0-4.5,3.6-8.1,8.1-8.1
		c4.5,0,8.2,3.7,8.1,8.2c0,4.4-3.7,8.1-8.2,8C68.2,28.3,64.6,24.7,64.7,20.2z M67.5,20.3c0,2.9,2.4,5.3,5.3,5.3
		c2.9,0,5.3-2.4,5.3-5.3c0-2.9-2.5-5.3-5.3-5.3C69.8,15,67.4,17.4,67.5,20.3z"/>
</g>
</svg>
