<?xml version="1.0" encoding="utf-8"?>
<!-- Generator: Adobe Illustrator 26.2.1, SVG Export Plug-In . SVG Version: 6.00 Build 0)  -->
<svg version="1.1" id="Layer_1" xmlns="http://www.w3.org/2000/svg" xmlns:xlink="http://www.w3.org/1999/xlink" x="0px" y="0px"
	 viewBox="0 0 100 100" style="enable-background:new 0 0 100 100;" xml:space="preserve">
<style type="text/css">
	.st0{fill:#FFFFFF;stroke:#000000;stroke-miterlimit:10;}
	.st1{fill:#304789;}
	.st2{fill:#41E5D8;}
	.st3{fill:url(#SVGID_1_);}
	.st4{fill:url(#SVGID_00000142868864382464212440000000456284314355242397_);}
	.st5{fill:url(#SVGID_00000055666423978845452930000008357405055131387572_);}
	.st6{fill:url(#SVGID_00000117648852607321215400000006737241955074985637_);}
	.st7{fill:url(#SVGID_00000162316744627257197160000004399100715219912373_);}
	.st8{fill:url(#SVGID_00000009577266952483142540000006136338494498156974_);}
	.st9{fill:url(#SVGID_00000147917841053213062430000010280038666143095692_);}
	.st10{fill:url(#SVGID_00000116212564603362016430000008218915033627824291_);}
	.st11{fill:url(#SVGID_00000183955561717448309170000005504779506827062952_);}
	.st12{fill:url(#SVGID_00000181797281640897101340000004021575988622031791_);}
	.st13{fill:url(#SVGID_00000016764334830994641210000014505939115008184221_);}
	.st14{fill:url(#SVGID_00000167398600518763736690000010174199323395140498_);}
	.st15{fill:url(#SVGID_00000065040133863205782720000005117187515293256878_);}
	.st16{fill:url(#SVGID_00000115511295681761497960000001100786080264456342_);}
</style>
<g>
	<linearGradient id="SVGID_1_" gradientUnits="userSpaceOnUse" x1="99.6981" y1="99.9383" x2="-8.8412" y2="12.972">
		<stop  offset="0" style="stop-color:#845B77"/>
		<stop  offset="7.666349e-03" style="stop-color:#855B77"/>
		<stop  offset="0.3321" style="stop-color:#B6666D"/>
		<stop  offset="0.6172" style="stop-color:#D96E66"/>
		<stop  offset="0.8495" style="stop-color:#EF7362"/>
		<stop  offset="1" style="stop-color:#F77560"/>
	</linearGradient>
	<path class="st3" d="M95,35.6c0,19,0,38,0,57.1c-0.5,1.9-1.8,3.2-3.7,3.7c-27.6,0-55.2,0-82.8,0c-2.7-1.1-3.7-2.4-3.7-4.7
		c0-18.4,0-36.8,0-55.2c0-0.7,0.3-1.2,0.9-1.6c4.1-2.8,8.1-5.7,12.1-8.6c0.3-0.2,0.5-0.7,0.5-1.1c0-2.7,0-5.3,0-8
		c0-2.3,1.2-3.5,3.5-3.5c4.3,0,8.6,0,12.8,0c0.5,0,1-0.1,1.4-0.4c2.3-1.6,4.5-3.2,6.7-4.8c4.2-3.1,9.9-3.1,14.1,0
		c2.2,1.6,4.4,3.2,6.7,4.7c0.4,0.3,1,0.5,1.5,0.5c4.3,0,8.7,0,13,0c2.1,0,3.3,1.2,3.3,3.3c0,2.6,0,5.3,0,7.9c0,0.6,0.2,1.1,0.7,1.4
		c3.8,2.7,7.6,5.4,11.4,8.1C94.1,34.8,94.5,35.2,95,35.6z M21.4,16.8c0,0.2-0.1,0.3-0.1,0.3c0,9.7,0,19.5,0,29.2
		c0,0.3,0.2,0.6,0.4,0.8c7.5,6.2,15,12.5,22.5,18.7c3.3,2.7,7.8,2.7,11.2,0.1c0.9-0.7,1.9-1.5,2.8-2.3c6.5-5.4,13-10.8,19.6-16.3
		c0.5-0.4,0.6-0.8,0.6-1.3c0-9.5,0-18.9,0-28.4c0-0.3,0-0.6,0-0.9C59.4,16.8,40.5,16.8,21.4,16.8z M10.6,93.3c26.3,0,52.4,0,78.7,0
		c-10.5-8.7-20.7-17.2-31-25.8c-5.7,4.4-11.2,4.3-16.7,0C31.3,76.1,21,84.7,10.6,93.3z M39.3,65.6C28.8,56.9,18.4,48.2,7.9,39.5
		c0,17.4,0,34.7,0,52.1C18.4,82.9,28.8,74.3,39.3,65.6z M92,39.5C81.4,48.3,71,56.9,60.6,65.6C71.1,74.3,81.5,82.9,92,91.6
		C92,74.2,92,56.9,92,39.5z M81.5,44.3c3.2-2.7,6.3-5.3,9.5-7.9c-3.2-2.3-6.3-4.5-9.5-6.8C81.5,34.6,81.5,39.3,81.5,44.3z
		 M18.3,44.2c0-4.9,0-9.7,0-14.6c-3.2,2.3-6.3,4.5-9.5,6.7C12,39,15.1,41.6,18.3,44.2z M41.1,13.7c5.9,0,11.8,0,17.7,0
		c0-0.1,0.1-0.1,0.1-0.2c-1.8-1.2-3.5-2.4-5.3-3.5c-1.4-0.8-3.1-0.9-4.7-0.7C45.6,9.6,43.5,11.9,41.1,13.7z"/>
	
		<linearGradient id="SVGID_00000083779979523784950080000009981487713263849095_" gradientUnits="userSpaceOnUse" x1="109.4405" y1="87.7791" x2="0.9012" y2="0.8129">
		<stop  offset="0" style="stop-color:#845B77"/>
		<stop  offset="7.666349e-03" style="stop-color:#855B77"/>
		<stop  offset="0.3321" style="stop-color:#B6666D"/>
		<stop  offset="0.6172" style="stop-color:#D96E66"/>
		<stop  offset="0.8495" style="stop-color:#EF7362"/>
		<stop  offset="1" style="stop-color:#F77560"/>
	</linearGradient>
	<path style="fill:url(#SVGID_00000083779979523784950080000009981487713263849095_);" d="M53,46.9c-1.6,1.4-3.4,2.3-5.4,2.5
		c-4.1,0.5-7.5-2.2-7.9-6.3c-0.4-4.8,2.5-10.1,6.8-12.2c2.6-1.3,5.9-0.8,8.1,1.3c0.2,0.2,0.4,0.4,0.7,0.8c0.1-0.5,0.2-0.8,0.3-1.2
		c0.2-1,0.9-1.6,1.8-1.4c0.9,0.2,1.4,1,1.1,2c-0.9,4.1-1.7,8.2-2.6,12.3c-0.3,1.2,0.1,1.6,1.3,1.7c1.7,0.1,3-0.5,4.1-1.8
		c2.8-3.6,3.2-7.6,1.6-11.7c-1.7-4.2-4.9-6.6-9.4-7.1c-8-0.9-16.1,4.5-18.3,12.2c-1.8,6.4,1.8,13.1,8.1,15
		c5.2,1.5,10.4,1.9,15.6,0.2c2.5-0.8,4.6-2.2,6.3-4.2c0.8-0.9,1.7-1,2.4-0.4c0.7,0.6,0.7,1.5-0.1,2.3c-2.8,3.3-6.4,5.1-10.5,5.9
		c-5.4,1-10.6,0.5-15.7-1.4c-8.4-3.2-12.1-13-7.7-21.3c3.3-6.2,8.3-10.3,15.4-11.3c6.8-1,12.6,1.4,16,7.2c3.1,5.2,2.5,12-1.3,16.6
		c-1.9,2.2-4.3,3.1-7.1,2.7C54.8,49.1,53.7,48.3,53,46.9z M42.7,41.3c0,3.5,1.5,5.3,4.1,5.2c1.5-0.1,2.9-0.6,4-1.6
		c1.8-1.7,3.3-3.6,3.4-6.2c0-0.5,0.2-1,0-1.4c-0.4-0.9-0.9-1.9-1.5-2.7c-1.2-1.5-3.3-1.9-5-1C44.5,35.5,43,38.4,42.7,41.3z"/>
</g>
</svg>
