<?xml version="1.0" encoding="utf-8"?>
<!-- Generator: Adobe Illustrator 26.2.1, SVG Export Plug-In . SVG Version: 6.00 Build 0)  -->
<svg version="1.1" id="Layer_1" xmlns="http://www.w3.org/2000/svg" xmlns:xlink="http://www.w3.org/1999/xlink" x="0px" y="0px"
	 viewBox="0 0 100 100" style="enable-background:new 0 0 100 100;" xml:space="preserve">
<style type="text/css">
	.st0{fill:#FFFFFF;stroke:#000000;stroke-miterlimit:10;}
	.st1{fill:#304789;}
	.st2{fill:#41E5D8;}
	.st3{fill:url(#SVGID_1_);}
	.st4{fill:url(#SVGID_00000069392854807005349800000018010500539816333956_);}
	.st5{fill:url(#SVGID_00000101782682377830937680000007192120607435000456_);}
	.st6{fill:url(#SVGID_00000110444440481020961690000013524975583202880161_);}
	.st7{fill:url(#SVGID_00000125566341975069666150000008372157749460087176_);}
	.st8{fill:url(#SVGID_00000057149022193604537190000007839275881387565464_);}
	.st9{fill:url(#SVGID_00000077321213086227574720000009269670195537812619_);}
	.st10{fill:url(#SVGID_00000151516317644532311710000008310196269859470994_);}
	.st11{fill:url(#SVGID_00000129203622530036097420000005931860417818801543_);}
	.st12{fill:url(#SVGID_00000084530959340012651780000004029595935629715107_);}
	.st13{fill:url(#SVGID_00000173160953740876376740000007808711821578597054_);}
	.st14{fill:url(#SVGID_00000115512503547543136950000015351329587358416821_);}
	.st15{fill:url(#SVGID_00000013185961539016467850000018431236046459457668_);}
	.st16{fill:url(#SVGID_00000122714685895959191820000001371407091145275788_);}
</style>
<g>
	<linearGradient id="SVGID_1_" gradientUnits="userSpaceOnUse" x1="93.7336" y1="84.8532" x2="6.9985" y2="12.6309">
		<stop  offset="0" style="stop-color:#845B77"/>
		<stop  offset="7.666349e-03" style="stop-color:#855B77"/>
		<stop  offset="0.3321" style="stop-color:#B6666D"/>
		<stop  offset="0.6172" style="stop-color:#D96E66"/>
		<stop  offset="0.8495" style="stop-color:#EF7362"/>
		<stop  offset="1" style="stop-color:#F77560"/>
	</linearGradient>
	<path class="st3" d="M4.3,50.7c0.3-1.8,0.5-3.7,0.9-5.5c1-5.2,3.1-9.9,6.1-14.3c0.7-1,1.4-1.3,2.1-0.8c0.7,0.5,0.8,1.3,0.1,2.3
		c-3.2,4.6-5.2,9.6-6.1,15.1c-1.6,10.5,0.8,20.1,7.3,28.5c5.5,7.1,12.7,11.8,21.6,13.5c13.8,2.7,25.6-1.2,35.1-11.5
		c5.3-5.8,8.3-12.7,9.2-20.5c0.3-2.4,0-4.8,0-7.2c-1.6,0.3-3.1,0.6-4.7,0.7c-2.7,0.3-5.3,0.1-8-0.5c-0.4-0.1-0.9,0.1-1.2,0.3
		c-1.7,1.3-3.3,2.6-5,3.9c-0.6,0.5-1.3,0.8-2.1,0.4c-0.8-0.4-1-1.1-0.9-1.9c0.2-1.9,0.4-3.8,0.6-5.7c0.1-0.6-0.1-0.8-0.5-1.2
		c-3.6-2.7-6.2-6.2-7-10.8c-1.2-6.2,1-11.4,5.4-15.7c0.2-0.2,0.4-0.4,0.6-0.5c0,0,0-0.1,0.1-0.3c-1.7-0.5-3.3-1.2-5-1.6
		C39.6,14.6,28,17.7,18.1,27c-0.2,0.1-0.3,0.3-0.5,0.4c-0.7,0.5-1.4,0.5-1.9,0c-0.5-0.5-0.5-1.3,0.1-1.9c1.4-1.3,2.8-2.7,4.4-3.8
		c12.3-8.8,25.5-10.3,39.6-4.7c0.6,0.2,1,0.2,1.6-0.1c8.3-4.3,16.6-4.3,24.9,0.2c0.4,0.2,0.7,0.4,1,0.7c0.5,0.5,0.6,1,0.2,1.6
		c-0.4,0.6-0.9,0.8-1.6,0.6c-0.3-0.1-0.5-0.3-0.8-0.4c-8-4.8-19.1-4-25.8,2.1c-3.5,3.1-5.4,7-5.1,11.8c0.4,4.8,2.9,8.4,6.7,11.1
		c1.1,0.8,1.4,1.5,1.2,2.8c-0.2,1.3-0.3,2.6-0.5,4.1c1-0.8,2-1.4,2.8-2.2c1.5-1.5,3-1.6,5.1-1.3c7.7,1.3,14.6-0.4,20-6.4
		c4.6-5.1,4.8-12.1,0.6-17.6c-0.8-1.1-0.9-1.9-0.2-2.4c0.7-0.6,1.5-0.3,2.4,0.8c5.6,7.4,4.3,17-3,23.2c-1.5,1.3-3.3,2.2-5,3.2
		c-0.7,0.4-0.9,0.7-0.8,1.4c0.7,8.2-1,15.9-5.2,23C71.5,84.3,61.7,91,48.8,92.6C28.9,95.2,10.4,82.5,5.5,63C5,61,4.8,58.8,4.5,56.7
		c0-0.3-0.1-0.6-0.2-0.9C4.3,54.1,4.3,52.4,4.3,50.7z"/>
	
		<linearGradient id="SVGID_00000087406317485411591660000008272927417394481596_" gradientUnits="userSpaceOnUse" x1="88.3837" y1="91.2781" x2="1.6486" y2="19.0558">
		<stop  offset="0" style="stop-color:#845B77"/>
		<stop  offset="7.666349e-03" style="stop-color:#855B77"/>
		<stop  offset="0.3321" style="stop-color:#B6666D"/>
		<stop  offset="0.6172" style="stop-color:#D96E66"/>
		<stop  offset="0.8495" style="stop-color:#EF7362"/>
		<stop  offset="1" style="stop-color:#F77560"/>
	</linearGradient>
	<path style="fill:url(#SVGID_00000087406317485411591660000008272927417394481596_);" d="M45.6,35.1c-0.1,1.4-0.2,2.9-0.4,4.3
		c-0.4,2.6-1.9,4.2-4.4,4.8c-0.7,0.2-1.1,0.6-1.3,1.3c-0.7,2.3-0.6,4.5,0,6.8c0.7,2.9,1.6,5.6,3.6,7.9c0.3,0.4,0.7,0.7,1,1
		c0.6,0.5,1.2,0.8,2,0.6c2.5-0.6,4.6,0.1,6.1,2.1c1.6,2,3.1,4.2,4.3,6.4c1.5,2.8,0.7,5.3-2.1,6.7c-4.2,2.2-8.5,2-12.8,0.1
		c-4.8-2.1-8-5.7-10.6-10.1c-4.1-7-6.2-14.6-6-22.8c0.1-4.7,1.4-8.9,4.6-12.4c2.7-3,6-4.6,10.1-4.6c3.4,0,5.4,1.9,5.7,5.3
		c0.1,0.9,0,1.7,0,2.6C45.6,35.1,45.6,35.1,45.6,35.1z M42.9,35.1C42.9,35.1,42.9,35.1,42.9,35.1c-0.1-0.8,0-1.6-0.1-2.4
		c-0.1-2-1-2.9-3-2.8c-3.2,0.1-5.8,1.3-7.9,3.6c-2.7,3-3.9,6.6-4,10.5c-0.3,8.1,1.9,15.6,6.1,22.5c2.4,3.8,5.4,6.9,9.7,8.5
		c3.1,1.1,6.2,1.2,9.3-0.2c1.9-0.9,2.2-1.9,1.2-3.6c-1.1-1.9-2.4-3.7-3.7-5.4c-1-1.4-2.4-1.8-4-1.3c-1.1,0.3-2,0.2-2.9-0.5
		c-0.9-0.7-1.9-1.5-2.6-2.4c-2.3-2.8-3.5-6.2-4.1-9.7c-0.5-2.5-0.5-5,0.4-7.5c0.5-1.4,1.4-2.4,2.9-2.7c1.7-0.3,2.4-1.3,2.5-3
		C42.8,37.5,42.9,36.3,42.9,35.1z"/>
	
		<linearGradient id="SVGID_00000013895866905195646150000001542163188675516290_" gradientUnits="userSpaceOnUse" x1="113.5381" y1="61.0691" x2="26.803" y2="-11.1532">
		<stop  offset="0" style="stop-color:#845B77"/>
		<stop  offset="7.666349e-03" style="stop-color:#855B77"/>
		<stop  offset="0.3321" style="stop-color:#B6666D"/>
		<stop  offset="0.6172" style="stop-color:#D96E66"/>
		<stop  offset="0.8495" style="stop-color:#EF7362"/>
		<stop  offset="1" style="stop-color:#F77560"/>
	</linearGradient>
	<path style="fill:url(#SVGID_00000013895866905195646150000001542163188675516290_);" d="M74.3,29.8c-2.9,0-5.8,0-8.7,0
		c-0.5,0-1.1-0.3-1.4-0.7c-0.2-0.3-0.2-1,0.1-1.3c0.3-0.4,0.9-0.6,1.4-0.6c3.4-0.1,6.8,0,10.2,0c2.4,0,4.8,0,7.1,0
		c1,0,1.6,0.5,1.6,1.3c0,0.8-0.6,1.3-1.7,1.3C80.1,29.8,77.2,29.8,74.3,29.8z"/>
	
		<linearGradient id="SVGID_00000142885749184467738810000015472879179342782882_" gradientUnits="userSpaceOnUse" x1="110.0287" y1="65.2837" x2="23.2936" y2="-6.9386">
		<stop  offset="0" style="stop-color:#845B77"/>
		<stop  offset="7.666349e-03" style="stop-color:#855B77"/>
		<stop  offset="0.3321" style="stop-color:#B6666D"/>
		<stop  offset="0.6172" style="stop-color:#D96E66"/>
		<stop  offset="0.8495" style="stop-color:#EF7362"/>
		<stop  offset="1" style="stop-color:#F77560"/>
	</linearGradient>
	<path style="fill:url(#SVGID_00000142885749184467738810000015472879179342782882_);" d="M74.4,34.2c2.9,0,5.8,0,8.6,0
		c1,0,1.6,0.4,1.6,1.1c0.1,0.8-0.2,1.3-1,1.5c-0.1,0-0.3,0.1-0.4,0.1c-5.9,0-11.9,0-17.8,0c-0.9,0-1.5-0.6-1.5-1.4
		c0-0.8,0.6-1.3,1.5-1.3C68.4,34.2,71.4,34.2,74.4,34.2C74.4,34.2,74.4,34.2,74.4,34.2z"/>
</g>
</svg>
