<?xml version="1.0" encoding="utf-8"?>
<!-- Generator: Adobe Illustrator 26.3.1, SVG Export Plug-In . SVG Version: 6.00 Build 0)  -->
<svg version="1.1" id="Layer_1" xmlns="http://www.w3.org/2000/svg" xmlns:xlink="http://www.w3.org/1999/xlink" x="0px" y="0px"
	 viewBox="0 0 530.1 596.1" style="enable-background:new 0 0 530.1 596.1;" xml:space="preserve">
<style type="text/css">
	.st0{fill:#D8D8D8;stroke:#41E09B;stroke-width:2;stroke-miterlimit:10;}
	.st1{fill:#C1C1C1;stroke:#41E09B;stroke-width:2;stroke-miterlimit:10;}
	.st2{fill:#D8D8D8;}
	.st3{fill:#18244C;}
	.st4{fill:#C1C1C1;}
</style>
<path class="st0" d="M50.7,23.2H472v34.6c0,0,5.3,28.2-2.1,43.6s-7.4,46.3-7.4,46.3s-8,31.9-8,42.5s6.4,64.3,5.3,77.1
	c-1.1,12.8,5.3,202.6,1.6,211.6c-3.7,9-2.7,36.2-2.7,44.7s8,23.9,6.4,35.1c-1.6,11.2-3.7,25.5-18.1,27.1s-313.3,5.8-358.5,0
	c0,0-22.9-3.2-23.4-27.7s5.3-23.4,5.8-58s-2.7-127.6-2.1-145.7c0.5-18.1,2.1-122.3,4.8-135.6c2.7-13.3,2.7-29.8-5.8-58
	S51.7,87.5,50.7,73.7s0-19.7,0-19.7V23.2z"/>
<rect x="52.6" y="22.6" class="st4" width="419" height="31.1"/>
<g>
	<path class="st3" d="M187.1,514.6v-7.8c0.1-0.1,0.7-0.4,2-1c1.3-0.6,2.9-1.4,4.9-2.5c2-1,4.1-2.3,6.2-3.7c2.2-1.5,4.2-3.1,6.1-4.8
		c1.9-1.7,3.3-3.6,4.3-5.6c1.1-2.3,1.4-4.3,1.1-6c-0.4-1.7-1.3-3-2.7-3.9c-1.4-0.9-3-1.4-4.7-1.4c-2.7,0-4.8,0.9-6.4,2.8
		c-1.5,1.9-2,4.8-1.4,8.8l-8.7-1.2c-0.5-3.8-0.1-7.1,1.4-9.9c1.4-2.7,3.5-4.8,6.4-6.2c2.8-1.4,6-2.1,9.7-2.1c2.8,0,5.4,0.5,7.7,1.6
		c2.3,1,4.2,2.5,5.6,4.3c1.4,1.8,2.3,4,2.5,6.4c0.2,2.4-0.3,4.9-1.6,7.6c-1.1,2.1-2.5,4-4.2,5.7c-1.7,1.7-3.5,3.2-5.5,4.5
		s-3.8,2.4-5.7,3.3c-1.8,0.9-3.5,1.6-4.8,2.1s-2.3,0.8-2.8,1h25.4v8H187.1z"/>
	<path class="st3" d="M246,515.4c-3.7,0-6.9-0.7-9.3-2s-4.4-3-5.7-5c-1.3-2-2.1-4-2.5-6l9.4-1.4c0.1,0.6,0.4,1.4,0.9,2.4
		c0.6,1,1.5,2,2.7,2.8c1.2,0.9,2.8,1.3,4.8,1.3c2.5,0,4.4-0.8,5.8-2.3c1.4-1.5,2.1-3.2,2.3-5c0.1-1.4-0.1-2.8-0.7-4.1
		c-0.5-1.3-1.4-2.4-2.7-3.2c-1.2-0.8-2.8-1.2-4.6-1.2c-1.7,0-3.1,0.3-4.1,1c-1,0.7-1.7,1.3-2.1,2c-0.4,0.7-0.7,1-0.7,1.1l-9.8-1.6
		l2.4-23.5h29.5v8h-22.9l-1.4,12.9c0.8-1.2,1.7-2.3,2.7-3.1c0.9-0.8,2.2-1.5,3.7-2.1c1.5-0.6,3.4-0.9,5.6-0.9c3.5,0,6.3,0.7,8.5,2.1
		c2.2,1.4,3.8,3.3,4.8,5.6c1,2.3,1.4,4.7,1.2,7.1c-0.2,2.5-1.1,4.9-2.5,7.2c-1.5,2.3-3.5,4.2-6,5.7
		C252.5,514.7,249.5,515.4,246,515.4z"/>
	<path class="st3" d="M279.3,514.6h-9.5v-43.9h9.5v25.6l11.8-14h11.5l-12.9,13.5l13.1,18.8h-11.2l-8.4-11.9l-3.8,4.1V514.6z"/>
	<path class="st3" d="M314.8,529.5v-8.9H328v-11.1h-0.2c-0.1,0.1-0.2,0.5-0.6,1.1c-0.3,0.6-0.9,1.3-1.7,2c-0.8,0.7-1.8,1.4-3.1,2
		c-1.3,0.6-2.9,0.9-4.8,0.9c-4.8,0-8.2-1.5-10.1-4.4s-2.9-6.9-2.9-11.9c0-5.2,1-9.3,3-12.2c2-2.9,5.3-4.4,10.1-4.4
		c2,0,3.7,0.3,5,0.9c1.3,0.6,2.3,1.4,3.1,2.2c0.8,0.8,1.3,1.6,1.6,2.2c0.3,0.7,0.5,1,0.5,1.1h0.2v-6.4h9.7V516c0,5.1-1,8.7-3,10.6
		c-2,2-5.1,2.9-9.2,2.9H314.8z M320.8,507.5c2.9,0,4.8-0.8,5.7-2.5c1-1.6,1.4-3.6,1.4-6c0-2.3-0.5-4.3-1.4-5.9
		c-0.9-1.6-2.8-2.5-5.6-2.5c-2,0-3.5,0.4-4.6,1.2c-1,0.8-1.7,1.8-2.1,3.1c-0.4,1.3-0.5,2.6-0.5,4c0,1.5,0.2,2.8,0.5,4.1
		c0.3,1.3,1,2.3,2,3.1C317.3,507.1,318.8,507.5,320.8,507.5z"/>
</g>
</svg>
