<?xml version="1.0" encoding="utf-8"?>
<!-- Generator: Adobe Illustrator 26.2.1, SVG Export Plug-In . SVG Version: 6.00 Build 0)  -->
<svg version="1.1" id="Layer_1" xmlns="http://www.w3.org/2000/svg" xmlns:xlink="http://www.w3.org/1999/xlink" x="0px" y="0px"
	 viewBox="0 0 420 420" style="enable-background:new 0 0 420 420;" xml:space="preserve">
<style type="text/css">
	.st0{fill:#FEF0EE;}
	.st1{fill:url(#SVGID_1_);}
	.st2{fill:url(#SVGID_00000136377976089408301960000012438927198381576092_);}
	.st3{fill:url(#SVGID_00000001626341819617641060000003381617686750825353_);}
	.st4{fill:url(#SVGID_00000127765583795160397090000003841416933358742428_);}
	.st5{fill:url(#SVGID_00000073719956112038988190000010492430654784211112_);}
	.st6{fill:url(#SVGID_00000142172210016125350200000006840897959485961652_);}
	.st7{fill:url(#SVGID_00000059297918370027980410000017705489801737866648_);}
	.st8{fill:url(#SVGID_00000076583355247752733650000009065797072135883684_);}
	.st9{fill:url(#SVGID_00000041995971284560556930000005209578910135017602_);}
	.st10{fill:url(#SVGID_00000075150551671555771840000013337927843405961631_);}
	.st11{fill:url(#SVGID_00000125596888738923213980000013962261296162748309_);}
	.st12{fill:url(#SVGID_00000041281975613393091600000005544918936774094218_);}
	.st13{fill:url(#SVGID_00000003076524888345053900000018256541524058573474_);}
	.st14{fill:url(#SVGID_00000044171377152749832520000003735454230228477594_);}
	.st15{fill:url(#SVGID_00000034079070247433106640000010677061928850750880_);}
	.st16{fill:url(#SVGID_00000088847120564753796390000002242389421338144660_);}
	.st17{fill:url(#SVGID_00000129901207627393908350000006826973413084726169_);}
	.st18{fill:url(#SVGID_00000069395045627896736710000003359039373049049224_);}
	.st19{fill:url(#SVGID_00000063596247805692270550000000034637019765405091_);}
	.st20{fill:url(#SVGID_00000150085893993351752670000018341373920939455361_);}
	.st21{fill:url(#SVGID_00000017476424872380838530000004277125591744123063_);}
	.st22{fill:url(#SVGID_00000118396902643057891740000016562492595269514884_);}
	.st23{fill:url(#SVGID_00000026843787346769654520000013104700458662745233_);}
	.st24{fill:url(#SVGID_00000057852746003624778930000017410220850327639986_);}
	.st25{fill:url(#SVGID_00000147194818305397463400000016255935550281691809_);}
	.st26{fill:url(#SVGID_00000129200031051287352890000008249001310659035562_);}
	.st27{fill:url(#SVGID_00000104666001424547500880000003601006506754717834_);}
	.st28{fill:url(#SVGID_00000147189675767925715140000012601738710656038053_);}
	.st29{fill:none;}
	.st30{fill:url(#SVGID_00000159448401151987682560000004960933358698215836_);}
	.st31{fill:url(#SVGID_00000039844938129262968200000015543267295838177691_);}
	.st32{fill:url(#SVGID_00000134958369843587764000000013191603767597436563_);}
	.st33{fill:url(#SVGID_00000131352760275846937750000005566091429805000892_);}
</style>
<circle class="st0" cx="209.8" cy="210" r="201.2"/>
<g>
	<path class="st29" d="M131.6,111.8c5.7,2.5,10.8,5.7,15.3,9.4C142.3,117.5,137.3,114.4,131.6,111.8
		C131.6,111.8,131.6,111.8,131.6,111.8z"/>
	<path class="st29" d="M128.4,110.3c0.5,0.3,1.1,0.5,1.6,0.8c0.3,0,0.6,0.1,0.9,0.1c-0.3-0.1-0.6-0.1-0.9-0.1
		C129.5,110.8,128.9,110.5,128.4,110.3z"/>
</g>
<g>
	<path class="st29" d="M131.6,111.8c5,2.2,9.5,4.9,13.6,8.1C141,116.7,136.5,114,131.6,111.8C131.6,111.8,131.6,111.8,131.6,111.8z"
		/>
	<path class="st29" d="M128.4,110.3c0.5,0.3,1.1,0.5,1.6,0.8c0.3,0,0.6,0.1,0.9,0.1c-0.3-0.1-0.6-0.1-0.9-0.1
		C129.5,110.8,128.9,110.5,128.4,110.3z"/>
	<path class="st29" d="M260.8,103.2c10.9-7.7,21.7-15.4,32.6-23c2-1.4,3.7-3.1,3.6-5.7c-0.1-4.5-5-6.8-9.1-4.1
		c-6,4-11.8,8.2-17.8,12.4c-12,8.4-24.1,16.8-36.1,25.2l9.9,6.9C249.5,110.9,255.2,107,260.8,103.2z"/>
</g>
<g>
	<path class="st29" d="M130.9,111.2c-0.3-0.1-0.6-0.1-0.9-0.1c-0.5-0.3-1.1-0.5-1.6-0.8c0.5,0.3,1.1,0.5,1.6,0.8
		C130.3,111.1,130.6,111.1,130.9,111.2z"/>
	<path class="st29" d="M145.1,119.9c-4.1-3.1-8.6-5.8-13.6-8.1c0,0,0,0,0,0C136.5,114,141,116.7,145.1,119.9z"/>
	<path class="st29" d="M260.8,103.2c10.9-7.7,21.7-15.4,32.6-23c2-1.4,3.7-3.1,3.6-5.7c-0.1-4.5-5-6.8-9.1-4.1
		c-6,4-11.8,8.2-17.8,12.4c-12,8.4-24.1,16.8-36.1,25.2l9.9,6.9C249.5,110.9,255.2,107,260.8,103.2z"/>
	<path class="st29" d="M241.4,211.4c10.9-7.7,21.7-15.4,32.6-23c2-1.4,3.7-3.1,3.6-5.7c-0.1-4.5-5-6.8-9.1-4.1
		c-6,4-11.8,8.2-17.8,12.4c-12,8.4-24.1,16.8-36.1,25.2l9.9,6.9C230.2,219.1,235.8,215.2,241.4,211.4z"/>
</g>
<g>
	<path class="st29" d="M160.6,148.3c-0.2-0.1-0.4-0.1-0.5-0.1c-0.3-0.2-0.7-0.3-1-0.5c0.3,0.2,0.7,0.3,1,0.5
		C160.3,148.3,160.4,148.3,160.6,148.3z"/>
	<path class="st29" d="M156.6,166.9c-2.5-1.7-5.6-0.3-5.7,2.6c-0.1,1.7,1,2.7,2.2,3.6c6.8,4.8,13.6,9.6,20.3,14.4
		c3.5,2.4,7,4.8,10.5,7.2l6.2-4.3c-7.5-5.2-15-10.5-22.5-15.7C164,172.1,160.4,169.4,156.6,166.9z"/>
	<path class="st29" d="M169.5,153.7c-2.5-2-5.4-3.6-8.5-5c0,0,0,0,0,0C164.2,150.1,167,151.8,169.5,153.7z"/>
	<path class="st29" d="M241.7,143.3c6.8-4.8,13.5-9.6,20.3-14.4c1.3-0.9,2.3-1.9,2.2-3.6c-0.1-2.8-3.1-4.3-5.7-2.6
		c-3.7,2.5-7.4,5.1-11.1,7.7c-7.5,5.3-15,10.5-22.5,15.7l6.2,4.3C234.7,148.1,238.2,145.7,241.7,143.3z"/>
	<path class="st29" d="M229.6,210.8c6.8-4.8,13.5-9.6,20.3-14.4c1.3-0.9,2.3-1.9,2.2-3.6c-0.1-2.8-3.1-4.3-5.7-2.6
		c-3.7,2.5-7.4,5.1-11.1,7.7c-7.5,5.3-15,10.5-22.5,15.7l6.2,4.3C222.6,215.7,226.1,213.3,229.6,210.8z"/>
	<linearGradient id="SVGID_1_" gradientUnits="userSpaceOnUse" x1="321.0135" y1="296.5999" x2="103.649" y2="79.9063">
		<stop  offset="0" style="stop-color:#845B77"/>
		<stop  offset="1" style="stop-color:#F77560"/>
	</linearGradient>
	<path class="st1" d="M226.2,154.4c1.3-1.1,2.6-1.7,4.4-1.7c7.9,0.1,15.9,0.1,23.8,0c3.7,0,7.5-0.1,11.1-0.9
		c26.1-5.2,43.9-26.8,44.1-53.5c0-3.3-0.4-6.1-3.3-8c-11.8,0-23.7,0-35.5,0c-0.2,0.7-0.9,0.5-1.4,0.5c-10.2,1.7-19.3,5.7-27.1,12.5
		c-2.2,1.9-2.5,3-1.2,5.7c-1.9,2.4-3.9,4.8-5.9,7.3c-3-0.6-3.8-0.3-5.2,2.4c-4.4,8.3-6.5,17.1-6.3,26.4c0,1.7-0.5,2.7-1.7,3.7
		c-12.4,10.4-19.9,23.6-22.2,39.7c-0.4,2.8-0.6,5.6-0.8,8.4c-1-1-1.9-2-2.9-2.6c-2-1.4-2.3-3.3-2.4-5.6c-0.1-14-5.1-26.1-14.9-36.1
		c-11.2-11.4-25-16.1-40.8-15.6c-3.3,0.1-4.1,0.6-5,3.7c-3,0-6,0-9.1-0.1c-0.9-2.9-1.8-3.6-4.8-3.6c-1,0-2,0-3,0
		c-3.5,0.1-5.5,2.1-5.5,5.6c-0.1,4.2,0.2,8.4,0.9,12.5c3.8,22.5,24.4,41.1,47.2,42.1c9.4,0.4,18.8,0.2,28.3,0.2
		c1.6,0,2.8,0.5,3.9,1.6c5.5,5.4,8.2,11.9,8.2,19.7c0,11.3,0,22.6,0,33.9c0,0.5,0.3,1.2-0.4,1.7c-0.7-0.7-1.4-1.5-2.2-2.1
		c-1.8-1.3-2.3-2.9-2.5-5.1c-0.9-13.1-9.7-23.8-22.3-27.1c-7.3-2-14.9-1.1-22.3-0.9c-2.7,0.1-4.2,2.2-4.3,4.9
		c-0.7,14.6,9.7,27.9,24,30.8c6,1.2,12.1,0.5,18.2,0.6c1.7,0,3,0.5,4.2,1.6c4.8,4.6,7.5,10.1,7.6,16.7c0.1,7.9,0,15.9,0.1,23.8
		c0,1.2-0.4,1.6-1.5,1.8c-3.2,0.6-6.3,1.7-9.1,3.5c-1.6,1-3.2,1.3-5.1,1.1c-12.2-1.2-23.4,8.6-23.9,20.7c-0.1,3.3,1.3,4.9,4.7,4.9
		c13.8,0,27.6,0,41.3,0c2.5,0,4-0.9,4.5-3.4c3.1,0,6.2,0,9.2,0c0.4,2.4,1.9,3.4,4.3,3.4c5.9,0,11.8,0,17.7,0c3.2,0,4.8-2,4.5-5.1
		c-1.1-9.7-8.7-16.2-18.5-15.9c-2.2,0.1-4.1-0.1-5.8-1.8c-3.8-3.8-8.4-6.3-13.8-7.3c-1.3-0.2-1.7-0.7-1.7-2.1
		c0.1-19.4,0-38.8,0.1-58.1c0-7.3,2.9-13.2,8.6-17.8c1-0.8,2-1.2,3.4-1.2c5.4,0.1,10.7,0,16.1,0c22.3,0,39.1-16.9,39-39.2
		c0-4-2-6-6-6c-5.9,0-11.8,0-17.7,0c-3,0-5.9,0.4-8.8,1.1c-17,4.3-28.3,18.6-29,36.5c0,0.8,0.3,1.8-0.4,2.5
		c-1.6,1.5-3.3,2.9-5.2,4.5c0-7.7-0.1-15,0-22.3C206.3,180,213,165.7,226.2,154.4z M247.5,130.5c3.7-2.6,7.3-5.2,11.1-7.7
		c2.5-1.7,5.6-0.3,5.7,2.6c0.1,1.7-1,2.7-2.2,3.6c-6.8,4.8-13.6,9.6-20.3,14.4c-3.5,2.4-2.5,1.5-6,3.9l-6.2-4.3
		C237,137.7,240,135.8,247.5,130.5z M169.5,153.7c0.4,0.3,0.7,0.6,1.1,0.9c0.9,0.8,1.8,1.6,2.7,2.5c-0.9-0.9-1.8-1.7-2.7-2.5
		C170.2,154.3,169.9,154,169.5,153.7c-2.5-2-5.4-3.6-8.5-5c0,0,0,0,0,0C164.2,150.1,167,151.8,169.5,153.7z M159.1,147.7
		c0.3,0.2,0.7,0.3,1,0.5c0.2,0,0.4,0,0.5,0.1c-0.2-0.1-0.4-0.1-0.5-0.1C159.7,148.1,159.4,147.9,159.1,147.7c-0.3-0.2-0.7-0.3-1-0.5
		C158.4,147.4,158.7,147.6,159.1,147.7z M179.8,191.7c-3.5-2.4-2.7-1.9-6.2-4.3c-6.8-4.8-13.5-9.6-20.3-14.4
		c-1.3-0.9-2.3-1.9-2.2-3.6c0.1-2.8,3.1-4.3,5.7-2.6c3.7,2.5,7.4,5.1,11.1,7.7c7.5,5.3,10.7,7.6,18.2,12.8L179.8,191.7z
		 M186.4,244.6C186.4,244.6,186.4,244.6,186.4,244.6C186.4,244.6,186.4,244.6,186.4,244.6z M181,250.1c-3.5-2.4-1.2-0.9-4.7-3.4
		c-6.8-4.8-13.5-9.6-20.3-14.4c-1.3-0.9-2.3-1.9-2.2-3.6c0.1-2.8,3.1-4.3,5.7-2.6c3.7,2.5,7.4,5.1,11.1,7.7
		c7.5,5.3,9.2,6.6,16.7,11.9L181,250.1z M235.5,198.1c3.7-2.6,7.3-5.2,11.1-7.7c2.5-1.7,5.6-0.3,5.7,2.6c0.1,1.7-1,2.7-2.2,3.6
		c-6.8,4.8-13.6,9.6-20.3,14.4c-3.5,2.4-1.9,1-5.4,3.4l-6.2-4.3C225.6,204.7,228,203.3,235.5,198.1z"/>
</g>
</svg>
