<?xml version="1.0" encoding="utf-8"?>
<!-- Generator: Adobe Illustrator 26.3.1, SVG Export Plug-In . SVG Version: 6.00 Build 0)  -->
<svg version="1.1" id="Layer_1" xmlns="http://www.w3.org/2000/svg" xmlns:xlink="http://www.w3.org/1999/xlink" x="0px" y="0px"
	 viewBox="0 0 400 400" style="enable-background:new 0 0 400 400;" xml:space="preserve">
<style type="text/css">
	.st0{fill:url(#SVGID_1_);}
	.st1{fill:none;stroke:url(#SVGID_00000058590807276065417250000000994713787837689514_);stroke-miterlimit:10;}
	.st2{fill:none;stroke:url(#SVGID_00000103969765525154711910000007829142246233745566_);stroke-miterlimit:10;}
	.st3{fill:url(#SVGID_00000178915441681960146710000016178558933447595152_);}
	.st4{fill:url(#SVGID_00000007419175568086967170000010998403601416295859_);}
	.st5{fill:url(#SVGID_00000150070731259933142770000014241782992824290952_);}
	.st6{fill:url(#SVGID_00000057142497948437173750000006968980845160879279_);}
	.st7{fill:url(#SVGID_00000149357313084224505180000015817710941721616567_);}
	.st8{fill:url(#SVGID_00000052074216989300161040000000623708120630814602_);}
	.st9{fill:url(#SVGID_00000054977898448140850260000007900043536000820404_);}
	.st10{fill:url(#SVGID_00000110460062296823922700000007875149760732542088_);}
	.st11{fill:url(#SVGID_00000125562842986410542930000004383142046410256822_);}
	.st12{fill:url(#SVGID_00000004535709859894785330000005277709423725944750_);}
	.st13{fill:url(#SVGID_00000062882554091492022820000015547853182982186662_);}
	.st14{fill:url(#SVGID_00000146497113477954770610000008729438402415639424_);}
	.st15{fill:url(#SVGID_00000097465288081749753070000012072091897860252858_);}
	.st16{fill:url(#SVGID_00000170277581671289328530000009337514250401729941_);}
	.st17{fill:url(#SVGID_00000049914281547682749110000005439034706867520656_);}
	.st18{fill:url(#SVGID_00000173156787328063878510000008350231247601790098_);}
	.st19{fill:url(#SVGID_00000170279934557189721770000017976251845990234531_);}
	.st20{fill:url(#SVGID_00000033347019900422019500000011430657907752375690_);}
	.st21{fill:url(#SVGID_00000016045580749094774490000017873253877747280012_);}
	.st22{fill:url(#SVGID_00000034782892863062276970000006142992055554192822_);}
	.st23{fill:url(#SVGID_00000021797977214510266440000002906789992735946417_);}
	.st24{fill:url(#SVGID_00000007397021197869974460000009144858621716077246_);}
	.st25{fill:url(#SVGID_00000088824340692224141710000002509535545950459793_);}
	.st26{fill:url(#SVGID_00000177460566482049310570000005551507106219437195_);}
	.st27{fill:url(#SVGID_00000036215007317696634160000004049584408348075684_);}
	.st28{fill:url(#SVGID_00000016773251724357053080000017230859615852834206_);}
	.st29{fill:url(#SVGID_00000013915396037891920670000001905957296515352727_);}
	.st30{fill:url(#SVGID_00000040534785631522497000000001484845867828613256_);}
	.st31{fill:url(#SVGID_00000181797427960716324690000000897684807200493469_);}
	.st32{fill:url(#SVGID_00000142177436981707939670000008944169615756332418_);}
	.st33{fill:url(#SVGID_00000038408213013283962890000011571661611771322260_);}
	.st34{fill:url(#SVGID_00000170248836224276003990000009729409454778956731_);}
	.st35{fill:url(#SVGID_00000017507284612219868440000011635762921065521578_);}
	.st36{fill:url(#SVGID_00000036223338363599040290000009140483165522855587_);}
	.st37{fill:url(#SVGID_00000019658372219666987150000015184679517171986563_);}
	.st38{fill:url(#SVGID_00000045614605204754581020000004326588191398305424_);}
	.st39{fill:url(#SVGID_00000183208455343245985180000014352528675269479848_);}
	.st40{fill:url(#SVGID_00000075873511551904841340000000397340010438255766_);}
	.st41{fill:url(#SVGID_00000156576986901976146030000014993225762471025845_);}
	.st42{fill:url(#SVGID_00000126323082593428105270000017950969144602045355_);}
	.st43{fill:url(#SVGID_00000178910727372774699530000012948852463587699375_);}
	.st44{fill:url(#SVGID_00000155830200668520201560000010451046062200582547_);}
	.st45{fill:url(#SVGID_00000009570839642781485740000014061718618514812331_);}
	.st46{fill:url(#SVGID_00000134971433059657050580000002080180747681427366_);}
	.st47{fill:url(#SVGID_00000034774887412497827780000012060522069493648569_);}
	.st48{fill:url(#SVGID_00000048495540463816550020000018053016767153452980_);}
	.st49{fill:url(#SVGID_00000042718387796097209670000001399620581223356303_);}
	.st50{fill:url(#SVGID_00000078732286091866324270000006464122495770023090_);}
	.st51{fill:url(#SVGID_00000016774714667287155060000016087916154931880119_);}
	.st52{fill:url(#SVGID_00000053529380200469951350000004775208187089784729_);}
	.st53{fill:url(#SVGID_00000046310855223349594980000010624103265042739095_);}
	.st54{fill:url(#SVGID_00000121277737193669365080000005631199621480836008_);}
	.st55{fill:url(#SVGID_00000142858359284395426630000011109714527392706182_);}
	.st56{fill:url(#SVGID_00000028296525256077652720000003581256139714669741_);}
	.st57{fill:url(#SVGID_00000026850808483421559410000007794224202143975064_);}
	.st58{fill:url(#SVGID_00000065783339136748478220000013511510954639588284_);}
	.st59{fill:url(#SVGID_00000114783101781387595430000014994633643511387299_);}
	.st60{fill:url(#SVGID_00000082350375111132048070000001587164140206983077_);}
	.st61{fill:url(#SVGID_00000053536145452457491040000014202519679357212350_);}
	.st62{fill:url(#SVGID_00000099634212547059858770000006478995862236498359_);}
	.st63{fill:url(#SVGID_00000055679015925573868590000002947454968971252376_);}
	.st64{fill:url(#SVGID_00000165197352288783783200000000520291277498052752_);}
	.st65{fill:url(#SVGID_00000105387913408614227380000015832559910624250290_);}
	.st66{fill:url(#SVGID_00000012432173281040724620000000348778735575954589_);}
	.st67{fill:url(#SVGID_00000109720057930816817590000006833459092705095568_);}
	.st68{fill:url(#SVGID_00000010307042223594190390000016789504913058902951_);}
	.st69{fill:url(#SVGID_00000007427582374649694590000007483380183713978293_);}
	.st70{fill:url(#SVGID_00000109021199514059251130000009168172589089985976_);}
	.st71{fill:url(#SVGID_00000115489165275097921380000012706938368400280974_);}
	.st72{fill:url(#SVGID_00000008854419829000909850000016307358611559014837_);}
	.st73{fill:url(#SVGID_00000048467960957205374030000016559817559706458545_);}
	.st74{fill:url(#SVGID_00000139251379480518323990000009690511275381571476_);}
	.st75{fill:url(#SVGID_00000008126184370768666200000007702039209512036790_);}
	.st76{fill:url(#SVGID_00000031167547349921452890000012136149347373401987_);}
	.st77{fill:url(#SVGID_00000082366007342883274760000000561410710425615281_);}
	.st78{fill:url(#SVGID_00000139981351884727336110000003740096287229299635_);}
	.st79{fill:url(#SVGID_00000074405054675351043030000007909323424010517640_);}
	.st80{fill:url(#SVGID_00000096054270195585325350000002451437172695504789_);}
	.st81{fill:url(#SVGID_00000181071536452144014430000003596226362219502509_);}
	.st82{fill:url(#SVGID_00000067949110135961406580000004205273274576739740_);}
	.st83{fill:url(#SVGID_00000075859366237746402640000008216105930631612339_);}
	.st84{fill:url(#SVGID_00000132792706323560403290000002273754972292132746_);}
	.st85{fill:url(#SVGID_00000071535191570804394260000015049276394589726874_);}
	.st86{fill:url(#SVGID_00000096743376251193840050000017351384550706728334_);}
	.st87{fill:url(#SVGID_00000003066534240498702890000016555360742336166542_);}
	.st88{fill:url(#SVGID_00000138550843893555674680000007686644451709962633_);}
	.st89{fill:url(#SVGID_00000093866590480302241800000005874010703010330516_);}
	.st90{fill:url(#SVGID_00000139990619574634719430000006529988328797442701_);}
	.st91{fill:url(#SVGID_00000131357037268548128640000014774440342253479090_);}
	.st92{fill:url(#SVGID_00000096745098167817154270000007818229365586790535_);}
	.st93{fill:url(#SVGID_00000035512525926767482930000016170940895246561927_);}
	.st94{fill:url(#SVGID_00000131347019587426701670000006772275255500114604_);}
	.st95{fill:url(#SVGID_00000171701985145089325980000003333617963690781354_);}
	.st96{fill:url(#SVGID_00000078755824014038938370000009561249655974371263_);}
	.st97{fill:url(#SVGID_00000008118099253870074610000010533814648209162641_);}
	.st98{fill:url(#SVGID_00000107578905046225082010000011066863249542407313_);}
	.st99{fill:url(#SVGID_00000094584824137570374500000005074280348965896593_);}
	.st100{fill:url(#SVGID_00000144306833006644838450000018440175760362808488_);}
	.st101{fill:url(#SVGID_00000083048298807018326590000012748409643167233165_);}
	.st102{fill:url(#SVGID_00000139268763021295812400000006769138596068252551_);}
	.st103{fill:url(#SVGID_00000124151209464994984080000016823903140019950011_);}
	.st104{fill:url(#SVGID_00000026146613390598109150000018292966814386482321_);}
	.st105{fill:url(#SVGID_00000182528701152544107160000016818658217345074600_);}
	.st106{fill:url(#SVGID_00000075875937722043915920000015391023052536350623_);}
	.st107{fill:url(#SVGID_00000178917426450440097700000009615153805100426668_);}
	.st108{fill:url(#SVGID_00000031186077474112183120000017344491426015250090_);}
	.st109{fill:url(#SVGID_00000067217140415099857240000014650129410744423601_);}
	.st110{fill:url(#SVGID_00000044894820006452776880000012445907990357441425_);}
	.st111{fill:url(#SVGID_00000170259792918211886350000005205433622171893665_);}
	.st112{fill:url(#SVGID_00000038401672103597887790000015430643612449305780_);}
	.st113{fill:url(#SVGID_00000055676588998844264850000012829033927313988994_);}
</style>
<linearGradient id="SVGID_1_" gradientUnits="userSpaceOnUse" x1="-61.6109" y1="137.97" x2="353.5486" y2="493.2308">
	<stop  offset="0" style="stop-color:#F77560"/>
	<stop  offset="1" style="stop-color:#845B77"/>
</linearGradient>
<path class="st0" d="M137,244.2c3.8,1.3,7.2,2.4,10.9,3.6c-11.5,34.6-23,68.9-34.5,103.6c-3.6-1.2-7-2.3-10.9-3.6
	C114,313.4,125.4,279.1,137,244.2z"/>
<linearGradient id="SVGID_00000119099893298990450790000005854223846493085570_" gradientUnits="userSpaceOnUse" x1="-68.1693" y1="145.6341" x2="346.9902" y2="500.895">
	<stop  offset="0" style="stop-color:#F77560"/>
	<stop  offset="1" style="stop-color:#845B77"/>
</linearGradient>
<path style="fill:url(#SVGID_00000119099893298990450790000005854223846493085570_);" d="M113.6,286.4c0,9.5-7.9,17.4-17.4,17.3
	c-9.4-0.1-17.1-7.9-17.1-17.3c0-9.5,7.9-17.3,17.4-17.3C105.9,269.3,113.6,277,113.6,286.4z M96.5,292.2c3.1-0.1,5.7-2.7,5.6-5.8
	c-0.1-3.1-2.7-5.7-5.8-5.6c-3.1,0.1-5.7,2.7-5.6,5.8C90.7,289.6,93.4,292.2,96.5,292.2z"/>
<linearGradient id="SVGID_00000034091312493878959760000012843307711893977255_" gradientUnits="userSpaceOnUse" x1="-55.2079" y1="130.4873" x2="359.9516" y2="485.7481">
	<stop  offset="0" style="stop-color:#F77560"/>
	<stop  offset="1" style="stop-color:#845B77"/>
</linearGradient>
<path style="fill:url(#SVGID_00000034091312493878959760000012843307711893977255_);" d="M154,326.7c-9.5,0.1-17.4-7.8-17.4-17.3
	c0-9.4,7.7-17.1,17.1-17.2c9.6-0.1,17.4,7.8,17.4,17.3C171.2,318.9,163.4,326.7,154,326.7z M153.8,303.7c-3.1,0.1-5.7,2.8-5.6,5.9
	c0.1,3.1,2.8,5.7,5.9,5.6c3.1-0.1,5.7-2.8,5.6-5.9C159.6,306.2,156.9,303.6,153.8,303.7z"/>
<linearGradient id="SVGID_00000068651785292361619670000013784132996486312620_" gradientUnits="userSpaceOnUse" x1="-30.8044" y1="101.9693" x2="384.3551" y2="457.2302">
	<stop  offset="0" style="stop-color:#F77560"/>
	<stop  offset="1" style="stop-color:#845B77"/>
</linearGradient>
<path style="fill:url(#SVGID_00000068651785292361619670000013784132996486312620_);" d="M27.3,178.6L27.3,178.6
	c-3.1,0-5.6-2.5-5.6-5.6v-45.3h11.2v45.3C32.9,176.1,30.4,178.6,27.3,178.6z"/>
<g>
	
		<linearGradient id="SVGID_00000070806837034734145700000005573029283434372515_" gradientUnits="userSpaceOnUse" x1="43.6597" y1="14.9503" x2="458.8192" y2="370.2111">
		<stop  offset="0" style="stop-color:#F77560"/>
		<stop  offset="1" style="stop-color:#845B77"/>
	</linearGradient>
	<path style="fill:url(#SVGID_00000070806837034734145700000005573029283434372515_);" d="M230.1,178.6l4.5-4.5
		C232.4,175.4,231,176.9,230.1,178.6z"/>
	
		<linearGradient id="SVGID_00000143581115986324920330000016037045579250737802_" gradientUnits="userSpaceOnUse" x1="45.5926" y1="12.6914" x2="460.752" y2="367.9523">
		<stop  offset="0" style="stop-color:#F77560"/>
		<stop  offset="1" style="stop-color:#845B77"/>
	</linearGradient>
	<path style="fill:url(#SVGID_00000143581115986324920330000016037045579250737802_);" d="M234.6,174.2l4.2,4.2
		C237.8,176.7,236.3,175.4,234.6,174.2z"/>
	
		<linearGradient id="SVGID_00000094599394224791438750000012279078600674707081_" gradientUnits="userSpaceOnUse" x1="-49.4912" y1="123.8068" x2="365.6683" y2="479.0677">
		<stop  offset="0" style="stop-color:#F77560"/>
		<stop  offset="1" style="stop-color:#845B77"/>
	</linearGradient>
	<path style="fill:url(#SVGID_00000094599394224791438750000012279078600674707081_);" d="M228.8,366.9c3.9,0,7.5,0,11.5,0
		c0,0,0,0,0,0L228.8,366.9C228.8,366.8,228.8,366.8,228.8,366.9z"/>
	
		<linearGradient id="SVGID_00000079465264051559984330000017689443177838621059_" gradientUnits="userSpaceOnUse" x1="-10.612" y1="78.3724" x2="404.5474" y2="433.6333">
		<stop  offset="0" style="stop-color:#F77560"/>
		<stop  offset="1" style="stop-color:#845B77"/>
	</linearGradient>
	<path style="fill:url(#SVGID_00000079465264051559984330000017689443177838621059_);" d="M320.9,366.9c4,0,7.5,0,11.3,0
		c0,0,0,0,0,0L320.9,366.9C320.9,366.8,320.9,366.9,320.9,366.9z"/>
	
		<linearGradient id="SVGID_00000168833684926463053980000001909614352866884537_" gradientUnits="userSpaceOnUse" x1="-30.0616" y1="101.1013" x2="385.0978" y2="456.3622">
		<stop  offset="0" style="stop-color:#F77560"/>
		<stop  offset="1" style="stop-color:#845B77"/>
	</linearGradient>
	<path style="fill:url(#SVGID_00000168833684926463053980000001909614352866884537_);" d="M274.8,366.8c4.1,0,7.6,0,11.3,0
		c0,0,0,0,0,0L274.8,366.8C274.8,366.8,274.8,366.8,274.8,366.8z"/>
	
		<linearGradient id="SVGID_00000108997629650340443580000001123925786133570236_" gradientUnits="userSpaceOnUse" x1="-39.7686" y1="112.4449" x2="375.3909" y2="467.7057">
		<stop  offset="0" style="stop-color:#F77560"/>
		<stop  offset="1" style="stop-color:#845B77"/>
	</linearGradient>
	<path style="fill:url(#SVGID_00000108997629650340443580000001123925786133570236_);" d="M252,366.8c3.7,0,7.3,0,11.1,0
		c0,0,0,0,0,0L252,366.8C252,366.8,252,366.8,252,366.8z"/>
	
		<linearGradient id="SVGID_00000023966215421863347980000013815299069665944242_" gradientUnits="userSpaceOnUse" x1="44.2568" y1="14.2525" x2="459.4163" y2="369.5133">
		<stop  offset="0" style="stop-color:#F77560"/>
		<stop  offset="1" style="stop-color:#845B77"/>
	</linearGradient>
	<path style="fill:url(#SVGID_00000023966215421863347980000013815299069665944242_);" d="M252,191.1c0,0.1,0,0.2,0,0.2l10.8,10.7
		C259.4,198.5,255.9,195.1,252,191.1z"/>
	
		<linearGradient id="SVGID_00000074401124373781685280000013568192510082370180_" gradientUnits="userSpaceOnUse" x1="26.0249" y1="35.5583" x2="441.1844" y2="390.8192">
		<stop  offset="0" style="stop-color:#F77560"/>
		<stop  offset="1" style="stop-color:#845B77"/>
	</linearGradient>
	<path style="fill:url(#SVGID_00000074401124373781685280000013568192510082370180_);" d="M217,191.8c-2.6,2.6-5.2,5.2-7.7,7.7
		L217,191.8C217,191.8,217,191.8,217,191.8z"/>
	
		<linearGradient id="SVGID_00000129176240778022848930000007788933882257714100_" gradientUnits="userSpaceOnUse" x1="0.2183" y1="65.716" x2="415.3778" y2="420.9769">
		<stop  offset="0" style="stop-color:#F77560"/>
		<stop  offset="1" style="stop-color:#845B77"/>
	</linearGradient>
	<path style="fill:url(#SVGID_00000129176240778022848930000007788933882257714100_);" d="M332.1,366.8
		C332.1,366.8,332.1,366.9,332.1,366.8c-3.7,0-7.3,0-11.3,0c0,0,0,0,0,0h-11.7c-3.7,0-7.3,0-11.3,0h-11.7c0,0,0,0,0,0
		c-3.7,0-7.3,0-11.3,0c0,0,0,0,0,0h-11.8c0,0,0,0,0,0c-3.8,0-7.4,0-11.1,0c0,0,0,0,0,0h-11.7c0,0,0,0,0,0c-4,0-7.6,0-11.5,0
		c0,0,0,0,0,0h-16l0,0c-14.2,0-28.5,0-43.2,0c22.8-15.7,35.6-36.9,36.1-64.5c0.4-27.6-12.1-48.9-33.7-65.6
		c12.6-12.5,24.9-24.8,37.3-37.2l0,0c2.6-2.6,5.2-5.2,7.7-7.7c0,0,0,0,0,0l13.1-13.1c0.9-1.7,2.3-3.2,4.5-4.5
		c1.7,1.3,3.2,2.5,4.2,4.2l13.1,13c0-0.1,0-0.2,0-0.2c3.9,3.9,7.4,7.4,10.8,10.9l92.7-96.9v31.3h11.2V85.2h-51.3v11.5h32.1
		c-28.3,30-56.2,59.5-84.6,89.5c-9.6-9.7-19-19.2-28.6-28.8c-12,12-23.8,23.8-35.5,35.6c-11.8,11.9-23.7,23.7-35.7,35.7
		c-2.6-2.3-4.9-4.4-7.2-6.5c6.7-9,13.3-17.7,19.8-26.4c2.9-3.8,5.9-7.6,8.6-11.6c6.9-10.1,4.8-23.5-4.7-31c-9.7-7.7-20-6.6-29.2,3.2
		c-0.2,0.3-0.5,0.5-0.7,0.8c-3.4,3.5-5.6,3.4-9.2,0c-2.7-2.6-5.8-5-8.6-7.5c-0.5-0.5-1.1-1.3-1.1-2c-0.1-7.4,0-14.8,0-22.5
		c3.4,0,6.5,0.1,9.6,0c5-0.2,10.1,0.1,15-0.8c21.8-3.9,35.6-24.6,32.4-45.2c-8.9,0-17.9,0.1-26.9,0c-10.8-0.1-20.2,3.3-28.3,10.4
		c-0.5,0.4-1.1,0.6-1.9,1.1c0-3.8,0.1-7.1,0-10.5c-0.1-2,0.6-3.1,2.4-4.2C143,70.1,149,59.5,148,48.1c-1.1-12.8-8.1-21.6-20.3-25.8
		c-1.7-0.6-3.5-0.6-5.1,0c-11.9,4.2-18.9,12.6-20.2,25.1c-1.3,12.5,4,22.1,14.7,28.7c0.9,0.6,2.2,1.5,2.2,2.4
		c0.2,6.3,0.1,12.6,0.1,18.8c-0.5,0.1-0.6,0.2-0.7,0.1c-0.5-0.5-1.1-1-1.6-1.5c-8.6-9.2-19.1-15.2-31.6-16.1
		c-11-0.8-22-0.4-33.1-0.6c-0.7,0-1.3,0.2-2,0.3c-1.9,26.2,13.5,49,38.2,55.3c7.2,1.8,14.9,1.4,22.4,2c2.7,0.2,5.4,0,8.2,0
		c0,2.7-0.1,4.9,0,7c0.3,3.4,0,6.2-3.8,7.8c-1.9,0.8-3.3,2.8-4.7,4.3c-5.1,5.4-6.7,5.4-11.8-0.1c-0.8-0.9-1.6-1.8-2.5-2.6
		c-4.1-3.9-9-5.4-14.5-4.7c-17.3,2.3-25.9,21.7-15.9,36.1c4.7,6.7,9.7,13.1,14.6,19.6c4.5,6,9,12,13.6,18.1
		c-8.9,8-17.7,15.5-26.1,23.5c-30,28.4-31.6,76.8-3.6,107c4.7,5.1,10.3,9.4,15.4,14.1H32.9V197.3c0-3.1-2.5-5.6-5.6-5.6
		s-5.6,2.5-5.6,5.6v180.9h356.5v-11.3c-11.5,0-22.8,0-34.4,0c0,0,0-0.1,0-0.1H332.1z M138,100.6c4.8-5.5,11-9,18.3-9.6
		c6.5-0.5,13.1-0.1,19.7-0.1c-1.5,11.7-12.7,21.8-25.4,22.7c-6.2,0.4-12.4,0.1-19,0.1C132.5,108.6,134.8,104.3,138,100.6z
		 M89.3,123.1c-13.9-5-22.7-14.7-26.4-29c-0.3-1-0.3-2.1-0.5-3.5c10.1,0.4,19.9-1.2,29.5,2.2c13.9,5,22.7,14.7,26.4,29
		c0.3,1,0.3,2.1,0.5,3.5C108.7,124.9,98.9,126.5,89.3,123.1z M122.3,34.9c2-1.2,3.6-1.3,5.6,0c5.6,3.7,8.4,8.9,8.8,15.6
		c-0.4,6.7-3.1,12.1-9,15.4c-1.3,0.8-3.8,0.8-5.2,0C110.8,59.2,110.8,42,122.3,34.9z M75.8,178.4c-4.8-6.5-2.3-15,4.9-17.9
		c3.5-1.4,6.3-0.7,9.1,2.1c2.9,2.9,6.1,6,9.8,7.6c6.7,2.8,13.1,0.8,17.9-4.7c7-8,8.7-7.3,15.4,0c7.2,7.9,17.5,7.7,25,0
		c0.5-0.5,1-1,1.5-1.6c4.4-4.7,6.9-5.3,11.5-2.8c4.6,2.5,7.2,7.8,5.7,12.7c-0.5,1.8-1.4,3.6-2.5,5.1c-9,12.1-18,24.2-27.2,36.2
		c-0.9,1.2-2.9,2-4.4,2.1c-5.7,0.2-11.5,0.1-17.3,0.1c-5.9,0-11.7,0.1-17.6-0.1c-1.3,0-3.1-0.8-3.8-1.8
		C94.3,203.2,85,190.9,75.8,178.4z M78.8,350.9c-29.3-25.2-30.4-70.8-2.2-97.3c8.5-7.9,17.3-15.6,26.1-23.2c1-0.9,2.7-1.5,4.1-1.5
		c6.2-0.2,12.5-0.1,18.7-0.1c6,0,12-0.1,18,0.1c1.5,0,3.3,0.7,4.4,1.7c8.3,7.2,16.8,14.4,24.7,22c19.9,19.1,26.7,42.3,18.3,68.5
		c-8.4,26-27.1,41.4-54.3,45.1C115.4,369.3,95.6,365.4,78.8,350.9z"/>
	
		<linearGradient id="SVGID_00000062168533325931254290000006314024686752537245_" gradientUnits="userSpaceOnUse" x1="1.1316" y1="64.6487" x2="416.2911" y2="419.9095">
		<stop  offset="0" style="stop-color:#F77560"/>
		<stop  offset="1" style="stop-color:#845B77"/>
	</linearGradient>
	<path style="fill:url(#SVGID_00000062168533325931254290000006314024686752537245_);" d="M292.2,257.2h-0.4c-3.1,0-5.6,2.5-5.6,5.6
		v104h11.7c0-1.3,0-2.5,0-3.8c0-12.8,0-87.4,0-100.2C297.8,259.7,295.3,257.2,292.2,257.2z"/>
	
		<linearGradient id="SVGID_00000035504312364675564990000018313829662535225515_" gradientUnits="userSpaceOnUse" x1="-4.3792" y1="71.0887" x2="410.7803" y2="426.3495">
		<stop  offset="0" style="stop-color:#F77560"/>
		<stop  offset="1" style="stop-color:#845B77"/>
	</linearGradient>
	<path style="fill:url(#SVGID_00000035504312364675564990000018313829662535225515_);" d="M315.2,319h-0.4c-3.1,0-5.6,2.5-5.6,5.6
		v42.2h11.7c0-1.5,0-2.9,0-4.3c0-12.7,0-25.3,0-38C320.9,321.5,318.3,319,315.2,319z"/>
	
		<linearGradient id="SVGID_00000117669183545235595670000003150705389480057730_" gradientUnits="userSpaceOnUse" x1="74.9886" y1="-21.6609" x2="490.1481" y2="333.5999">
		<stop  offset="0" style="stop-color:#F77560"/>
		<stop  offset="1" style="stop-color:#845B77"/>
	</linearGradient>
	<path style="fill:url(#SVGID_00000117669183545235595670000003150705389480057730_);" d="M263.3,204.4c0,11.4,0,22.8,0,34.1
		c0,3.1,2.5,5.6,5.6,5.6h0.2c3.1,0,5.6-2.5,5.6-5.6c0-14.8,0-29.7,0-44.5c0-2.6,0.7-4.5,2.6-6.3c2.9-2.8,5.6-5.8,8.8-9.2v60
		c0,3.1,2.5,5.6,5.6,5.6h0.4c3.1,0,5.6-2.5,5.6-5.6c0-23,0-46,0-69.1c0-2.5,0.7-4.3,2.4-6c2.9-2.8,5.6-5.9,9-9.3v135.1
		c0,3.1,2.5,5.6,5.6,5.6h0.4c3.1,0,5.6-2.5,5.6-5.6c0-30.9,0-112.6-0.1-143.5c0-2.8,0.6-5,2.7-7c2.9-2.7,5.4-5.6,8.6-9v108.7
		c0,3.1,2.5,5.6,5.6,5.6h0.5c3.1,0,5.6-2.5,5.6-5.6c0-39.2,0-78.5,0-117.7c0-1.4-0.1-3.2,0.7-4.1c3.2-3.8,6.7-7.3,10.9-11.6
		l-92.7,96.9C263.2,202.6,263.3,203.6,263.3,204.4z"/>
	
		<linearGradient id="SVGID_00000067211159843027803140000001911515282740150687_" gradientUnits="userSpaceOnUse" x1="17.6371" y1="45.3603" x2="432.7966" y2="400.6212">
		<stop  offset="0" style="stop-color:#F77560"/>
		<stop  offset="1" style="stop-color:#845B77"/>
	</linearGradient>
	<path style="fill:url(#SVGID_00000067211159843027803140000001911515282740150687_);" d="M332.1,366.8h11.8c0-4.3,0-8.2,0-12.1
		c0-10,0-69.9,0-79.9c0-3.1-2.5-5.6-5.6-5.6h-0.5c-3.1,0-5.6,2.5-5.6,5.6V366.8z"/>
	
		<linearGradient id="SVGID_00000137823916919953744640000009668589661049555605_" gradientUnits="userSpaceOnUse" x1="-13.0229" y1="81.1898" x2="402.1365" y2="436.4507">
		<stop  offset="0" style="stop-color:#F77560"/>
		<stop  offset="1" style="stop-color:#845B77"/>
	</linearGradient>
	<path style="fill:url(#SVGID_00000137823916919953744640000009668589661049555605_);" d="M269.2,275.1h-0.3c-3.1,0-5.6,2.5-5.6,5.6
		c0,13.7,0,71.2,0,84.9c0,0.3-0.1,0.7-0.2,1.3h11.8c0-1.3,0-2.5,0-3.8c0-12.8,0-69.5,0-82.3C274.8,277.6,272.3,275.1,269.2,275.1z"
		/>
</g>
</svg>
