<?xml version="1.0" encoding="UTF-8"?><svg id="Layer_1" xmlns="http://www.w3.org/2000/svg" xmlns:xlink="http://www.w3.org/1999/xlink" viewBox="0 0 400 400"><defs><style>.cls-1{fill:url(#linear-gradient-2);}.cls-2{fill:none;}.cls-3{fill:url(#linear-gradient);}</style><linearGradient id="linear-gradient" x1="-25.72" y1="39.56" x2="363.29" y2="430.73" gradientTransform="matrix(1, 0, 0, 1, 0, 0)" gradientUnits="userSpaceOnUse"><stop offset=".28" stop-color="#f77560"/><stop offset="1" stop-color="#845b77"/></linearGradient><linearGradient id="linear-gradient-2" x1="85.86" y1="-71.4" x2="474.87" y2="319.76" gradientTransform="matrix(1, 0, 0, 1, 0, 0)" gradientUnits="userSpaceOnUse"><stop offset="0" stop-color="#f77560"/><stop offset=".16" stop-color="#db6e65"/><stop offset=".41" stop-color="#b5666d"/><stop offset=".64" stop-color="#9a6072"/><stop offset=".84" stop-color="#895c75"/><stop offset="1" stop-color="#845b77"/></linearGradient></defs><path class="cls-2" d="M116.13,122c5.24,.03,10.49,0,16.11,0-7.25-9.49-17.19-11.76-28-10.41-15.78,1.97-25.61,11.89-32.43,25.9,4.35,1.04,8.32,2.07,12.32,2.94,10.21,2.2,20.39,4.81,30.98,3.98,7.1-.56,12.78-3.44,16.87-11.18-5.91,0-10.96,.03-16.02,0-5.82-.04-8.45-1.76-8.53-5.52-.08-3.9,2.74-5.74,8.69-5.71Z"/><path class="cls-2" d="M217.6,148.95c8.94-5.36,17.89-10.71,26.89-15.99,1.15-.68,2.53-1.11,3.86-1.32,2.94-.48,5.24,.63,6.2,3.53,.93,2.8,.09,5.2-2.54,6.72-1.07,.62-2.28,.99-3.42,1.47-9.94,4.17-18.99,9.74-27.1,16.89,7.54,7.79,15.05,9.34,24.05,4.26,5.16-2.91,10.01-6.55,14.54-10.4,9.11-7.75,17.9-15.88,26.84-23.82,1.73-1.53,3.58-2.93,5.93-4.83-20.84-9.21-41.2-12.76-62.12-2.76-6.41,3.06-11.75,7.53-15.16,13.94-2.44,4.58-3.1,9.33-1.1,14.66,1.2-.9,2.11-1.73,3.14-2.34Z"/><path class="cls-2" d="M328.68,342.68c-4.43-.33-6.43-2.45-6.31-6.65,.4-13.86-6.29-21.11-20.16-21.86-7.53-.41-9.04-2.32-7.58-9.57,1.5-7.47-2.47-14.74-9.86-16.55-3.73-.91-7.87-.47-11.78-.15-2.65,.21-4.97,.28-6.78-1.94-1.56-1.91-3.21-3.66-4.94-5.3-5.66,5.66-11.32,11.32-16.98,16.98-2.56,2.56-5.05,5.21-7.73,7.64-2.44,2.21-5.32,2.13-7.49,.08-2.19-2.06-2.24-5.23-.11-7.8,.38-.46,.82-.88,1.25-1.31,7.46-7.46,14.92-14.92,22.38-22.37-6.66-4.26-14.11-7.2-22.02-9.23-7.98-2.05-16.24-3.01-24.92-4.56,0,4.77,.1,8.36-.04,11.95-.09,2.28,.61,3.06,3.04,3.53,6.08,1.17,12.17,2.56,18.01,4.57,4.01,1.38,5.12,5.05,3.43,8.14-1.65,3.02-4.45,3.28-8.43,1.91-5.04-1.74-10.32-2.8-15.76-4.22v20.84c8.35-.55,15.8,1.77,22.52,6.07,8.38,5.36,16.96,6.62,26.32,2.91,3.73-1.48,6.83,.09,7.87,3.33,.97,3.03-.62,5.95-4.25,7.16-3.63,1.21-7.37,2.11-11.34,3.22,2.33,6.24,6.42,10.68,12.94,11.62,4.44,.64,9.12,.02,13.65-.47,3.99-.43,6.81,.86,7.59,4.2,.73,3.12-1.17,5.8-4.84,6.82-19.32,5.34-34.73-2.74-41.06-21.46-.29-.86-.78-1.96-1.5-2.32-5.43-2.78-10.81-5.72-16.46-7.95-3.53-1.39-7.51-1.62-11.69-2.46,0,5.75,0,10.36,0,14.97,0,6.61,.12,13.23-.07,19.83-.13,4.7-4.3,7.62-7.79,5.33-1.65-1.08-3.02-3.67-3.2-5.69-.45-5.03-.15-10.12-.15-15.53-5.18,1.27-8.45,4.25-11.01,7.97-7.28,10.58-18.13,13.35-29.98,13.92-3.28,.16-5.64-2.07-5.91-5.05-.29-3.25,1.65-5.57,5.18-6.07,1.97-.28,3.97-.43,5.95-.66,6.18-.73,11.55-2.91,15.27-8.27,4.49-6.47,10.53-10.85,18.08-13.2,.9-.28,2.25-1.24,2.27-1.92,.16-7.42,.1-14.85,.1-22.35-6.21-.89-11.39,.36-16.19,3.41-3.36,2.14-6.83,4.13-10.1,6.39-1.53,1.06-3.18,2.37-3.97,3.97-5.28,10.63-14.84,15.01-25.53,17.67-2.86,.71-5.16-.81-6.05-3.73-.94-3.07,.17-5.47,3.08-6.75,3.07-1.35,6.36-2.22,9.36-3.69,2.33-1.14,4.36-2.89,6.8-4.56-4.97-1.5-9.22-2.53-13.27-4.09-2.88-1.11-4.05-3.61-3.07-6.74,.93-2.96,3.69-4.4,6.8-3.64,.72,.18,1.44,.41,2.14,.68,9.19,3.67,17.66,2.91,25.6-3.48,5.68-4.57,12.43-6.76,19.75-7.05,1.45-.06,2.9,0,4.48,0v-28.46c-4.55,.46-8.9,.63-13.15,1.38-18.15,3.21-35,9.11-47.3,23.92-1.83,2.2-4.14,2.27-6.79,1.89-3.06-.44-6.22-.8-9.27-.48-8.54,.9-14.09,8.82-12.39,17.21,1.47,7.27-.02,9.17-7.57,9.58-.87,.05-1.75,.07-2.61,.18-11.71,1.39-18.26,9.17-17.63,20.94,.27,5.06-1.54,7.1-6.6,7.41-15.76,.97-29.15,14.24-30.51,30.48H359.59c-1.42-16.42-14.54-29.26-30.91-30.49Z"/><path class="cls-3" d="M370.73,370.52c-2.87-19.02-16.02-33.58-34.76-38.2-2.42-.6-2.38-2.1-2.65-3.8-1.92-12.34-9.02-20.19-20.81-23.92-1.99-.63-4.06-1.02-6.16-1.54-.07-1.18-.12-2.16-.2-3.15-.9-10.79-7.74-19.87-17.82-22.61-4.12-1.12-8.61-.8-12.92-1.28-1.37-.15-3.09-.36-3.95-1.23-.72-.73-1.46-1.43-2.21-2.12,7.23-7.21,14.46-14.42,21.73-21.59,1.37-1.35,3.2-2.16,5.13-2.23,7.64-.25,15.3-.08,22.95-.13,1.69-.01,2.78,.21,3.54,2.14,4.32,10.9,13.11,16.72,23.99,16.16,10.36-.53,18.37-7.41,21.76-18.68l.35-1.15c.13-.43,.24-1.14,.24-1.59v-2.48c0-2.38-.37-4.75-1.11-7.02-2.4-7.43-7.7-13.02-14.72-15.45v12.23c3.13,2.37,4.89,6.1,4.91,10.25,.03,5.47-3.42,10.5-8.6,12.28-8.7,2.99-17.1-3.52-17.32-11.94-.11-3.98,1.77-7.69,4.71-10.16v-12.53c-6.18,2.3-11.36,7.17-13.77,13.64-1.07,2.87-2.46,3.49-5.22,3.44-8.33-.16-16.66,.01-24.99-.1-2.85-.04-5.05,.8-7.09,2.85-8.36,8.4-16.73,16.78-25.11,25.16-12.3-8.44-26.45-12.81-41.57-15.08-4.38-.66-8.8-.98-13.41-1.48,0-2.89,0-5.37,0-7.85,.01-18.84-.24-22.64-3.14-41.34-1.86-12.01,2.97-22.13,10.65-31.31,.88,.62,1.53,1.18,2.28,1.58,4.78,2.6,9.33,5.95,14.42,7.57,8.41,2.68,16.44-.14,23.39-4.87,7.29-4.96,14.05-10.71,20.91-16.29,10.81-8.81,21.45-17.82,32.27-26.62,3.95-3.22,3.84-7.54-.81-10.27-18.11-10.67-37.46-16.29-58.62-13.51-14.77,1.94-28,7.4-37.62,19.35-7.83,9.72-9.81,20.48-4.41,32.16,.36,.78,.67,2.08,.29,2.64-3.27,4.79-6.7,9.48-9.91,13.95-3.41-6.09-7.08-12.27-10.38-18.65-2.62-5.06-5.31-10.19-7.01-15.6-2.59-8.21-3.24-16.76-2.32-24.98,4.74,0,9.09,.14,13.42-.02,15.59-.58,27.44-7.48,34.91-21.31,2.18-4.04,4.43-8.22,5.55-12.62,4.62-18.22,8.88-36.53,13.12-54.84,.87-3.75-.69-6.01-4.47-6.98-23.44-6-45.73-3.12-66.71,9.03-3.77,2.18-4.71,5.45-2.8,8.41,1.8,2.78,5,3.3,8.54,1.18,13.15-7.87,27.49-10.81,42.63-10.28,3.51,.12,7.01,.81,10.59,1.24-2.28,10.83-4.39,20.95-6.55,31.06-.65,3.04-1.41,6.07-2.23,9.07-2.21,8.08-4.84,15.98-9.78,22.9-7.28,10.2-23.38,15.27-34.37,10.82,.65-9.59,7.55-26.87,14.82-37.09,2.69-3.78,2.57-7.11-.34-9.19-2.96-2.11-6.35-1.47-8.69,2.73-4.48,8.01-8.68,16.21-12.41,24.59-2.19,4.92-3.24,10.34-4.81,15.57-10.22-4.99-15.43-15.37-12.76-26.58,1.25-5.26,3.55-10.32,5.83-15.27,2.06-4.48,1.91-7.72-1.24-9.45-3.14-1.72-6.38-.43-8.64,3.99-2.14,4.2-4.24,8.5-5.65,12.98-6.1,19.38,.76,35.71,18.68,45.27,.86,.46,2.03,1.44,2.05,2.21,.16,6.65,.09,13.31,.09,19.46-5.87-2.24-11.91-4.47-17.86-6.9-.91-.37-1.84-1.52-2.12-2.5-1.73-6.14-5.2-11.05-10.33-14.71-11.18-7.98-23.68-9.77-36.72-6.51-20.32,5.08-31.72,19.56-38.61,38.32-1.31,3.56,.69,6.5,4.69,7.48,4.23,1.04,8.5,1.95,12.76,2.89,12.77,2.8,25.45,6.28,38.73,5.52,9.25-.53,17.28-3.71,23.16-11.16,2.05-2.6,3.73-5.5,5.61-8.32,8.55,2.2,16.01,6.13,21.93,12.82,12.86,14.51,21.25,31.26,25.11,50.23,1.19,5.85,1.84,11.81,2.81,18.14-5.13-3.51-9.56-6.48-13.89-9.58-.65-.46-1.28-1.58-1.21-2.33,1.18-14.31-6.4-23.5-18.13-29.58-16.35-8.47-33.09-8-49.71-.35-3.81,1.75-5.14,4.65-3.8,7.73,1.42,3.24,4.47,3.92,8.59,2.44,4.55-1.64,9.15-3.53,13.89-4.17,12.37-1.67,23.9,.57,33.19,9.72,2.76,2.72,4.74,5.98,4.53,10.46-3.22-1-6.11-2.2-9.12-2.79-8.66-1.7-17.34-3.33-26.07-4.64-3.73-.56-6.35,1.77-6.66,4.99-.29,3.06,1.85,5.53,5.34,6,1.97,.27,3.98,.31,5.96,.54,9.31,1.07,18.35,3.17,27.02,6.75-.12,.48-.13,.73-.25,.93-.18,.32-.42,.61-.64,.91-5.35,7.3-13.04,10.37-21.55,9.88-10.4-.59-20.76-2.27-31.06-3.97-7.16-1.18-14.19-3.2-22.07-5.03,3.45-5.41,6.46-10.26,9.61-15.02,2.25-3.39,2.16-6.61-.49-8.62-2.65-2.01-6.33-1.58-8.37,1.85-4.57,7.67-8.89,15.51-12.85,23.52-1.93,3.9,.11,7.24,4.34,8.15,14.98,3.22,29.92,6.61,44.99,9.33,6.19,1.12,12.68,1.19,18.99,.86,12.88-.67,23.08-6.49,29.99-17.91,12.04,7.81,22.04,1.26,20.29,17.34-.52,4.75-.08,9.61-.08,14.35-6.49,.83-12.46,1.3-18.32,2.39-17.08,3.16-32.88,9.25-45.61,21.56-2.36,2.28-4.52,3.16-7.79,2.96-12.15-.75-22,4.63-26.34,14.57-1.66,3.8-2.22,8.08-3.41,12.59,.26-.13-.05,.12-.4,.18-14.88,2.82-24.11,11.15-26.22,26.61-.12,.85-1.43,2.01-2.35,2.2-19.43,3.93-34.55,22.55-35.44,44.66-.14,3.48,.75,6.09,3.81,7.82H367.65c3.05-1.74,4.25-4.35,3.76-7.82-.3-2.09-.37-4.22-.69-6.31ZM215.56,136.64c3.41-6.41,8.75-10.87,15.16-13.94,20.92-10,41.28-6.45,62.12,2.76-2.34,1.9-4.2,3.3-5.93,4.83-8.95,7.94-17.73,16.07-26.84,23.82-4.53,3.85-9.37,7.49-14.54,10.4-8.99,5.07-16.5,3.53-24.05-4.26,8.11-7.15,17.16-12.72,27.1-16.89,1.15-.48,2.36-.85,3.42-1.47,2.63-1.53,3.46-3.93,2.54-6.72-.96-2.9-3.26-4.01-6.2-3.53-1.33,.22-2.71,.65-3.86,1.32-8.99,5.28-17.94,10.63-26.89,15.99-1.03,.62-1.94,1.44-3.14,2.34-2.01-5.33-1.34-10.08,1.1-14.66Zm-99.59-3.41c5.06,.03,10.11,0,16.02,0-4.09,7.74-9.77,10.62-16.87,11.18-10.6,.83-20.77-1.78-30.98-3.98-4-.86-7.97-1.89-12.32-2.94,6.81-14,16.65-23.93,32.43-25.9,10.81-1.35,20.74,.92,28,10.41-5.62,0-10.87,.02-16.11,0-5.95-.03-8.77,1.81-8.69,5.71,.08,3.75,2.72,5.48,8.53,5.52ZM40.36,373.17c1.36-16.24,14.75-29.51,30.51-30.48,5.06-.31,6.88-2.35,6.6-7.41-.63-11.77,5.91-19.55,17.63-20.94,.87-.1,1.74-.13,2.61-.18,7.54-.41,9.04-2.3,7.57-9.58-1.7-8.39,3.85-16.31,12.39-17.21,3.04-.32,6.21,.04,9.27,.48,2.65,.38,4.97,.31,6.79-1.89,12.31-14.81,29.15-20.72,47.3-23.92,4.24-.75,8.59-.92,13.15-1.38v28.46c-1.58,0-3.03-.05-4.48,0-7.31,.29-14.07,2.48-19.75,7.05-7.94,6.39-16.41,7.14-25.6,3.48-.69-.28-1.41-.51-2.14-.68-3.12-.76-5.87,.68-6.8,3.64-.98,3.12,.19,5.62,3.07,6.74,4.05,1.56,8.3,2.59,13.27,4.09-2.44,1.67-4.47,3.42-6.8,4.56-3,1.47-6.3,2.34-9.36,3.69-2.91,1.28-4.02,3.69-3.08,6.75,.9,2.92,3.19,4.44,6.05,3.73,10.68-2.66,20.24-7.04,25.53-17.67,.79-1.6,2.44-2.91,3.97-3.97,3.27-2.27,6.74-4.26,10.1-6.39,4.81-3.05,9.98-4.3,16.19-3.41,0,7.5,.06,14.93-.1,22.35-.01,.67-1.37,1.64-2.27,1.92-7.55,2.35-13.59,6.73-18.08,13.2-3.72,5.36-9.09,7.53-15.27,8.27-1.98,.24-3.98,.38-5.95,.66-3.53,.51-5.47,2.83-5.18,6.07,.27,2.98,2.63,5.2,5.91,5.05,11.85-.57,22.71-3.34,29.98-13.92,2.56-3.72,5.83-6.71,11.01-7.97,0,5.41-.3,10.5,.15,15.53,.18,2.02,1.56,4.61,3.2,5.69,3.5,2.29,7.66-.62,7.79-5.33,.19-6.61,.06-13.22,.07-19.83,0-4.61,0-9.22,0-14.97,4.18,.83,8.16,1.07,11.69,2.46,5.66,2.23,11.03,5.17,16.46,7.95,.72,.37,1.21,1.46,1.5,2.32,6.33,18.73,21.74,26.8,41.06,21.46,3.66-1.01,5.57-3.7,4.84-6.82-.78-3.34-3.6-4.63-7.59-4.2-4.53,.49-9.21,1.11-13.65,.47-6.52-.94-10.61-5.38-12.94-11.62,3.98-1.12,7.71-2.02,11.34-3.22,3.63-1.21,5.23-4.12,4.25-7.16-1.04-3.23-4.14-4.81-7.87-3.33-9.36,3.71-17.93,2.45-26.32-2.91-6.72-4.3-14.17-6.61-22.52-6.07v-20.84c5.44,1.42,10.71,2.48,15.76,4.22,3.99,1.37,6.79,1.11,8.43-1.91,1.69-3.09,.58-6.76-3.43-8.14-5.84-2.01-11.93-3.4-18.01-4.57-2.42-.47-3.12-1.24-3.04-3.53,.14-3.59,.04-7.19,.04-11.95,8.68,1.55,16.94,2.51,24.92,4.56,7.92,2.03,15.36,4.97,22.02,9.23-7.46,7.46-14.92,14.91-22.38,22.37-.43,.43-.86,.85-1.25,1.31-2.13,2.57-2.07,5.74,.11,7.8,2.17,2.05,5.06,2.13,7.49-.08,2.68-2.43,5.16-5.08,7.73-7.64,5.66-5.66,11.32-11.32,16.98-16.98,1.73,1.64,3.38,3.39,4.94,5.3,1.81,2.21,4.13,2.15,6.78,1.94,3.91-.32,8.06-.76,11.78,.15,7.39,1.81,11.36,9.08,9.86,16.55-1.46,7.25,.05,9.16,7.58,9.57,13.87,.76,20.55,8.01,20.16,21.86-.12,4.2,1.89,6.32,6.31,6.65,16.37,1.23,29.49,14.07,30.91,30.49H40.36Z"/><path class="cls-1" d="M327.77,173.86c3.95-3.94,7.89-7.89,11.84-11.84,0,21.21-.01,58.85,.01,66.61,.01,4.02,1.99,6.39,5.24,6.47,3.31,.08,5.63-2.47,5.64-6.58,.03-11.71,.04-40.62,.03-66.5,3.94,3.93,7.86,7.88,11.81,11.81,2.99,2.98,6.22,3.17,8.61,.75,2.39-2.42,2.07-5.44-.98-8.52-5.72-5.75-11.46-11.47-17.19-17.2-.75-.75-1.49-1.49-2.24-2.24-.52-.52-1.04-1.04-1.56-1.56-.78-.78-1.56-1.56-2.34-2.34-.87-.87-2.29-.86-3.16,.02-1.28,1.3-2.57,2.59-3.87,3.88-.75,.75-1.5,1.49-2.24,2.24-5.79,5.79-11.59,11.57-17.36,17.38-2.83,2.85-3.11,5.93-.87,8.28,2.29,2.4,5.73,2.23,8.64-.66Z"/></svg>