<?xml version="1.0" encoding="utf-8"?>
<!-- Generator: Adobe Illustrator 26.3.1, SVG Export Plug-In . SVG Version: 6.00 Build 0)  -->
<svg version="1.1" id="Layer_1" xmlns="http://www.w3.org/2000/svg" xmlns:xlink="http://www.w3.org/1999/xlink" x="0px" y="0px"
	 viewBox="0 0 400 400" style="enable-background:new 0 0 400 400;" xml:space="preserve">
<style type="text/css">
	.st0{fill:url(#SVGID_1_);}
	.st1{fill:none;stroke:url(#SVGID_00000048482370445993648240000008359903543740993469_);stroke-miterlimit:10;}
	.st2{fill:none;stroke:url(#SVGID_00000008870804196394569400000006672501231728699830_);stroke-miterlimit:10;}
	.st3{fill:url(#SVGID_00000095300639129046887480000016052392026506627738_);}
	.st4{fill:url(#SVGID_00000023969118871417509800000007110655602201712062_);}
	.st5{fill:url(#SVGID_00000158029434819811719890000010128438130186802070_);}
	.st6{fill:url(#SVGID_00000080916291418910231460000010850863742999238302_);}
	.st7{fill:url(#SVGID_00000083064070524129803990000010122963904315888063_);}
	.st8{fill:url(#SVGID_00000084488956273679532530000004970760554152431524_);}
	.st9{fill:url(#SVGID_00000016032947023066057230000006014728236573854613_);}
	.st10{fill:url(#SVGID_00000149363315786118528590000003816936452610946437_);}
	.st11{fill:url(#SVGID_00000123403056982315746730000005000447932894836396_);}
	.st12{fill:url(#SVGID_00000143604007459521750590000003771563714198127279_);}
	.st13{fill:url(#SVGID_00000153701955054793569880000000557030500454896271_);}
	.st14{fill:url(#SVGID_00000068639261766444543930000018214332384652959873_);}
	.st15{fill:url(#SVGID_00000036948359562524209140000009071389071674218673_);}
	.st16{fill:url(#SVGID_00000103236178952050434340000009291379984805702292_);}
	.st17{fill:url(#SVGID_00000095310485445960447200000012488231716360308631_);}
	.st18{fill:url(#SVGID_00000002382875016205394650000016583631238278291903_);}
	.st19{fill:url(#SVGID_00000135674331656762445770000017881308834429268904_);}
	.st20{fill:url(#SVGID_00000025426451852668269210000015833377561790340245_);}
	.st21{fill:url(#SVGID_00000152957057025954673780000007530956717616065466_);}
	.st22{fill:url(#SVGID_00000011714405626848616340000017292877508419586481_);}
	.st23{fill:url(#SVGID_00000096781941304748971420000000660180997639450271_);}
	.st24{fill:url(#SVGID_00000006680656559309216640000010051560496348244411_);}
	.st25{fill:url(#SVGID_00000173872057093724324810000011935559953512384168_);}
	.st26{fill:url(#SVGID_00000054252695762868289760000014829061103328978832_);}
	.st27{fill:url(#SVGID_00000102542619795096878680000014353588929834380221_);}
	.st28{fill:url(#SVGID_00000091704244081048825310000010649084411008461738_);}
	.st29{fill:url(#SVGID_00000070825439335254637850000008469358765202976438_);}
	.st30{fill:url(#SVGID_00000125591883291870421980000013189077332877420176_);}
	.st31{fill:url(#SVGID_00000010995685668679234170000010435928127307122837_);}
	.st32{fill:url(#SVGID_00000029765023083179012580000011866678646652387715_);}
	.st33{fill:url(#SVGID_00000173841646783607367770000008624934007197225625_);}
	.st34{fill:url(#SVGID_00000119096070643797930580000009539201613762245283_);}
	.st35{fill:url(#SVGID_00000003814657513309321080000010120669834046849972_);}
	.st36{fill:url(#SVGID_00000047782011900917631300000008123328378871603108_);}
	.st37{fill:url(#SVGID_00000074401562803791764840000015562911538310028735_);}
	.st38{fill:url(#SVGID_00000152260615040136775300000015301739808849478045_);}
	.st39{fill:url(#SVGID_00000168102192294340768550000018286742851367729569_);}
	.st40{fill:url(#SVGID_00000022557657652215906720000014928051777687807635_);}
	.st41{fill:url(#SVGID_00000044166325777111920260000017181409673387946397_);}
	.st42{fill:url(#SVGID_00000167380610054001581020000000087277130176007054_);}
	.st43{fill:url(#SVGID_00000046324600279478359580000013431669048760127142_);}
	.st44{fill:url(#SVGID_00000093176166941752872490000014516369552365887144_);}
	.st45{fill:url(#SVGID_00000131331075169992416830000011330652709022891161_);}
	.st46{fill:url(#SVGID_00000070825085547696601970000013068795339619877260_);}
	.st47{fill:url(#SVGID_00000137820128146608917200000009964934475801514938_);}
	.st48{fill:url(#SVGID_00000044146052302172456820000008605270697014357664_);}
	.st49{fill:url(#SVGID_00000145044222913518099710000015765046332644887689_);}
	.st50{fill:url(#SVGID_00000147913729615757179390000014920220364894100364_);}
	.st51{fill:url(#SVGID_00000087406958577180854250000004139923870519867034_);}
	.st52{fill:url(#SVGID_00000079477511653932275280000014610342077757612964_);}
	.st53{fill:url(#SVGID_00000040541878895976850510000000728052902333733283_);}
	.st54{fill:url(#SVGID_00000026149903290119946730000009478749717028298414_);}
	.st55{fill:url(#SVGID_00000085225444683063620410000012504686111916519314_);}
	.st56{fill:url(#SVGID_00000119822742447027824660000013868775419715467441_);}
	.st57{fill:url(#SVGID_00000119835617929677928320000011923090226907116175_);}
	.st58{fill:url(#SVGID_00000042016656018078393180000015245659759118905741_);}
	.st59{fill:url(#SVGID_00000105428924676327544970000000984472586190285979_);}
	.st60{fill:url(#SVGID_00000071544661632978025810000000004358709310602883_);}
	.st61{fill:url(#SVGID_00000149361193853781152080000001462179339451701901_);}
	.st62{fill:url(#SVGID_00000033361461975636732440000006743277639784085133_);}
	.st63{fill:url(#SVGID_00000147925489978050551510000012505398786149955479_);}
	.st64{fill:url(#SVGID_00000011744955860497670170000014573643158274945695_);}
	.st65{fill:url(#SVGID_00000061431156330873237550000008384019074868558248_);}
	.st66{fill:url(#SVGID_00000110465790845191284510000013351300410575910283_);}
	.st67{fill:url(#SVGID_00000072964690519233254930000013856334620358750399_);}
	.st68{fill:url(#SVGID_00000056429443533875152670000018298657988631643310_);}
	.st69{fill:url(#SVGID_00000105422687087730469980000003207386272861497020_);}
	.st70{fill:url(#SVGID_00000134959104589426355120000013753647462425330616_);}
	.st71{fill:url(#SVGID_00000148623619588368301170000007533919530994225541_);}
	.st72{fill:url(#SVGID_00000153676494626413969870000005229549281812037800_);}
	.st73{fill:url(#SVGID_00000183244593090319423420000008995681261695610284_);}
	.st74{fill:url(#SVGID_00000183960249108598877120000002548019698558119815_);}
	.st75{fill:url(#SVGID_00000093866839067930834480000009984359393025939368_);}
	.st76{fill:url(#SVGID_00000054228218027360887270000010270273541433379478_);}
	.st77{fill:url(#SVGID_00000105395443644692892250000006674803698498020490_);}
	.st78{fill:url(#SVGID_00000042736533997844756140000009884811532503725207_);}
	.st79{fill:url(#SVGID_00000183946802852239925170000011574454901623112578_);}
	.st80{fill:url(#SVGID_00000119089931857528888180000011016818592444876474_);}
	.st81{fill:url(#SVGID_00000180365892806593318810000003038924482889719207_);}
	.st82{fill:url(#SVGID_00000094619629470379822020000016351372139425352581_);}
	.st83{fill:url(#SVGID_00000152256579155860200340000001853344138180724642_);}
	.st84{fill:url(#SVGID_00000020384452262025505940000001942397937942676628_);}
	.st85{fill:url(#SVGID_00000072996649479755132090000018348132821169949856_);}
	.st86{fill:url(#SVGID_00000130609990991849636690000008533141102152245661_);}
	.st87{fill:url(#SVGID_00000056408960338185490210000008254621364244846764_);}
	.st88{fill:url(#SVGID_00000133526612889013823240000018386567522425446791_);}
	.st89{fill:url(#SVGID_00000178904140863988215970000012152976187452488611_);}
	.st90{fill:url(#SVGID_00000130613761714382638930000010839548682864426425_);}
	.st91{fill:url(#SVGID_00000099624040798478720300000017134294973264772260_);}
	.st92{fill:url(#SVGID_00000168116711268391578780000008141425039937834685_);}
	.st93{fill:url(#SVGID_00000105411469938085133530000005779426832790746781_);}
	.st94{fill:url(#SVGID_00000039097605512374521000000008785172181574294181_);}
	.st95{fill:url(#SVGID_00000059269562161533765180000007311892243161676683_);}
	.st96{fill:url(#SVGID_00000066494001092248168370000018095896206515720120_);}
	.st97{fill:url(#SVGID_00000034068036770933125560000006521167720886600635_);}
	.st98{fill:url(#SVGID_00000166675739322349342260000005794979718338027659_);}
	.st99{fill:url(#SVGID_00000052797774837780968690000000672995136480642704_);}
	.st100{fill:url(#SVGID_00000161612604062499752570000011201959110646383004_);}
	.st101{fill:url(#SVGID_00000012445701058960284630000013229148519685665410_);}
	.st102{fill:url(#SVGID_00000094576447769160518450000011315194034515075214_);}
	.st103{fill:url(#SVGID_00000164516301768354316940000000704852185379716533_);}
	.st104{fill:url(#SVGID_00000064343032849525981050000013657724486656267397_);}
	.st105{fill:url(#SVGID_00000155839335778933402990000003848783372043390367_);}
	.st106{fill:url(#SVGID_00000140702796717193109970000014002865216494864555_);}
	.st107{fill:url(#SVGID_00000007390883174094247660000007414443558057803432_);}
	.st108{fill:url(#SVGID_00000175288407020280013230000017236062777523834815_);}
	.st109{fill:url(#SVGID_00000010281850255458153320000011614665478599274913_);}
	.st110{fill:url(#SVGID_00000007394021616173526510000000105760824625457537_);}
	.st111{fill:url(#SVGID_00000121242255118324782490000017699404357149841310_);}
	.st112{fill:url(#SVGID_00000108989529095617792480000005293456193724291968_);}
	.st113{fill:url(#SVGID_00000150098892521854927130000011342749065454281900_);}
	.st114{fill:url(#SVGID_00000057848079325076477540000013108418440782487449_);}
	.st115{fill:url(#SVGID_00000131327382430466871030000006790356032143041421_);}
	.st116{fill:url(#SVGID_00000089558778129189970000000006232496492760851361_);}
	.st117{fill:url(#SVGID_00000129200270340662038130000013588301512170110627_);}
	.st118{fill:url(#SVGID_00000011740955503857122640000011003045942860445596_);}
	.st119{fill:url(#SVGID_00000107566159490503426850000007159395662324718216_);}
	.st120{fill:url(#SVGID_00000165917420669326718450000012012026181258934681_);}
	.st121{fill:url(#SVGID_00000162348447827899415290000015651509285409764029_);}
	.st122{fill:url(#SVGID_00000043451096242583949910000005320264432840290216_);}
	.st123{fill:url(#SVGID_00000077304664837505443280000011952038472776628914_);}
	.st124{fill:url(#SVGID_00000042012828951376553910000017235700060727272382_);}
	.st125{fill:url(#SVGID_00000090286941299433737950000003758766474874790589_);}
	.st126{fill:url(#SVGID_00000054235817631198266590000003971473992716441508_);}
	.st127{fill:url(#SVGID_00000051360053467526186950000000947150919649790358_);}
	.st128{fill:url(#SVGID_00000089555064819306727430000001633952734115451036_);}
	.st129{fill:url(#SVGID_00000109027027756467142560000007902699632710992037_);}
	.st130{fill:url(#SVGID_00000094605357070745841910000010506277053437668016_);}
	.st131{fill:url(#SVGID_00000101803179367506012570000015383993259794718341_);}
	.st132{fill:url(#SVGID_00000135666813875505312440000015738489567864551602_);}
	.st133{fill:url(#SVGID_00000157291486697523823190000010513111729674482845_);}
	.st134{fill:url(#SVGID_00000055706900739882688460000017401113447975487123_);}
	.st135{fill:url(#SVGID_00000004516311577971205020000012992696748315586461_);}
	.st136{fill:url(#SVGID_00000135655536433862277170000005776542129218846597_);}
	.st137{fill:url(#SVGID_00000072993119987832568090000005211567909070806967_);}
	.st138{fill:url(#SVGID_00000183935435560155492950000013193755330200106416_);}
	.st139{fill:url(#SVGID_00000140715537334870826200000001174021107178589080_);}
	.st140{fill:url(#SVGID_00000000926775869510555600000016441428373309483700_);}
	.st141{fill:url(#SVGID_00000100360996801532062370000014288997417364973205_);}
	.st142{fill:url(#SVGID_00000178166388638032291840000004128342697857523840_);}
	.st143{fill:url(#SVGID_00000161605992806790051220000014932264161339135120_);}
	.st144{fill:url(#SVGID_00000129205750473007597010000015522670638712174233_);}
	.st145{fill:url(#SVGID_00000039136208040726231850000005822309520718043065_);}
	.st146{fill:url(#SVGID_00000180367900353587571000000014061126297303355062_);}
	.st147{fill:url(#SVGID_00000098928198801755460740000003780282907789355141_);}
	.st148{fill:url(#SVGID_00000064333222044484697260000010070987389032601500_);}
	.st149{fill:url(#SVGID_00000107583281321504687880000015752769608539700610_);}
	.st150{fill:url(#SVGID_00000023263088244814093730000012400230273780001684_);}
	.st151{fill:url(#SVGID_00000070107713891383886690000007788278554555143834_);}
</style>
<g>
	<linearGradient id="SVGID_1_" gradientUnits="userSpaceOnUse" x1="-1.9421" y1="40.6" x2="372.028" y2="389.8538">
		<stop  offset="0" style="stop-color:#F77560"/>
		<stop  offset="1" style="stop-color:#845B77"/>
	</linearGradient>
	<path class="st0" d="M382.7,328.3c-0.6,0.7-1.1,1.9-1.8,2.1c-4.5,1.3-3.5,4.8-3.5,8c0,3.9,0,7.8,0,11.7c-0.1,4.9-1.8,6.6-6.7,6.6
		c-6.7,0-13.5,0-20.2,0c-0.2,0-0.5,0.1-0.8,0.2c-0.8,2.9-2.2,5.5-5.9,5.4c-3.2-0.2-4.7-2.4-5.3-5.4c-6.9,0-13.7,0-20.7,0
		c-0.8,2.9-2.3,6-5.8,5.3c-2.3-0.5-4.2-2.9-6.3-4.4c0.2-0.3,0.4-0.6,0.6-0.9c-6.7,0-13.4,0-20.4,0c-0.9,2.8-2.2,5.6-5.8,5.5
		c-3.4-0.1-4.9-2.4-5.5-5.5c-7,0-13.8,0-20.8,0c-0.7,3-2.1,5.4-5.6,5.5c-3.4,0-4.9-2.4-5.6-5.5c-6.9,0-13.7,0-20.7,0
		c-0.8,3-2.2,5.6-5.9,5.4c-3.2-0.2-4.7-2.3-5.3-5.4c-6.9,0-13.7,0-20.7,0c-0.8,2.9-2.2,5.5-5.8,5.4c-3.4-0.1-4.7-2.6-5.5-5.5
		c-6.9,0-13.6,0-20.5,0c-0.9,3-2.3,5.7-6.1,5.5c-3.2-0.2-4.6-2.5-5.1-5.4c-7,0-13.8,0-20.8,0c-0.7,3-2.1,5.4-5.5,5.5
		c-3.4,0-4.9-2.3-5.6-5.4c-6.9,0-13.7,0-20.7,0c-0.8,3-2.2,5.6-5.9,5.4c-3.3-0.1-4.7-2.4-5.3-5.4c-6.8,0-13.7,0-20.7,0
		c-0.9,2.8-2.2,5.5-5.8,5.4c-3.4-0.1-4.7-2.6-5.5-5.5c-6.8,0-13.6,0-20.5,0c-0.3,0.8-0.4,1.9-1,2.4c-1.7,1.2-3.6,2.8-5.5,2.9
		c-2.6,0.2-4.4-1.9-4.5-4.6c-0.2-7.4-0.2-14.9,0-22.3c0.1-2.9,2.2-4.6,5.3-4.7c2.8-0.1,5.1,2.1,5.2,5.2c0.2,3.3,0,6.6,0,10.2
		c7.1,0,14,0,21.3,0c0-3,0-6.1,0-9.1c0.1-3.8,2.1-6.2,5.2-6.3c3.2,0,5.3,2.4,5.4,6.1c0.1,3,0,6.1,0,9.3c7.1,0,13.9,0,21.3,0
		c0-3,0-6,0-9c0-4,2.2-6.5,5.4-6.4c3.2,0.1,5.1,2.4,5.2,6.3c0,2.9,0,5.9,0,9c7.1,0,14,0,21.3,0c0-3.1,0-6.2,0-9.2
		c0.1-3.8,2.1-6.2,5.3-6.2c3.2,0,5.2,2.4,5.3,6.2c0.1,2.9,0,5.9,0,9.1c7,0,13.9,0,21.3,0c0-3,0-6,0-9c0.1-3.9,2-6.3,5.2-6.3
		c3.3-0.1,5.4,2.4,5.4,6.4c0,2.9,0,5.9,0,9c7.1,0,13.9,0,21.3,0c0-2.4,0-5,0-7.5c0-5.3,1.8-8,5.4-7.9c3.6,0.1,5.2,2.6,5.2,8.1
		c0,2.4,0,4.7,0,7.3c7.1,0,14,0,21.3,0c0-3,0-6.1,0-9.1c0.1-3.8,2.1-6.2,5.2-6.3c3.2,0,5.3,2.4,5.4,6.1c0.1,3,0,6.1,0,9.3
		c7.1,0,13.9,0,21.3,0c0-3,0-6,0-9c0-4,2.2-6.5,5.5-6.4c3.2,0.1,5.1,2.5,5.2,6.4c0.1,2.8,0.1,5.7,0.1,8.5c0,0.1,0.1,0.2,0.3,0.5
		c6.8,0,13.6,0,20.9,0c0-3.1,0-6.2,0-9.2c0.1-3.8,2.2-6.2,5.3-6.2c3.2,0,5.2,2.4,5.3,6.2c0,1.5,0,3.1,0,4.6c0,1.4,0,2.8,0,4.5
		c7,0,13.9,0,21.3,0c0-3,0-6,0-9c0.1-3.9,2-6.2,5.2-6.3c3.3-0.1,5.4,2.4,5.4,6.4c0,2.8,0.1,5.7,0.1,8.5c0,0.1,0.1,0.2,0.3,0.5
		c6.7,0,13.5,0,20.8,0c0-2.8,0-5.7,0-8.6c0-4.4,2-6.9,5.4-6.8c3.3,0.1,5.2,2.5,5.2,6.7c0,2.8,0,5.6,0,8.7c5.8,0,11.4,0,17.2,0
		c0-4.6,0-9,0-13.9c-3.2,0-6.4,0-9.5,0c-3.8-0.1-6.2-2.2-6.2-5.3c0-3.2,2.4-5.2,6.2-5.3c3.1-0.1,6.1,0,9.4,0c0-7.2,0-14,0-21.3
		c-3.3,0-6.3,0-9.4,0c-3.9-0.1-6.2-2-6.3-5.2c-0.1-3.3,2.4-5.4,6.5-5.4c3,0,6.1,0,9.3,0c0-7.2,0-14,0-21.3c-3.2,0-6.2,0-9.2,0
		c-4.1,0-6.5-2.1-6.5-5.3c0-3.3,2.5-5.2,6.6-5.3c2.7,0,5.4,0,8.1-0.1c0.2,0,0.4-0.1,0.9-0.3c0-6.7,0-13.5,0-20.9c-3.1,0-6.2,0-9.3,0
		c-3.9,0-6.3-2-6.3-5.2c-0.1-3.3,2.4-5.4,6.4-5.4c3,0,6.1,0,9.3,0c0-7.2,0-14,0-21.3c-3.3,0-6.4,0-9.6,0c-3.8-0.1-6.2-2.2-6.2-5.4
		c0-3.2,2.4-5.2,6.3-5.3c3-0.1,5.9-0.1,8.9-0.1c0.1,0,0.2-0.1,0.5-0.4c0-6.6,0-13.4,0-20.8c-3.1,0-6.2,0-9.3,0
		c-3.9-0.1-6.2-2-6.3-5.2c-0.1-3.3,2.4-5.4,6.4-5.4c3,0,6.1,0,9.3,0c0-7.2,0-14,0-21.3c-3.2,0-6.4,0-9.5,0c-3.8-0.1-6.2-2.1-6.2-5.3
		c0-3.2,2.4-5.2,6.2-5.3c3-0.1,5.9-0.1,8.9-0.1c0.1,0,0.2-0.1,0.6-0.3c0-6.7,0-13.6,0-20.8c-3.2,0-6.4,0-9.6,0
		c-3.8-0.1-6.2-2.3-6.1-5.4c0.1-3,2.4-5.1,6-5.2c6.6-0.1,13.2,0.1,19.8-0.1c2.9-0.1,4.6,1.5,6,3.6c0,1.2,0,2.4,0,3.5
		c-1.3,1.1-2.7,2.2-3.9,3.4c-0.6,0.6-1.4,1.6-1.4,2.4c-0.1,5.6-0.1,11.3,0,16.9c0,0.8,0.7,1.7,1.4,2.4c1.2,1.2,2.6,2.3,3.9,3.4
		c0,1.2,0,2.4,0,3.5c-1.3,1.1-2.7,2.2-3.9,3.4c-0.6,0.6-1.4,1.6-1.4,2.4c-0.1,5.6-0.1,11.3,0,16.9c0,0.8,0.7,1.7,1.4,2.4
		c1.2,1.2,2.6,2.2,3.9,3.4c0,1.2,0,2.4,0,3.5c-1.3,1.1-2.7,2.2-3.9,3.4c-0.6,0.6-1.4,1.5-1.4,2.3c-0.1,5.6-0.1,11.3,0,16.9
		c0,0.8,0.7,1.8,1.4,2.4c1.2,1.2,2.6,2.2,3.9,3.3c0,1.2,0,2.4,0,3.5c-1.3,1.1-2.6,2.2-3.8,3.4c-0.6,0.6-1.4,1.5-1.4,2.3
		c-0.1,5.6-0.1,11.3,0,16.9c0,0.8,0.7,1.8,1.4,2.4c1.2,1.2,2.6,2.2,3.9,3.3c0,1.2,0,2.4,0,3.5c-1.3,1.1-2.6,2.2-3.8,3.4
		c-0.6,0.6-1.4,1.5-1.4,2.3c-0.1,5.6-0.1,11.3,0,16.9c0,0.8,0.7,1.8,1.4,2.4c1.2,1.2,2.6,2.2,3.9,3.3c0,1.2,0,2.4,0,3.5
		c-1.3,1.1-2.6,2.2-3.8,3.4c-0.6,0.6-1.4,1.5-1.4,2.3c-0.1,5.6-0.1,11.3,0,16.9c0,0.8,0.7,1.8,1.3,2.4c1.2,1.2,2.6,2.2,3.9,3.3
		c0,1.2,0,2.4,0,3.5c-1.3,1.1-2.6,2.2-3.8,3.4c-0.6,0.6-1.4,1.5-1.4,2.3c-0.1,5.6-0.1,11.3,0,16.9c0,0.8,0.7,1.8,1.3,2.4
		c1.2,1.2,2.6,2.2,3.9,3.3C382.7,326,382.7,327.2,382.7,328.3z"/>
	
		<linearGradient id="SVGID_00000141427529959727805460000011278823005280476810_" gradientUnits="userSpaceOnUse" x1="19.0871" y1="18.0826" x2="393.0572" y2="367.3364">
		<stop  offset="0" style="stop-color:#F77560"/>
		<stop  offset="1" style="stop-color:#845B77"/>
	</linearGradient>
	<path style="fill:url(#SVGID_00000141427529959727805460000011278823005280476810_);" d="M252.4,176.8c0.3-4.6-1.3-8.2-3.9-11.3
		c-0.7-0.8-2.5-1-3.8-1.1c-6.7-0.5-13.6,0-20.1-1.4c-16.3-3.4-27.8-17.9-28.3-34.5c-0.2-5.1-0.1-10.2,0-15.2c0.1-4,2.6-7.3,6.2-7.5
		c9.1-0.3,18.2-1.3,27.1,1.6c1.9,0.6,3.8,1.4,5.5,2.4c3,1.6,4,4.4,2.7,7.1c-1.3,2.7-4.3,3.9-7.2,2.4c-7.4-3.9-15.3-3-23.2-3
		c-3.9,23.4,8.2,40.7,37.4,37c-0.5-6-1-12-1.6-18c-0.1-0.9-0.6-1.8-0.7-2.7c-0.5-3,0.7-5.2,3.6-6.1c2.8-0.9,5.5,0,6.3,3
		c1.2,4.3,1.9,8.7,2.6,13.1c0.3,2.1,0.2,4.3,0,6.4c-0.4,4.6,0.6,8.5,3.5,12.4c2.7,3.8,3.8,8.7,5.6,13.2c4.3-1.4,9.1-3.6,14.2-4.5
		c18.8-3.5,35.8-0.6,48.2,15.9c6,8,9.2,17.3,10.8,27c3.8,22.1,1.5,43.7-6.4,64.8c-0.2,0.4-0.3,0.9-0.5,1.3c-1.4,3.2-3.9,4.5-6.8,3.4
		c-3-1.1-4.1-3.8-3.1-7.2c2-6.7,4.4-13.2,5.8-20c3.4-16.8,3.4-33.6-2-50c-7.9-24.3-33.8-33.7-55.5-20.3c-8.3,5.1-15.7,5-24.1,0
		c-11.4-6.7-23.8-7.5-36.2-2.8c-10,3.8-16,11.9-18.9,21.7c-9.7,33.3-4.6,64.5,15.5,92.8c4.9,6.9,11.4,12.6,20.4,13.5
		c8.3,0.9,16.2-0.6,22.5-6.9c5.1-5.1,11.8-5.1,17.1-0.2c10.6,9.8,25.3,10.2,36.3,0.6c2.9-2.5,5.4-5.6,8-8.5c2.7-3.2,5.6-4,8.2-2.1
		c2.7,2,2.8,5.2,0.1,8.7c-7.3,9.5-15.9,17.4-28.4,18.9c-11.7,1.4-22.6-1.1-31.3-9.7c-0.3-0.3-0.8-0.6-1.3-0.9
		c-0.5,0.3-1,0.5-1.4,0.9c-15.3,13.7-36.2,13.8-51.4,0c-12.8-11.6-20-26.7-24.7-43c-6.3-21.8-7.2-43.8-0.4-65.6
		c9.7-30.9,42.3-43.3,70.6-27.1C250.2,175.7,251.1,176.1,252.4,176.8z"/>
	
		<linearGradient id="SVGID_00000114063786788069222020000015989479725091939985_" gradientUnits="userSpaceOnUse" x1="-12.9946" y1="52.4347" x2="360.9755" y2="401.6884">
		<stop  offset="0" style="stop-color:#F77560"/>
		<stop  offset="1" style="stop-color:#845B77"/>
	</linearGradient>
	<path style="fill:url(#SVGID_00000114063786788069222020000015989479725091939985_);" d="M91.9,171.4c0,12.3,0,108.2,0,120.8
		c1.4,0,2.8,0,4.1,0c26.8,0,53.6,0,80.4,0c1.1,0,2.1-0.1,3.2,0.1c2.8,0.4,4.5,2.1,4.6,4.9c0.2,2.9-1.4,4.7-4.1,5.4
		c-1.1,0.3-2.3,0.2-3.5,0.2c-29.3,0-58.6,0-87.9,0c-6.1,0-7.7-1.6-7.7-7.8c0-11.8,0-107.5,0-119.3c0-1.3,0-2.6,0-4.3
		c-1.6,0-2.8,0-4.1,0c-14.9,0-29.8,0-44.6,0c-8.1,0-12.5-4.4-12.5-12.5c0-35.4,0-70.9,0-106.3c0-7.9,4.4-12.3,12.2-12.4
		c3.4,0,6.9-0.1,10.3,0c3.3,0.1,5.6,2.2,5.7,5.1c0.1,3-2.2,5.4-5.7,5.5c-3.8,0.1-7.5,0-11.6,0c0,36.6,0,73,0,109.7
		c36.6,0,73.1,0,109.9,0c0-36.5,0-72.8,0-109.7c-1.4,0-2.8,0-4.2,0c-22.8,0-45.6,0-68.4,0c-1.2,0-2.4,0.1-3.5-0.1
		c-2.9-0.7-4.6-2.5-4.4-5.5c0.2-2.9,1.9-4.5,4.7-4.9c0.9-0.1,1.9-0.1,2.8-0.1c23.6,0,47.2,0,70.9,0c8.6,0,12.9,4.2,12.9,12.8
		c0,35.1,0,70.2,0,105.2c0,8.8-4.3,13.1-13,13.1c-14.2,0-28.3,0-42.5,0C94.6,171.4,93.4,171.4,91.9,171.4z"/>
	
		<linearGradient id="SVGID_00000003794825728578236610000007949523415019590285_" gradientUnits="userSpaceOnUse" x1="19.6706" y1="17.4578" x2="393.6407" y2="366.7115">
		<stop  offset="0" style="stop-color:#F77560"/>
		<stop  offset="1" style="stop-color:#845B77"/>
	</linearGradient>
	<path style="fill:url(#SVGID_00000003794825728578236610000007949523415019590285_);" d="M86.9,85.6c-9,0-17.9,0-26.9,0
		c-3.1,0-5.2-1.4-5.7-4.6c-0.4-2.8,1-4.8,3.6-5.7c0.8-0.3,1.6-0.2,2.4-0.2c17.7,0,35.4,0,53,0c3.9,0,6.2,1.9,6.3,5.1
		c0.1,3.3-2.3,5.5-6.3,5.5C104.6,85.7,95.7,85.6,86.9,85.6z"/>
	
		<linearGradient id="SVGID_00000048487561140267366740000012131869643508363180_" gradientUnits="userSpaceOnUse" x1="9.0858" y1="28.7916" x2="383.056" y2="378.0453">
		<stop  offset="0" style="stop-color:#F77560"/>
		<stop  offset="1" style="stop-color:#845B77"/>
	</linearGradient>
	<path style="fill:url(#SVGID_00000048487561140267366740000012131869643508363180_);" d="M87.1,96.3c8.7,0,17.4,0,26.2,0
		c4.2,0,6.5,2,6.5,5.3c0,3.3-2.4,5.3-6.5,5.3c-17.4,0-34.9,0-52.3,0c-4.2,0-6.6-1.9-6.6-5.2c-0.1-3.5,2.3-5.4,6.7-5.4
		C69.7,96.3,78.4,96.3,87.1,96.3z"/>
	
		<linearGradient id="SVGID_00000060001797724634884630000013648576129484351651_" gradientUnits="userSpaceOnUse" x1="-8.0783" y1="47.1705" x2="365.8918" y2="396.4242">
		<stop  offset="0" style="stop-color:#F77560"/>
		<stop  offset="1" style="stop-color:#845B77"/>
	</linearGradient>
	<path style="fill:url(#SVGID_00000060001797724634884630000013648576129484351651_);" d="M72.9,117.5c4.2,0,8.5,0,12.7,0
		c3.7,0.1,5.9,2,6,5.1c0.1,3.2-2.2,5.5-5.9,5.5c-8.5,0.1-17,0.1-25.4,0c-3.8,0-6.1-2.2-6-5.5c0.1-3.1,2.3-5.1,5.9-5.1
		C64.4,117.5,68.7,117.5,72.9,117.5z"/>
</g>
</svg>
