<?xml version="1.0" encoding="utf-8"?>
<!-- Generator: Adobe Illustrator 26.3.1, SVG Export Plug-In . SVG Version: 6.00 Build 0)  -->
<svg version="1.1" id="Layer_1" xmlns="http://www.w3.org/2000/svg" xmlns:xlink="http://www.w3.org/1999/xlink" x="0px" y="0px"
	 viewBox="0 0 400 400" style="enable-background:new 0 0 400 400;" xml:space="preserve">
<style type="text/css">
	.st0{fill:url(#SVGID_1_);}
	.st1{fill:none;stroke:url(#SVGID_00000149370624315981320030000012911089821965412011_);stroke-miterlimit:10;}
	.st2{fill:none;stroke:url(#SVGID_00000057116990857264050370000014258521731436319154_);stroke-miterlimit:10;}
	.st3{fill:url(#SVGID_00000075849902548605783270000003047593513754245305_);}
	.st4{fill:url(#SVGID_00000094592518556647421000000011087455176358235302_);}
	.st5{fill:url(#SVGID_00000125598360636538002670000009173430992091728770_);}
	.st6{fill:url(#SVGID_00000026870552676580032770000015857212886611456698_);}
	.st7{fill:url(#SVGID_00000118381510099852828240000006485526270146486699_);}
	.st8{fill:url(#SVGID_00000042007741458888049380000012365138459694108842_);}
	.st9{fill:url(#SVGID_00000008125747084850528200000008876222692341734551_);}
	.st10{fill:url(#SVGID_00000036243500160891963860000002607184301908509337_);}
	.st11{fill:url(#SVGID_00000148636244668500989300000002126818570818600595_);}
	.st12{fill:url(#SVGID_00000031190589346513107860000013496779571654860219_);}
	.st13{fill:url(#SVGID_00000136397784433264670550000018065950754231069824_);}
	.st14{fill:url(#SVGID_00000067915619354150849510000008919188168949202847_);}
	.st15{fill:url(#SVGID_00000061435220654489712470000003764757310352052894_);}
	.st16{fill:url(#SVGID_00000154386774309598475660000016273088403452184202_);}
	.st17{fill:url(#SVGID_00000060721547262554409800000008390099051746521753_);}
	.st18{fill:url(#SVGID_00000008130096759673038930000010727530850517421706_);}
	.st19{fill:url(#SVGID_00000082326629411752988510000012451403044290469562_);}
	.st20{fill:url(#SVGID_00000099662142468987675770000010357196519871847847_);}
	.st21{fill:url(#SVGID_00000064312203525303028040000009818522681202503046_);}
	.st22{fill:url(#SVGID_00000145772419612948670780000007002392939109252275_);}
	.st23{fill:url(#SVGID_00000164500793885709457320000009614451576600247460_);}
	.st24{fill:url(#SVGID_00000104680742109649940990000013666449358510671017_);}
	.st25{fill:url(#SVGID_00000085945067130524530470000015188292722376086169_);}
	.st26{fill:url(#SVGID_00000123442002549872317450000005803925793005152652_);}
	.st27{fill:url(#SVGID_00000067954587859381822030000000263609046919797378_);}
	.st28{fill:url(#SVGID_00000076589826507883986750000012628467915638609309_);}
	.st29{fill:url(#SVGID_00000067235298807380855420000015967522609023368880_);}
	.st30{fill:url(#SVGID_00000083088483119382866740000017272883949568529571_);}
	.st31{fill:url(#SVGID_00000049911636877135379230000003976749249256634813_);}
	.st32{fill:url(#SVGID_00000132067667678754426340000013771570740243228290_);}
	.st33{fill:url(#SVGID_00000002357690361816942510000015851075478681299387_);}
	.st34{fill:url(#SVGID_00000030476169449786663710000001606224607213159846_);}
	.st35{fill:url(#SVGID_00000078008779031293302410000012235358504941635770_);}
</style>
<g>
	<linearGradient id="SVGID_1_" gradientUnits="userSpaceOnUse" x1="20.3871" y1="32.1796" x2="421.5811" y2="342.3886">
		<stop  offset="0" style="stop-color:#F77560"/>
		<stop  offset="1" style="stop-color:#845B77"/>
	</linearGradient>
	<path class="st0" d="M193.3,212.1c0-13.3,0-26.4,0-40c-4.2,0-8.2,0-12.3,0c-20.9-0.1-37.7-12.2-41.6-31.6
		c-1.9-9.6-1.2-19.8-1.1-29.8c0-1.5,2.8-4.2,4.3-4.2c9.9,0,20,0,29.8,1.1c8.1,1,14.7,5.8,21.1,12.3c0-4.7,0.1-8.6-0.1-12.5
		c0-0.9-1.1-1.9-1.8-2.7c-3.5-3.6-7.1-7-10.6-10.6c-15.6-16.5-15.8-40.5-0.4-57.1c4.5-4.8,9.3-9.5,14-14.1c3-2.9,5.4-2.9,8.5,0.1
		c4.8,4.7,9.7,9.4,14.2,14.3c14.9,16.1,14.7,40.3-0.3,56.3c-3.2,3.5-6.5,6.9-10.1,10c-2.3,2-3.2,4.2-2.9,7.2
		c0.2,2.7,0.1,5.4,0.1,8.9c1.3-1.2,2.1-1.9,2.9-2.6c7.8-7.1,17-10.7,27.5-10.9c6.1-0.1,12.2,0,18.3,0c4.8,0,6.8,1.8,6.6,6.5
		c-0.3,9.7,0.3,19.6-1.7,29c-3.7,17.5-20.1,29.9-38,30.4c-5.1,0.1-10.2,0-15.5,0c0,13.6,0,26.7,0,40.6c6.6-0.7,13.2-1.2,19.7-2
		c18.9-2.4,36.4-9.2,53.9-16c27.6-10.7,56.3-16.9,86-17.8c1.9-0.1,3.8-0.2,5.6-0.1c3.1,0.3,5.3,1.9,5.2,5.2c0,3.2-2,5-5.2,5.2
		c-6.7,0.4-13.5,0.6-20.2,1.2c-27.1,2.4-52.9,9.8-77.9,20c-48,19.6-96.2,19.8-144.2,0.3c-31.5-12.8-63.9-21-98-21.4
		c-4.1-0.1-6.4-2.1-6.3-5.3c0.1-3.2,2.5-5.2,6.5-5.1c28.7,0.3,56.5,5.8,83.5,15.3c13,4.6,25.9,9.6,39,13.9
		C164,210,185,212.7,193.3,212.1z M148.5,117c0,5.1-0.1,9.9,0,14.8c0.3,9.2,4.1,16.8,11.1,22.8c10,8.6,21.9,7.2,33.6,6.9
		C196.8,126.1,178.7,113.5,148.5,117z M248.4,116.7c-5.4,0-10.9-0.3-16.3,0.1c-13.1,0.9-24.8,10.7-27.2,23.4c-1.3,6.9-1,14-1.4,21
		C237.8,165.3,252.4,147.9,248.4,116.7z M197.9,34.3c-30.3,24.8-18.8,47.3,0.7,62c4-3.8,8.3-7.3,11.8-11.4
		c9.4-10.8,9.8-27.5,0.6-38.5C207.4,41.9,202.5,38.4,197.9,34.3z"/>
	
		<linearGradient id="SVGID_00000122721347732966989680000006563289348555303087_" gradientUnits="userSpaceOnUse" x1="-75.119" y1="155.6979" x2="326.075" y2="465.9068">
		<stop  offset="0" style="stop-color:#F77560"/>
		<stop  offset="1" style="stop-color:#845B77"/>
	</linearGradient>
	<path style="fill:url(#SVGID_00000122721347732966989680000006563289348555303087_);" d="M222.3,362.2c1.9,0,3.4,0,4.8,0
		c46.3,0,92.6,0,138.9,0c1.1,0,2.3-0.1,3.4,0c3.1,0.2,5.4,2.4,5.2,5.3c-0.2,3.2-2.1,4.9-5.3,5.2c-1.1,0.1-2.2,0-3.4,0
		c-111.6,0-223.1,0-334.7,0c-0.9,0-1.7,0-2.6,0c-3.6-0.2-6-2.3-5.9-5.4c0.1-2.9,2.3-4.9,5.8-5.1c1.1,0,2.2,0,3.4,0
		c58.3,0,116.6,0,174.8,0c1.5,0,3,0,5,0c0.4-7.6,0.8-15,1.2-22.4c0-0.7-0.7-1.6-1.2-2.2c-4-5.1-8.1-10.1-12-15.3
		c-1.2-1.6-2.4-2-4.4-1.6c-8.4,1.9-16.8,3.5-25.2,5.3c-3,0.6-5.8,0.5-7.3-2.7c-1.6-3.4,0.4-6.6,4.7-7.5c8.4-1.8,16.8-3.6,25.3-5.2
		c2.4-0.4,3.3-1.5,3.8-3.8c1.9-8.8,3.9-17.5,6-26.2c0.9-3.9,3.5-5.8,6.5-5c3.1,0.8,4.5,3.6,3.6,7.4c-2,8.9-4,17.7-6.1,26.6
		c-0.6,2.4-0.3,4.2,1.3,6.1c4.7,5.6,9.3,11.4,13.7,17.3c1.2,1.7,2,4.1,2,6.1C223.3,346.7,222.7,354.2,222.3,362.2z"/>
	
		<linearGradient id="SVGID_00000069361742921885334140000015818535390789936539_" gradientUnits="userSpaceOnUse" x1="-2.7878" y1="62.1517" x2="398.4063" y2="372.3607">
		<stop  offset="0" style="stop-color:#F77560"/>
		<stop  offset="1" style="stop-color:#845B77"/>
	</linearGradient>
	<path style="fill:url(#SVGID_00000069361742921885334140000015818535390789936539_);" d="M200.5,258.9c-27.1,0-51.2-5.1-74.4-14.7
		c-31-12.9-63.2-20.7-96.9-21.1c-4.1-0.1-6.4-2-6.5-5.2c0-3.3,2.5-5.3,6.7-5.3c33.6,0.4,65.8,7.6,96.7,20.4
		c25.1,10.3,51,16.2,78.2,15.3c23.1-0.7,45-6.3,66.3-15.1c29.6-12.2,60.4-19.5,92.6-20.5c1.9-0.1,3.7-0.2,5.6-0.1
		c3.5,0.2,5.7,2.2,5.7,5.2c0,3-2.1,5-5.6,5.2c-8.8,0.6-17.7,0.9-26.5,1.9c-25.3,2.8-49.5,10.2-72.9,19.9
		C246.8,254.3,223.1,258.9,200.5,258.9z"/>
	
		<linearGradient id="SVGID_00000062880343925166999110000015372921129007176891_" gradientUnits="userSpaceOnUse" x1="-2.1862" y1="61.3737" x2="399.0078" y2="371.5826">
		<stop  offset="0" style="stop-color:#F77560"/>
		<stop  offset="1" style="stop-color:#845B77"/>
	</linearGradient>
	<path style="fill:url(#SVGID_00000062880343925166999110000015372921129007176891_);" d="M313.1,299.7c-3.5-7.7-7.1-15.1-10.2-22.7
		c-0.7-1.7-0.3-4.6,0.7-6.1c0.8-1.2,3.6-1.8,5.2-1.4c1.5,0.4,2.9,2.3,3.6,3.8c3.3,6.7,6.5,13.5,9.4,20.4c1.2,2.9,3,4.1,6,4.5
		c13.2,1.9,26.3,4.1,39.5,6.1c1,0.2,2,0.3,2.9,0.5c3,0.7,4.6,2.7,4.2,5.7c-0.4,3.2-2.6,4.9-5.8,4.5c-7.8-1.1-15.5-2.3-23.3-3.5
		c-7-1.1-14-2.4-21.1-3.3c-2.2-0.3-4.7,0.1-6.8,1c-10.7,4.8-21.2,9.9-31.8,14.8c-1.4,0.7-3.4,1.6-4.5,1.1c-1.8-0.8-3.8-2.5-4.4-4.2
		c-0.9-2.7,1-4.7,3.5-5.8c9.4-4.4,18.7-8.7,28.1-13.1C309.9,301.4,311.5,300.6,313.1,299.7z"/>
	
		<linearGradient id="SVGID_00000085962702944529681640000016971989661338879162_" gradientUnits="userSpaceOnUse" x1="-91.0238" y1="176.2676" x2="310.1702" y2="486.4766">
		<stop  offset="0" style="stop-color:#F77560"/>
		<stop  offset="1" style="stop-color:#845B77"/>
	</linearGradient>
	<path style="fill:url(#SVGID_00000085962702944529681640000016971989661338879162_);" d="M81,306c4.8,4.5,9.6,8.9,14.3,13.3
		c0.9,0.8,1.9,1.6,2.7,2.6c2.1,2.4,2.5,5,0.2,7.3c-2.3,2.4-5,2.3-7.3,0.2c-5.2-4.6-10.4-9.4-15.3-14.3c-2.1-2.1-4.1-2.5-7-2
		c-12.8,2.2-25.6,4.2-38.4,6.3c-4.2,0.7-6.9-1-7.4-4.4c-0.4-3.1,1.8-5.4,5.7-6c12.8-2,25.6-4.1,38.4-6.1c2.9-0.4,4.8-1.6,6.3-4.3
		c5.2-9.2,10.6-18.3,16.3-27.3c1.1-1.7,3.6-3,5.6-3.2c1.3-0.1,3.6,2,4,3.5c0.5,1.6-0.3,3.9-1.2,5.5c-4.9,8.5-10,16.9-15.1,25.4
		C82.3,303.6,81.7,304.7,81,306z"/>
	
		<linearGradient id="SVGID_00000170274215267663632210000013993764795946794936_" gradientUnits="userSpaceOnUse" x1="-50.8979" y1="124.3727" x2="350.2961" y2="434.5816">
		<stop  offset="0" style="stop-color:#F77560"/>
		<stop  offset="1" style="stop-color:#845B77"/>
	</linearGradient>
	<path style="fill:url(#SVGID_00000170274215267663632210000013993764795946794936_);" d="M165,286.7c0,3.3-2.7,5.9-6,5.9
		c-3.3,0-6-2.7-5.9-5.9c0-3.2,2.8-6,6-5.9C162.3,280.7,165,283.5,165,286.7z"/>
	
		<linearGradient id="SVGID_00000124119646922893496450000002880051310164919475_" gradientUnits="userSpaceOnUse" x1="-87.046" y1="171.1231" x2="314.148" y2="481.332">
		<stop  offset="0" style="stop-color:#F77560"/>
		<stop  offset="1" style="stop-color:#845B77"/>
	</linearGradient>
	<path style="fill:url(#SVGID_00000124119646922893496450000002880051310164919475_);" d="M134.2,337.4c0.1,3.3-2.5,6-5.8,6.1
		c-3.3,0.1-6-2.5-6.1-5.7c-0.1-3.2,2.6-6,5.8-6.1C131.3,331.5,134.1,334.2,134.2,337.4z"/>
	
		<linearGradient id="SVGID_00000096035964846066388950000011702852840824036518_" gradientUnits="userSpaceOnUse" x1="-38.3455" y1="108.1387" x2="362.8485" y2="418.3476">
		<stop  offset="0" style="stop-color:#F77560"/>
		<stop  offset="1" style="stop-color:#845B77"/>
	</linearGradient>
	<path style="fill:url(#SVGID_00000096035964846066388950000011702852840824036518_);" d="M261.1,345.7c-3.3-0.1-5.8-2.7-5.7-6.1
		c0.1-3.3,2.8-5.9,6.1-5.8c3.2,0.1,5.9,3,5.8,6.2C267.2,343.3,264.4,345.8,261.1,345.7z"/>
	
		<linearGradient id="SVGID_00000101785555384775761690000012945847627824752316_" gradientUnits="userSpaceOnUse" x1="31.5453" y1="17.7487" x2="432.7393" y2="327.9577">
		<stop  offset="0" style="stop-color:#F77560"/>
		<stop  offset="1" style="stop-color:#845B77"/>
	</linearGradient>
	<path style="fill:url(#SVGID_00000101785555384775761690000012945847627824752316_);" d="M340.2,250.6c3.3,0,6,2.6,6,5.9
		c0,3.2-2.7,6-5.9,6c-3.2,0-6-2.8-6-6C334.3,253.2,336.9,250.6,340.2,250.6z"/>
	
		<linearGradient id="SVGID_00000017505052809709377050000002024106907800138888_" gradientUnits="userSpaceOnUse" x1="-9.0656" y1="70.2709" x2="392.1284" y2="380.4798">
		<stop  offset="0" style="stop-color:#F77560"/>
		<stop  offset="1" style="stop-color:#845B77"/>
	</linearGradient>
	<path style="fill:url(#SVGID_00000017505052809709377050000002024106907800138888_);" d="M346.4,340.5c0,3.3-2.5,5.9-5.8,6
		c-3.3,0-5.9-2.6-6-5.9c0-3.2,2.7-6,5.9-6C343.7,334.6,346.4,337.2,346.4,340.5z"/>
	
		<linearGradient id="SVGID_00000029747060281414283340000008692405888432013190_" gradientUnits="userSpaceOnUse" x1="-75.759" y1="156.5256" x2="325.4351" y2="466.7345">
		<stop  offset="0" style="stop-color:#F77560"/>
		<stop  offset="1" style="stop-color:#845B77"/>
	</linearGradient>
	<path style="fill:url(#SVGID_00000029747060281414283340000008692405888432013190_);" d="M61.4,256.5c3.3,0.1,5.8,2.7,5.7,6.1
		c-0.1,3.3-2.8,5.9-6.1,5.8c-3.2-0.1-5.8-2.9-5.8-6.2C55.4,259,58,256.5,61.4,256.5z"/>
	
		<linearGradient id="SVGID_00000096767183057726283290000001222070440071737784_" gradientUnits="userSpaceOnUse" x1="-19.7439" y1="84.0811" x2="381.4501" y2="394.2901">
		<stop  offset="0" style="stop-color:#F77560"/>
		<stop  offset="1" style="stop-color:#845B77"/>
	</linearGradient>
	<path style="fill:url(#SVGID_00000096767183057726283290000001222070440071737784_);" d="M249.7,286.6c3.3-0.1,5.9,2.5,6,5.8
		c0.1,3.3-2.5,6-5.8,6.1c-3.2,0.1-6-2.7-6.1-5.9C243.8,289.5,246.5,286.6,249.7,286.6z"/>
</g>
</svg>
