<?xml version="1.0" encoding="utf-8"?>
<!-- Generator: Adobe Illustrator 26.3.1, SVG Export Plug-In . SVG Version: 6.00 Build 0)  -->
<svg version="1.1" id="Layer_1" xmlns="http://www.w3.org/2000/svg" xmlns:xlink="http://www.w3.org/1999/xlink" x="0px" y="0px"
	 viewBox="0 0 400 400" style="enable-background:new 0 0 400 400;" xml:space="preserve">
<style type="text/css">
	.st0{fill:url(#SVGID_1_);}
	.st1{fill:none;stroke:url(#SVGID_00000015328411680040025320000013987580988471316153_);stroke-miterlimit:10;}
	.st2{fill:none;stroke:url(#SVGID_00000183217155874229615220000011105183999536947091_);stroke-miterlimit:10;}
	.st3{fill:url(#SVGID_00000071545213140047595760000010596039458775156621_);}
	.st4{fill:url(#SVGID_00000076592201192765367120000012557653143049352592_);}
	.st5{fill:url(#SVGID_00000047751770869552605770000000420206590695776131_);}
	.st6{fill:url(#SVGID_00000005243376578216077230000005132420069699912604_);}
	.st7{fill:url(#SVGID_00000169559597061967198870000013277330224910331322_);}
	.st8{fill:url(#SVGID_00000056389785131702943450000000928928656345428131_);}
	.st9{fill:url(#SVGID_00000015353005287391436700000011836229017457804437_);}
	.st10{fill:url(#SVGID_00000113350263552444053760000013982805736765306496_);}
	.st11{fill:url(#SVGID_00000073712289354683813550000010220800020812318860_);}
	.st12{fill:url(#SVGID_00000178206877005690019810000006276127370517913762_);}
	.st13{fill:url(#SVGID_00000075133166718049132340000017749802204331277722_);}
	.st14{fill:url(#SVGID_00000048477808820220213040000017768656956724802484_);}
	.st15{fill:url(#SVGID_00000023960885595364207670000012799211204649076150_);}
	.st16{fill:url(#SVGID_00000097461461852398701950000003150586954017678518_);}
	.st17{fill:url(#SVGID_00000134241691367699741970000016440556450266323868_);}
	.st18{fill:url(#SVGID_00000032645898574737094950000005287341208266164413_);}
	.st19{fill:url(#SVGID_00000052798391443624254200000010889026074140444302_);}
	.st20{fill:url(#SVGID_00000029029143012271691710000018372507136118264465_);}
	.st21{fill:url(#SVGID_00000101813142783520814900000009650846826378936238_);}
	.st22{fill:url(#SVGID_00000114754177821703157450000014914421209538919556_);}
	.st23{fill:url(#SVGID_00000008118617060845023180000010202017964590611120_);}
	.st24{fill:url(#SVGID_00000076603468720512220420000004948424815561916819_);}
	.st25{fill:url(#SVGID_00000147919597036279256270000001392297851818562750_);}
	.st26{fill:url(#SVGID_00000181089377872456552210000003371820321704772249_);}
	.st27{fill:url(#SVGID_00000110468935134321385330000006425386301432304515_);}
	.st28{fill:url(#SVGID_00000139294707228163386790000006797442454606402975_);}
	.st29{fill:url(#SVGID_00000041996490200459714280000007569842812451338935_);}
	.st30{fill:url(#SVGID_00000164476124180008032180000005708494302817459637_);}
	.st31{fill:url(#SVGID_00000080896584316817616850000008611010990331738257_);}
	.st32{fill:url(#SVGID_00000053516288244252978520000007952075933025722498_);}
	.st33{fill:url(#SVGID_00000131344361642352471520000014062363398526903203_);}
	.st34{fill:url(#SVGID_00000023241817474861346120000009207506231539826588_);}
	.st35{fill:url(#SVGID_00000034794249446970700630000010565522945196059035_);}
	.st36{fill:url(#SVGID_00000064331558273225373160000016545945561259025321_);}
	.st37{fill:url(#SVGID_00000160906468839956595850000004765336072543941810_);}
	.st38{fill:url(#SVGID_00000079483034430936737130000002793246271931863447_);}
	.st39{fill:url(#SVGID_00000129885883580228561310000007355129471739458461_);}
	.st40{fill:url(#SVGID_00000015343719464468702430000006079143827747425954_);}
	.st41{fill:url(#SVGID_00000076589777609851000760000009657193622857675947_);}
	.st42{fill:url(#SVGID_00000042010586053620533710000008349410885415780264_);}
	.st43{fill:url(#SVGID_00000149341095319159030920000007413076176545129128_);}
	.st44{fill:url(#SVGID_00000163765018012996815900000000727107458574294172_);}
	.st45{fill:url(#SVGID_00000099662630272091217160000017629366782547888283_);}
	.st46{fill:url(#SVGID_00000038398808399953356280000015842049187124378782_);}
	.st47{fill:url(#SVGID_00000160189468490976373200000001081985701982135427_);}
	.st48{fill:url(#SVGID_00000150100751689878694210000014751847512764292487_);}
	.st49{fill:url(#SVGID_00000091017560981297021050000001594882669018484363_);}
	.st50{fill:url(#SVGID_00000010279566779318442840000004201650708431715975_);}
	.st51{fill:url(#SVGID_00000018927652770571316620000012141783464226350256_);}
	.st52{fill:url(#SVGID_00000034805420739358914600000012286158553455532180_);}
	.st53{fill:url(#SVGID_00000183935405450831384480000008250096785471608731_);}
	.st54{fill:url(#SVGID_00000079448388190537072760000009849660854348526223_);}
	.st55{fill:url(#SVGID_00000179620744088177222100000010063425648233299877_);}
	.st56{fill:url(#SVGID_00000008858443983254491180000004277642171457121933_);}
	.st57{fill:url(#SVGID_00000182501993695289808510000010920394063528863360_);}
	.st58{fill:url(#SVGID_00000121249279364521764280000000569348586258072724_);}
	.st59{fill:url(#SVGID_00000183245390825733523510000017270086184981965961_);}
	.st60{fill:url(#SVGID_00000124858979242863346830000014563529591632111507_);}
	.st61{fill:url(#SVGID_00000044898589190172377420000017937957977954223273_);}
	.st62{fill:url(#SVGID_00000042712501748991220170000001062522119977613967_);}
	.st63{fill:url(#SVGID_00000104697800255441498930000003891869493753889922_);}
	.st64{fill:url(#SVGID_00000004516317143113351440000010618356827263538330_);}
	.st65{fill:url(#SVGID_00000077306620326508376100000000347648333915537028_);}
	.st66{fill:url(#SVGID_00000121267291461577790050000003188733478066225288_);}
	.st67{fill:url(#SVGID_00000053512606894391048410000004881862652330406054_);}
	.st68{fill:url(#SVGID_00000015319007325952426780000009839379426702091439_);}
	.st69{fill:url(#SVGID_00000042727627629147229100000005923273218338466201_);}
	.st70{fill:url(#SVGID_00000072237757412758427670000005794318413929961623_);}
	.st71{fill:url(#SVGID_00000117648811527434784450000009904093626682648477_);}
	.st72{fill:url(#SVGID_00000029735033995493511730000016602492289240685212_);}
	.st73{fill:url(#SVGID_00000129203985068889226790000002700794454453843338_);}
	.st74{fill:url(#SVGID_00000143615560110987232480000012851936422560146344_);}
	.st75{fill:url(#SVGID_00000027581056476880151390000010775171113471980477_);}
	.st76{fill:url(#SVGID_00000074425597978295394680000012602850172999183527_);}
	.st77{fill:url(#SVGID_00000044156613269953986390000012749052851504222855_);}
	.st78{fill:url(#SVGID_00000132087085411753381510000011043347276911686029_);}
	.st79{fill:url(#SVGID_00000122700703647312051150000014102503225190495106_);}
	.st80{fill:url(#SVGID_00000003794743759990807330000010694048587604641204_);}
	.st81{fill:url(#SVGID_00000085216002336095977040000006344280177302854545_);}
	.st82{fill:url(#SVGID_00000005953906460486618120000010914437983056914579_);}
	.st83{fill:url(#SVGID_00000142866939962291851030000015029048234350451846_);}
	.st84{fill:url(#SVGID_00000158009193515806877540000011020018810780824750_);}
	.st85{fill:url(#SVGID_00000033371227304539525300000008953349672384604327_);}
	.st86{fill:url(#SVGID_00000109713325915804203930000016909501352427974806_);}
	.st87{fill:url(#SVGID_00000027603814344774158180000000518361664637345935_);}
	.st88{fill:url(#SVGID_00000176755928565053633560000001653723752345726639_);}
	.st89{fill:url(#SVGID_00000080180548897978880260000001077032898668421292_);}
	.st90{fill:url(#SVGID_00000067935259251028804240000006399793693249106565_);}
	.st91{fill:url(#SVGID_00000182496256900204036230000014334045668468839869_);}
	.st92{fill:url(#SVGID_00000090254740239186273650000013869381270092763549_);}
	.st93{fill:url(#SVGID_00000111155174751652274370000001331476184270750623_);}
	.st94{fill:url(#SVGID_00000005951712980676981630000002044224970582450362_);}
	.st95{fill:url(#SVGID_00000003097865800449511530000017416260456943375009_);}
	.st96{fill:url(#SVGID_00000031169460640299187190000000336128720603419047_);}
	.st97{fill:url(#SVGID_00000014595745595013493620000000425696889404902068_);}
	.st98{fill:url(#SVGID_00000052787663756552844450000016307432480820624825_);}
	.st99{fill:url(#SVGID_00000168110082537140271770000010725669206965435024_);}
	.st100{fill:url(#SVGID_00000065052355984836277570000009735558236640504731_);}
	.st101{fill:url(#SVGID_00000036939069165349296330000015868508187915112834_);}
	.st102{fill:url(#SVGID_00000150104305912970515290000009959396854406825642_);}
	.st103{fill:url(#SVGID_00000078036594565401890540000012943151750462192259_);}
	.st104{fill:url(#SVGID_00000044859119019205225890000001776945204479095946_);}
	.st105{fill:url(#SVGID_00000009583400210551210140000007426154469812666521_);}
	.st106{fill:url(#SVGID_00000021835277253579455200000005614441666035815577_);}
	.st107{fill:url(#SVGID_00000018234607483015660790000012837739627140104365_);}
	.st108{fill:url(#SVGID_00000119820540519810959610000015804643966038003359_);}
	.st109{fill:url(#SVGID_00000041288882101080231480000010752111126311023535_);}
	.st110{fill:url(#SVGID_00000085938568459832351030000002539255819748507555_);}
	.st111{fill:url(#SVGID_00000087401657471948881530000001186490630395781287_);}
	.st112{fill:url(#SVGID_00000024696198549817801370000004694329380382609808_);}
	.st113{fill:url(#SVGID_00000011717847523222113220000015923563603887309989_);}
	.st114{fill:url(#SVGID_00000002361264170087847840000006145597393284894098_);}
	.st115{fill:url(#SVGID_00000134240420639637041970000014281119646244183945_);}
	.st116{fill:url(#SVGID_00000135667955834615384920000016575371450124788896_);}
	.st117{fill:url(#SVGID_00000083072682451473419270000007108327733930615216_);}
	.st118{fill:url(#SVGID_00000145028401719518155810000008348519410092147594_);}
	.st119{fill:url(#SVGID_00000077317155556593724950000001803329420539050904_);}
	.st120{fill:url(#SVGID_00000106859502162453186660000009639365286251880881_);}
	.st121{fill:url(#SVGID_00000146475056706161073940000014074484007727934880_);}
	.st122{fill:url(#SVGID_00000140005869029749571580000010032290984511892922_);}
	.st123{fill:url(#SVGID_00000183961292199853538730000003895220156747177652_);}
	.st124{fill:url(#SVGID_00000135673653068493920840000013968986896854945209_);}
	.st125{fill:url(#SVGID_00000142897301642321259430000007105613999180897694_);}
	.st126{fill:url(#SVGID_00000174597915835574226300000012930809220128558495_);}
	.st127{fill:url(#SVGID_00000098912557060482363970000002058376938514814853_);}
	.st128{fill:url(#SVGID_00000042010293997830793490000001110846506622993582_);}
	.st129{fill:url(#SVGID_00000093141018940549059000000001691895279219725717_);}
	.st130{fill:url(#SVGID_00000026858418264100378110000009701569459484667523_);}
	.st131{fill:url(#SVGID_00000011028394057299805590000017234375783448516763_);}
	.st132{fill:url(#SVGID_00000072971784352069676470000018416977768287285138_);}
	.st133{fill:url(#SVGID_00000096048145042922653160000006904324072469621141_);}
	.st134{fill:url(#SVGID_00000137112991626210841520000001679132599047952801_);}
	.st135{fill:url(#SVGID_00000067921136554459468510000006442150559562373769_);}
	.st136{fill:url(#SVGID_00000038403919710423160820000008889953602729485731_);}
	.st137{fill:url(#SVGID_00000137835877448969673290000010840392556667485070_);}
	.st138{fill:url(#SVGID_00000160165939320727449970000006118987386289983929_);}
	.st139{fill:url(#SVGID_00000039853087074973748140000012769476352496470428_);}
	.st140{fill:url(#SVGID_00000113330564448422995090000003604969860949345667_);}
	.st141{fill:url(#SVGID_00000078014353095666674010000005603911855358561966_);}
	.st142{fill:url(#SVGID_00000070099624491484362290000016146618224041180346_);}
	.st143{fill:url(#SVGID_00000159437406036855836930000007452896906102217365_);}
	.st144{fill:url(#SVGID_00000098916156294787375140000017780091415181753220_);}
	.st145{fill:url(#SVGID_00000179638741475947936770000007103465481801020288_);}
	.st146{fill:url(#SVGID_00000008129885989596884530000007221274414366119863_);}
	.st147{fill:url(#SVGID_00000019672917552402138380000013320241338337875640_);}
	.st148{fill:url(#SVGID_00000021817269239636647820000010551530305415227295_);}
	.st149{fill:url(#SVGID_00000160175236872233287820000010386234545374673831_);}
	.st150{fill:url(#SVGID_00000148649407044997349540000010565873912236973230_);}
	.st151{fill:url(#SVGID_00000016064755676405448290000009376721863030818990_);}
</style>
<g>
	<linearGradient id="SVGID_1_" gradientUnits="userSpaceOnUse" x1="-4.6729" y1="8.9128" x2="394.0137" y2="382.883">
		<stop  offset="0" style="stop-color:#F77560"/>
		<stop  offset="1" style="stop-color:#845B77"/>
	</linearGradient>
	<path class="st0" d="M391.6,326.3c-1.9,2.4-4,4.6-7.5,3.3c-3.5-1.3-3.8-4.1-3.8-7.3c0-51.4,0-102.8,0-154.3c0-1.3,0-2.7,0-4.6
		c-1.6,1.1-2.7,1.9-3.8,2.6c-14.3,10.9-28.7,21.4-42.7,32.6c-26.7,21.4-56.9,31.4-91.1,30.1c-16.6-0.7-33.1,0.4-49.1,5.5
		c-10.7,3.5-20.6,8.6-30,14.8c-5.7,3.8-11.5,7.4-17.4,10.8c-3.7,2.1-6.8,1.2-8.4-1.7c-1.7-3.1-0.4-6,3.3-8.3
		c8.1-5,16.1-10.4,24.3-15.3c20.9-12.5,43.8-17.1,67.9-17.3c12.2-0.1,24.4-0.1,36.5-1.5c18.8-2.2,35.6-10,50.7-21.3
		c19.3-14.5,38.5-29.2,57.6-43.9c1-0.8,2.1-2.3,2.2-3.5c0.2-9.7,0.1-19.4,0.1-29.9c-1.5,1-2.6,1.7-3.6,2.5
		c-15,11.4-30.1,22.5-44.8,34.2c-26.1,20.9-56,29.2-88.9,28.9c-12.1-0.1-24.4,0.4-36.4,2.1c-16.7,2.5-31.7,9.9-45.5,19.7
		c-15.8,11.2-33.1,18.8-52.2,21.9c-7.2,1.2-14.6,1.8-21.9,1.9c-20.7,0.2-41.3,0.1-62,0.1c-1.4,0-2.7,0-4.4,0c0,11.6,0,23,0,34.6
		c0.7,0.1,1.5,0.4,2.3,0.4c24.4-0.2,48.8-0.1,73.2-0.7c7.6-0.2,15.2-2.3,22.7-3.8c4.3-0.9,7.3,0.1,8.2,3.4c1.1,3.6-0.8,6.2-5.2,7.5
		c-11.4,3.5-23.1,4.8-35,4.9c-20.7,0.1-41.3,0.1-62,0.1c-1.4,0-2.7,0-4.6,0c0,4.7,0,9.1,0,13.5c0,4.6-2.1,7.3-5.7,7.3
		c-3.5,0-5.6-2.7-5.6-7.3c0-19.9,0-39.8,0-59.8c0-7.4,3.9-11.2,11.3-11.2c21.2,0,42.3,0.2,63.5-0.1c9.8-0.1,19.5-1.3,29-2
		c2.4-14.3-6.7-30.3-20.1-36.7c-1.3-0.6-2.8-1.1-4.1-1.7c-3.3-1.5-4.7-4.2-3.6-7.2c1.1-3.2,4-4.6,7.5-3.4
		c7.1,2.3,13.1,6.5,18.4,11.7c0.6,0.6,1.2,1.1,2.5,2.3c0-2,0-3.3,0-4.6c0-15.6,0-94.7,0-110.3c0-4.9,3.3-7.6,7.3-6.3
		c3.2,1.1,4,3.7,4,6.8c0,15.3,0,94.2,0,109.6c0,1.3,0,2.7,0,4.7c2.6-2.3,4.6-4.5,7-6.1c4.2-2.7,8.4-5.2,12.9-7.3
		c3.9-1.8,7.3-0.4,8.4,2.8c1.2,3.4-0.3,6-4.4,7.7c-14.3,5.8-22,16.5-23.7,31.7c-0.1,0.5,0,1,0,2.2c3.9-1.6,7.6-2.8,11-4.7
		c6.1-3.3,12.4-6.5,18-10.5c24.7-17.5,52-25.2,82.2-24.6c11.8,0.2,23.6-1,35.4-1.6c1.3-0.1,2.7-0.5,3.9-0.8
		c1.5-13.2-7.7-28.2-20.9-34.3c-1.4-0.6-2.8-1.1-4.1-1.7c-2.8-1.4-4.1-4.5-2.9-7.2c1.3-2.8,3.6-4.2,6.7-3.3
		c7.4,2.1,13.4,6.4,18.9,11.6c0.7,0.6,1.4,1.3,2.7,2.6c0-1.9,0-3.1,0-4.3c0-15.2,0-94,0-109.2c0-1-0.1-2,0.1-3
		c0.4-3.1,3-5.4,5.9-5.1c3.1,0.3,5,2.1,5.2,5.3c0.2,2.5,0.1,5,0.1,7.5c0,14.8,0,93.2,0,108.7c1.1-1,1.8-1.5,2.5-2.1
		c5.1-5.1,10.9-9,17.7-11.5c4-1.4,7.1-0.2,8.3,3.2c1.1,3.2-0.3,5.8-4.3,7.4c-12.5,5-20.3,14-23.2,27.1c-0.2,0.8-0.3,1.7-0.4,2.6
		c-0.1,0.6,0,1.2,0,2.4c1.6-0.5,3-0.9,4.3-1.3c14-4.9,25.7-13.5,37.4-22.3c14.7-11.1,29.3-22.3,43.9-33.5c8-6.1,13.7-4.9,18.3,3.8
		C391.6,183.3,391.6,254.8,391.6,326.3z"/>
	
		<linearGradient id="SVGID_00000036211227402010650460000010834360796140155802_" gradientUnits="userSpaceOnUse" x1="-85.1058" y1="94.6617" x2="313.5808" y2="468.6319">
		<stop  offset="0" style="stop-color:#F77560"/>
		<stop  offset="1" style="stop-color:#845B77"/>
	</linearGradient>
	<path style="fill:url(#SVGID_00000036211227402010650460000010834360796140155802_);" d="M391.6,378.6c-2.5,5.2-6.6,7-12.3,6.9
		c-119.3-0.1-238.6-0.1-357.8-0.1c-9.2,0-12.4-3.1-12.4-12.3c0-19.4,0-38.8,0-58.3c0-1.1-0.1-2.3,0.1-3.4c0.7-3,2.7-4.8,5.8-4.6
		c3,0.2,4.8,1.9,5.2,4.9c0.2,1.1,0.1,2.2,0.1,3.4c0,18.2,0,36.4,0,54.5c0,1.3,0,2.7,0,4.2c120.1,0,239.8,0,360,0
		c0-7.3,0-14.5,0-21.6c0-1.1,0.1-2.2,0-3.4c-0.2-3.2,0.4-6,3.8-7.3c3.5-1.3,5.6,0.9,7.5,3.3C391.6,356.1,391.6,367.3,391.6,378.6z"
		/>
	
		<linearGradient id="SVGID_00000128449825126277323270000008468709342531993752_" gradientUnits="userSpaceOnUse" x1="-115.1944" y1="126.7389" x2="283.4922" y2="500.709">
		<stop  offset="0" style="stop-color:#F77560"/>
		<stop  offset="1" style="stop-color:#845B77"/>
	</linearGradient>
	<path style="fill:url(#SVGID_00000128449825126277323270000008468709342531993752_);" d="M125.5,361.3c-4.8,0-8.8-4.1-8.8-8.8
		c0-4.8,4-8.7,8.8-8.7c4.8,0,8.8,4,8.8,8.8C134.3,357.3,130.3,361.4,125.5,361.3z"/>
	
		<linearGradient id="SVGID_00000171680897375171655790000001813955658879147392_" gradientUnits="userSpaceOnUse" x1="-70.6149" y1="79.2131" x2="328.0716" y2="453.1833">
		<stop  offset="0" style="stop-color:#F77560"/>
		<stop  offset="1" style="stop-color:#845B77"/>
	</linearGradient>
	<path style="fill:url(#SVGID_00000171680897375171655790000001813955658879147392_);" d="M167.3,294.1c0,4.7-4.1,8.8-8.8,8.8
		c-4.7,0-8.8-4.1-8.8-8.8c0-4.8,4-8.8,8.8-8.8C163.2,285.3,167.3,289.4,167.3,294.1z"/>
	
		<linearGradient id="SVGID_00000039118835882673108560000010749751318785116831_" gradientUnits="userSpaceOnUse" x1="-61.197" y1="69.1727" x2="337.4896" y2="443.1428">
		<stop  offset="0" style="stop-color:#F77560"/>
		<stop  offset="1" style="stop-color:#845B77"/>
	</linearGradient>
	<path style="fill:url(#SVGID_00000039118835882673108560000010749751318785116831_);" d="M210.5,332.3c-0.1-4.9,3.7-8.9,8.6-9
		c4.8-0.1,8.8,3.8,8.9,8.6c0.1,4.8-3.8,8.9-8.6,9C214.5,341.1,210.5,337.2,210.5,332.3z"/>
	
		<linearGradient id="SVGID_00000157269220360785294840000010670184962847803546_" gradientUnits="userSpaceOnUse" x1="-112.9369" y1="124.3322" x2="285.7497" y2="498.3023">
		<stop  offset="0" style="stop-color:#F77560"/>
		<stop  offset="1" style="stop-color:#845B77"/>
	</linearGradient>
	<path style="fill:url(#SVGID_00000157269220360785294840000010670184962847803546_);" d="M86.2,303c0,4.9-3.9,8.8-8.8,8.7
		c-4.8,0-8.7-4-8.7-8.8c0-4.9,3.9-8.8,8.8-8.7C82.4,294.2,86.2,298.1,86.2,303z"/>
	
		<linearGradient id="SVGID_00000152945023854553113310000009759151998347722163_" gradientUnits="userSpaceOnUse" x1="-145.6682" y1="159.2268" x2="253.0183" y2="533.197">
		<stop  offset="0" style="stop-color:#F77560"/>
		<stop  offset="1" style="stop-color:#845B77"/>
	</linearGradient>
	<path style="fill:url(#SVGID_00000152945023854553113310000009759151998347722163_);" d="M50.9,352.5c-4.9-0.1-8.7-4-8.6-8.8
		c0.1-4.8,4-8.6,8.9-8.6c4.9,0.1,8.7,4,8.6,8.8C59.7,348.7,55.8,352.5,50.9,352.5z"/>
	
		<linearGradient id="SVGID_00000128457370168161655650000006740774204181432469_" gradientUnits="userSpaceOnUse" x1="-12.1175" y1="16.8495" x2="386.569" y2="390.8196">
		<stop  offset="0" style="stop-color:#F77560"/>
		<stop  offset="1" style="stop-color:#845B77"/>
	</linearGradient>
	<path style="fill:url(#SVGID_00000128457370168161655650000006740774204181432469_);" d="M256.7,277.7c-4.9,0-8.7-3.8-8.7-8.7
		c0-4.9,3.8-8.7,8.7-8.7c4.9,0,8.7,3.8,8.7,8.7C265.4,273.9,261.6,277.7,256.7,277.7z"/>
	
		<linearGradient id="SVGID_00000147926323639150940860000011923191017074234543_" gradientUnits="userSpaceOnUse" x1="-12.6046" y1="17.3688" x2="386.0819" y2="391.3389">
		<stop  offset="0" style="stop-color:#F77560"/>
		<stop  offset="1" style="stop-color:#845B77"/>
	</linearGradient>
	<path style="fill:url(#SVGID_00000147926323639150940860000011923191017074234543_);" d="M350.5,349.7c0,4.9-3.8,8.8-8.6,8.8
		c-4.9,0-8.8-3.7-8.8-8.6c0-4.9,3.7-8.7,8.6-8.8C346.6,341,350.5,344.8,350.5,349.7z"/>
	
		<linearGradient id="SVGID_00000139280516081716619320000011677034854628578225_" gradientUnits="userSpaceOnUse" x1="45.5536" y1="-44.6332" x2="444.2401" y2="329.337">
		<stop  offset="0" style="stop-color:#F77560"/>
		<stop  offset="1" style="stop-color:#845B77"/>
	</linearGradient>
	<path style="fill:url(#SVGID_00000139280516081716619320000011677034854628578225_);" d="M345.8,228.3c4.9,0,8.7,3.9,8.7,8.8
		c0,4.9-3.9,8.7-8.8,8.7c-4.9,0-8.7-3.9-8.7-8.8C337,232.1,340.9,228.3,345.8,228.3z"/>
	
		<linearGradient id="SVGID_00000104706737575210131210000004764750416400349341_" gradientUnits="userSpaceOnUse" x1="0.5149" y1="3.3821" x2="399.2015" y2="377.3523">
		<stop  offset="0" style="stop-color:#F77560"/>
		<stop  offset="1" style="stop-color:#845B77"/>
	</linearGradient>
	<path style="fill:url(#SVGID_00000104706737575210131210000004764750416400349341_);" d="M307.3,282.6c4.9-0.1,8.8,3.6,8.9,8.5
		c0.1,4.9-3.6,8.8-8.5,8.9c-4.9,0.1-8.8-3.7-8.9-8.6C298.7,286.6,302.4,282.7,307.3,282.6z"/>
</g>
</svg>
