<?xml version="1.0" encoding="utf-8"?>
<!-- Generator: Adobe Illustrator 26.3.1, SVG Export Plug-In . SVG Version: 6.00 Build 0)  -->
<svg version="1.1" id="Layer_1" xmlns="http://www.w3.org/2000/svg" xmlns:xlink="http://www.w3.org/1999/xlink" x="0px" y="0px"
	 viewBox="0 0 400 400" style="enable-background:new 0 0 400 400;" xml:space="preserve">
<style type="text/css">
	.st0{fill:url(#SVGID_1_);}
	.st1{fill:none;stroke:url(#SVGID_00000058571408786108583290000011872339595010803371_);stroke-miterlimit:10;}
	.st2{fill:none;stroke:url(#SVGID_00000134227867738061560130000005811103811849272992_);stroke-miterlimit:10;}
	.st3{fill:url(#SVGID_00000047753441392076750220000015122822152732456609_);}
	.st4{fill:url(#SVGID_00000047035833789508046000000013887524813698119100_);}
	.st5{fill:url(#SVGID_00000054985663802053644960000005321136218354193818_);}
	.st6{fill:url(#SVGID_00000039826679565304298850000014897665802271416218_);}
	.st7{fill:url(#SVGID_00000140008612817689378430000007684096859713203135_);}
	.st8{fill:url(#SVGID_00000036955296001340323780000004593959209382971530_);}
	.st9{fill:url(#SVGID_00000054970262856099014190000004428360964789142185_);}
	.st10{fill:url(#SVGID_00000129189926569875691860000016470101703828062101_);}
	.st11{fill:url(#SVGID_00000066497327474984424280000013856079685378423966_);}
	.st12{fill:url(#SVGID_00000043451685461532009800000007300023697572033927_);}
	.st13{fill:url(#SVGID_00000060022741747768211050000004834712030283173016_);}
	.st14{fill:url(#SVGID_00000036243755995974805890000003130114251222484621_);}
	.st15{fill:url(#SVGID_00000160183013284717560770000016738516849289259196_);}
	.st16{fill:url(#SVGID_00000000195783563413222570000005709158402868950200_);}
	.st17{fill:url(#SVGID_00000183233857722627523270000011891078850726314152_);}
	.st18{fill:url(#SVGID_00000060711713653375922900000016468083704043444897_);}
	.st19{fill:url(#SVGID_00000172440092088783379670000004344119183362057889_);}
	.st20{fill:url(#SVGID_00000096758063696277731630000009034767570373385877_);}
	.st21{fill:url(#SVGID_00000002358496345229367810000004013041433217654712_);}
	.st22{fill:url(#SVGID_00000169550376274886404160000012061548098884491169_);}
	.st23{fill:url(#SVGID_00000031909345155420190470000005383627410902513592_);}
	.st24{fill:url(#SVGID_00000080904537822662676870000001104164647431711630_);}
	.st25{fill:url(#SVGID_00000036930094544989684210000004822599264703525781_);}
	.st26{fill:url(#SVGID_00000142884590373761568660000013581182291818468242_);}
	.st27{fill:url(#SVGID_00000103955522558689109310000004725802842375574920_);}
	.st28{fill:url(#SVGID_00000052788879370841629260000013264517552923879093_);}
	.st29{fill:url(#SVGID_00000070080162705983009090000002536714347789077661_);}
	.st30{fill:url(#SVGID_00000148654277774001752160000002544739391041842306_);}
	.st31{fill:url(#SVGID_00000168808426599040491350000017063104348288004538_);}
	.st32{fill:url(#SVGID_00000097501556854858846390000007988984574398055049_);}
	.st33{fill:url(#SVGID_00000179644287656774209350000005730318141764623005_);}
	.st34{fill:url(#SVGID_00000011717063219546073710000004882882462248602020_);}
	.st35{fill:url(#SVGID_00000104706178088038721940000002827194375706370231_);}
	.st36{fill:url(#SVGID_00000018921656086058238330000009688259866990528945_);}
	.st37{fill:url(#SVGID_00000073707244849739390510000017112337464047286463_);}
	.st38{fill:url(#SVGID_00000080909828363537358210000011182530608793783452_);}
	.st39{fill:url(#SVGID_00000176760966587026481600000011159313691680358021_);}
	.st40{fill:url(#SVGID_00000034069423343347458070000014288851760972077759_);}
	.st41{fill:url(#SVGID_00000042002791690676719100000007624603622242129818_);}
	.st42{fill:url(#SVGID_00000043434695499665622500000002506722627501861007_);}
	.st43{fill:url(#SVGID_00000122721171276159709850000005142174874140426899_);}
	.st44{fill:url(#SVGID_00000035507225097971916780000011154728338930937496_);}
	.st45{fill:url(#SVGID_00000010283368536036246790000016372346873403449254_);}
	.st46{fill:url(#SVGID_00000055700525218968271920000012538723794664350852_);}
	.st47{fill:url(#SVGID_00000034052646547031432980000009225611698300767669_);}
	.st48{fill:url(#SVGID_00000017475118491172292630000001980515996557823400_);}
	.st49{fill:url(#SVGID_00000016754001866021079030000004489347891069164461_);}
	.st50{fill:url(#SVGID_00000021115875000882387650000010204213661744406171_);}
	.st51{fill:url(#SVGID_00000080906669333958676410000007725263638320014779_);}
	.st52{fill:url(#SVGID_00000122719264653339752820000012141165938595929240_);}
	.st53{fill:url(#SVGID_00000042727296217202708090000007480346657924702347_);}
	.st54{fill:url(#SVGID_00000127038798833035624850000009121904109377723810_);}
	.st55{fill:url(#SVGID_00000060012307737838756670000007237790078247034256_);}
	.st56{fill:url(#SVGID_00000113311516616556986580000016089120273064320444_);}
	.st57{fill:url(#SVGID_00000099639641409602485450000015785155106347056798_);}
	.st58{fill:url(#SVGID_00000062175185931654833770000011105534334365339816_);}
	.st59{fill:url(#SVGID_00000010282848269553814680000010410522289009788860_);}
	.st60{fill:url(#SVGID_00000151520016407360048950000002778942523208064691_);}
	.st61{fill:url(#SVGID_00000147205809254150706270000002816251814308850366_);}
	.st62{fill:url(#SVGID_00000106127882981798532460000014089697364249393049_);}
	.st63{fill:url(#SVGID_00000151510284835289299120000015009697380851876006_);}
	.st64{fill:url(#SVGID_00000026140863477549523940000004543182563401940378_);}
	.st65{fill:url(#SVGID_00000076602091023695671040000018004427925679788965_);}
	.st66{fill:url(#SVGID_00000101807162580889831980000011760446892522059918_);}
	.st67{fill:url(#SVGID_00000174581453518492541770000000442353128999035280_);}
	.st68{fill:url(#SVGID_00000109741966024564095260000010658428239037439632_);}
	.st69{fill:url(#SVGID_00000108997780948095931150000006147431585257763724_);}
	.st70{fill:url(#SVGID_00000135673003817982297620000015446387438225650565_);}
	.st71{fill:url(#SVGID_00000142885657640220725260000001060140294170241982_);}
	.st72{fill:url(#SVGID_00000021820750016802887150000001795419444891081663_);}
	.st73{fill:url(#SVGID_00000049927955084936134480000008209747770527597718_);}
	.st74{fill:url(#SVGID_00000031196838405564827240000017702708539488430485_);}
	.st75{fill:url(#SVGID_00000040549529208110114760000017938842191965810101_);}
	.st76{fill:url(#SVGID_00000124877028351406035240000010365445343565526699_);}
	.st77{fill:url(#SVGID_00000158026714546538684930000018194794106626963593_);}
	.st78{fill:url(#SVGID_00000052804402258892487750000008284109344434303652_);}
	.st79{fill:url(#SVGID_00000048467776859257507590000003809602540162911892_);}
	.st80{fill:url(#SVGID_00000003088938770260184070000005528770700297933999_);}
	.st81{fill:url(#SVGID_00000067927166218881338990000008425766811863100331_);}
	.st82{fill:url(#SVGID_00000017507004830136730300000011539459673532979898_);}
	.st83{fill:url(#SVGID_00000032645617149643353240000016479785145119967162_);}
	.st84{fill:url(#SVGID_00000075120376033610549220000001934896968448738221_);}
	.st85{fill:url(#SVGID_00000139992216238907914440000009150484485585487016_);}
	.st86{fill:url(#SVGID_00000042708721300575871430000013540097950650516136_);}
	.st87{fill:url(#SVGID_00000088828956415567734430000011484207242722265747_);}
	.st88{fill:url(#SVGID_00000175280472195581960490000008883923544313453231_);}
	.st89{fill:url(#SVGID_00000141439012331527621150000012417084833689381002_);}
	.st90{fill:url(#SVGID_00000039831495865509337850000001866563518834376381_);}
	.st91{fill:url(#SVGID_00000074410303239938416210000012329725165475232676_);}
	.st92{fill:url(#SVGID_00000043433859105487355570000005068193848208742559_);}
	.st93{fill:url(#SVGID_00000081646733432861324480000008776143711628335494_);}
	.st94{fill:url(#SVGID_00000086669551352756835070000006898065488759908489_);}
	.st95{fill:url(#SVGID_00000113337487886187184230000002468421155334017191_);}
	.st96{fill:url(#SVGID_00000141415901279871103380000007279669260532504480_);}
	.st97{fill:url(#SVGID_00000128445012216861839450000011503063453320603545_);}
	.st98{fill:url(#SVGID_00000138533552879929837250000015308904678369414060_);}
	.st99{fill:url(#SVGID_00000048476211097785541030000011455476288012860812_);}
	.st100{fill:url(#SVGID_00000142883420284023310760000000489392910222134719_);}
	.st101{fill:url(#SVGID_00000012470676923316233930000018104184393901932453_);}
	.st102{fill:url(#SVGID_00000128466436312236225980000008529718737251209872_);}
	.st103{fill:url(#SVGID_00000033356794314944118350000004763858728048333471_);}
	.st104{fill:url(#SVGID_00000041274905307781110450000015497920857839904420_);}
	.st105{fill:url(#SVGID_00000111902909875324570200000005026337023285102216_);}
	.st106{fill:url(#SVGID_00000183958422377695724360000009655723918642715793_);}
	.st107{fill:url(#SVGID_00000021116523768985026460000016830961290663689617_);}
	.st108{fill:url(#SVGID_00000114757421423607619540000002921025485471641527_);}
	.st109{fill:url(#SVGID_00000160876521300063669750000007952287428011090098_);}
	.st110{fill:url(#SVGID_00000147910391758235751540000018041958625034082488_);}
	.st111{fill:url(#SVGID_00000150802079848274235800000007883733477277862294_);}
	.st112{fill:url(#SVGID_00000114043079402733574850000014384735050691191483_);}
	.st113{fill:url(#SVGID_00000180329027330003572130000004821397970579939751_);}
	.st114{fill:url(#SVGID_00000082340325209697832700000001278200983040516005_);}
	.st115{fill:url(#SVGID_00000093160596396053969780000002148263501984023425_);}
	.st116{fill:url(#SVGID_00000076602977889948373160000018164034951010461572_);}
	.st117{fill:url(#SVGID_00000024692851432785520970000009598273914413043086_);}
	.st118{fill:url(#SVGID_00000047775507812933261800000015314154801690544536_);}
	.st119{fill:url(#SVGID_00000047747303630860367530000016536274664330351513_);}
	.st120{fill:url(#SVGID_00000059281298154787566290000004173317364990695348_);}
	.st121{fill:url(#SVGID_00000167386882522323446220000007999323274739820173_);}
	.st122{fill:url(#SVGID_00000040576961516096154580000012024283549281048731_);}
	.st123{fill:url(#SVGID_00000005966372467523524690000011904276364590334345_);}
	.st124{fill:url(#SVGID_00000050643136745579514520000002087897590599104128_);}
	.st125{fill:url(#SVGID_00000119808881079993194330000016256755320297228681_);}
	.st126{fill:url(#SVGID_00000166658641665017439360000018440830594139899291_);}
	.st127{fill:url(#SVGID_00000018941597758190738570000003076929409479944078_);}
	.st128{fill:url(#SVGID_00000118384662341693166520000012893985685046519732_);}
	.st129{fill:url(#SVGID_00000128467285536337220740000010561707476376865164_);}
	.st130{fill:url(#SVGID_00000127027438689658734580000015315970575016421565_);}
	.st131{fill:url(#SVGID_00000176761296756946027730000007250619803024769702_);}
	.st132{fill:url(#SVGID_00000142141079591474210840000009824783052485708721_);}
	.st133{fill:url(#SVGID_00000142880115553282101150000016037491672556828580_);}
	.st134{fill:url(#SVGID_00000069361013696468375040000001905418951915189646_);}
	.st135{fill:url(#SVGID_00000046325908644340893780000009498550120566011308_);}
	.st136{fill:url(#SVGID_00000005250379490737466710000005880986142895708546_);}
	.st137{fill:url(#SVGID_00000135669118327367290940000003125141992388798337_);}
	.st138{fill:url(#SVGID_00000062153296584734587650000007693778488485389496_);}
	.st139{fill:url(#SVGID_00000152246762146825249670000010689933505816854943_);}
	.st140{fill:url(#SVGID_00000044139881916377695160000018315427328103656370_);}
	.st141{fill:url(#SVGID_00000137847127331466519980000018246951962811268538_);}
	.st142{fill:url(#SVGID_00000092426220170108976740000015575527465637975711_);}
	.st143{fill:url(#SVGID_00000032610152473542250910000008927111633754992292_);}
	.st144{fill:url(#SVGID_00000078760493930981344520000000657059294753073034_);}
	.st145{fill:url(#SVGID_00000013177514991586887780000008505743222556703411_);}
	.st146{fill:url(#SVGID_00000101803541794420697460000018232147572721826220_);}
	.st147{fill:url(#SVGID_00000103943949717853681900000010429503374754348719_);}
	.st148{fill:url(#SVGID_00000160884783552610689590000008852183139477250739_);}
	.st149{fill:url(#SVGID_00000009567480654577190040000015423359903641628309_);}
	.st150{fill:url(#SVGID_00000005982366301643876620000011291969691051944326_);}
	.st151{fill:url(#SVGID_00000015327226461193348350000002379720339432122508_);}
</style>
<g>
	<linearGradient id="SVGID_1_" gradientUnits="userSpaceOnUse" x1="87.2908" y1="-6.8024" x2="390.9972" y2="365.7049">
		<stop  offset="0" style="stop-color:#F77560"/>
		<stop  offset="1" style="stop-color:#845B77"/>
	</linearGradient>
	<path class="st0" d="M293.8,24.7c7.5,2.6,10.8,8,10.2,15.8c-1.4,16,1.6,31.2,7.9,45.9c4,9.4,7.4,19.1,10.3,29
		c1.9,6.5,3.4,13.4,3.5,20.1c0.3,35.4,0.2,70.7,0.2,106.1c0,0.8,0,1.6,0,2.4c-0.3,3.3-2.3,5.3-5.1,5.3c-2.9,0-4.9-2-5.1-5.3
		c-0.1-1.1,0-2.3,0-3.4c0-34.7,0-69.4,0-104.1c0-6.5-1-12.7-3.2-18.8c-5.7-15.6-11.2-31.3-16.7-47c-0.7-2-1.6-2.3-3.4-2.3
		c-11.3,0.1-22.6,0.1-33.9,0c-3.5,0-5.6-2.1-5.6-5.1c0-3.1,2.1-5,5.6-5.1c0.8,0,1.6,0,2.4,0c9.7,0,19.4,0,29.1,0c1.2,0,2.4,0,4,0
		c0-7.1,0.1-13.8-0.1-20.5c0-0.9-1.7-2-2.8-2.7c-0.6-0.4-1.6-0.1-2.4-0.1c-58.9,0-117.8,0-176.6,0c-5.2,0-5.4,0.3-5.4,5.4
		c0,5.8,0,11.6,0,17.8c1.6,0,3,0,4.3,0c32.4,0,64.8,0,97.2,0c1.1,0,2.3-0.1,3.4,0.1c2.9,0.4,4.6,2,4.6,5c0.1,3-1.7,4.6-4.5,5.2
		c-1.1,0.2-2.3,0.1-3.4,0.1c-33.1,0-66.2,0-99.3-0.1c-2.6,0-3.7,0.7-4.6,3.2c-5.4,15.7-11.3,31.3-16.5,47.1
		c-1.8,5.4-2.8,11.3-2.9,17c-0.3,20.8-0.1,41.5-0.1,62.3c0,1.3,0,2.5-0.1,3.8c-0.3,2.9-2,4.6-5,4.6c-3,0-4.6-1.6-5.1-4.5
		c-0.2-1-0.1-2-0.1-3.1c0-21.1,0-42.2,0-63.3c0-7,1.2-13.8,3.6-20.4c5.3-14.7,10.7-29.3,15.6-44.1c1.5-4.4,2.1-9.3,2.5-14
		c0.4-5.4,0.3-11,0-16.4c-0.4-7.8,2.7-13.2,10.2-15.8C168.7,24.7,231.3,24.7,293.8,24.7z"/>
	
		<linearGradient id="SVGID_00000134214106203399975550000007735700907306122413_" gradientUnits="userSpaceOnUse" x1="-3.0101" y1="66.8202" x2="300.6964" y2="439.3275">
		<stop  offset="0" style="stop-color:#F77560"/>
		<stop  offset="1" style="stop-color:#845B77"/>
	</linearGradient>
	<path style="fill:url(#SVGID_00000134214106203399975550000007735700907306122413_);" d="M84.5,334.8c8.6,0,16.7,0,24.8,0
		c2.4,0,4.8,0,7.2,0c4.1,0,6.3,1.8,6.4,5c0,3.3-2.4,5.2-6.6,5.2c-8.2,0-16.4,0-24.7,0c-2.3,0-4.5,0-6.9,0c0,6.7,0,13.1,0,19.7
		c76.8,0,153.6,0,230.5,0c0-6.4,0-12.8,0-19.7c-1.4,0-2.7,0-4,0c-44.7,0-89.5,0-134.2,0c-1,0-2.1,0.1-3.1,0
		c-3.1-0.2-5.3-2.4-5.3-5.2c0-2.8,2.2-4.9,5.4-5c1-0.1,2.1,0,3.1,0c44.6,0,89.3,0,133.9,0c1.3,0,2.7,0,4.4,0c0-1.7,0-3,0-4.4
		c0-21,0-42,0-63c0-5.3,1.6-7.8,5-7.8c3.5-0.1,5.3,2.5,5.3,8c0,31.5,0,63,0,94.5c0,9.3-3.9,13.2-13,13.2c-75.2,0-150.4,0-225.6,0
		c-8.8,0-12.8-4-12.8-12.7c0-46.1,0-92.2,0-138.3c0-1.4,0-2.8,0.4-4.1c0.7-2.4,2.5-3.5,5-3.3c2.4,0.1,4.1,1.4,4.6,3.8
		c0.3,1.4,0.3,2.9,0.3,4.4c0,34.9,0,69.8,0,104.8C84.5,331.4,84.5,332.8,84.5,334.8z"/>
	
		<linearGradient id="SVGID_00000174577134807319359590000006925757837351725239_" gradientUnits="userSpaceOnUse" x1="50.3528" y1="23.3133" x2="354.0593" y2="395.8205">
		<stop  offset="0" style="stop-color:#F77560"/>
		<stop  offset="1" style="stop-color:#845B77"/>
	</linearGradient>
	<path style="fill:url(#SVGID_00000174577134807319359590000006925757837351725239_);" d="M203.7,113.2c54.1,0.3,98,44.6,97.6,98.4
		c-0.4,53.9-44.5,97.6-98.3,97.3c-53.9-0.3-97.7-44.5-97.4-98.2C105.8,156.8,150.1,112.9,203.7,113.2z M203.5,123.5
		c-48.2-0.1-87.6,39.4-87.6,87.5c0,48,39.3,87.4,87.3,87.5c48.2,0.1,87.7-39.1,87.8-87.4C291.1,163.1,251.7,123.6,203.5,123.5z"/>
	
		<linearGradient id="SVGID_00000058587167510840614780000013570495688084899486_" gradientUnits="userSpaceOnUse" x1="33.9451" y1="36.6905" x2="337.6516" y2="409.1978">
		<stop  offset="0" style="stop-color:#F77560"/>
		<stop  offset="1" style="stop-color:#845B77"/>
	</linearGradient>
	<path style="fill:url(#SVGID_00000058587167510840614780000013570495688084899486_);" d="M154.8,242.5c0.3-8.6,4.9-16.8,13.4-23.3
		c3.6-2.8,7.2-6,9.8-9.7c12.5-17.8,38.5-17.7,50.9,0.2c2.5,3.5,5.8,6.8,9.3,9.3c12.9,9,17.6,25.4,10.7,39.3
		c-6.8,13.8-22.5,20.4-37.3,15.4c-5.7-1.9-11-1.8-16.7,0C174.9,280.4,154.7,265.6,154.8,242.5z M241.8,244.9c0-6.8-3-13-8.8-16.8
		c-5.3-3.4-9.4-7.7-13-12.9c-8.1-11.7-25.1-11.6-33.1,0.1c-3.5,5.1-7.6,9.2-12.7,12.7c-8.6,5.7-11.4,16.3-7.1,25.3
		c4.4,9.2,14.6,14.1,24.3,10.8c8.3-2.8,16.1-2.6,24.4,0C228.5,268.3,241.7,258.3,241.8,244.9z"/>
	
		<linearGradient id="SVGID_00000030450154776126066640000002580944438612488324_" gradientUnits="userSpaceOnUse" x1="20.7676" y1="47.4342" x2="324.474" y2="419.9415">
		<stop  offset="0" style="stop-color:#F77560"/>
		<stop  offset="1" style="stop-color:#845B77"/>
	</linearGradient>
	<path style="fill:url(#SVGID_00000030450154776126066640000002580944438612488324_);" d="M163.6,200.9c-0.3,6.2-2.2,11.8-6.9,16.1
		c-6.3,5.7-15,5.8-21.4,0.2c-9.2-8.1-9.4-24-0.5-32.4c6.9-6.4,16.8-6,23.1,1C161.8,190.1,163.3,195.2,163.6,200.9z M153.2,200.9
		c0-5.5-3.6-10.4-7.5-10.3c-3.8,0.1-7.2,4.8-7.3,10.1c-0.1,5.5,3.3,10.3,7.3,10.4C149.8,211.1,153.2,206.4,153.2,200.9z"/>
	
		<linearGradient id="SVGID_00000016060921626341121680000004198401468613159594_" gradientUnits="userSpaceOnUse" x1="89.9327" y1="-8.9563" x2="393.6392" y2="363.5509">
		<stop  offset="0" style="stop-color:#F77560"/>
		<stop  offset="1" style="stop-color:#845B77"/>
	</linearGradient>
	<path style="fill:url(#SVGID_00000016060921626341121680000004198401468613159594_);" d="M278.7,201.7c-0.3,5.8-2.3,11.6-7.4,15.9
		c-6.1,5.2-14.6,5.1-20.6-0.1c-9.4-8.1-9.7-24.2-0.6-32.7c7.2-6.7,17.6-5.9,23.8,1.9C276.9,190.5,278.7,195.8,278.7,201.7z
		 M268.4,200.9c0-5.4-3.5-10.4-7.4-10.4c-3.9,0-7.4,5-7.4,10.4c0.1,5.4,3.3,10,7.2,10.1C264.8,211.2,268.3,206.5,268.4,200.9z"/>
	
		<linearGradient id="SVGID_00000116233721408763354760000001757169977084971938_" gradientUnits="userSpaceOnUse" x1="85.8405" y1="-5.62" x2="389.5469" y2="366.8873">
		<stop  offset="0" style="stop-color:#F77560"/>
		<stop  offset="1" style="stop-color:#845B77"/>
	</linearGradient>
	<path style="fill:url(#SVGID_00000116233721408763354760000001757169977084971938_);" d="M244.5,167.9c-0.3,6.4-2.5,12.3-8,16.6
		c-6,4.7-14,4.5-19.8-0.3c-9.5-7.9-10-24.1-1.1-32.6c7.2-6.8,17.4-6.2,23.8,1.4C242.9,157.1,244.4,162,244.5,167.9z M234.4,166.5
		c-0.6-1.6-1.1-4-2.3-6c-2.7-4.5-7.9-4.7-10.4-0.1c-1.4,2.7-1.9,6.3-1.8,9.4c0.1,4.3,3.4,7.5,6.5,7.7c3.3,0.2,6.1-2.4,7.3-6.9
		C234,169.5,234.1,168.4,234.4,166.5z"/>
	
		<linearGradient id="SVGID_00000060739404567597897570000014578641996909765787_" gradientUnits="userSpaceOnUse" x1="57.6875" y1="17.3333" x2="361.3939" y2="389.8406">
		<stop  offset="0" style="stop-color:#F77560"/>
		<stop  offset="1" style="stop-color:#845B77"/>
	</linearGradient>
	<path style="fill:url(#SVGID_00000060739404567597897570000014578641996909765787_);" d="M162.3,167.3c0.1-5.4,1.7-10.4,5.2-14.5
		c6.9-8.1,18.1-8,25,0.1c6.7,7.9,6.8,20.5,0.4,28.5c-7,8.8-18.9,8.7-25.9-0.1C163.8,177.2,162.4,172.4,162.3,167.3z M172.6,167.3
		c0,5.6,3.4,10.3,7.5,10.3c4-0.1,7.2-4.6,7.2-10.2c0-0.1,0-0.2,0-0.3c-0.1-5.5-3.6-10.1-7.4-10C176,157.1,172.7,161.9,172.6,167.3z"
		/>
</g>
</svg>
