<?xml version="1.0" encoding="utf-8"?>
<!-- Generator: Adobe Illustrator 26.3.1, SVG Export Plug-In . SVG Version: 6.00 Build 0)  -->
<svg version="1.1" id="Layer_1" xmlns="http://www.w3.org/2000/svg" xmlns:xlink="http://www.w3.org/1999/xlink" x="0px" y="0px"
	 viewBox="0 0 400 400" style="enable-background:new 0 0 400 400;" xml:space="preserve">
<style type="text/css">
	.st0{fill:url(#SVGID_1_);}
	.st1{fill:none;stroke:url(#SVGID_00000142175838872827883070000004021341101445656757_);stroke-miterlimit:10;}
	.st2{fill:none;stroke:url(#SVGID_00000051351233527744514830000011325195045355145351_);stroke-miterlimit:10;}
	.st3{fill:url(#SVGID_00000152954353422064376290000013197121475561266059_);}
	.st4{fill:url(#SVGID_00000092426267285710344320000012090734698890825375_);}
	.st5{fill:url(#SVGID_00000053508102304431590670000005541528749732633015_);}
	.st6{fill:url(#SVGID_00000101063934730398566600000014402525344649862072_);}
	.st7{fill:url(#SVGID_00000026883275629648151070000013177051146690392218_);}
	.st8{fill:url(#SVGID_00000095302647796212604190000002831276341550153391_);}
	.st9{fill:url(#SVGID_00000060003132287133467080000011609266987231915691_);}
	.st10{fill:url(#SVGID_00000121280229501966707220000000477304120683414461_);}
	.st11{fill:url(#SVGID_00000065769506189466172550000016508767906467195291_);}
	.st12{fill:url(#SVGID_00000135648895405540568930000007398471537427759029_);}
	.st13{fill:url(#SVGID_00000145754038051047716980000016049187796791253632_);}
	.st14{fill:url(#SVGID_00000072997532947038246170000018141845969125347984_);}
	.st15{fill:url(#SVGID_00000036233386619378653660000005613297622446442638_);}
	.st16{fill:url(#SVGID_00000094578855603236856250000008040395906072955298_);}
	.st17{fill:url(#SVGID_00000005977157174718094440000012670376395090815370_);}
	.st18{fill:url(#SVGID_00000157306856523044430630000017098278138397933718_);}
	.st19{fill:url(#SVGID_00000041265630873650184680000013512373782076965765_);}
	.st20{fill:url(#SVGID_00000134229146384127566630000004616792643338603960_);}
	.st21{fill:url(#SVGID_00000084528087509868549950000000084365869381867429_);}
	.st22{fill:url(#SVGID_00000008838646898810151610000014993370054690464175_);}
	.st23{fill:url(#SVGID_00000106132306293635323220000003670980247697571005_);}
	.st24{fill:url(#SVGID_00000026849532557938354930000007455047007577359490_);}
	.st25{fill:url(#SVGID_00000003826589375619710630000006075203251808362658_);}
	.st26{fill:url(#SVGID_00000065034318732718949080000001143760695941896859_);}
	.st27{fill:url(#SVGID_00000078045360493453236360000004444919552596816062_);}
	.st28{fill:url(#SVGID_00000048464004882158917650000016479334935123925142_);}
	.st29{fill:url(#SVGID_00000136382949374308607330000001798546187370325434_);}
	.st30{fill:url(#SVGID_00000154414233695799267220000003956599163400434873_);}
	.st31{fill:url(#SVGID_00000106110419669964639350000004659915144922621824_);}
	.st32{fill:url(#SVGID_00000087409557271489703400000017897295554721350822_);}
	.st33{fill:url(#SVGID_00000045594005316839572960000003237571905643909004_);}
	.st34{fill:url(#SVGID_00000165205847853405331270000010494550162902745475_);}
	.st35{fill:url(#SVGID_00000111911658293982548270000016203771896230309802_);}
	.st36{fill:url(#SVGID_00000085210675907497425780000000345477943307006384_);}
	.st37{fill:url(#SVGID_00000000189133341918152190000016161464348922028982_);}
	.st38{fill:url(#SVGID_00000055703450779798533690000014195828425609397154_);}
	.st39{fill:url(#SVGID_00000060027523365894460690000014225512717721429413_);}
	.st40{fill:url(#SVGID_00000049918313883066998010000012782047171131836832_);}
	.st41{fill:url(#SVGID_00000005246431659778921420000004400086658335817874_);}
	.st42{fill:url(#SVGID_00000154384659398882635330000016416727583002859156_);}
	.st43{fill:url(#SVGID_00000032615335393816399280000000746870945818272427_);}
	.st44{fill:url(#SVGID_00000179622827135919673980000002824190283088946832_);}
	.st45{fill:url(#SVGID_00000000922263208907783050000013410485692574380702_);}
	.st46{fill:url(#SVGID_00000096057535137235196280000001064634730343091609_);}
	.st47{fill:url(#SVGID_00000153693582559153640330000002932712280609970310_);}
	.st48{fill:url(#SVGID_00000170248792006116580000000001390770391873920926_);}
	.st49{fill:url(#SVGID_00000085937996035716138890000015712091416219557789_);}
	.st50{fill:url(#SVGID_00000039119115550932923400000015976082303232790456_);}
	.st51{fill:url(#SVGID_00000164496532985568946610000006033017436195298487_);}
	.st52{fill:url(#SVGID_00000176024512509132693620000002831497918477096088_);}
	.st53{fill:url(#SVGID_00000130645951851187896380000002007830041624741786_);}
	.st54{fill:url(#SVGID_00000170273691842486567540000014332018078356415107_);}
	.st55{fill:url(#SVGID_00000160893276859544565810000015995741995431789473_);}
	.st56{fill:url(#SVGID_00000067934538924136373220000009419016704914676920_);}
	.st57{fill:url(#SVGID_00000144328132338135373040000018442715609498370986_);}
	.st58{fill:url(#SVGID_00000088811586183008379170000011749705473695042221_);}
	.st59{fill:url(#SVGID_00000078044193026622885680000012531817335629855409_);}
	.st60{fill:url(#SVGID_00000100379352160011347470000011140488724918851471_);}
	.st61{fill:url(#SVGID_00000054975943573999704820000005647405992302562988_);}
	.st62{fill:url(#SVGID_00000049183552325942820020000005008854187351680441_);}
	.st63{fill:url(#SVGID_00000016064455896917391450000013496614255784532104_);}
	.st64{fill:url(#SVGID_00000116950699786173540660000006893620736602614158_);}
	.st65{fill:url(#SVGID_00000181805990130194265810000009436481107966085296_);}
	.st66{fill:url(#SVGID_00000083774923154887407070000013640708089958454420_);}
	.st67{fill:url(#SVGID_00000018194973590252588010000003365997317218914997_);}
	.st68{fill:url(#SVGID_00000137109000012665389680000004774192133788908192_);}
	.st69{fill:url(#SVGID_00000157299355109026424690000014245805855448937353_);}
	.st70{fill:url(#SVGID_00000158010089983600751880000014755324727177011869_);}
	.st71{fill:url(#SVGID_00000099627888398342342510000009538824318392655261_);}
	.st72{fill:url(#SVGID_00000121972632396064937500000012135529677507831946_);}
	.st73{fill:url(#SVGID_00000124841571704866587080000015843797209571955388_);}
	.st74{fill:url(#SVGID_00000178196487210704932590000016338520487756521607_);}
	.st75{fill:url(#SVGID_00000106146193771410549410000010784788739300997806_);}
	.st76{fill:url(#SVGID_00000134957696008819862250000015521907740206369454_);}
	.st77{fill:url(#SVGID_00000121253821512357368560000017536169332985575334_);}
	.st78{fill:url(#SVGID_00000009591196003715574060000003158479546914312853_);}
	.st79{fill:url(#SVGID_00000026868357761573603000000009117603254105191314_);}
	.st80{fill:url(#SVGID_00000156577240222247043190000015772424717576922498_);}
	.st81{fill:url(#SVGID_00000013871838142234615730000010001868740379852712_);}
	.st82{fill:url(#SVGID_00000047061121107396267720000014778981947398472858_);}
	.st83{fill:url(#SVGID_00000099657791858675910440000016539959012929798323_);}
	.st84{fill:url(#SVGID_00000065049807551010221060000013624403372198552245_);}
	.st85{fill:url(#SVGID_00000024700844005981126110000014174932506439157681_);}
	.st86{fill:url(#SVGID_00000145048759541049221040000003153634203431922861_);}
	.st87{fill:url(#SVGID_00000003783529749704999610000013133156830167533216_);}
	.st88{fill:url(#SVGID_00000137090472716042070140000012773387469539061690_);}
	.st89{fill:url(#SVGID_00000181071995479647615920000010844239772094676670_);}
	.st90{fill:url(#SVGID_00000108997418994772467420000011306801827582657962_);}
	.st91{fill:url(#SVGID_00000156585017693929059630000011979164729953843846_);}
	.st92{fill:url(#SVGID_00000162336663063867128140000011825986139749922945_);}
	.st93{fill:url(#SVGID_00000178896456481303150610000017865240574920776111_);}
	.st94{fill:url(#SVGID_00000093857638140217804270000007537423462585503163_);}
	.st95{fill:url(#SVGID_00000006698964874607379700000001307601484411639728_);}
	.st96{fill:url(#SVGID_00000110445739959888094440000017010485005318774658_);}
	.st97{fill:url(#SVGID_00000055695362719869963740000006241031054150730419_);}
	.st98{fill:url(#SVGID_00000127724406773550092010000006933773242896658614_);}
	.st99{fill:url(#SVGID_00000087388030223490277620000012947330709928189367_);}
	.st100{fill:url(#SVGID_00000062157501934004874430000015318957273300893069_);}
	.st101{fill:url(#SVGID_00000168823758181348098130000008308702221110668204_);}
	.st102{fill:url(#SVGID_00000154401176135124729920000014312579603926119604_);}
	.st103{fill:url(#SVGID_00000070801671028079716350000001645577671605356962_);}
	.st104{fill:url(#SVGID_00000055678260424103812250000004504969186336913291_);}
	.st105{fill:url(#SVGID_00000063610672545351162990000016706023811029602198_);}
	.st106{fill:url(#SVGID_00000119821301686587185050000002934912484955422862_);}
	.st107{fill:url(#SVGID_00000147916346415880135960000005307489381968420228_);}
	.st108{fill:url(#SVGID_00000103978179915004268510000006153453539527348360_);}
	.st109{fill:url(#SVGID_00000005945077465600251390000014752040956209705116_);}
	.st110{fill:url(#SVGID_00000153682672223508284910000014560433115662516369_);}
	.st111{fill:url(#SVGID_00000096025406201505830510000013214230117950569377_);}
	.st112{fill:url(#SVGID_00000088114156336735244630000001954195882667813298_);}
	.st113{fill:url(#SVGID_00000086676434902621727660000017513459827555966895_);}
</style>
<g>
	<linearGradient id="SVGID_1_" gradientUnits="userSpaceOnUse" x1="25.6447" y1="28.6319" x2="368.9901" y2="391.4776">
		<stop  offset="0" style="stop-color:#F77560"/>
		<stop  offset="1" style="stop-color:#845B77"/>
	</linearGradient>
	<path class="st0" d="M205.2,11.8c18.7,18.6,37.4,37.3,56.1,55.9c2.8,2.8,2.9,6.1,0.7,8.4c-2.4,2.4-5.6,2.2-8.6-0.9
		c-15.6-15.6-31.2-31.2-46.8-46.8c-1-1-1.8-2.3-3-3.7c-1.4,1.3-2.4,2.2-3.3,3.1c-27.5,27.5-55.1,55-82.6,82.6
		c-16.2,16.3-21.5,35.9-14.6,57.8c6.9,21.9,22.5,35.1,45.1,38.9c18.2,3,34.3-2.2,47.8-14.9c0.9-0.9,1.6-2.5,1.6-3.8
		c0.2-5.6,0.2-11.2,0-16.7c-0.1-1.6-1.1-3.4-2.3-4.6c-11-11.1-22.1-22.2-33.1-33.2c-0.8-0.8-1.6-1.5-2.2-2.4c-1.9-2.5-1.8-5,0.3-7.2
		c2.2-2.2,4.8-2.2,7.2-0.4c1.1,0.8,2,1.8,2.9,2.8c8.8,8.8,17.6,17.7,26.9,27.1c0.2-1.7,0.4-2.5,0.4-3.4c0-11.8,0.1-23.5-0.1-35.3
		c0-1.8-0.9-4-2.2-5.3c-8.3-8.5-16.7-16.9-25.2-25.3c-2.1-2.1-3.1-4.4-1.6-7.2c1.8-3.5,5.9-3.9,9.2-0.7c5.7,5.6,11.3,11.3,17,16.9
		c0.7,0.7,1.5,1.4,2.9,2.6c0-7.1,0-13.5,0-19.9c0-3.6-0.1-7.3,0-10.9c0.1-3.8,2-6.1,5.2-6.2c3.3-0.1,5.6,2.2,5.7,6.1
		c0.1,9.1,0,18.2,0.1,27.3c0,0.9,0.1,1.8,1.1,3.4c1.4-1.6,2.7-3.3,4.2-4.8c4.8-4.8,9.6-9.7,14.4-14.4c2.9-2.8,6-3,8.3-0.7
		c2.3,2.3,2.2,5.6-0.6,8.4c-8.3,8.4-16.6,16.7-25,24.9c-1.8,1.7-2.6,3.5-2.5,6c0.1,11.3,0.1,22.6,0.1,33.8c0,1.2,0,2.4,0,4.5
		c1.6-1.5,2.5-2.3,3.4-3.2c8.5-8.5,17-17,25.5-25.4c3.5-3.5,8.4-2.8,9.7,1.2c0.9,2.8-0.4,4.9-2.3,6.8
		c-10.2,10.2-20.2,20.6-30.7,30.5c-4.2,4-6.5,8.1-5.6,13.9c0.3,2.1,0.4,4.4,0,6.5c-0.9,5.5,1.6,9,5.9,12.1c18.8,13.5,39,16,59.7,5.9
		c20.7-10.2,31.3-27.6,31.6-50.8c0.2-15.1-5.3-28.2-15.7-39.1c-6.3-6.6-12.8-12.9-19.2-19.3c-3.2-3.2-3.5-6.4-1-8.9
		c2.4-2.3,5.6-1.9,8.6,1.1c6.4,6.3,12.9,12.5,19,19.1c18,19.2,23.9,41.8,16.3,66.9c-7.6,25.1-25,40.8-50.7,46.5
		c-17.9,4-34.9,0.6-50.5-9.2c-1.1-0.7-2.2-1.4-3.6-2.3c-0.1,1.3-0.3,2.2-0.3,3.1c0,8.5-0.1,17,0,25.5c0.2,18.8,13.1,31.6,31.9,31.7
		c1.2,0,2.4-0.1,3.6,0c5.8,0.7,9.8-0.2,13-6.6c4.3-8.7,15.6-11.5,24.8-8.2c9.2,3.3,15,12.4,14.1,22.2c-0.8,9.3-8.2,17.5-17.3,19.2
		c-9.9,1.9-19.7-3-23.7-12.1c-1.3-3-2.7-3.8-5.8-3.7c-5.6,0.2-11.2,0.2-16.7-0.4c-9.1-1.1-16.7-5.5-23.4-12.2
		c-0.3,0.7-0.6,1.2-0.6,1.7c0,8.2-0.2,16.5,0.1,24.7c0.6,15.1,12.9,27.9,28,28.3c22.4,0.6,44.9,0.2,67.3,0.4c2.6,0,2.9-1.6,3.6-3.2
		c3.6-8.2,12-13.4,20.6-13c9.1,0.5,16.8,6.3,19.6,14.8c3.6,10.9-2,22.7-12.7,26.8c-10.7,4.1-22.8-0.7-27.3-11.3
		c-1.2-2.7-2.6-3.4-5.3-3.4c-20.1,0.1-40.3-0.1-60.4,0.1c-12.4,0.1-23.1-3.4-32.1-12c-0.2-0.2-0.6-0.3-1.4-0.8
		c0,8.1-0.1,15.8,0.1,23.4c0,0.7,1.8,1.6,2.9,2.1c8.4,3.8,13.8,12.6,13,21.3c-0.9,9.6-7.4,17.3-16.5,19.5
		c-10.7,2.6-21.7-3.3-25.4-13.7c-3.7-10.5,1.1-22.3,11.4-26.7c2.9-1.2,3.6-2.7,3.6-5.6c-0.1-14.8-0.1-29.6-0.1-44.4
		c0-1.2-0.1-2.3-0.2-3.9c-2.4,2-4.4,3.8-6.5,5.3c-7.1,5-15.1,7.6-23.8,7.6c-11.5,0-23,0-34.6,0c-2.1,0-3.1,0.5-4,2.6
		c-4.2,10.2-14.5,15.5-24.8,13.1c-10.1-2.3-17-11.3-16.7-21.8c0.3-10.4,7.9-18.9,18.6-20.6c9.2-1.5,18.8,3.9,22.6,12.9
		c1,2.3,2.1,3,4.5,3c11.2-0.1,22.3,0,33.5-0.1c17.1-0.1,29.9-11.7,31.1-28.7c0.6-8.6,0.1-17.3,0.1-26.5c-2.1,1.7-3.7,3.2-5.4,4.5
		c-7.2,5.4-15.2,8.4-24.3,8.5c-12.4,0.1-24.7,0-37.1,0c-4.3,0-6.7-2.1-6.6-5.5c0-3.4,2.5-5.4,6.8-5.4c12,0,24,0.1,36,0
		c17.3-0.2,30.6-13.6,30.7-30.8c0-0.4-0.1-0.9-0.3-1.7c-1,0.6-1.9,1.1-2.6,1.6c-40.5,26.8-94.4,4.7-104-42.9
		c-4.7-23.7,2-44.4,19.1-61.5c15.9-16,31.9-31.9,47.8-47.9c14.4-14.4,28.8-28.8,43.2-43.1C202.3,11.8,203.7,11.8,205.2,11.8z
		 M264,271.4c0,5.9,4.7,10.6,10.6,10.6c5.8,0,10.6-4.8,10.6-10.6c0-5.8-4.9-10.7-10.6-10.6C268.8,260.7,264,265.5,264,271.4z
		 M327.3,335.3c5.8,0.1,10.7-4.8,10.7-10.6c0-5.8-4.8-10.7-10.6-10.7c-5.8,0-10.7,4.8-10.7,10.6
		C316.6,330.3,321.5,335.2,327.3,335.3z M108.6,286.2c-5.8,0-10.5,4.8-10.5,10.7c0,5.9,4.7,10.6,10.6,10.6c5.8,0,10.7-4.8,10.6-10.6
		C119.2,291.1,114.3,286.2,108.6,286.2z M203,352.2c-5.9,0-10.6,4.8-10.5,10.6c0.1,5.8,4.9,10.6,10.7,10.6c5.7-0.1,10.7-5,10.6-10.7
		C213.7,356.8,208.9,352.2,203,352.2z"/>
	
		<linearGradient id="SVGID_00000044898040984183075060000016351698145461237377_" gradientUnits="userSpaceOnUse" x1="-55.004" y1="104.9463" x2="288.3414" y2="467.792">
		<stop  offset="0" style="stop-color:#F77560"/>
		<stop  offset="1" style="stop-color:#845B77"/>
	</linearGradient>
	<path style="fill:url(#SVGID_00000044898040984183075060000016351698145461237377_);" d="M98.8,249c-0.5,0-1,0-1.5,0
		c-5.5-0.4-9.7-0.1-12.8,6.4c-4.1,8.7-15.4,11.8-24.7,8.6c-9.1-3.2-15.2-12.2-14.4-21.7c0.8-10.3,7.9-18.1,18.1-20
		c9.2-1.7,19.1,3.4,22.9,12.3c1.2,3,2.8,3.6,5.6,3.5c4.8-0.2,9.7-0.1,14.6,0c4,0,6.4,2.1,6.5,5.4c0.1,3.4-2.3,5.5-6.6,5.5
		C103.9,249.1,101.4,249,98.8,249z M66.8,254.2c5.9,0.1,10.7-4.5,10.9-10.4c0.1-5.7-4.7-10.7-10.5-10.8c-5.8-0.1-10.7,4.6-10.8,10.4
		C56.3,249.3,60.9,254.1,66.8,254.2z"/>
</g>
</svg>
