<?xml version="1.0" encoding="utf-8"?>
<!-- Generator: Adobe Illustrator 26.3.1, SVG Export Plug-In . SVG Version: 6.00 Build 0)  -->
<svg version="1.1" id="Layer_1" xmlns="http://www.w3.org/2000/svg" xmlns:xlink="http://www.w3.org/1999/xlink" x="0px" y="0px"
	 viewBox="0 0 400 400" style="enable-background:new 0 0 400 400;" xml:space="preserve">
<style type="text/css">
	.st0{fill:url(#SVGID_1_);}
	.st1{fill:none;stroke:url(#SVGID_00000146478816573857051350000014933674628848359834_);stroke-miterlimit:10;}
	.st2{fill:none;stroke:url(#SVGID_00000082364320813130740460000002660354542331022478_);stroke-miterlimit:10;}
	.st3{fill:url(#SVGID_00000024724457789170763540000017172910518751552429_);}
	.st4{fill:url(#SVGID_00000072278328929993576460000003082166685081147833_);}
	.st5{fill:url(#SVGID_00000183960014642505126940000005340703718074639777_);}
	.st6{fill:url(#SVGID_00000019661699820992539440000007143595495865076668_);}
	.st7{fill:url(#SVGID_00000102510860366637424230000011721414973757287044_);}
	.st8{fill:url(#SVGID_00000064343284169011840290000017977342040647725724_);}
	.st9{fill:url(#SVGID_00000080177132252009011200000013407433381315475892_);}
	.st10{fill:url(#SVGID_00000110456666582344249770000000627717359878416031_);}
	.st11{fill:url(#SVGID_00000039126698561941375270000001897328762701114773_);}
	.st12{fill:url(#SVGID_00000060003039117006355870000001168179908516132749_);}
	.st13{fill:url(#SVGID_00000004537291403463751200000018351092304872836737_);}
	.st14{fill:url(#SVGID_00000104684811369931564620000001021417696619061386_);}
	.st15{fill:url(#SVGID_00000178197822306891993690000008617689617494136476_);}
	.st16{fill:url(#SVGID_00000070097258903586514860000009738203899090280625_);}
	.st17{fill:url(#SVGID_00000166650188402900323030000004838587521717803400_);}
	.st18{fill:url(#SVGID_00000153684433103884781470000004633313244837056402_);}
	.st19{fill:url(#SVGID_00000155135012118482866690000001722996409837365398_);}
	.st20{fill:url(#SVGID_00000048478151898628436320000006000463122003430798_);}
	.st21{fill:url(#SVGID_00000179642437716255352190000001128882174355554239_);}
	.st22{fill:url(#SVGID_00000047741413145080165080000018103607247073997464_);}
	.st23{fill:url(#SVGID_00000114065174009918975570000016110644174568710048_);}
	.st24{fill:url(#SVGID_00000143577845906958655030000010606898530477089696_);}
	.st25{fill:url(#SVGID_00000007415481316488166580000002404822245637046916_);}
	.st26{fill:url(#SVGID_00000072273948893525842270000006560687546829882041_);}
	.st27{fill:url(#SVGID_00000165932354235902103360000013261919862814239160_);}
	.st28{fill:url(#SVGID_00000099636279836657815620000010184482403168535975_);}
	.st29{fill:url(#SVGID_00000052068725532953815310000015834882404089855361_);}
	.st30{fill:url(#SVGID_00000152948797976214804760000015344426689283621040_);}
	.st31{fill:url(#SVGID_00000127003434509017399450000006963216699367668384_);}
	.st32{fill:url(#SVGID_00000126293566248142606240000016297963783919079082_);}
	.st33{fill:url(#SVGID_00000084521546409171518810000006251340172996299699_);}
	.st34{fill:url(#SVGID_00000075144475604716649630000002680131508754380685_);}
	.st35{fill:url(#SVGID_00000005949220416897394120000014716519573064210870_);}
</style>
<g>
	<linearGradient id="SVGID_1_" gradientUnits="userSpaceOnUse" x1="17.4079" y1="103.9621" x2="399.9751" y2="372.6188">
		<stop  offset="0" style="stop-color:#F77560"/>
		<stop  offset="1" style="stop-color:#845B77"/>
	</linearGradient>
	<path class="st0" d="M314,140.3c-76.1,0-151.8,0-228,0c0,1.5,0,2.9,0,4.3c0,59.3,0,118.5,0.1,177.8c0,4.6-1.4,7.6-5.4,10.1
		c-9.5,5.8-16.4,13.8-18.4,25.2c-1.3,7.2,1.1,10,8.4,10c86.2,0,172.5,0,258.7,0c7.1,0,9.5-2.9,8.3-9.8c-2-11.7-9.1-19.8-18.8-25.7
		c-3.7-2.3-5.2-4.9-5-9.1c0.3-4.9,0-9.7,0.1-14.6c0.1-4.1,2.6-6.7,6.1-6.6c3.4,0.1,5.8,2.6,5.9,6.5c0.1,3.5,0.2,7,0,10.5
		c-0.1,2.5,0.7,4,2.8,5.5c11.2,8,18.9,18.3,21,32.3c2,13.8-5.9,23.1-19.9,23.1c-86.5,0-173,0-259.5,0c-14.2,0-22.1-9.3-19.9-23.4
		c2.1-14,9.9-24.2,21.1-32.2c1.8-1.3,2.6-2.6,2.6-4.8C74,260.6,74,202,74,143.4c0-1-0.1-2-0.1-2.9C61,138,56,132,56,119.1
		c0-1.9,0-3.7,0-5.6c0-13.3,5.1-19.4,18.5-21.6c1.9-10.6,6.8-19.6,15.4-26.4c8.9-7.1,19.2-10,30.5-8.9c2,0.2,3.1-0.1,4.4-1.7
		c9.8-12.3,22.6-17.5,38.2-16.3c1.3,0.1,3.1-1.1,4-2.2c15.4-18.9,42.8-21.7,60.5-5.2c5.5,5.1,10.4,7.6,18,7.7
		c12,0.2,21.9,6.2,29.4,15.7c1.4,1.8,2.6,2.3,5,2.1c21.1-2.3,40.3,11.9,45.2,33.2c0.2,0.7,0.3,1.4,0.4,2.2
		c9.4,0.9,16.3,5.3,17.9,14.7c1,6.2,0.9,12.7,0,19c-1.1,8.3-7.3,13.1-17.5,14.7c0,1.4,0,2.9,0,4.4c0,44.9,0,36,0,80.9
		c0,0.9,0,1.7,0,2.6c0,5-2.3,7.8-6.1,7.7c-3.7-0.1-5.9-2.8-5.9-7.6c0-16.8,0,20.2,0,3.3c0-29.1,0-58.1,0-87.2
		C314,143.2,314,141.8,314,140.3z M86.9,92.3c5.8,0,11.3-0.1,16.8,0c4.4,0.1,7.3,3.7,6.1,7.4c-1,3.3-3.5,4.5-6.9,4.5
		c-9.2-0.1-18.5-0.1-27.7,0c-4.9,0-7,2.2-7.1,7.1c0,2.6,0,5.2,0,7.9c0,7.4,1.6,9,9,9c82,0,164,0,246,0c0.9,0,1.8,0,2.6,0
		c4-0.2,6.2-2.4,6.4-6.3c0.1-2.7,0-5.5,0-8.2c0-7.9-1.5-9.4-9.4-9.4c-64.4,0,7,0-57.4,0c-4.8,0-7.5-2.2-7.5-5.9c0-3.7,2.7-6,7.4-6
		c0.9,0,1.7,0,2.6,0c58.9,0-18,0,40.9,0c1.5,0,2.9,0,4.4,0c-2.5-16-18.9-26.5-35.6-23.2c-5.8,1.2-6.8,0.7-9.8-4.1
		c-6.8-11.1-19-16.4-31.8-13.9c-6.5,1.3-6.8,1.1-10.5-4.7c-11.8-18.5-38.8-18.5-50.7-0.1c-3.8,5.9-4,6-10.9,4.7
		c-12-2.3-24.2,2.3-30.5,12.7c-3.3,5.3-6.7,6.4-12.6,5.2C105.4,65.6,89.5,76.8,86.9,92.3z"/>
	<g>
		
			<linearGradient id="SVGID_00000166658833268154566800000007165305739190421387_" gradientUnits="userSpaceOnUse" x1="143.7787" y1="201.3875" x2="268.7639" y2="289.158">
			<stop  offset="0" style="stop-color:#F77560"/>
			<stop  offset="1" style="stop-color:#845B77"/>
		</linearGradient>
		<path style="fill:none;stroke:url(#SVGID_00000166658833268154566800000007165305739190421387_);stroke-miterlimit:10;" d="
			M227.1,271.6c12-1.3,20.7-11.5,20.7-23.5c-6.9,0-13.5-0.4-20.1,0.1c-12.3,0.9-22.2,11.9-21.5,23.6
			C213.2,271.7,220.3,272.3,227.1,271.6z"/>
		
			<linearGradient id="SVGID_00000157987995098096322060000008586775217611769235_" gradientUnits="userSpaceOnUse" x1="137.1711" y1="210.7969" x2="262.1562" y2="298.5674">
			<stop  offset="0" style="stop-color:#F77560"/>
			<stop  offset="1" style="stop-color:#845B77"/>
		</linearGradient>
		<path style="fill:none;stroke:url(#SVGID_00000157987995098096322060000008586775217611769235_);stroke-miterlimit:10;" d="
			M175.7,224.9c-7.7-1.3-15.6-0.9-23.4-1.2c-0.9,10.8,7.2,21.6,18.1,23.4c7.5,1.3,15.4,0.9,23.4,1.2
			C193.9,236.9,186.4,226.7,175.7,224.9z"/>
		
			<linearGradient id="SVGID_00000059304304549208390950000016127229518203649957_" gradientUnits="userSpaceOnUse" x1="-1.1786" y1="130.4293" x2="381.3886" y2="399.0861">
			<stop  offset="0" style="stop-color:#F77560"/>
			<stop  offset="1" style="stop-color:#845B77"/>
		</linearGradient>
		<path style="fill:url(#SVGID_00000059304304549208390950000016127229518203649957_);" d="M206.2,283.9c6.1,0,12.1,0.1,18.2,0
			c10.8-0.2,19.8-4.4,27-12.6c7.6-8.7,9.4-19,8.6-30.1c-0.2-2.9-2.2-5.1-5.1-5.1c-9.9-0.1-19.7-0.2-29.6,0.3
			c-7,0.4-13.1,3.8-19.1,8.6c0-13.1,0-25.5,0-37.8c0-3.4-1.1-5.9-4.5-6.9c-3.8-1.2-7.4,1.7-7.5,6.1c-0.1,4.7,0,9.4,0,14.7
			c-6-4.7-12.1-8.2-19.1-8.5c-9.8-0.5-19.7-0.5-29.6-0.4c-3.2,0-5,2.4-5.3,5.7c-2.3,24.1,14,42,38.1,42c5.1,0,10.2,0,15.6,0
			c0,12,0,23.8,0,34.9c-9.1,2.3-18.1,4.1-26.8,6.9c-5.6,1.8-11,4.8-16.1,7.7c-0.7,0.4-1.3,0.6-1.8,0.8c3.4,3.1,7.1,5.9,11,8.3
			c23.3-14.3,57.4-14.1,80.4-0.1c3.7-2.3,7.2-5,10.5-7.9c-13.6-8.6-28.5-13.4-44.6-14.7C206.2,291.9,206.2,288.2,206.2,283.9z
			 M227.8,248.1c6.6-0.5,13.2-0.1,20.1-0.1c0,12-8.7,22.2-20.7,23.5c-6.9,0.8-13.9,0.1-20.9,0.1C205.6,260.1,215.5,249,227.8,248.1z
			 M170.4,247.1c-10.9-1.8-18.9-12.6-18.1-23.4c7.8,0.3,15.7-0.1,23.4,1.2c10.6,1.8,18.2,12,18.1,23.4
			C185.8,247.9,178,248.3,170.4,247.1z"/>
	</g>
</g>
</svg>
