<?xml version="1.0" encoding="utf-8"?>
<!-- Generator: Adobe Illustrator 26.3.1, SVG Export Plug-In . SVG Version: 6.00 Build 0)  -->
<svg version="1.1" id="Layer_1" xmlns="http://www.w3.org/2000/svg" xmlns:xlink="http://www.w3.org/1999/xlink" x="0px" y="0px"
	 viewBox="0 0 400 400" style="enable-background:new 0 0 400 400;" xml:space="preserve">
<style type="text/css">
	.st0{fill:url(#SVGID_1_);}
	.st1{fill:none;stroke:url(#SVGID_00000130613690486365176420000009416966500222598317_);stroke-miterlimit:10;}
	.st2{fill:none;stroke:url(#SVGID_00000025419467104333817690000010742367974460678784_);stroke-miterlimit:10;}
	.st3{fill:url(#SVGID_00000170274029117953733870000003429596111447753630_);}
	.st4{fill:url(#SVGID_00000168809542835012425740000017901581623623174572_);}
	.st5{fill:url(#SVGID_00000177474257077037466140000014153122017182299573_);}
	.st6{fill:url(#SVGID_00000003078071487103894540000007059111832943805367_);}
	.st7{fill:url(#SVGID_00000165932459680525150370000001907081768474764221_);}
	.st8{fill:url(#SVGID_00000152957749783314374830000003353795192506674304_);}
	.st9{fill:url(#SVGID_00000096743556163999480260000015763167104785947321_);}
	.st10{fill:url(#SVGID_00000167368052297495611240000008504500061694820757_);}
	.st11{fill:url(#SVGID_00000024701202548827893430000009530504208708142736_);}
	.st12{fill:url(#SVGID_00000018218734649568689630000012921188311172938119_);}
	.st13{fill:url(#SVGID_00000107560114050904321310000005692140854899941250_);}
	.st14{fill:url(#SVGID_00000004508397725704716170000007971690600356925571_);}
	.st15{fill:url(#SVGID_00000087387888656277058570000008594526821865982362_);}
	.st16{fill:url(#SVGID_00000129885441231574395600000010780506091776378799_);}
	.st17{fill:url(#SVGID_00000098200865682085767420000009981231458026773127_);}
	.st18{fill:url(#SVGID_00000158739164095111870600000001431453936547734400_);}
	.st19{fill:url(#SVGID_00000104689887720689307610000011167467512826919098_);}
	.st20{fill:url(#SVGID_00000143606070246411145660000006008838180260683669_);}
	.st21{fill:url(#SVGID_00000054245242296906988970000012862380174839504563_);}
	.st22{fill:url(#SVGID_00000176762344474744824200000005380935103130551996_);}
	.st23{fill:url(#SVGID_00000140007191297066613450000007662144565542938286_);}
	.st24{fill:url(#SVGID_00000160875133221174299430000012549076818682644392_);}
	.st25{fill:url(#SVGID_00000025445161557337842710000000115695310489000331_);}
	.st26{fill:url(#SVGID_00000119079061344808409530000012004795260598430379_);}
	.st27{fill:url(#SVGID_00000045581981093042886360000008560477656002982074_);}
	.st28{fill:url(#SVGID_00000156550549039127576290000007456345996857579957_);}
	.st29{fill:url(#SVGID_00000042729517319251756400000015852545451792312209_);}
	.st30{fill:url(#SVGID_00000015343810258967527050000011296427554384308147_);}
	.st31{fill:url(#SVGID_00000137113244457212825550000005085695262990078391_);}
	.st32{fill:url(#SVGID_00000160174014957892762920000006448978916195851962_);}
	.st33{fill:url(#SVGID_00000132065637963432790970000006607503222871176335_);}
	.st34{fill:url(#SVGID_00000180333492143299333290000014496806651015494813_);}
	.st35{fill:url(#SVGID_00000107582607417633437420000009767193651345935768_);}
</style>
<g>
	<linearGradient id="SVGID_1_" gradientUnits="userSpaceOnUse" x1="58.6571" y1="37.5223" x2="343.4454" y2="367.8153">
		<stop  offset="0" style="stop-color:#F77560"/>
		<stop  offset="1" style="stop-color:#845B77"/>
	</linearGradient>
	<path class="st0" d="M272.8,305.6c-3.5-1.5-5.5-4.6-7.9-7.3c-7.7,9.6-17,17.1-28.9,21c-6.6,2.2-13.3,3.2-20.2,3.3
		c-2.2,0-2.7-0.6-2.5-2.9c1-12.9,3-25.6,4.9-38.4c1-6.7,3-13.3,4.5-20c2.9-9.7,5.1-19.7,8.9-29.1c7.5-18.5,16.5-36.4,28.7-52.4
		c8.7-11.4,18.5-21.6,29.2-31c4.9-4.3,10.2-7.7,15.5-11.6c0.7,1.6-0.4,2.4-0.9,3.3c-19.2,35.6-28.9,73.7-28.5,114.2
		c0.1,9.5,0.3,18.9-2.9,28.1c-2,5.5-4.8,10.5-7.9,15.4C267.3,301.1,269.3,304.2,272.8,305.6c1.2-0.7,1.3-2.2,2.1-3.2
		c9.4-13,12.8-27.7,12-43.5c-0.6-11.7,0.1-23.2,1.7-34.8c5-36.2,17.7-69.3,38.4-99.4c1.7-2.4,3.2-4.9,1.3-7.8
		c-1.7-2.8-4.6-2.5-7.3-2.2c-18.4,2.5-36.6,6.1-54.5,11.3c-24.2,7-47.1,16.7-67.9,31c-14.9,10.2-28.1,22.1-37.9,37.5
		c-14.2,20.8-22.2,43.3-19.7,68.9c2.3,23.1,12.9,41.6,31.6,55.3c7.6,5.6,16.1,9.5,25.1,12.2c1.4,0.4,3.5,0.3,3.1,2.9
		c-0.7,6.3,0.1,12.6-0.1,18.8c-0.1,4.4-0.8,8.7-3.3,12.6c-2.6,4-6.3,5.6-11,4.9c-3-0.5-6.1-1.1-9.1-1.8
		c-71.4-16.8-108.4-89-89.1-151.8c4.8-15.6,12.8-29.4,23.7-41.6c4.5-5,9.7-9.4,14.7-13.9c5.9-4.4,12-8.4,18.4-11.9
		c13.9-7.4,19.8-19,19.5-34.6c-0.4-18.6-0.1-37.3-0.1-55.9c0-2.2,0.2-3.4,3-3.4c22.1,0.1,44.1,0.1,66.2,0c2.2,0,2.8,0.7,2.8,2.8
		c-0.1,9.5,0,19,0,28.5c0,6.8-0.1,13.5,0,20.3c0.1,3.7,2.3,6,5.6,6c3.2,0,5.2-2.2,5.5-5.7c0.1-0.9,0-1.9,0-2.8
		c0-15,0.1-29.9-0.1-44.8c-0.1-3.4,1-5.3,4-6.3c3.9-1.3,6.6-4.1,8.3-7.7c3.4-7.6,2.5-15-1.7-22c-2.2-3.6-6.1-5-9.6-6.8
		c-31.8,0-63.6,0-95.4,0c-0.1,0.1-0.2,0.2-0.3,0.2c-9.8,3.6-13.4,8.6-13.7,19.9c-0.2,7.4,4.2,15,12.4,17.6c1.5,0.5,1.9,1.5,1.9,2.9
		c0,20.8,0.1,41.5-0.1,62.3c-0.1,8.8-4.8,15.1-12.5,19.3c-7.7,4.2-15.3,8.6-21.8,14.5c-0.6,0.4-1.2,0.7-1.7,1.2
		c-26.8,23.1-42,52.1-44.6,87.4c-2.7,37.1,9.2,69.4,33.7,97c20.1,22.6,45.6,36.2,75.4,41.6c16.3,3,29-7.1,29.5-23.7
		c0.2-6.8,0.6-13.5,0.7-20.3c0-1.9,0.5-2.7,2.6-2.7c7.9,0.2,15.6-0.9,23.1-3.3C252.1,325.9,263.9,317.8,272.8,305.6z M150.8,37.1
		c0-1.3,0-2.6,0.1-3.9c0.4-4,1.9-5.4,6-5.4c14.6,0,29.2,0,43.7,0c14.2,0,28.5,0,42.7,0c5.2,0,6.5,1.2,6.9,6.4
		c0.1,1.1,0.1,2.1,0.1,3.2c0,4.7-2.2,6.9-7,6.9c-28.5,0-56.9,0-85.4,0C152.9,44.2,150.9,42.1,150.8,37.1z M204.5,298.9
		c-0.8,6.3-1.6,12.7-2.1,19.1c-0.2,2.7-1.1,2.7-3.3,2.1c-14-4.4-24.9-13-33.8-24.3c-16.5-20.9-17.4-43.9-8.9-68.1
		c3.3-9.4,8.1-18.1,13-26.7c11.8-17.5,27.6-30.6,45.8-41.1c23.6-13.6,49.1-22.2,75.5-28.4c1-0.2,2-0.5,3.3,0.2
		c-42.6,31-67.7,73.3-80.9,123.4c0.7,0.1,1.3,0.3,1.8,0.6s1,0.7,1.5,1.1c-0.5-0.4-0.9-0.8-1.5-1.1s-1.1-0.5-1.8-0.6
		C209,269.4,206.4,284.1,204.5,298.9z"/>
	
		<linearGradient id="SVGID_00000087392914396603805990000007435009845461954224_" gradientUnits="userSpaceOnUse" x1="57.4294" y1="38.5809" x2="342.2177" y2="368.874">
		<stop  offset="0" style="stop-color:#F77560"/>
		<stop  offset="1" style="stop-color:#845B77"/>
	</linearGradient>
	<path style="fill:url(#SVGID_00000087392914396603805990000007435009845461954224_);" d="M320.9,207c-1.4-3.7-4.1-5.2-7.1-4.1
		c-3.3,1.1-4.6,4.1-3.3,7.8c0.3,1,0.7,2,1.1,3c8.8,25.6,9,51.3,0.5,77.1c-4.5,13.5-11.6,25.6-20.2,36.9c-0.6,0.6-1.2,1.1-1.7,1.7
		c-11.1,13.1-24.6,23.2-40.2,30.5c-5.7,2.7-11.6,4.8-17.6,6.5c-3.8,1.1-5.5,4-4.4,7.2c1,3.1,3.8,4.4,7.5,3.3c2.2-0.6,4.3-1.2,6.4-2
		c15.9-5.8,30.5-13.7,43.1-25.4c5.3-4.9,10.6-9.7,15-15.5c2-2.6,4.2-5,6-7.7c7.2-10.5,12.9-21.8,16.9-34c7-21.7,8.1-43.7,3.7-66
		C325.2,219.8,323.3,213.3,320.9,207z"/>
</g>
</svg>
