<?xml version="1.0" encoding="utf-8"?>
<!-- Generator: Adobe Illustrator 26.2.1, SVG Export Plug-In . SVG Version: 6.00 Build 0)  -->
<svg version="1.1" id="Layer_1" xmlns="http://www.w3.org/2000/svg" xmlns:xlink="http://www.w3.org/1999/xlink" x="0px" y="0px"
	 viewBox="0 0 108.4 108.7" style="enable-background:new 0 0 108.4 108.7;" xml:space="preserve">
<style type="text/css">
	.st0{fill:#ffffff;}
</style>
<path class="st0" d="M103.4,23.7c-0.4,1.4-0.4,2.9-0.6,4.3c-1,8.1-2.8,16-7.2,23c-2.8,4.5-6.5,8-11.7,9.6c-2,0.6-4.1,0.8-6.2,0.8
	c-0.7,0-0.8-0.3-0.7-0.8c0.5-3.7,1.8-7.1,3.6-10.4c1.5-2.8,3.3-5.4,5.3-7.9c-0.6-0.1-0.8,0.3-1.1,0.5c-4.9,4-8.8,8.8-12.3,14.1
	c-3,4.5-5.7,9.2-7.9,14.1c-1.3,3-2.2,6.1-2.8,9.3c-0.3,1.5,0.2,3.1,0.3,4.6c0.4,4.8,0.6,9.7,0.5,14.5c0,2.4-1.9,4.2-4.2,4.3
	c-2.3,0.1-4.2-1.5-4.5-3.8c-0.1-0.7-0.1-1.4-0.1-2.1c0-6.5-0.4-13-1.2-19.4c-1.2-9.6-4-18.7-8.3-27.4c-3.7-7.4-7.9-14.5-12.8-21.2
	c-0.2-0.2-0.3-0.6-0.7-0.6c1.8,4,3.3,8.1,4.5,12.3c1,3.8,1.7,7.6,1.9,11.5c0,0.8-0.2,0.9-0.9,0.9c-7.9,0-14.1-3.3-18.9-9.4
	c-4.1-5.1-6.6-11-8.5-17.3C6.7,19.9,5.4,12.6,5.1,5.1c0.8,0,1.7,0,2.5,0c1.3,0.5,2.7,0.4,4,0.5c7.1,0.9,14.1,2.4,20.8,5.1
	c5.6,2.3,10.8,5.3,14.8,9.9c3.9,4.5,5.7,9.9,5.7,15.8c0,3.1-0.5,6.1-1.4,9.1c-0.2,0.7-0.1,1.2,0.3,1.8c1.7,2.8,3.1,5.7,4.3,8.8
	c0.9,2.3,1.6,4.6,2.4,7.1c0.2-0.2,0.3-0.3,0.3-0.5c1.6-2.8,3.5-5.4,5.8-7.6c0.4-0.4,0.4-0.7,0.3-1.1c-0.3-1.2-0.5-2.4-0.6-3.7
	c-0.5-5,0.6-9.6,3.7-13.6c3.5-4.5,8.3-7.2,13.5-9.2c6.5-2.5,13.3-3.8,20.2-4.4c0.6,0,1.2-0.2,1.8,0.1
	C103.4,23.4,103.4,23.5,103.4,23.7z"/>
</svg>
