<?xml version="1.0" encoding="utf-8"?>
<!-- Generator: Adobe Illustrator 26.1.0, SVG Export Plug-In . SVG Version: 6.00 Build 0)  -->
<svg version="1.1" id="Layer_1" xmlns="http://www.w3.org/2000/svg" xmlns:xlink="http://www.w3.org/1999/xlink" x="0px" y="0px"
	 viewBox="0 0 92 32.5" style="enable-background:new 0 0 92 32.5;" xml:space="preserve">
<style type="text/css">
	.st0{fill:#41E09B;}
	.st1{fill:#FEF0EE;}
	.st2{fill:#FFFFFF;}
	.st3{opacity:0.15;fill:#41E09B;stroke:#FFFFFF;stroke-miterlimit:10;}
	.st4{opacity:0.3;fill:#41E09B;stroke:#FFFFFF;stroke-miterlimit:10;}
	.st5{fill:#18244C;}
	.st6{fill:url(#SVGID_1_);}
	.st7{fill:url(#SVGID_00000120540039565292532600000015683262856807621004_);}
	.st8{fill:url(#SVGID_00000106129554354332097470000001087724425594424744_);}
	.st9{fill:url(#SVGID_00000088812311529387267880000014111583527986622366_);}
	.st10{fill:url(#SVGID_00000075847093900587188130000012872687718199083677_);}
	.st11{fill:url(#SVGID_00000040564776877238072450000000116553205112447377_);}
	.st12{fill:url(#SVGID_00000029730265454903563790000003658458038777029006_);}
	.st13{fill:url(#SVGID_00000022551024744942977890000012498460523561963921_);}
	.st14{fill:url(#SVGID_00000130619401930586918600000005358986600968196778_);}
	.st15{fill:url(#SVGID_00000089564632414448290150000003351572745778001084_);}
	.st16{fill:url(#SVGID_00000175310774546454655180000012619083931483767228_);}
	.st17{fill:url(#SVGID_00000176005409017757982970000013235187235372568250_);}
	.st18{fill:url(#SVGID_00000046300182551185222970000011844629505749007544_);}
	.st19{fill:url(#SVGID_00000067945225986320704240000007855974134343141795_);}
	.st20{fill:url(#SVGID_00000039095732081816693010000011460651219828325010_);}
	.st21{fill:url(#SVGID_00000168810194762283807910000016090294945735466931_);}
	.st22{fill:url(#SVGID_00000016034262127935863960000000249600162397681831_);}
	.st23{fill:url(#SVGID_00000151511538151038668020000015037764453598471601_);}
	.st24{fill:url(#SVGID_00000016758282828519079450000007850416405637961643_);}
	.st25{fill:url(#SVGID_00000083089554747193687960000005794197720993326498_);}
	.st26{fill:url(#SVGID_00000101816963572149347870000003543449150166617496_);}
	.st27{fill-rule:evenodd;clip-rule:evenodd;fill:#FFFFFF;}
	.st28{fill:url(#SVGID_00000107589863985030963680000013128231985876448177_);}
</style>
<g>
	<path class="st2" d="M87.7,17.8c-0.2,0-0.4,0-0.6,0c-14.1,0-70.9,0-85,0c-0.2,0-0.5,0-0.7,0c-0.5-0.1-0.9-0.5-0.9-1
		c0-0.5,0.4-0.9,0.9-1c0.2,0,0.4,0,0.7,0c14.1,0,71,0,85.1,0c0.2,0,0.4,0,0.7,0c-0.2-0.2-0.3-0.3-0.4-0.4
		c-1.8-1.8-11-11.1-12.8-12.9c-0.1-0.1-0.2-0.2-0.3-0.4c-0.3-0.4-0.2-0.9,0.1-1.2c0.3-0.3,0.9-0.4,1.2-0.1c0.1,0.1,0.2,0.2,0.4,0.3
		c2.5,2.5,12.4,12.5,14.9,14.9c0.5,0.5,0.5,1.1,0,1.5C88.4,20.1,79.1,29,76.6,31.5c-0.5,0.5-1.1,0.6-1.6,0.1c-0.4-0.4-0.4-1,0.2-1.6
		c1.8-1.8,10.4-10,12.2-11.8c0.1-0.1,0.3-0.2,0.4-0.3C87.8,17.9,87.8,17.9,87.7,17.8z"/>
</g>
</svg>
