<?xml version="1.0" encoding="utf-8"?>
<!-- Generator: Adobe Illustrator 26.5.0, SVG Export Plug-In . SVG Version: 6.00 Build 0)  -->
<svg version="1.1" id="Layer_1" xmlns="http://www.w3.org/2000/svg" xmlns:xlink="http://www.w3.org/1999/xlink" x="0px" y="0px"
	 viewBox="0 0 384 384" style="enable-background:new 0 0 384 384;" xml:space="preserve">
<style type="text/css">
	.st0{fill:#FFFFFF;}
</style>
<g id="Background_Complete">
</g>
<g id="Floor">
</g>
<g id="Device">
</g>
<g id="Icons">
</g>
<g id="Character_3">
</g>
<g id="Character_2">
</g>
<g id="Character_1">
</g>
<g id="Goal">
	<path class="st0" d="M23.2,302.1c37.2,3.3,70.7-5.8,101.2-28.6c-31.8-3-53-18.9-64.8-48.5c10.6,1.2,20.4,1.5,31-1.4
		c-20.2-5.1-35.1-15.8-45.4-32.7c-6.6-11-9.9-22.9-9.8-36.3c9.7,4.8,19.4,8,30.9,8.3c-15.1-11.1-24.8-24.9-28.7-42.4
		c-4-17.6-1.2-34.1,7.7-50.3c37.7,44.3,85.1,68.8,142.7,72.7c-0.2-7.1-0.9-13.9-0.6-20.7c1.4-32.4,28.2-60.7,60.4-64.2
		c22.4-2.4,41.6,4.1,57.8,19.7c1.3,1.3,2.5,1.7,4.4,1.2c13.4-3,26.2-7.7,38.2-14.4c0.8-0.5,1.7-0.8,3.2-1.6
		C346,79,336.3,91,322.8,100c0.1,0.3,0.2,0.5,0.3,0.8c4.1-0.8,8.2-1.4,12.3-2.3c4.3-1,8.5-2.2,12.8-3.5c4-1.3,8-2.9,12.7-4.6
		c-7.6,11.3-15.8,21.2-26,28.9c-6.3,4.7-8.5,9.5-8.5,17.6c-0.3,77.7-46,148.1-116,179.3c-34.5,15.4-70.7,19.9-108.1,15.1
		c-27.4-3.5-52.8-12.7-76.4-27c-0.8-0.5-1.5-1-2.2-1.5C23.4,302.7,23.3,302.4,23.2,302.1z"/>
</g>
</svg>
