<?xml version="1.0" encoding="utf-8"?>
<!-- Generator: Adobe Illustrator 26.3.1, SVG Export Plug-In . SVG Version: 6.00 Build 0)  -->
<svg version="1.1" id="Layer_1" xmlns="http://www.w3.org/2000/svg" xmlns:xlink="http://www.w3.org/1999/xlink" x="0px" y="0px"
	 viewBox="0 0 450 596.1" style="enable-background:new 0 0 450 596.1;" xml:space="preserve">
<style type="text/css">
	.st0{fill:#D8D8D8;stroke:#41E09B;stroke-width:2;stroke-miterlimit:10;}
	.st1{fill:#C1C1C1;stroke:#41E09B;stroke-width:2;stroke-miterlimit:10;}
	.st2{fill:#D8D8D8;}
	.st3{fill:#18244C;}
	.st4{fill:#C1C1C1;}
</style>
<g>
	<path class="st0" d="M390.6,332.5c0-2.5,2.3-4.7,5.1-4.7l0.5-17c2.4-19.3-11.4-19.3-11.4-19.3s-282.7,0-300.5,0
		c-17.9,0-15.9,19.3-15.9,19.3l0.5,17c0.1,0,0.2,0,0.5,0c2.9,0,5.2,2.2,5.2,4.8c0,2.5-2.2,4.7-5,4.7l17.2,237.2
		c0,0,42.8,14.2,148.2,14.2s144.6-17.6,144.6-17.6l15.3-234C392.5,336.8,390.6,334.9,390.6,332.5z"/>
</g>
<path class="st4" d="M230.8,345.7c-16.1,0-73.6-0.4-85.8-1c-37.8-1.7-61.5-5.2-61.8-5.2l0.7-3.9c0.2,0,23.7,3.5,61.4,5.2
	c34.6,1.6,175.1,1.9,235.7-5.2l0.5,3.9C341.7,344.2,261.4,345.7,230.8,345.7z"/>
<path class="st4" d="M230.8,353c-16.1,0-73.6-0.4-85.8-1c-37.8-1.7-61.5-5.2-61.8-5.2l0.7-3.9c0.2,0,23.7,3.5,61.4,5.2
	c34.6,1.6,175.1,1.9,235.7-5.2l0.5,3.9C341.7,351.5,261.4,353,230.8,353z"/>
<g>
	<path class="st3" d="M153.1,514.6v-7.8c0.1-0.1,0.7-0.4,2-1c1.3-0.6,2.9-1.4,4.9-2.5c2-1,4.1-2.3,6.2-3.7c2.2-1.5,4.2-3.1,6.1-4.8
		c1.9-1.7,3.3-3.6,4.3-5.6c1.1-2.3,1.4-4.3,1.1-6c-0.4-1.7-1.3-3-2.7-3.9c-1.4-0.9-3-1.4-4.7-1.4c-2.7,0-4.8,0.9-6.4,2.8
		c-1.5,1.9-2,4.8-1.4,8.8l-8.7-1.2c-0.5-3.8-0.1-7.1,1.4-9.9c1.4-2.7,3.5-4.8,6.4-6.2c2.8-1.4,6-2.1,9.7-2.1c2.8,0,5.4,0.5,7.7,1.6
		c2.3,1,4.2,2.5,5.6,4.3c1.4,1.8,2.3,4,2.5,6.4c0.2,2.4-0.3,4.9-1.6,7.6c-1.1,2.1-2.5,4-4.2,5.7c-1.7,1.7-3.5,3.2-5.5,4.5
		s-3.8,2.4-5.7,3.3c-1.8,0.9-3.5,1.6-4.8,2.1s-2.3,0.8-2.8,1h25.4v8H153.1z"/>
	<path class="st3" d="M212,515.4c-3.7,0-6.9-0.7-9.3-2s-4.4-3-5.7-5c-1.3-2-2.1-4-2.5-6l9.4-1.4c0.1,0.6,0.4,1.4,0.9,2.4
		c0.6,1,1.5,2,2.7,2.8c1.2,0.9,2.8,1.3,4.8,1.3c2.5,0,4.4-0.8,5.8-2.3c1.4-1.5,2.1-3.2,2.3-5c0.1-1.4-0.1-2.8-0.7-4.1
		c-0.5-1.3-1.4-2.4-2.7-3.2c-1.2-0.8-2.8-1.2-4.6-1.2c-1.7,0-3.1,0.3-4.1,1c-1,0.7-1.7,1.3-2.1,2c-0.4,0.7-0.7,1-0.7,1.1l-9.8-1.6
		l2.4-23.5h29.5v8h-22.9l-1.4,12.9c0.8-1.2,1.7-2.3,2.7-3.1c0.9-0.8,2.2-1.5,3.7-2.1c1.5-0.6,3.4-0.9,5.6-0.9c3.5,0,6.3,0.7,8.5,2.1
		c2.2,1.4,3.8,3.3,4.8,5.6c1,2.3,1.4,4.7,1.2,7.1c-0.2,2.5-1.1,4.9-2.5,7.2c-1.5,2.3-3.5,4.2-6,5.7
		C218.6,514.7,215.5,515.4,212,515.4z"/>
	<path class="st3" d="M254.7,515.7c-6.6,0-11.5-2.1-14.7-6.2c-3.2-4.1-4.8-9.7-4.8-16.7c0-4.6,0.7-8.6,2.1-12.1
		c1.4-3.4,3.5-6.1,6.4-8c2.9-1.9,6.6-2.8,11.1-2.8c6.7,0,11.6,2.1,14.8,6.2c3.2,4.1,4.8,9.7,4.8,16.7c0,4.5-0.7,8.5-2.1,12
		c-1.4,3.5-3.5,6.2-6.4,8.1S259.2,515.7,254.7,515.7z M254.6,507.9c3.7,0,6.5-1.3,8.3-3.8c1.8-2.5,2.7-6.3,2.7-11.3
		c0-5-0.9-8.8-2.6-11.3c-1.7-2.5-4.5-3.7-8.3-3.7c-3.6,0-6.3,1.2-8.1,3.6c-1.8,2.4-2.7,6.2-2.7,11.4c0,5,0.9,8.8,2.6,11.3
		C248.1,506.7,250.9,507.9,254.6,507.9z"/>
	<path class="st3" d="M288.8,529.5v-8.9H302v-11.1h-0.2c-0.1,0.1-0.2,0.5-0.6,1.1c-0.3,0.6-0.9,1.3-1.7,2c-0.8,0.7-1.8,1.4-3.1,2
		c-1.3,0.6-2.9,0.9-4.8,0.9c-4.8,0-8.2-1.5-10.1-4.4s-2.9-6.9-2.9-11.9c0-5.2,1-9.3,3-12.2c2-2.9,5.3-4.4,10.1-4.4
		c2,0,3.7,0.3,5,0.9c1.3,0.6,2.3,1.4,3.1,2.2c0.8,0.8,1.3,1.6,1.6,2.2c0.3,0.7,0.5,1,0.5,1.1h0.2v-6.4h9.7V516c0,5.1-1,8.7-3,10.6
		c-2,2-5.1,2.9-9.2,2.9H288.8z M294.8,507.5c2.9,0,4.8-0.8,5.7-2.5c1-1.6,1.4-3.6,1.4-6c0-2.3-0.5-4.3-1.4-5.9
		c-0.9-1.6-2.8-2.5-5.6-2.5c-2,0-3.5,0.4-4.6,1.2c-1,0.8-1.7,1.8-2.1,3.1c-0.4,1.3-0.5,2.6-0.5,4c0,1.5,0.2,2.8,0.5,4.1
		c0.3,1.3,1,2.3,2,3.1C291.3,507.1,292.8,507.5,294.8,507.5z"/>
</g>
</svg>
