<?xml version="1.0" encoding="utf-8"?>
<!-- Generator: Adobe Illustrator 26.2.1, SVG Export Plug-In . SVG Version: 6.00 Build 0)  -->
<svg version="1.1" id="Layer_1" xmlns="http://www.w3.org/2000/svg" xmlns:xlink="http://www.w3.org/1999/xlink" x="0px" y="0px"
	 viewBox="0 0 420 420" style="enable-background:new 0 0 420 420;" xml:space="preserve">
<style type="text/css">
	.st0{fill:#FEF0EE;}
	.st1{fill:url(#SVGID_1_);}
	.st2{fill:url(#SVGID_00000137816968359913684470000010742808944538512518_);}
	.st3{fill:url(#SVGID_00000083048787826470779280000006152446403408191380_);}
	.st4{fill:url(#SVGID_00000042707563988345490010000006484677443705374890_);}
	.st5{fill:url(#SVGID_00000168805158425040600590000006599038289158189187_);}
	.st6{fill:url(#SVGID_00000012465719844097502800000015391367079987116460_);}
	.st7{fill:url(#SVGID_00000109741013507357461220000005002807533791050657_);}
	.st8{fill:url(#SVGID_00000113332822919605011800000013083212284480698299_);}
	.st9{fill:url(#SVGID_00000060007039971990472720000014464792873638087064_);}
	.st10{fill:url(#SVGID_00000073680414667955374820000011956032680435130503_);}
	.st11{fill:url(#SVGID_00000036248443929409476350000000310170029750177434_);}
	.st12{fill:url(#SVGID_00000078759519981155893670000015817672741219336635_);}
	.st13{fill:url(#SVGID_00000070111367840219485960000012774317766709801651_);}
	.st14{fill:url(#SVGID_00000052072389682547242600000001636767479544181908_);}
	.st15{fill:url(#SVGID_00000007410899611721680870000014713635479911940490_);}
	.st16{fill:url(#SVGID_00000000202170335344903440000013428984017869396124_);}
	.st17{fill:url(#SVGID_00000120552510201494839680000007499774659451827633_);}
	.st18{fill:url(#SVGID_00000142896894606016827500000017887386343608844683_);}
	.st19{fill:url(#SVGID_00000152224691661438470230000014914144105362589884_);}
	.st20{fill:url(#SVGID_00000044897111502313343070000001702336636761782719_);}
	.st21{fill:url(#SVGID_00000139292456730651751320000001890402893030071197_);}
	.st22{fill:url(#SVGID_00000050648667828020683250000018325242003643331488_);}
	.st23{fill:url(#SVGID_00000043443203791748871490000017390375424848047239_);}
	.st24{fill:url(#SVGID_00000070798103190024532560000006177830340683164858_);}
	.st25{fill:url(#SVGID_00000039823882333610576560000015866481194827012021_);}
	.st26{fill:url(#SVGID_00000041978529360742644220000000144128031863525516_);}
	.st27{fill:url(#SVGID_00000078725160363510014470000004716707813076164515_);}
	.st28{fill:url(#SVGID_00000011746465322983945760000005022443104884338062_);}
	.st29{fill:none;}
	.st30{fill:url(#SVGID_00000058569815827544456970000009004084780129668799_);}
	.st31{fill:url(#SVGID_00000088831478082584577210000013557381979717112480_);}
	.st32{fill:url(#SVGID_00000079482572860286100500000009056787516800763013_);}
	.st33{fill:url(#SVGID_00000044156558763641933560000016745746882059214778_);}
</style>
<circle class="st0" cx="209.8" cy="210" r="201.2"/>
<g>
	<linearGradient id="SVGID_1_" gradientUnits="userSpaceOnUse" x1="307.735" y1="293.8701" x2="96.9283" y2="186.3634">
		<stop  offset="0" style="stop-color:#845B77"/>
		<stop  offset="1" style="stop-color:#F77560"/>
	</linearGradient>
	<path class="st1" d="M319.9,157.8c-1.4,0.8-2.8,1.4-4.3,1.8c-2.4,0.7-4.8,1.1-7.2,1.1c0,0,0,0,0,0c0.1,0.3,0.2,0.7,0.4,1
		c0.1,0.2,0.1,0.4,0.2,0.6c0.1,0.3,0.2,0.7,0.3,1c0.1,0.2,0.1,0.5,0.2,0.7c0.1,0.3,0.2,0.6,0.3,1c0.1,0.2,0.1,0.5,0.2,0.7
		c0.1,0.3,0.2,0.6,0.3,0.9c0.1,0.2,0.1,0.5,0.2,0.7c0.1,0.3,0.2,0.6,0.2,0.9c0.1,0.3,0.1,0.5,0.2,0.8c0.1,0.3,0.1,0.6,0.2,0.9
		c0.1,0.3,0.1,0.6,0.2,0.9c0.1,0.3,0.1,0.6,0.2,0.9c0.1,0.6,0.2,1.1,0.3,1.7c0,0.2,0.1,0.5,0.1,0.7c0.1,0.4,0.1,0.7,0.2,1.1
		c0,0.3,0.1,0.5,0.1,0.8c0,0.3,0.1,0.7,0.1,1c0,0.3,0.1,0.5,0.1,0.8c0,0.3,0.1,0.7,0.1,1c0,0.3,0.1,0.5,0.1,0.8c0,0.3,0.1,0.7,0.1,1
		c0,0.3,0,0.5,0.1,0.8c0,0.4,0,0.7,0.1,1.1c0,0.2,0,0.5,0,0.7c0,0.4,0,0.8,0,1.2c0,0.2,0,0.4,0,0.6c0,0.6,0,1.2,0,1.8
		c0,41.7-34,75.6-75.7,75.6c-41.8,0-75.8-34.2-75.7-75.9c0.1-27.3,14.7-51.2,36.4-64.5l9.5-17.5c-9.3,3.4-18.1,8.3-26.1,15
		c-35.9,29.7-43.6,86-10,124.9c-5,5-10,10-15.1,14.9c-0.4,0.4-1.5,0.4-2.1,0.2c-9.7-3.9-18.1-2.1-25.5,5.3
		c-14.7,14.7-13.9,13.5-28.7,28c-4.7,4.7-8.9,9.5-10.1,16.2c0,2,0,3.9,0,5.9c0.4,1.2,0.6,2.5,1.1,3.7c2.7,7.6,8,12.4,15.9,14.3
		c0.5,0.1,1.1,0.3,1.6,0.5c2,0,3.9,0,5.9,0c6.8-1.3,11.7-5.5,16.4-10.3c14.5-14.7,13.8-13.3,28.4-27.9c7.3-7.3,9.2-15.8,5.3-25.5
		c-0.2-0.6-0.2-1.7,0.2-2.1c4.9-5.1,10-10,14.9-15c39.4,34.1,96,25.4,125.2-10.4C324.8,217.9,329.6,185.8,319.9,157.8z"/>
	
		<linearGradient id="SVGID_00000102504166969147286430000004909880678673761664_" gradientUnits="userSpaceOnUse" x1="373.1306" y1="165.6379" x2="162.3239" y2="58.1312">
		<stop  offset="0" style="stop-color:#845B77"/>
		<stop  offset="1" style="stop-color:#F77560"/>
	</linearGradient>
	<path style="fill:url(#SVGID_00000102504166969147286430000004909880678673761664_);" d="M276.1,121.7c0.3,0.2,0.6,0.4,1,0.6
		c0.1,0,0.1,0.1,0.2,0.1c0.1,0,0.1,0.1,0.2,0.1c0.4,0.3,0.8,0.5,1.2,0.8c0,0,0.1,0,0.1,0.1c2.7,1.8,5.3,3.7,7.8,5.8c0,0,0,0,0,0v0
		c1.5-3.8,3.2-7.4,5-11.1c-7.7-6.1-16.3-10.7-25.2-13.9l10.7,18C276.7,122.1,276.4,121.9,276.1,121.7z"/>
	
		<linearGradient id="SVGID_00000036945668189860182850000006404244336887244218_" gradientUnits="userSpaceOnUse" x1="332.6126" y1="209.0251" x2="150.402" y2="116.1017">
		<stop  offset="0" style="stop-color:#845B77"/>
		<stop  offset="1" style="stop-color:#F77560"/>
	</linearGradient>
	<path style="fill:url(#SVGID_00000036945668189860182850000006404244336887244218_);" d="M193.5,169.8c-1.8,4.5-2.9,9.9-2.4,14.7
		c2,19.7,11.9,33.9,29.8,40.9c18.2,7.2,34.8,3.2,49-10.5c10.6-10.1,18.4-31,11.1-46.9c-7.1-15.6-15-30.8-23.3-45.7c0,0-0.1,0-0.1,0
		c0,0,0.1,0,0.1,0c-2.1-3.9-4.3-7.8-6.5-11.6c-4.4-7.8-8.9-15.6-13.3-23.4c-0.1-0.2-0.4-0.3-1.1-0.8c-4.5,8.2-9.1,16.3-13.6,24.5
		c-2.2,4-4.4,7.9-6.6,11.9c-3,5.4-5.9,10.8-8.8,16.3C202.6,149.1,197.8,159.3,193.5,169.8z"/>
	
		<linearGradient id="SVGID_00000029760473083328785720000012163486329448046269_" gradientUnits="userSpaceOnUse" x1="372.9342" y1="166.0229" x2="162.1275" y2="58.5161">
		<stop  offset="0" style="stop-color:#845B77"/>
		<stop  offset="1" style="stop-color:#F77560"/>
	</linearGradient>
	<path style="fill:url(#SVGID_00000029760473083328785720000012163486329448046269_);" d="M304.6,152c1.9,0.3,4,0.2,6.1-0.4
		c6.2-1.8,11.5-9.5,9.2-14.9c-3.7-8.8-8.3-17.1-12.5-25.6c-0.3,0.1-0.6,0.2-0.9,0.2c-2.6,4.7-5.3,9.4-7.8,14.2
		c-1.7,3.3-3.4,6.7-4.7,10.2c-0.1,0.2-0.1,0.4-0.2,0.6c-0.4,1.4-0.5,3.2-0.2,4.6C295.3,147.5,299.6,151.2,304.6,152z"/>
</g>
</svg>
