<?xml version="1.0" encoding="utf-8"?>
<!-- Generator: Adobe Illustrator 26.2.1, SVG Export Plug-In . SVG Version: 6.00 Build 0)  -->
<svg version="1.1" id="Layer_1" xmlns="http://www.w3.org/2000/svg" xmlns:xlink="http://www.w3.org/1999/xlink" x="0px" y="0px"
	 viewBox="0 0 100 100" style="enable-background:new 0 0 100 100;" xml:space="preserve">
<style type="text/css">
	.st0{fill:url(#SVGID_1_);}
	.st1{fill:url(#SVGID_00000089551415025961263590000006911826760393918092_);}
	.st2{fill:url(#SVGID_00000162335333510352982760000016806262305793781637_);}
	.st3{fill:#FFFFFF;}
	.st4{fill:none;}
	.st5{fill:url(#SVGID_00000105389145989869756800000009592588313276265880_);}
	.st6{fill:url(#SVGID_00000173882702225901370900000013033066460310983301_);}
	.st7{fill:url(#SVGID_00000003069316184409255300000012054621323343304104_);}
	.st8{fill:url(#SVGID_00000149372226789218363730000016796967897671355057_);}
	.st9{fill:url(#SVGID_00000053519326365348252490000014174574409693499293_);}
	.st10{fill:url(#SVGID_00000026855558637120837700000005710148851109235844_);}
	.st11{fill:url(#SVGID_00000083056070465284319120000000846029550989525690_);}
	.st12{fill:url(#SVGID_00000096777696187000508640000012817843673272557455_);}
	.st13{fill:url(#SVGID_00000075143638024534644620000008676456386910002866_);}
	.st14{fill:url(#SVGID_00000125590765169741774170000005389839772743507372_);}
	.st15{fill:url(#SVGID_00000049921411527715675410000004140355347684847788_);}
	.st16{fill:url(#SVGID_00000054252248703983210370000013561939323997895041_);}
	.st17{fill:url(#SVGID_00000175316435402475428710000011043720964800553900_);}
	.st18{fill:url(#SVGID_00000007401238629679034900000018115938900568612495_);}
	.st19{fill:url(#SVGID_00000036232589924837677180000005283407116033726092_);}
	.st20{fill:url(#SVGID_00000065757015290683234650000003247727344951993267_);}
	.st21{fill:url(#SVGID_00000044878452832183183350000005693888743680243075_);}
	.st22{fill:url(#SVGID_00000091716879555608747290000009308609539616349318_);}
	.st23{fill:url(#SVGID_00000155869481431533935800000011822408245712094619_);}
	.st24{fill:url(#SVGID_00000017489887245220941800000001826357602321200542_);}
	.st25{fill:url(#SVGID_00000018204884825459790990000000227001568631823766_);}
	.st26{fill:url(#SVGID_00000063630778497902253400000007042189111473343623_);}
	.st27{fill:url(#SVGID_00000109024205791015742060000011189689697292116411_);}
</style>
<g>
	<linearGradient id="SVGID_1_" gradientUnits="userSpaceOnUse" x1="5.9239" y1="61.6134" x2="71.2632" y2="61.6134">
		<stop  offset="0" style="stop-color:#F77560"/>
		<stop  offset="0.142" style="stop-color:#F27461"/>
		<stop  offset="0.3164" style="stop-color:#E37064"/>
		<stop  offset="0.5078" style="stop-color:#CA6B69"/>
		<stop  offset="0.71" style="stop-color:#A76370"/>
		<stop  offset="0.8816" style="stop-color:#845B77"/>
	</linearGradient>
	<path class="st0" d="M68.2,48C68,48,68,48,68,48.1c-1.8,1.8-3.7,3.7-5.5,5.5c-0.1,0.1-0.1,0.5-0.1,0.7c0.3,1.5,0.7,2.9,0.9,4.4
		c0.7,5.3-0.3,10.3-2.9,15c-2.6,4.8-6.5,8.3-11.5,10.6c-5.1,2.3-10.4,2.9-15.9,1.6c-5.5-1.3-10-4.1-13.6-8.4
		c-2.9-3.5-4.7-7.6-5.4-12.2c-0.7-4.8-0.1-9.4,1.9-13.8c1.8-4.2,4.7-7.5,8.4-10.2c3.6-2.5,7.6-4,12-4.4c3.3-0.3,6.5,0,9.6,1
		c0.4,0.1,0.6,0.1,0.9-0.2c1.2-1.2,2.4-2.4,3.6-3.6c0.6-0.6,1.2-1.2,1.9-1.8c-0.1-0.1-0.1-0.2-0.2-0.2c-5.4-2.5-11-3.6-16.9-2.9
		c-5.2,0.6-10.1,2.3-14.5,5.2C13,39.6,8.1,46.8,6.4,56c-0.2,1.2-0.3,2.4-0.5,3.7c0,1.3,0,2.6,0,3.8c0.2,1.2,0.3,2.4,0.5,3.7
		c1.7,9.2,6.4,16.3,14.1,21.6c4.5,3.1,9.4,4.8,14.8,5.4c0.4,0,0.9,0.1,1.3,0.2c1.3,0,2.6,0,3.8,0c0.2,0,0.4-0.1,0.6-0.1
		c1.5-0.2,3-0.3,4.5-0.7C63.9,89.4,75.2,70.7,70,53C69.5,51.3,68.8,49.6,68.2,48z"/>
	
		<linearGradient id="SVGID_00000129172192000526004860000007149221100803557036_" gradientUnits="userSpaceOnUse" x1="21.3893" y1="61.6096" x2="55.8169" y2="61.6096">
		<stop  offset="0" style="stop-color:#F77560"/>
		<stop  offset="0.142" style="stop-color:#F27461"/>
		<stop  offset="0.3164" style="stop-color:#E37064"/>
		<stop  offset="0.5078" style="stop-color:#CA6B69"/>
		<stop  offset="0.71" style="stop-color:#A76370"/>
		<stop  offset="0.8816" style="stop-color:#845B77"/>
	</linearGradient>
	<path style="fill:url(#SVGID_00000129172192000526004860000007149221100803557036_);" d="M39.5,52.1c0.2,0,0.5-0.1,0.7-0.2
		c1.3-1.3,2.6-2.5,3.8-3.8c0.1-0.1,0.3-0.3,0.3-0.5c0-0.7,0-1.4,0-2c-6.8-2.7-15.4-0.4-20.1,6.6c-4.6,7-3.6,16.3,2.3,21.9
		c6.2,6,15.5,6.4,22,1.7c7-5,8.6-13.7,6.1-19.7c-0.6,0-1.3,0-1.9,0c-0.2,0-0.5,0.1-0.6,0.3c-1.3,1.3-2.6,2.6-3.9,3.9
		c-0.1,0.2-0.3,0.4-0.2,0.7c0.6,5.3-3.6,10.2-8.9,10.5c-6.2,0.3-11-5-10-11.2C29.9,55.1,34.7,51.5,39.5,52.1z"/>
	
		<linearGradient id="SVGID_00000027596404137148489720000000836666785113298860_" gradientUnits="userSpaceOnUse" x1="38.045" y1="33.4738" x2="95.6119" y2="33.4738">
		<stop  offset="0" style="stop-color:#F77560"/>
		<stop  offset="0.142" style="stop-color:#F27461"/>
		<stop  offset="0.3164" style="stop-color:#E37064"/>
		<stop  offset="0.5078" style="stop-color:#CA6B69"/>
		<stop  offset="0.71" style="stop-color:#A76370"/>
		<stop  offset="0.8816" style="stop-color:#845B77"/>
	</linearGradient>
	<path style="fill:url(#SVGID_00000027596404137148489720000000836666785113298860_);" d="M95.4,13.5c-0.4-0.9-1.2-1.2-2.1-1.2
		c-1.8,0-3.6,0-5.5,0c0-1.9,0-3.7,0-5.5c0-0.9-0.3-1.6-1.2-2c-0.9-0.4-1.6-0.1-2.3,0.6c-3.7,3.8-7.4,7.5-11.1,11.2
		c-0.5,0.5-0.7,1.1-0.7,1.8c0,2,0,4,0,5.9c0,0.4-0.1,0.7-0.4,1.1C68.7,28.9,42.4,55.2,39,58.6c-0.2,0.2-0.4,0.4-0.6,0.6
		c-0.8,1.1-0.3,2.6,1,3c0.9,0.3,1.5-0.1,2.1-0.7C45,58,71.4,31.7,74.8,28.2c0.3-0.3,0.7-0.5,1.1-0.5c2,0,4,0,5.9,0
		c0.7,0,1.3-0.2,1.8-0.8c3.7-3.7,7.5-7.5,11.2-11.2C95.6,15.1,95.8,14.3,95.4,13.5z"/>
</g>
<path class="st3" d="M75.7,23.6l0.2-4.7c0-0.2,0.1-0.4,0.2-0.5l7.3-7.8c0.5-0.5,1.3-0.2,1.4,0.4l0.5,3.7c0.1,0.4,0.4,0.7,0.9,0.7
	l4.4-0.4c0.8-0.1,1.2,0.9,0.6,1.4l-8.3,7.4c-0.1,0.1-0.3,0.2-0.5,0.2l-5.8,0.3C76,24.4,75.7,24,75.7,23.6z"/>
</svg>
