<?xml version="1.0" encoding="utf-8"?>
<!-- Generator: Adobe Illustrator 26.2.1, SVG Export Plug-In . SVG Version: 6.00 Build 0)  -->
<svg version="1.1" id="Layer_1" xmlns="http://www.w3.org/2000/svg" xmlns:xlink="http://www.w3.org/1999/xlink" x="0px" y="0px"
	 viewBox="0 0 30.6 30.6" style="enable-background:new 0 0 30.6 30.6;" xml:space="preserve">
<style type="text/css">
	.st0{fill:url(#SVGID_1_);}
	.st1{fill:url(#SVGID_00000070827835950826381550000005924582074050403765_);}
	.st2{fill:url(#SVGID_00000065781945407347032730000008103836309704764079_);}
	.st3{fill:url(#SVGID_00000064341943304333509260000005466390069535390364_);}
	.st4{fill:url(#SVGID_00000018195984108455930500000012398494952753415856_);}
	.st5{fill:url(#SVGID_00000145040098898153202730000008506236061189958531_);}
	.st6{fill:url(#SVGID_00000018949641803616270760000009718903328401379459_);}
	.st7{fill:url(#SVGID_00000096759989937154085630000012188095376734225584_);}
	.st8{fill:url(#SVGID_00000127762012105778477050000004630257825039008686_);}
	.st9{fill:url(#SVGID_00000177451575021961284070000014020940206073257881_);}
	.st10{fill:url(#SVGID_00000134948206292343025150000012585428077997544369_);}
	.st11{fill:url(#SVGID_00000078734209194512912610000015325064833020244627_);}
	.st12{fill:url(#SVGID_00000080912080263124365300000013449646227342663820_);}
	.st13{fill:url(#SVGID_00000058568753610263005980000014352293388603324307_);}
	.st14{fill:url(#SVGID_00000121986248263164192250000013023290468920335007_);}
	.st15{fill:url(#SVGID_00000179642780492929409270000015597522004942206600_);}
	.st16{fill:url(#SVGID_00000052087865286953058080000010585517424806434974_);}
	.st17{fill:url(#SVGID_00000089543469621402014250000007505249494903130535_);}
	.st18{fill:url(#SVGID_00000110471697221424254490000008066834431272544444_);}
	.st19{fill:url(#SVGID_00000170966477232782472060000011756330182232037046_);}
</style>
<path d="M2.9,14.6c0.6-0.7,1.3-1.3,1.9-2c2.1,1.4,4.1,2.9,6.2,4.3c0.1-0.2,0.3-0.3,0.4-0.5c1.9-2.5,4-4.8,6.3-7.1
	c2.2-2.2,4.6-4.2,7.1-6C25.2,3.1,25.5,3,25.9,3c0.8,0,1.5,0,2.3,0c0.1,0,0.2,0,0.3,0c0,0,0,0.1,0.1,0.1c-0.1,0-0.2,0.1-0.2,0.1
	C25.4,6,22.8,9,20.5,12.2c-2,2.8-4,5.6-5.9,8.5c-1.2,1.8-2.2,3.6-3.3,5.4c-0.1,0.1-0.1,0.2-0.2,0.4C8.5,22.3,5.7,18.4,2.9,14.6z"/>
</svg>
