<?xml version="1.0" encoding="utf-8"?>
<!-- Generator: Adobe Illustrator 26.3.1, SVG Export Plug-In . SVG Version: 6.00 Build 0)  -->
<svg version="1.1" id="Layer_1" xmlns="http://www.w3.org/2000/svg" xmlns:xlink="http://www.w3.org/1999/xlink" x="0px" y="0px"
	 viewBox="0 0 594 257.3" style="enable-background:new 0 0 594 257.3;" xml:space="preserve">
<style type="text/css">
	.st0{fill:#1A244F;}
	
		.st1{clip-path:url(#SVGID_00000139288583598904945530000013737256738649077642_);fill:url(#SVGID_00000152265929398517118050000017092766441271362442_);}
</style>
<g>
	<path class="st0" d="M139.4,178.6c-9.7,0-17.3-3-22.8-9c-5.5-6-8.3-15-8.3-26.9V96.7h17.1v44.1c0,15.5,6.3,23.2,19,23.2
		c6.3,0,11.5-2.3,15.6-6.8c4.1-4.5,6.1-11,6.1-19.3V96.7h17.1v79.9H168l-1.3-14c-2.5,4.9-6.1,8.8-10.9,11.7
		C151.1,177.2,145.6,178.6,139.4,178.6"/>
	<path class="st0" d="M195.3,212.1V96.7h15.3l1.8,12.4c2.6-3.8,6.1-7.1,10.6-10s10.3-4.4,17.4-4.4c7.7,0,14.6,1.8,20.5,5.5
		c5.9,3.7,10.6,8.6,13.9,15c3.4,6.3,5.1,13.5,5.1,21.6c0,8.1-1.7,15.2-5.1,21.5c-3.4,6.3-8,11.2-13.9,14.8
		c-5.9,3.6-12.8,5.4-20.6,5.4c-6.2,0-11.7-1.2-16.5-3.7c-4.8-2.5-8.6-6-11.4-10.5v47.7H195.3z M237.3,163.8c7.3,0,13.3-2.5,18-7.5
		c4.7-5,7.1-11.5,7.1-19.6c0-5.3-1.1-9.9-3.2-14c-2.1-4.1-5.1-7.3-8.9-9.6c-3.8-2.3-8.1-3.5-13.1-3.5c-7.3,0-13.3,2.5-18,7.6
		c-4.7,5-7,11.6-7,19.5c0,8.1,2.3,14.6,7,19.6C224,161.3,230,163.8,237.3,163.8"/>
	<path class="st0" d="M326.6,178.6c-7.8,0-14.8-1.8-21-5.3c-6.2-3.5-11-8.5-14.5-14.7c-3.5-6.3-5.2-13.6-5.2-21.8
		c0-8.3,1.7-15.5,5.2-21.8c3.5-6.3,8.3-11.2,14.5-14.7c6.2-3.5,13.2-5.3,21-5.3c9.9,0,18.2,2.6,24.9,7.7c6.7,5.2,11,12.1,13,20.9
		h-17.9c-1.1-4.4-3.4-7.8-7.1-10.3c-3.7-2.5-7.9-3.7-12.9-3.7c-4.2,0-8.1,1-11.6,3.1c-3.5,2.1-6.4,5.2-8.5,9.2
		c-2.1,4-3.2,9-3.2,14.9c0,5.9,1.1,10.9,3.2,14.9c2.2,4,5,7.1,8.5,9.3c3.5,2.1,7.4,3.2,11.6,3.2c4.9,0,9.2-1.2,12.9-3.7
		c3.7-2.5,6-6,7.1-10.5h17.9c-1.8,8.6-6.1,15.5-12.9,20.8C344.8,175.9,336.5,178.6,326.6,178.6"/>
	<path class="st0" d="M373.3,176.6V96.7h15.3l1.5,15.1c2.8-5.3,6.7-9.4,11.7-12.5c5-3.1,11-4.6,18.1-4.6v17.9h-4.7
		c-4.7,0-8.9,0.8-12.6,2.3c-3.7,1.6-6.7,4.2-8.9,7.9c-2.2,3.7-3.3,8.8-3.3,15.4v38.3H373.3z"/>
	<path class="st0" d="M460,178.6c-7.6,0-14.5-1.7-20.5-5.2c-6.1-3.5-10.9-8.4-14.4-14.7c-3.5-6.3-5.3-13.6-5.3-22
		c0-8.4,1.8-15.7,5.4-22c3.6-6.3,8.5-11.2,14.6-14.7c6.1-3.5,12.9-5.2,20.5-5.2c7.6,0,14.5,1.7,20.5,5.2c6.1,3.5,10.9,8.4,14.5,14.7
		c3.6,6.3,5.4,13.6,5.4,22c0,8.4-1.8,15.7-5.4,22c-3.6,6.3-8.5,11.2-14.6,14.7C474.5,176.8,467.6,178.6,460,178.6 M460,163.9
		c4.1,0,7.9-1,11.4-3.1c3.5-2,6.3-5.1,8.5-9.1c2.1-4,3.2-9,3.2-15.1c0-6-1-11-3.1-15.1c-2.1-4-4.9-7.1-8.4-9.1
		c-3.5-2-7.3-3.1-11.4-3.1c-4.1,0-7.9,1-11.4,3.1c-3.5,2-6.3,5.1-8.5,9.1c-2.2,4-3.2,9-3.2,15.1c0,6,1.1,11,3.2,15.1
		c2.1,4,4.9,7.1,8.4,9.1C452.1,162.9,455.9,163.9,460,163.9"/>
	<path class="st0" d="M509.4,212.1V96.7h15.3l1.8,12.4c2.6-3.8,6.1-7.1,10.6-10c4.5-2.9,10.3-4.4,17.4-4.4c7.7,0,14.6,1.8,20.5,5.5
		c5.9,3.7,10.6,8.6,13.9,15c3.4,6.3,5.1,13.5,5.1,21.6c0,8.1-1.7,15.2-5.1,21.5c-3.4,6.3-8,11.2-13.9,14.8
		c-5.9,3.6-12.8,5.4-20.6,5.4c-6.2,0-11.7-1.2-16.5-3.7c-4.8-2.5-8.6-6-11.4-10.5v47.7H509.4z M551.5,163.8c7.3,0,13.3-2.5,18-7.5
		c4.7-5,7.1-11.5,7.1-19.6c0-5.3-1.1-9.9-3.2-14c-2.2-4.1-5.1-7.3-8.9-9.6c-3.8-2.3-8.1-3.5-13.1-3.5c-7.3,0-13.3,2.5-18,7.6
		c-4.7,5-7,11.6-7,19.5c0,8.1,2.3,14.6,7,19.6C538.2,161.3,544.2,163.8,551.5,163.8"/>
	<g>
		<defs>
			<path id="SVGID_1_" d="M0,30.1c0,24.1,13.6,47.3,37.8,64.4l48.5,34.2l-54.8,38.6C11.4,181.5,0,200.8,0,220.9v36.4L18.8,244
				c90.1-63.5,90.1-167.3,0-230.7L0,0V30.1z"/>
		</defs>
		<clipPath id="SVGID_00000013910936337033641390000000541928588407050156_">
			<use xlink:href="#SVGID_1_"  style="overflow:visible;"/>
		</clipPath>
		
			<linearGradient id="SVGID_00000029752842009883933520000001119694602122089866_" gradientUnits="userSpaceOnUse" x1="2153.8237" y1="557.4604" x2="2154.8237" y2="557.4604" gradientTransform="matrix(-126.5285 -267.1157 -267.1157 126.5285 421579.5625 505122.3438)">
			<stop  offset="0" style="stop-color:#384E99"/>
			<stop  offset="0.2535" style="stop-color:#384E99"/>
			<stop  offset="1" style="stop-color:#63C083"/>
		</linearGradient>
		
			<polygon style="clip-path:url(#SVGID_00000013910936337033641390000000541928588407050156_);fill:url(#SVGID_00000029752842009883933520000001119694602122089866_);" points="
			20,299.4 -99.5,47.1 88.9,-42.1 208.4,210.1 		"/>
	</g>
</g>
</svg>
