<?xml version="1.0" encoding="utf-8"?>
<!-- Generator: Adobe Illustrator 26.2.1, SVG Export Plug-In . SVG Version: 6.00 Build 0)  -->
<svg version="1.1" id="Layer_1" xmlns="http://www.w3.org/2000/svg" xmlns:xlink="http://www.w3.org/1999/xlink" x="0px" y="0px"
	 viewBox="0 0 100 100" style="enable-background:new 0 0 100 100;" xml:space="preserve">
<style type="text/css">
	.st0{fill:url(#SVGID_1_);}
	.st1{fill:url(#SVGID_00000160162116004911208780000003884282971038148002_);}
	.st2{fill:url(#SVGID_00000030454061956602663810000000557478578168314505_);}
	.st3{fill:#FFFFFF;}
	.st4{fill:none;}
	.st5{fill:url(#SVGID_00000135677428745716753340000007620535670182478747_);}
	.st6{fill:url(#SVGID_00000090268511811946124100000013306258205276189879_);}
	.st7{fill:url(#SVGID_00000076561881541001313290000000807086213150367109_);}
	.st8{fill:url(#SVGID_00000167389132890241525280000002291876422665431717_);}
	.st9{fill:url(#SVGID_00000123428650972455273350000014137268574186893704_);}
	.st10{fill:url(#SVGID_00000040563158201137046840000002427603237462316181_);}
	.st11{fill:url(#SVGID_00000041996417319076209230000000617680806417340577_);}
	.st12{fill:url(#SVGID_00000016077456475727057840000017355969976889246858_);}
	.st13{fill:url(#SVGID_00000025442163479414245410000017838914681514364335_);}
	.st14{fill:url(#SVGID_00000005253404388284139460000010943703273471938470_);}
	.st15{fill:url(#SVGID_00000102533975200815775150000006220385616809493177_);}
	.st16{fill:url(#SVGID_00000059297421339520121020000003778783621720106626_);}
	.st17{fill:url(#SVGID_00000074443631987710925400000014596606682185904024_);}
	.st18{fill:url(#SVGID_00000044894985919574082660000003353273471924723331_);}
	.st19{fill:url(#SVGID_00000026860352590547124840000000196616759087347384_);}
	.st20{fill:url(#SVGID_00000021806540253686534760000015911264497921552816_);}
	.st21{fill:url(#SVGID_00000119090765830443794870000000262463179871731894_);}
	.st22{fill:url(#SVGID_00000163059143219220969190000007569272596932132480_);}
	.st23{fill:url(#SVGID_00000039837399391308927460000004984805535493171870_);}
	.st24{fill:url(#SVGID_00000036960354806909830250000016773977862436994230_);}
	.st25{fill:url(#SVGID_00000152954862194447616580000011766244682868071610_);}
	.st26{fill:url(#SVGID_00000011728770805356529230000000395018664446401172_);}
	.st27{fill:url(#SVGID_00000178901966541937679670000012642147988578582456_);}
</style>
<g>
	<linearGradient id="SVGID_1_" gradientUnits="userSpaceOnUse" x1="108.5506" y1="73.2471" x2="20.1486" y2="6.6254">
		<stop  offset="0.1184" style="stop-color:#845B77"/>
		<stop  offset="0.29" style="stop-color:#A76370"/>
		<stop  offset="0.4922" style="stop-color:#CA6B69"/>
		<stop  offset="0.6836" style="stop-color:#E37064"/>
		<stop  offset="0.858" style="stop-color:#F27461"/>
		<stop  offset="1" style="stop-color:#F77560"/>
	</linearGradient>
	<path class="st0" d="M87.2,20.7c-2.2,0-4.4,0-6.5,0c-0.6,0-0.7,0.1-0.7,0.7c0,5.5,0,12.9,0,18.5c0,4.8,0,9.7,0,14.5H74
		c0-3,0-6.1,0-9.1c0-3.9,0-7.7,0-11.6c0-0.4-0.1-0.5-0.5-0.5c-2.3,0-4.5,0-6.8,0c-0.4,0-0.5,0.1-0.5,0.5c0,6.9,0,13.8,0,20.7h-5.9
		c0-5.3,0-10.6,0-15.9c0-0.4-0.1-0.5-0.5-0.5c-2.2,0-4.5,0-6.7,0c-0.5,0-0.6,0.1-0.6,0.6c0,3,0,6.1,0,9.1c0,2.3,0,4.5,0,6.8h-6
		c0-3.7,0-4.1,0-9.2c0-0.4-0.1-0.5-0.5-0.5c-2.2,0-4.5,0-6.7,0c-0.5,0-0.6,0.1-0.6,0.6c0,0.9,0,1.2,0,1.3c0,0.2,0,0.5,0,1.1
		c0,3.1,0,6.1,0,9.2c0,0.1,0,0.2,0,0.3v0.2h49.1v-0.5c0,0,0,0,0,0c0-0.3,0-0.6,0-0.9v-1.4h0c0-10.7,0-22.7,0-33.1
		C87.8,20.8,87.6,20.7,87.2,20.7z"/>
	
		<linearGradient id="SVGID_00000103254196970926441160000004480058821521004720_" gradientUnits="userSpaceOnUse" x1="119.5632" y1="62.8354" x2="27.3702" y2="-6.6434">
		<stop  offset="7.919777e-02" style="stop-color:#FFFFFF"/>
		<stop  offset="0.2038" style="stop-color:#FDE1DC"/>
		<stop  offset="0.386" style="stop-color:#FBBBB0"/>
		<stop  offset="0.5618" style="stop-color:#F99C8D"/>
		<stop  offset="0.727" style="stop-color:#F88774"/>
		<stop  offset="0.8775" style="stop-color:#F77A65"/>
		<stop  offset="1" style="stop-color:#F77560"/>
	</linearGradient>
	<path style="fill:url(#SVGID_00000103254196970926441160000004480058821521004720_);" d="M89.4,6.8c0-1.7-1.3-2.8-3-2.6
		c-2.3,0.3-4.5,0.6-6.8,0.8c-1.3,0.2-2.3,1.2-2.3,2.4c0,1.3,0.8,2.4,2.1,2.6c0.4,0.1,0.8,0,1.3,0c-0.9,1-1.7,1.9-2.6,2.8
		c-8.3,8.3-18.2,13.7-29.5,16.6c-3.2,0.8-6.5,1.3-9.8,1.6c-1.3,0.1-2.2,1.3-2.2,2.5c0,1.3,1,2.3,2.2,2.5c0.6,0.1,1.2,0,1.8-0.1
		c4.7-0.5,9.2-1.5,13.7-2.9c6.1-1.9,11.8-4.7,17.2-8.2c0.1-0.1,0.3-0.2,0.4-0.3l3.1-2.3c0.1,0,0.3-0.1,0.4-0.2
		c0.2-0.2,0.5-0.4,0.7-0.6l0,0l0,0c2.4-1.9,4.7-4,6.8-6.3c0.4-0.5,0.9-1,1.4-1.5c0,0.1,0,0.2,0.1,0.3c0.3,1.4,1.5,2.2,2.9,2.1
		c1.2-0.1,2.2-1.2,2.2-2.6C89.4,11.3,89.4,9.1,89.4,6.8z"/>
	
		<linearGradient id="SVGID_00000015333045250710014410000003335815036186640545_" gradientUnits="userSpaceOnUse" x1="88.0579" y1="103.7558" x2="-3.7062" y2="34.6002">
		<stop  offset="5.605434e-02" style="stop-color:#845B77"/>
		<stop  offset="0.2398" style="stop-color:#A76370"/>
		<stop  offset="0.4562" style="stop-color:#CA6B69"/>
		<stop  offset="0.6612" style="stop-color:#E37064"/>
		<stop  offset="0.848" style="stop-color:#F27461"/>
		<stop  offset="1" style="stop-color:#F77560"/>
	</linearGradient>
	<path style="fill:url(#SVGID_00000015333045250710014410000003335815036186640545_);" d="M68.1,88.2c-3.5-3.5-7-6.9-10.4-10.4
		c-1.5-1.5-3.5-1.7-4.9-0.5c-0.2,0.2-0.3,0.1-0.4,0c-0.4-0.4-4.1-4.1-4.5-4.5c-0.3-0.2-0.2-0.4,0-0.6c1.2-1.3,2.2-2.8,3-4.4
		c0.7-1.3,1.2-2.7,1.6-4.1h-4.7c-2.2,6.6-8.4,11.3-15.8,11.4c-9.2,0-16.6-7.5-16.6-16.7c0-8.8,6.9-16.1,15.6-16.6v-4.6
		c-3.3,0.1-6.4,1.1-9.4,2.8c-4.8,2.7-8,6.8-9.7,12c-0.5,1.5-0.8,3-0.9,4.5c0,0.1,0,0.2-0.1,0.3c0,1.2,0,2.4,0,3.6
		c0.2,0.2,0.1,0.5,0.2,0.7c0.6,5.1,2.8,9.4,6.5,12.9c3.5,3.2,7.6,5.1,12.3,5.6c4.6,0.5,8.9-0.5,12.9-2.7c1.2-0.7,2.3-1.4,3.2-2.3
		c0.2-0.2,0.4-0.2,0.6,0c0.1,0.1,0.2,0.2,0.3,0.3c0.3,0.3,4,3.9,4.2,4.2c0.2,0.4-0.3,0.7-0.5,1c-0.6,1.3-0.4,2.8,0.7,3.8
		c3.7,3.7,7.3,7.4,11,11c0.5,0.5,1.2,0.8,1.9,1c0.4,0,0.8,0,1.2,0c1.5-0.5,2.5-1.7,3.4-2.8c1.1-1.2,1-3,0-4.2
		C68.5,88.6,68.3,88.4,68.1,88.2z"/>
</g>
<path class="st3" d="M39.7,34.3c0.8,0,1.6-0.1,2.3-0.2c9.2-1.2,17.7-4.1,25.7-8.7c0.4-0.3,0.9-0.5,1.3-0.8c0.6-0.4,1.1-0.7,1.7-1.1
	c0.1-0.1,0.2-0.1,0.3-0.2l4.7-3.6c0.4-0.3,0.8-0.6,1.1-1c1.7-1.5,3.4-3.1,5-4.8c0.8-0.9,1.6-1.8,2.4-2.7c0.3-0.3,0.6-0.6,1.1-0.4
	c0.5,0.2,0.5,0.6,0.5,1c0,0.6,0,1.1,0,1.7c0,0.6,0.4,1,0.9,1c0.5,0,0.9-0.4,0.9-1c0-2.2,0-4.4,0-6.6c0-0.7-0.5-1.1-1.2-1
	c-2.2,0.3-4.4,0.5-6.6,0.8c-0.6,0.1-0.9,0.5-0.9,1c0,0.5,0.5,0.9,1.1,0.8c0.7-0.1,1.5-0.2,2.2-0.3c0.4-0.1,0.8,0,1.1,0.4
	c0.2,0.4,0,0.8-0.2,1.1c-6.5,7.9-14.5,13.8-23.9,17.8c-4.5,1.9-9.2,3.3-14.1,4.2c-1.8,0.3-3.5,0.6-5.3,0.7c-0.2,0-0.5,0-0.7,0.2
	c-0.4,0.2-0.5,0.6-0.4,1C38.9,34.1,39.2,34.3,39.7,34.3z"/>
</svg>
