<?xml version="1.0" encoding="utf-8"?>
<!-- Generator: Adobe Illustrator 26.3.1, SVG Export Plug-In . SVG Version: 6.00 Build 0)  -->
<svg version="1.1" id="Layer_1" xmlns="http://www.w3.org/2000/svg" xmlns:xlink="http://www.w3.org/1999/xlink" x="0px" y="0px"
	 viewBox="0 0 250 250" style="enable-background:new 0 0 250 250;" xml:space="preserve">
<style type="text/css">
	.st0{fill:#FEF2F1;}
	
		.st1{clip-path:url(#SVGID_00000046307671105027088480000004487011637904594852_);fill:url(#SVGID_00000172430691281772141880000001062565853794840986_);}
	.st2{fill:#ED7464;}
	.st3{fill:#B16374;}
	
		.st4{clip-path:url(#SVGID_00000138535254493261577800000003319821205922923655_);fill:url(#SVGID_00000069397908748939855400000000760045239675494573_);}
	.st5{fill:url(#SVGID_00000078765747850110602780000000061229662897501059_);}
	.st6{fill:#FFFFFF;}
	.st7{fill:#F0F7EC;}
	.st8{fill:url(#SVGID_00000122679112351992661010000001149634504731179187_);}
	.st9{fill:url(#SVGID_00000050633933584615260140000003063667153544852141_);}
	.st10{fill:url(#SVGID_00000096773513547997573410000010182119007702731912_);}
	.st11{fill:url(#SVGID_00000035502772003978795440000002221751760736573324_);}
	.st12{fill:url(#SVGID_00000122700147254682657970000002615518593240722571_);}
	.st13{fill:url(#SVGID_00000086679145403413715540000005065442855162630028_);}
	.st14{fill:url(#SVGID_00000160169581614302491730000011932326014511502998_);}
	.st15{fill:url(#SVGID_00000143582009162798296290000001951568451615255205_);}
	.st16{fill:url(#SVGID_00000133522832216067507210000013294887022635379093_);}
	.st17{fill:url(#SVGID_00000120548692938314375620000008334423091153855902_);}
	.st18{fill:url(#SVGID_00000165198149854807332030000011304233506424198307_);}
	.st19{fill:url(#SVGID_00000097492827181272055410000011350997244638718084_);}
	.st20{fill:url(#SVGID_00000163039931418474686540000012868970192695287176_);}
	.st21{fill:url(#SVGID_00000163043584728309667730000013123643384682750105_);}
	.st22{fill:url(#SVGID_00000083068595970119348060000012865176339616607667_);}
</style>
<ellipse class="st7" cx="125" cy="129" rx="110" ry="110"/>
<g>
	<g>
		
			<linearGradient id="SVGID_00000065763146397684281310000013913107954335348873_" gradientUnits="userSpaceOnUse" x1="132.204" y1="-12.1772" x2="266.7618" y2="122.3806">
			<stop  offset="0" style="stop-color:#31498B"/>
			<stop  offset="1" style="stop-color:#67C292"/>
		</linearGradient>
		<circle style="fill:url(#SVGID_00000065763146397684281310000013913107954335348873_);" cx="193.3" cy="48.9" r="40.6"/>
	</g>
	<g>
		<polygon class="st6" points="207.2,69.1 193.8,55.8 180.5,69 176.2,64.7 193.8,47.2 211.5,64.8 		"/>
	</g>
	<g>
		<polygon class="st6" points="207.2,48.9 193.8,35.6 180.5,48.8 176.2,44.5 193.8,27.1 211.5,44.6 		"/>
	</g>
</g>
<linearGradient id="SVGID_00000058580330376140021910000011488716958187592861_" gradientUnits="userSpaceOnUse" x1="68.1577" y1="128.9705" x2="181.8423" y2="128.9705">
	<stop  offset="0" style="stop-color:#D3E8C5"/>
	<stop  offset="1" style="stop-color:#48BFAE"/>
</linearGradient>
<path style="fill:url(#SVGID_00000058580330376140021910000011488716958187592861_);" d="M128.6,98.7c-4.4,1.6-7.2,4.7-10.5,7.2
	c-1.1,0.9-0.3,1.4,0.2,1.9c2.2,2.2,5,3.2,8,4c3.8,1,7.6,0.9,11.2-1c1.1-0.6,1.5-0.4,2,0.8c2.2,5.4,6.2,8.6,11.9,9.6
	c2.6,0.4,2.7,0.4,3.1-2.2c0.3-2.2,0-4.3-0.2-6.4c-0.2-1.9,0.3-2.4,2.2-2c3.2,0.6,6.4,0.6,9.5-0.5c0.8-0.3,1.6-0.7,2.3-1.1
	c2.3-1.5,2.4-2.1,0.6-4.2c-1.7-2-3.5-4.1-5.7-5.8c0.9-0.7,2.1-1.2,2.5-2.3c0.7-1.7,1.6-1.2,2.8-0.7c6.8,3.3,10.4,9.1,12,16.2
	c2.6,11.8,1.4,23-5.7,33.1c-5.1,7.3-12.4,11.3-20.9,13.2c-12.2,2.6-23.8,0.9-34-6.6c-11-8.1-15.2-19.2-13.6-32.6
	c0.7-5.7,2-11.2,5.5-15.9c3.1-4.1,7.2-6.5,12.1-7.8c0.6-0.2,0.9-0.3,1.3,0.3C126.1,96.9,127.2,97.8,128.6,98.7z M139.5,97.1
	c0.5,0.1,1,0.3,1.3,0.8c-1.3-0.1-2.5-0.2-3.8-0.1c-3,0.3-5.8,1.7-8.3,3.4c-2.5,1.7-4.8,3.7-7.3,5.3c2.3,1.1,4.7,1.9,7.2,2.2
	c2.5,0.3,5.1-0.1,7.4-1.2c1.4-0.7,2.6-1.8,3.7-3c0.5-0.6,1-1.3,1.5-1.9c0.4-0.6,0.8-1.4,1.2-2c0.1,0.8,0,1.8,0,2.6
	c0,0.7,0,1.5,0,2.2c-0.1,1.5,0.2,2.9,0.4,4.4c0.7,4.3,3,7,6.5,7.8c1.2,0.3,2.1,0.3,2-1.5c-0.1-5-1.1-9.7-3.4-14.1
	c-0.3-0.5-0.8-0.9-0.5-1.9c1.6,1.8,3.1,3.3,4.9,4.7c3.9,3,8.1,4.4,12.9,2.4c1.1-0.5,1.2-0.9,0.3-1.8c-3.4-3.1-7.3-5.3-12-6.5
	c8-0.8,11.5-2.9,12.6-7.5c-5.8-0.2-11.4,0.3-17.1,3.3c2.2-3.9,4.1-7.3,6.2-10.9c-2.3,0-4.2,0.1-6.1,0c-1.1,0-1.7,0.3-2.2,1.3
	c-1.7,3.1-3.1,6.3-4.2,9.9c-1.6-3.1-4.2-4.4-7.1-5.1c-3.2-0.7-6.4-1.3-9.6-2c-1-0.2-0.9,0.4-0.9,1c0,3.4,2.1,6.4,5.4,7.4
	c1.5,0.5,3,0.7,4.6,0.8c0.8,0.1,1.6,0.1,2.3,0.1c0.4,0,0.7,0,1.1,0C138.8,97.1,139.2,97.1,139.5,97.1z M99.1,112.6
	c-3,0.3-5.8,1.7-8.3,3.4c-2.5,1.7-4.8,3.7-7.3,5.3c2.3,1.1,4.7,1.9,7.2,2.2c2.5,0.3,5.1-0.1,7.4-1.2c1.4-0.7,2.6-1.8,3.7-3
	c0.1-0.1,0.2-0.3,0.4-0.5c0-2.2,0.1-4.2,0.3-6.1C101.4,112.6,100.2,112.5,99.1,112.6z M103.3,129.8c-0.7-1-1.3-2.1-1.8-3.3
	c-0.5-1.1-0.9-1.3-2-0.8c-3.6,1.8-7.3,1.9-11.2,1c-2.9-0.7-5.8-1.8-8-4c-0.5-0.5-1.4-1.1-0.2-1.9c3.3-2.5,6.2-5.6,10.5-7.2
	c-1.4-1-2.5-1.9-3.2-3.1c-0.4-0.6-0.7-0.5-1.3-0.3c-4.9,1.3-9,3.7-12.1,7.8c-3.5,4.7-4.8,10.2-5.5,15.9
	c-1.6,13.5,2.6,24.5,13.6,32.6c10.2,7.6,21.8,9.3,34,6.6c7.1-1.5,13.2-4.7,18-9.8C113.6,156.3,105.8,142.6,103.3,129.8z M92.6,111
	c1.5,0.5,3,0.7,4.6,0.8c0.8,0.1,1.6,0.1,2.3,0.1c0.3,0,0.7,0,1.1,0c0.4,0,0.7,0,1.1,0c0.4,0.1,0.6,0.3,0.9,0.5
	c0.2-1.9,0.4-3.5,0.7-5c-1.5-1.5-3.4-2.4-5.5-2.8c-3.2-0.7-6.4-1.3-9.6-2c-1-0.2-0.9,0.4-0.9,1C87.2,107,89.3,110,92.6,111z"/>
</svg>
