<?xml version="1.0" encoding="utf-8"?>
<!-- Generator: Adobe Illustrator 26.3.1, SVG Export Plug-In . SVG Version: 6.00 Build 0)  -->
<svg version="1.1" id="Layer_1" xmlns="http://www.w3.org/2000/svg" xmlns:xlink="http://www.w3.org/1999/xlink" x="0px" y="0px"
	 viewBox="0 0 250 250" style="enable-background:new 0 0 250 250;" xml:space="preserve">
<style type="text/css">
	.st0{fill:#FEF2F1;}
	
		.st1{clip-path:url(#SVGID_00000080927063898588734400000001981212075779742653_);fill:url(#SVGID_00000096766564915288630820000011468684586934074792_);}
	.st2{fill:#ED7464;}
	.st3{fill:#B16374;}
	
		.st4{clip-path:url(#SVGID_00000005983167047997921980000005092469639877105834_);fill:url(#SVGID_00000130614589769157396040000009692124135168378531_);}
	.st5{fill:url(#SVGID_00000135689381213388766360000012666504126082104502_);}
	.st6{fill:#FFFFFF;}
	.st7{fill:#F0F7EC;}
	.st8{fill:url(#SVGID_00000097475558874167717170000004536287798875081095_);}
	.st9{fill:url(#SVGID_00000010283172362240727020000000445494278881107589_);}
	.st10{fill:url(#SVGID_00000056426055062087996500000000969326340126230686_);}
	.st11{fill:url(#SVGID_00000121247693554160481550000010228023539505624192_);}
	.st12{fill:url(#SVGID_00000169559008510106948210000016298138258520974739_);}
	.st13{fill:url(#SVGID_00000011719330048238726290000001227689015310863235_);}
	.st14{fill:url(#SVGID_00000090295563811668926060000011353214203280086937_);}
	.st15{fill:url(#SVGID_00000054965931722839605550000015894202787460207753_);}
	.st16{fill:url(#SVGID_00000123438256212133369290000002838137401373500823_);}
	.st17{fill:url(#SVGID_00000015318463834073929140000002059536067372576176_);}
	.st18{fill:url(#SVGID_00000042718450734712955310000015357592844561288627_);}
	.st19{fill:url(#SVGID_00000008856050902853278640000001946274443705744775_);}
	.st20{fill:url(#SVGID_00000130607754400274787370000017281473808115400862_);}
	.st21{fill:url(#SVGID_00000048488665845696927240000015609820605731509655_);}
	.st22{fill:url(#SVGID_00000018197063553771231350000018261561915591223700_);}
</style>
<g>
	<defs>
		<path id="SVGID_1_" d="M520.7,129c0,60.8-49.2,110-110,110s-110-49.2-110-110c0-60.8,49.2-110,110-110S520.7,68.2,520.7,129"/>
	</defs>
	<clipPath id="SVGID_00000155126740003020067690000016205759214728969380_">
		<use xlink:href="#SVGID_1_"  style="overflow:visible;"/>
	</clipPath>
	
		<linearGradient id="SVGID_00000008117793255928479350000018440325261390643878_" gradientUnits="userSpaceOnUse" x1="136.1805" y1="184.4905" x2="636.1267" y2="184.4905">
		<stop  offset="0" style="stop-color:#31498B"/>
		<stop  offset="1" style="stop-color:#F37662"/>
	</linearGradient>
	
		<rect x="136.2" y="95.4" style="clip-path:url(#SVGID_00000155126740003020067690000016205759214728969380_);fill:url(#SVGID_00000008117793255928479350000018440325261390643878_);" width="499.9" height="178.2"/>
</g>
<g>
	<ellipse class="st7" cx="125" cy="129" rx="110" ry="110"/>
	
		<linearGradient id="SVGID_00000047046693990322893700000009037732177827547566_" gradientUnits="userSpaceOnUse" x1="59.0052" y1="142.9732" x2="200.9903" y2="142.9732">
		<stop  offset="0" style="stop-color:#D3E8C5"/>
		<stop  offset="1" style="stop-color:#48BFAE"/>
	</linearGradient>
	<path style="fill:url(#SVGID_00000047046693990322893700000009037732177827547566_);" d="M167.1,116.3c-2.8,0.8-24,7.2-25.7,22.6
		c-0.5,4.2,0.5,8.9,3,12.9c-2.6,2.5-5.2,5-7.6,7.7c-5.8,6.4-10.9,13.4-15.2,20.9c0-0.7,0-1.4,0-2.1c0.1-10.1,0.6-17.8,1-24.6
		c0.6-9.1,1-17,0.6-28.1c-0.1-3.4-0.4-6.9-0.7-10.3c1.2-0.3,2.4-0.7,3.6-1.3c7.5-3.6,12.2-11.9,12.1-19.4
		c-0.2-10.6-9.7-13.4-16.4-29.3c-3.1-7.3-4.1-13.8-4.5-18.3c-4,2.8-17,12.6-20.6,30c-0.6,3-5.1,26.2,8.6,35.4
		c2.9,1.9,6.5,3.2,10.3,3.5c0.3,3.4,0.5,6.7,0.6,10c0.4,10.8,0,18.5-0.6,27.4c-0.4,6.9-0.9,14.6-1,24.9c-0.1,5.2,0.2,18.3,0.2,18.7
		c-2.1-3.3-4.4-6.5-6.8-9.6c-2.4-3.1-4.8-6-7.4-8.9c1.7-1.9,2.9-4.1,3.7-6.3c5.2-14.6-11.1-29.6-13.2-31.5
		c-12.4-11.1-27.6-11.3-32.2-11.2c2.2,3.6,5.1,9.1,6.8,16.3c3.8,15.7-1.8,23.2,4,31.3c4.1,5.7,12.2,9.4,19.9,7.9
		c2-0.4,3.9-1.1,5.6-2.1c2.6,2.8,5,5.7,7.3,8.7c3.9,5,7.4,10.4,10.6,15.9c1.6,2.8,2.5,25.2,2.8,28.4l0,0c0.1,1.8,1.7,3.2,3.4,3.2
		c0.1,0,0.2,0,0.3,0c1.9-0.2,3.3-1.8,3.2-3.7c0-0.1,0-0.2,0-0.2c-0.2-1.5-1.6-21.3-0.1-32.7c2.3-18.1,13.5-31.5,19.2-38.2
		c2.3-2.7,4.6-5.2,6.9-7.4c0,0,0.1,0.1,0.1,0.1c6.3,4.7,15.2,5,21.4,1.6c8.8-4.7,6.9-13.9,17.3-26.4c4.7-5.7,9.8-9.4,13.3-11.7
		C196.9,118.3,183.1,111.7,167.1,116.3z"/>
	<path class="st6" d="M144.5,151.8c2.4-2.2,4.8-4.5,7.3-6.7c5.7-5.2,11.4-10.1,17-14.9c-4.6,2-10.4,5-16.5,9.6
		c-3.7,2.8-6.8,5.7-9.5,8.4C140.5,150.7,142.2,154,144.5,151.8z"/>
</g>
<g>
	<g>
		
			<linearGradient id="SVGID_00000144300882882946940160000006527575740762090406_" gradientUnits="userSpaceOnUse" x1="132.204" y1="-12.1772" x2="266.7618" y2="122.3806">
			<stop  offset="0" style="stop-color:#31498B"/>
			<stop  offset="1" style="stop-color:#67C292"/>
		</linearGradient>
		<circle style="fill:url(#SVGID_00000144300882882946940160000006527575740762090406_);" cx="193.3" cy="48.9" r="40.6"/>
	</g>
	<g>
		<polygon class="st6" points="207.2,69.1 193.8,55.8 180.5,69 176.2,64.7 193.8,47.2 211.5,64.8 		"/>
	</g>
	<g>
		<polygon class="st6" points="207.2,48.9 193.8,35.6 180.5,48.8 176.2,44.5 193.8,27.1 211.5,44.6 		"/>
	</g>
</g>
</svg>
