<?xml version="1.0" encoding="utf-8"?>
<!-- Generator: Adobe Illustrator 26.3.1, SVG Export Plug-In . SVG Version: 6.00 Build 0)  -->
<svg version="1.1" id="Layer_1" xmlns="http://www.w3.org/2000/svg" xmlns:xlink="http://www.w3.org/1999/xlink" x="0px" y="0px"
	 viewBox="0 0 250 250" style="enable-background:new 0 0 250 250;" xml:space="preserve">
<style type="text/css">
	.st0{fill:#FEF2F1;}
	
		.st1{clip-path:url(#SVGID_00000088834865240936679450000008626402282063129223_);fill:url(#SVGID_00000104691331806893267390000017311053898222711682_);}
	.st2{fill:#ED7464;}
	.st3{fill:#B16374;}
	
		.st4{clip-path:url(#SVGID_00000045590530125432372240000003609784824616844469_);fill:url(#SVGID_00000146468900882800099350000014646279625210457751_);}
	.st5{fill:url(#SVGID_00000055704356972812221630000017364589123124123820_);}
	.st6{fill:#FFFFFF;}
	.st7{fill:#F0F7EC;}
	.st8{fill:url(#SVGID_00000018927387011394400530000016954617841846755482_);}
	.st9{fill:url(#SVGID_00000054979376014021239770000002146352760763356577_);}
	.st10{fill:url(#SVGID_00000170243158767450509820000001551993823458605717_);}
	.st11{fill:url(#SVGID_00000183938791251726581570000017617910214378392999_);}
	.st12{fill:url(#SVGID_00000031923023988252095370000006767576499528887955_);}
	.st13{fill:url(#SVGID_00000081648882275235977220000014574785024690017443_);}
	.st14{fill:url(#SVGID_00000183931761403985469640000017724982061119481731_);}
	.st15{fill:url(#SVGID_00000170994093927136983950000002017192407895978680_);}
	.st16{fill:url(#SVGID_00000133487012862684680190000016990228936388921742_);}
	.st17{fill:url(#SVGID_00000102541621866670340170000016084425420858142862_);}
	.st18{fill:url(#SVGID_00000127033176210300857790000013657269773571383223_);}
	.st19{fill:url(#SVGID_00000109003983372629190130000009115991091923394235_);}
	.st20{fill:url(#SVGID_00000091724917333578088800000014011571376893320836_);}
	.st21{fill:url(#SVGID_00000037652526771774492420000010503780740117846463_);}
	.st22{fill:url(#SVGID_00000083784674026678286530000018105100935442535593_);}
</style>
<ellipse class="st7" cx="125" cy="129" rx="110" ry="110"/>
<path class="st6" d="M144.5,151.8c2.4-2.2,4.8-4.5,7.3-6.7c5.7-5.2,11.4-10.1,17-14.9c-4.6,2-10.4,5-16.5,9.6
	c-3.7,2.8-6.8,5.7-9.5,8.4C140.5,150.7,142.2,154,144.5,151.8z"/>
<linearGradient id="SVGID_00000044153392496558806040000011069133131009800836_" gradientUnits="userSpaceOnUse" x1="29.2875" y1="24.285" x2="192.0035" y2="187.001">
	<stop  offset="0" style="stop-color:#D3E8C5"/>
	<stop  offset="1" style="stop-color:#48BFAE"/>
</linearGradient>
<path style="fill:url(#SVGID_00000044153392496558806040000011069133131009800836_);" d="M70,134.3c-2.1,0-4.3,1.2-7,2.6
	c-4,1.9-6.1,2.6-8.5,2.6c-3.6,0-7-2.3-6.7-8.8h3.5c0.1,3.2,1.1,4.9,3.1,4.9c2.2,0,4.3-1,7.3-2.4c3.9-1.9,5.8-2.6,8.2-2.6
	c4,0,7.2,3,6.9,8.8h-3.4C73.4,135.8,72.1,134.3,70,134.3z M77,175c-3.8,0-6.9,3.1-6.9,6.9c0,3.8,3.1,6.9,6.9,6.9
	c3.8,0,6.9-3.1,6.9-6.9C83.9,178.1,80.8,175,77,175z M59.2,149.1c-3.8,0-6.9,3.1-6.9,6.9c0,3.8,3.1,6.9,6.9,6.9s6.9-3.1,6.9-6.9
	C66.1,152.2,63,149.1,59.2,149.1z M193.4,87l-3.2-2.9l-6.4,6.9V59.1h-4.1V91l-6.7-7l-3.1,3l11.9,12.5L193.4,87z M78.8,87L75.6,84
	l-6.4,6.9V59.1h-4.1V91l-6.7-7l-3.1,3l11.9,12.5L78.8,87z M93.1,149.1c-3.8,0-6.9,3.1-6.9,6.9c0,3.8,3.1,6.9,6.9,6.9
	c3.8,0,6.9-3.1,6.9-6.9C100,152.2,96.9,149.1,93.1,149.1z M93.1,111c0-17.6,31.9-58.3,31.9-58.3s31.9,40.7,31.9,58.3
	c0,17.6-14.3,31.9-31.9,31.9C107.4,142.9,93.1,128.6,93.1,111z M128.7,121.5h3.6v-8.2c0-1,0.1-2,0.4-2.9c0.3-0.9,0.8-1.6,1.5-2.2
	c0.7-0.6,1.6-0.9,2.8-0.9c1.2,0,2,0.3,2.6,0.8c0.6,0.5,1,1.2,1.2,2c0.2,0.9,0.3,1.8,0.3,2.9v8.5h3.4v-8.4c0-0.9,0-1.8-0.1-2.8
	c-0.1-1-0.3-2-0.7-2.9c-0.4-0.9-1-1.7-1.9-2.2c-0.8-0.6-2-0.9-3.5-0.9c-1.2,0-2.1,0.2-2.9,0.5c-0.8,0.4-1.4,0.8-1.8,1.3
	c-0.5,0.5-0.8,0.9-1,1.4c-0.2,0.4-0.3,0.7-0.3,0.8h-0.1l-0.6-4h-3V121.5z M105.4,121.5H125v-3.1h-15l15.1-17.7v-3h-18.5v3h14
	l-15.3,17.7V121.5z M167.4,112h-6.8h0c0,19.6-16,35.6-35.6,35.6c-19.6,0-35.6-16-35.6-35.6h0h-6.8H46.5v11.3h37.8
	c5,17.9,21.4,31.1,40.8,31.1c19.4,0,35.8-13.2,40.8-31.1h37.7V112H167.4z M177.4,152.3c-3.8,0-6.9,3.1-6.9,6.9
	c0,3.8,3.1,6.9,6.9,6.9c3.8,0,6.9-3.1,6.9-6.9C184.3,155.4,181.3,152.3,177.4,152.3z M113,176.8c-3.8,0-6.9,3.1-6.9,6.9
	c0,3.8,3.1,6.9,6.9,6.9s6.9-3.1,6.9-6.9C119.9,179.9,116.8,176.8,113,176.8z M167.7,176.8c-3.8,0-6.9,3.1-6.9,6.9
	c0,3.8,3.1,6.9,6.9,6.9c3.8,0,6.9-3.1,6.9-6.9C174.6,179.9,171.5,176.8,167.7,176.8z M191.4,130.5c-2.5,0-4.3,0.8-8.2,2.6
	c-3,1.4-5.1,2.4-7.3,2.4c-2.1,0-3.1-1.7-3.1-4.9h-3.5c-0.3,6.5,3.1,8.8,6.7,8.8c2.4,0,4.4-0.7,8.5-2.6c2.7-1.4,4.9-2.6,7-2.6
	c2.1,0,3.4,1.5,3.5,4.9h3.4C198.6,133.4,195.4,130.5,191.4,130.5z M142.6,159.2c-3.8,0-6.9,3.1-6.9,6.9c0,3.8,3.1,6.9,6.9,6.9
	c3.8,0,6.9-3.1,6.9-6.9C149.5,162.3,146.4,159.2,142.6,159.2z M141.6,191.4c-3.8,0-6.9,3.1-6.9,6.9c0,3.8,3.1,6.9,6.9,6.9
	c3.8,0,6.9-3.1,6.9-6.9C148.5,194.5,145.4,191.4,141.6,191.4z"/>
</svg>
