<?xml version="1.0" encoding="utf-8"?>
<!-- Generator: Adobe Illustrator 26.3.1, SVG Export Plug-In . SVG Version: 6.00 Build 0)  -->
<svg version="1.1" id="Layer_1" xmlns="http://www.w3.org/2000/svg" xmlns:xlink="http://www.w3.org/1999/xlink" x="0px" y="0px"
	 viewBox="0 0 450 596.1" style="enable-background:new 0 0 450 596.1;" xml:space="preserve">
<style type="text/css">
	.st0{fill:#D8D8D8;stroke:#41E09B;stroke-width:2;stroke-miterlimit:10;}
	.st1{fill:#C1C1C1;stroke:#41E09B;stroke-width:2;stroke-miterlimit:10;}
	.st2{fill:#D8D8D8;}
	.st3{fill:#18244C;}
	.st4{fill:#C1C1C1;}
</style>
<g>
	<path class="st0" d="M142.9,584c-9.3,6.9-20.3,4.8-30.5,0.2c-18.7-8.2-28.6-22.9-29.3-43.5c-0.3-11.4-0.5-22.7,0.1-34
		c0.2-4.8,2.4-9.3,4-15.2c-4-4.2-4.2-11.1-4.2-18.2c0.1-24,0.1-2.5,0-26.3c0-6.5,0.9-12.4,5.2-17.5c-7.5-8.6-5.8-18.8-4.9-28.5
		c2.3-24.6,14.3-43.8,35.3-56.9c8.3-5.1,12.3-12,11.9-21.8c-0.3-8.9-0.1-17.8,0-26.8c0-2.3-0.7-3.4-2.7-4.5
		c-7.3-3.9-10.8-10.1-10.9-18.3c0-4.4-0.1-8.7,0-13.2c0.2-11.4,8.9-20.2,20.3-20.2c22.7-0.1,158.9-0.1,181.6,0
		c11.7,0,20.3,8.9,20.4,20.6c0.1,4.2,0,8.5,0,12.7c-0.1,8.4-3.9,14.5-11,18.7c-1.2,0.7-2.4,2.6-2.5,4.1c-0.2,10.1-0.2,20.1-0.1,30.2
		c0.1,7.3,3.2,13.3,9.5,17c27.7,16.7,38.7,42,37.9,73.4c-0.1,4.7-2.5,9.3-4,15c3.5,4.1,4.3,10.2,4.2,16.7c-0.1,24.6-0.1,3.9,0,28.5
		c0,6.1-1,11.8-5.3,16.9c5.2,5.6,5.6,12.4,5.3,19.4c-0.3,12,0.5,24.2-1,36c-2.8,22.7-24.1,40.3-46.9,39.5c-4.4-0.1-8.9-2.4-13.1-3.6
		C294.1,590.1,162.4,590.1,142.9,584z"/>
</g>
<g>
	<path class="st3" d="M134,514.6v-7.8c0.1-0.1,0.7-0.4,2-1c1.3-0.6,2.9-1.4,4.9-2.5c2-1,4.1-2.3,6.2-3.7c2.2-1.5,4.2-3.1,6.1-4.8
		c1.9-1.7,3.3-3.6,4.3-5.6c1.1-2.3,1.4-4.3,1.1-6c-0.4-1.7-1.3-3-2.7-3.9c-1.4-0.9-3-1.4-4.7-1.4c-2.7,0-4.8,0.9-6.4,2.8
		c-1.5,1.9-2,4.8-1.4,8.8l-8.7-1.2c-0.5-3.8-0.1-7.1,1.4-9.9c1.4-2.7,3.5-4.8,6.4-6.2c2.8-1.4,6-2.1,9.7-2.1c2.8,0,5.4,0.5,7.7,1.6
		s4.2,2.5,5.6,4.3c1.4,1.8,2.3,4,2.5,6.4c0.2,2.4-0.3,4.9-1.6,7.6c-1.1,2.1-2.5,4-4.2,5.7c-1.7,1.7-3.5,3.2-5.5,4.5
		c-2,1.3-3.8,2.4-5.7,3.3c-1.8,0.9-3.5,1.6-4.8,2.1c-1.4,0.5-2.3,0.8-2.8,1h25.3v8H134z"/>
	<path class="st3" d="M192.9,515.4c-3.7,0-6.9-0.7-9.3-2c-2.5-1.3-4.4-3-5.7-5c-1.3-2-2.1-4-2.5-6l9.4-1.4c0.1,0.6,0.4,1.4,0.9,2.4
		c0.6,1,1.5,2,2.7,2.8c1.2,0.9,2.8,1.3,4.8,1.3c2.5,0,4.4-0.8,5.8-2.3c1.4-1.5,2.1-3.2,2.3-5c0.1-1.4-0.1-2.8-0.7-4.1
		c-0.5-1.3-1.4-2.4-2.7-3.2c-1.2-0.8-2.8-1.2-4.6-1.2c-1.7,0-3.1,0.3-4.1,1c-1,0.7-1.7,1.3-2.1,2c-0.4,0.7-0.7,1-0.7,1.1l-9.8-1.6
		l2.4-23.5h29.5v8h-22.9l-1.4,12.9c0.8-1.2,1.7-2.3,2.7-3.1c0.9-0.8,2.2-1.5,3.7-2.1c1.5-0.6,3.4-0.9,5.6-0.9c3.5,0,6.3,0.7,8.5,2.1
		c2.2,1.4,3.8,3.3,4.8,5.6c1,2.3,1.4,4.7,1.2,7.1c-0.2,2.5-1.1,4.9-2.5,7.2c-1.5,2.3-3.5,4.2-6,5.7S196.5,515.4,192.9,515.4z"/>
	<path class="st3" d="M235.6,515.7c-6.6,0-11.5-2.1-14.7-6.2c-3.2-4.1-4.8-9.7-4.8-16.7c0-4.6,0.7-8.6,2.1-12.1
		c1.4-3.4,3.5-6.1,6.4-8c2.9-1.9,6.6-2.8,11.1-2.8c6.7,0,11.6,2.1,14.8,6.2c3.2,4.1,4.8,9.7,4.8,16.7c0,4.5-0.7,8.5-2.1,12
		c-1.4,3.5-3.5,6.2-6.4,8.1C243.7,514.8,240.1,515.7,235.6,515.7z M235.5,507.9c3.7,0,6.5-1.3,8.3-3.8c1.8-2.5,2.7-6.3,2.7-11.3
		c0-5-0.9-8.8-2.6-11.3s-4.5-3.7-8.3-3.7c-3.6,0-6.3,1.2-8.1,3.6c-1.8,2.4-2.7,6.2-2.7,11.4c0,5,0.9,8.8,2.6,11.3
		C229,506.7,231.8,507.9,235.5,507.9z"/>
	<path class="st3" d="M260.2,514.6v-32.1h8.3l0.1,6.4h0.2c0-0.1,0.2-0.5,0.5-1.1c0.3-0.6,0.9-1.4,1.6-2.2c0.7-0.8,1.6-1.5,2.8-2.1
		c1.2-0.6,2.6-0.9,4.4-0.9c2.4,0,4.2,0.6,5.5,1.9s2.2,2.8,2.8,4.5h0.2c0-0.1,0.2-0.5,0.6-1.1c0.4-0.6,1-1.4,1.8-2.2
		c0.8-0.8,1.8-1.5,3-2.1c1.2-0.6,2.8-0.9,4.5-0.9c2,0,3.6,0.4,4.8,1.2c1.2,0.8,2.2,1.9,2.9,3.3c0.7,1.4,1.1,2.8,1.4,4.3
		c0.3,1.5,0.4,3,0.5,4.4c0.1,1.4,0.1,2.5,0.1,3.4v15.5h-7.9V499c0-1-0.1-2.1-0.2-3.4c-0.2-1.3-0.6-2.4-1.3-3.4c-0.7-1-2-1.4-3.7-1.4
		c-1.7,0-2.9,0.4-3.7,1.3c-0.8,0.9-1.3,1.9-1.5,3.2s-0.4,2.6-0.4,3.9v15.4h-7.9V499c0-1-0.1-2.1-0.2-3.4c-0.2-1.3-0.6-2.4-1.3-3.4
		c-0.7-1-2-1.4-3.7-1.4c-1.7,0-2.9,0.4-3.7,1.3s-1.3,1.9-1.5,3.2c-0.2,1.3-0.3,2.6-0.3,3.9v15.4H260.2z"/>
	<path class="st3" d="M312.5,514.6v-43.9h9.2v43.9H312.5z"/>
</g>
</svg>
