<?xml version="1.0" encoding="utf-8"?>
<!-- Generator: Adobe Illustrator 26.3.1, SVG Export Plug-In . SVG Version: 6.00 Build 0)  -->
<svg version="1.1" id="Layer_1" xmlns="http://www.w3.org/2000/svg" xmlns:xlink="http://www.w3.org/1999/xlink" x="0px" y="0px"
	 viewBox="0 0 450 596.1" style="enable-background:new 0 0 450 596.1;" xml:space="preserve">
<style type="text/css">
	.st0{fill:#D8D8D8;stroke:#41E09B;stroke-width:2;stroke-miterlimit:10;}
	.st1{fill:#C1C1C1;stroke:#41E09B;stroke-width:2;stroke-miterlimit:10;}
	.st2{fill:#D8D8D8;}
	.st3{fill:#18244C;}
	.st4{fill:#C1C1C1;}
</style>
<g>
	<path class="st0" d="M370.8,534.9c-0.1-33.3-0.1-162.4,0-195.8c0-2.3,1.1-4.8,2.5-6.7c5.3-7.3,8.1-15.3,5.5-23.9
		c-1.8-6.1-5.4-11.6-8.4-17.6c11-10.5,14-28.7-1.1-44.1c5.3-4.9,9-10.8,9.8-18c0.5-4,0.2-8,0.5-12.1c0.5-12.2-4.7-21.4-14.7-28.4
		c-31.5-21.7-62.7-43.6-94.3-65c-5.5-3.7-8.1-7.5-7.5-14.4c0.7-8.4,0.1-16.9,0.1-25.6c3.9,0,7.4,0,10.8,0c3.8-0.1,6.7-2,6.8-5.7
		c0.2-9.1,0.6-18.3-0.4-27.3c-1-8.7-7.7-13.3-15.4-16.3c-23.6,0-47.2,0-70.7,0c-0.8,0.4-1.6,0.8-2.4,1.1
		c-8.6,3.2-13.6,10.3-13.6,19.5c-0.1,7.1-0.1,14,0,21.1c0.1,4.9,2.5,7.4,7.5,7.5c3.4,0.1,6.7,0,10.4,0c0,10.2-0.2,19.6,0.1,29.2
		c0.1,4.1-1.2,6.3-4.5,8.6c-32.8,22.5-65.6,45.3-98.4,68c-7.5,5.3-12.7,12.1-13.4,21.3c-1.1,13.2-1.8,26.6,10.1,36.2
		c-13.9,17-13.9,27.4-0.2,45.3c-0.2,0.4-0.5,0.7-0.7,1.1c-11.8,12.8-12.4,26.7-1.8,40.7c1,1.3,1.4,3.2,1.4,4.9
		c0.1,33.6,0.1,163,0,196.6c0,2-1.1,4.3-2.3,5.9c-3.9,5.1-6.3,10.8-6.6,17.2c-0.7,17.2,12.7,30.3,31,30.3c75.3,0,150.4,0,225.7,0
		c5,0,10.2,0.2,15.2-0.1c11.7-0.7,20.5-6.3,25.3-17.1c4.9-10.8,3.2-20.8-3.8-30.3C371.8,539.4,370.8,537,370.8,534.9z"/>
</g>
<g>
	<path class="st3" d="M210.6,515.4c-3.7,0-6.9-0.7-9.3-2s-4.4-3-5.7-5c-1.3-2-2.1-4-2.5-6l9.4-1.4c0.1,0.6,0.4,1.4,0.9,2.4
		c0.6,1,1.5,2,2.7,2.8c1.2,0.9,2.8,1.3,4.8,1.3c2.5,0,4.4-0.8,5.8-2.3c1.4-1.5,2.1-3.2,2.3-5c0.1-1.4-0.1-2.8-0.7-4.1
		c-0.5-1.3-1.4-2.4-2.7-3.2c-1.2-0.8-2.8-1.2-4.6-1.2c-1.7,0-3.1,0.3-4.1,1c-1,0.7-1.7,1.3-2.1,2c-0.4,0.7-0.7,1-0.7,1.1l-9.8-1.6
		l2.4-23.5h29.5v8h-22.9l-1.4,12.9c0.8-1.2,1.7-2.3,2.7-3.1c0.9-0.8,2.2-1.5,3.7-2.1c1.5-0.6,3.4-0.9,5.6-0.9c3.5,0,6.3,0.7,8.5,2.1
		c2.2,1.4,3.8,3.3,4.8,5.6c1,2.3,1.4,4.7,1.2,7.1c-0.2,2.5-1.1,4.9-2.5,7.2c-1.5,2.3-3.5,4.2-6,5.7
		C217.2,514.7,214.2,515.4,210.6,515.4z"/>
	<path class="st3" d="M236.3,514.6v-43.9h9.4v35.9H266v8H236.3z"/>
</g>
</svg>
