<?xml version="1.0" encoding="utf-8"?>
<!-- Generator: Adobe Illustrator 26.3.1, SVG Export Plug-In . SVG Version: 6.00 Build 0)  -->
<svg version="1.1" id="Layer_1" xmlns="http://www.w3.org/2000/svg" xmlns:xlink="http://www.w3.org/1999/xlink" x="0px" y="0px"
	 viewBox="0 0 530.1 596.1" style="enable-background:new 0 0 530.1 596.1;" xml:space="preserve">
<style type="text/css">
	.st0{fill:#D8D8D8;stroke:#41E09B;stroke-width:2;stroke-miterlimit:10;}
	.st1{fill:#C1C1C1;stroke:#41E09B;stroke-width:2;stroke-miterlimit:10;}
	.st2{fill:#D8D8D8;}
	.st3{fill:#18244C;}
	.st4{fill:#C1C1C1;}
</style>
<path class="st0" d="M78.8,575.1L61.7,194.9h409l-17,380.2c0,0-44.5,13.7-187.5,13.7S78.8,575.1,78.8,575.1z"/>
<path class="st1" d="M63.2,228.1l-15.2-2c0,0-3.5,51.5,5.4,74c0,0,6.9,12.2,13.9,20.3l0.8,19.3c0,0-27.9-44.2-31-73.7
	s-3.8-66.6,0-86.8h6.6l6.9-17l-0.3-17.5h427.3v15.5l8.6,16.3h8.6c0,0,10.9,66.3-8.2,111.7c0,0-8.4,45.9-22.7,56.7l0.9-20.9
	c0,0,16-10.3,17.1-39.7c1.1-29.4,1.6-58.1,1.6-58.1H466C466,226.2,270.9,234.4,63.2,228.1z"/>
<polygon class="st2" points="51.9,162.3 45,179.3 487.4,179.3 478.8,160.3 "/>
<g>
	<path class="st3" d="M229.2,515.5c-3.6,0-6.9-0.5-9.8-1.5c-2.9-1-5.1-2.5-6.8-4.4c-1.7-1.9-2.5-4.3-2.5-7c0-2.9,1-5.3,3-7.4
		c2-2.1,4.7-3.3,8.3-3.7c-2.5-0.4-4.4-1.2-5.6-2.5c-1.2-1.2-2.1-2.5-2.5-3.9c-0.4-1.4-0.6-2.5-0.6-3.4c0-2.3,0.7-4.4,2.1-6.2
		c1.4-1.8,3.3-3.1,5.8-4.1c2.5-1,5.4-1.5,8.7-1.5c5.1,0,9.1,1.1,12.1,3.3c3,2.2,4.5,5,4.5,8.5c0,0.9-0.2,2-0.6,3.4
		c-0.4,1.4-1.2,2.6-2.5,3.9c-1.2,1.2-3.1,2-5.7,2.5c3.6,0.5,6.4,1.7,8.3,3.7c2,2,3,4.5,3,7.4c0,2.8-0.8,5.2-2.5,7.1
		c-1.7,1.9-4,3.4-6.9,4.4C236.1,515,232.8,515.5,229.2,515.5z M229.2,508.2c3.1,0,5.5-0.7,7.3-2s2.7-3.1,2.7-5.3
		c0-2.5-0.9-4.4-2.7-5.6s-4.2-1.8-7.3-1.8c-3,0-5.4,0.6-7.2,1.8c-1.8,1.2-2.7,3.1-2.7,5.6c0,2.2,0.9,3.9,2.7,5.3
		C223.8,507.6,226.2,508.2,229.2,508.2z M229.2,489.2c2.5,0,4.6-0.5,6-1.5c1.5-1,2.2-2.4,2.2-4.2c0-2.2-0.8-3.8-2.3-4.8
		c-1.5-1-3.5-1.6-6-1.6c-2.5,0-4.5,0.5-6,1.6c-1.5,1-2.2,2.7-2.2,4.8c0,1.9,0.8,3.3,2.3,4.3C224.8,488.7,226.8,489.2,229.2,489.2z"
		/>
	<path class="st3" d="M264.1,514.6h-9.5v-43.9h9.5v25.6l11.8-14h11.5l-12.9,13.5l13.1,18.8h-11.2l-8.4-11.9l-3.8,4.1V514.6z"/>
	<path class="st3" d="M299.7,529.5v-8.9h13.2v-11.1h-0.2c-0.1,0.1-0.2,0.5-0.6,1.1c-0.3,0.6-0.9,1.3-1.7,2c-0.8,0.7-1.8,1.4-3.1,2
		c-1.3,0.6-2.9,0.9-4.8,0.9c-4.8,0-8.2-1.5-10.1-4.4s-2.9-6.9-2.9-11.9c0-5.2,1-9.3,3-12.2c2-2.9,5.3-4.4,10.1-4.4
		c2,0,3.7,0.3,5,0.9c1.3,0.6,2.3,1.4,3.1,2.2c0.8,0.8,1.3,1.6,1.6,2.2c0.3,0.7,0.5,1,0.5,1.1h0.2v-6.4h9.7V516c0,5.1-1,8.7-3,10.6
		c-2,2-5.1,2.9-9.2,2.9H299.7z M305.6,507.5c2.9,0,4.8-0.8,5.7-2.5c1-1.6,1.4-3.6,1.4-6c0-2.3-0.5-4.3-1.4-5.9
		c-0.9-1.6-2.8-2.5-5.6-2.5c-2,0-3.5,0.4-4.6,1.2c-1,0.8-1.7,1.8-2.1,3.1c-0.4,1.3-0.5,2.6-0.5,4c0,1.5,0.2,2.8,0.5,4.1
		c0.3,1.3,1,2.3,2,3.1C302.1,507.1,303.6,507.5,305.6,507.5z"/>
</g>
</svg>
