<?xml version="1.0" encoding="utf-8"?>
<!-- Generator: Adobe Illustrator 26.2.1, SVG Export Plug-In . SVG Version: 6.00 Build 0)  -->
<svg version="1.1" id="Layer_1" xmlns="http://www.w3.org/2000/svg" xmlns:xlink="http://www.w3.org/1999/xlink" x="0px" y="0px"
	 viewBox="0 0 420 420" style="enable-background:new 0 0 420 420;" xml:space="preserve">
<style type="text/css">
	.st0{fill:#FEF0EE;}
	.st1{fill:url(#SVGID_1_);}
	.st2{fill:url(#SVGID_00000085972829294875985010000004659068014112921532_);}
	.st3{fill:url(#SVGID_00000181061322696096135660000015029574933240812184_);}
	.st4{fill:url(#SVGID_00000006671905570362886650000013325210013129836695_);}
	.st5{fill:url(#SVGID_00000113334328138773655360000012865444977503351452_);}
	.st6{fill:url(#SVGID_00000060013458107527492420000009256136395987032448_);}
	.st7{fill:url(#SVGID_00000135681576980699125820000016728115544765558677_);}
	.st8{fill:url(#SVGID_00000034049757797102629000000010705601881016940425_);}
	.st9{fill:url(#SVGID_00000157995552713588177180000001296313006120988817_);}
	.st10{fill:url(#SVGID_00000066480501993212779790000013574224517858904466_);}
	.st11{fill:url(#SVGID_00000026148996075563617200000011828719888065056440_);}
	.st12{fill:url(#SVGID_00000092420953334675521740000017275245470105361291_);}
	.st13{fill:url(#SVGID_00000114755222471983687010000009476909837061338557_);}
	.st14{fill:url(#SVGID_00000049932634041866218110000012285768161577372344_);}
	.st15{fill:url(#SVGID_00000038406219233936710540000012667473288055720331_);}
	.st16{fill:url(#SVGID_00000056390075877910690750000015215137446707906438_);}
	.st17{fill:url(#SVGID_00000056413243883883370310000007686300891955072140_);}
	.st18{fill:url(#SVGID_00000133521741353172202160000011713258098650507930_);}
	.st19{fill:url(#SVGID_00000055702041683056695330000007933130354745774251_);}
	.st20{fill:url(#SVGID_00000021838651560213604440000000255293573267649422_);}
	.st21{fill:url(#SVGID_00000121979909346098164790000012419777441762503574_);}
	.st22{fill:url(#SVGID_00000047744880315476313780000017039749178444743041_);}
	.st23{fill:url(#SVGID_00000028314737011452836250000003068154107310642107_);}
	.st24{fill:url(#SVGID_00000038372585270613236660000018311018969654919318_);}
	.st25{fill:url(#SVGID_00000090254109114425207250000003163232039942107572_);}
	.st26{fill:url(#SVGID_00000049902861326133610800000014904619968872346558_);}
	.st27{fill:url(#SVGID_00000035503462428979868930000002745053719449934728_);}
	.st28{fill:url(#SVGID_00000074412498242681022780000006273177874152873147_);}
	.st29{fill:none;}
	.st30{fill:url(#SVGID_00000142157452639161240580000017183875160239740581_);}
	.st31{fill:url(#SVGID_00000085935681878654856150000011516867666408148918_);}
	.st32{fill:url(#SVGID_00000161604409319947238120000013852066277147936944_);}
	.st33{fill:url(#SVGID_00000083786049676288668800000018141832575862059911_);}
</style>
<circle class="st0" cx="209.8" cy="210" r="201.2"/>
<g>
	<linearGradient id="SVGID_1_" gradientUnits="userSpaceOnUse" x1="129.5752" y1="73.9107" x2="356.1274" y2="240.9558">
		<stop  offset="0" style="stop-color:#F77560"/>
		<stop  offset="1" style="stop-color:#845B77"/>
	</linearGradient>
	<path class="st1" d="M181.7,196c0.2,0.2,0.5,0.3,0.7,0.5c1.9-2.1,3.8-4.2,5.8-6.2c1.1-1.1,1.6-2.1,1.6-3.7c-0.1-6.2,0-12.3,0-18.5
		c0-6.3,0-6.2,6.2-6.1c1.6,0,2,0.6,2,2.1c-0.1,4.7,0,9.5,0,14.2c0,0.5-0.4,1.3,0.5,1.7c5-4.9,9.9-9.9,14.9-14.8
		c0.8-0.8,0.7-1.7,0.7-2.6c0-4.8,0-9.6,0-14.4c0-6.7,0-6.6,6.7-6.3c1.2,0.1,1.7,0.4,1.6,1.7c-0.1,2.4-0.1,4.7,0,7.1
		c0.1,1.7-0.4,3.4,0.4,5.2c5.1-5.1,10.1-10.1,15.1-15c0.7-0.7,0.6-1.6,0.6-2.4c0-3.6,0-7.1,0-10.7c0-6.4,0-6.3,6.4-6.1
		c1.3,0,1.8,0.4,1.8,1.8c-0.1,2.7,0,5.4,0,8.7c4.6-4.6,8.7-8.7,12.9-12.9c1.4-1.4,2.8-4,4.4-3.9c1.6,0.1,2.9,2.6,4.5,4
		c1.2,1,0.9,1.6-0.1,2.6c-4.2,4.1-8.4,8.4-12.6,12.5c-1,1-2.1,1.8-3.1,2.7c0.1,0.2,0.3,0.4,0.4,0.6c1.2,0,2.3,0,3.5,0
		c6.3,0,6.3,0,6.3,6.2c0,1.8-0.6,2.1-2.2,2c-4.6-0.1-9.2,0.1-13.7-0.1c-2-0.1-3.4,0.6-4.7,2c-3.9,4.1-8,8.1-12,12.1
		c-0.5,0.5-1.3,0.9-1.3,2.1c2.6,0,5.2,0,7.8,0c6.1,0,6,0,6,6.1c0,1.7-0.6,2.1-2.2,2.1c-6.2-0.1-12.5,0-18.7-0.1
		c-1.2,0-2.1,0.3-2.9,1.2c-4.5,4.6-9,9.1-13.5,13.6c-0.3,0.3-1,0.6-0.7,1.4c3.9,0,7.9,0,11.8,0c6.2,0,6.2,0,6.1,6.2
		c0,1.6-0.5,2-2.1,2c-7.6-0.1-15.2,0-22.7,0c-0.7,0-1.6-0.1-2,0.2c-2.6,2.4-5.1,4.9-7.9,7.8c20,0,39.3,0,58.7,0
		c4.6,0,8.1-3.4,8.3-7.8c0.2-4.3-3-7.7-7.7-8.3c-2.9-0.4-4.6-2-4.4-4.3c0.2-2.3,1.9-3.8,4.8-3.8c5.8,0,11.7,0,17.5,0
		c1.3,0,2.5-0.1,3.7-0.4c3.8-0.9,6.3-4.5,6.1-8.2c-0.2-3.9-3-6.8-7-7.4c-0.7-0.1-1.4-0.2-2.1-0.4c-1.9-0.6-2.9-1.9-2.9-3.9
		c0-1.9,1-3.2,2.8-3.7c1-0.3,2-0.3,3-0.3c3.3,0,6.6,0,9.9,0c4.7-0.1,8.1-3.2,8.3-7.4c0.3-4.3-2.9-8-7.4-8.6c-1.6-0.2-3.3-0.1-5-0.3
		c-3.3-0.4-4.7-3.6-2.8-6.3c0.5-0.7,1.2-1.3,1.8-1.9c3.4-3.5,7-6.8,10.2-10.5c4-4.6,4.1-10.7,0.9-15.8c-2.8-4.4-8.5-6.5-13.9-5.2
		c-2.6,0.6-4.7,2.1-6.6,4c-3.3,3.4-6.7,6.7-10,10c-1.4,1.4-3,2.1-4.9,1.3c-1.9-0.8-2.6-2.4-2.5-4.4c0-0.9,0-1.9,0-2.8
		c-0.3-4.9-4-8.7-8.4-8.5c-4.5,0.1-7.7,3.7-7.7,8.7c0,5.8,0,11.7,0,17.5c0,3.9-1.1,5.7-3.6,6c-2.7,0.3-4-1.1-4.7-5.2
		c-0.5-2.9-2.1-4.9-4.7-6.1c-5-2.2-10.8,1.4-11.1,7c-0.3,6-0.1,12-0.1,18c0,1.2,0,2.4-0.3,3.5c-0.4,1.9-1.8,3-3.7,3
		c-1.9,0-3.3-1-3.9-2.9c-0.2-0.8-0.3-1.5-0.4-2.3c-0.5-3.2-2.4-5.3-5.3-6.4c-3-1.1-5.7-0.3-8.1,1.9c-2.1,2-2.7,4.5-2.7,7.3
		c0,11.8,0,23.7,0,35.5C181.7,187.4,181.7,191.7,181.7,196z"/>
	
		<linearGradient id="SVGID_00000106108833324246924990000010582391276214940592_" gradientUnits="userSpaceOnUse" x1="64.8315" y1="161.7183" x2="291.3837" y2="328.7634">
		<stop  offset="0" style="stop-color:#F77560"/>
		<stop  offset="1" style="stop-color:#845B77"/>
	</linearGradient>
	<path style="fill:url(#SVGID_00000106108833324246924990000010582391276214940592_);" d="M164.9,323.1c3.1,0.2,6.3,0.6,9.4,0.6
		c23.7,0.1,47.5,0.1,71.2,0c10.3,0,20.3-1.6,29.7-5.8c28.1-12.5,44.1-34.1,47.5-64.8c0.2-1.9-0.3-2.2-2.1-2.2
		c-17.4,0.1-34.7,0-52.1,0c-0.5,0-0.9,0.1-1.4,0.1c-0.8,0-1.6-0.1-2.4-0.1c-53.8,0-107.6,0-161.4,0c-1.6,0-3.2,0.1-4.7,0
		c-1.3-0.1-1.8,0.2-1.6,1.7c0.5,7,1.8,14,4.4,20.5C113.1,301.9,134.1,318.7,164.9,323.1z"/>
	
		<linearGradient id="SVGID_00000076572450697594490910000003348522093380326823_" gradientUnits="userSpaceOnUse" x1="66.09" y1="160.0114" x2="292.6423" y2="327.0565">
		<stop  offset="0" style="stop-color:#F77560"/>
		<stop  offset="1" style="stop-color:#845B77"/>
	</linearGradient>
	<path style="fill:url(#SVGID_00000076572450697594490910000003348522093380326823_);" d="M121.1,206.4
		C121.1,206.4,121.1,206.4,121.1,206.4c5.4,0,10.9,0.1,16.3,0c4.4-0.1,7.5-3.2,7.8-7.4c0.2-4.4-2.5-7.8-6.8-8.5
		c-1.4-0.2-2.8-0.2-4.2-0.2c-3.3-0.1-4.6-1.2-5-4.4c-0.7-4.8-3.6-7.5-7.8-7.6c-4.3-0.1-7.5,2.8-8.2,7.5c-0.6,3.6-1.6,4.4-5.3,4.5
		c-1.5,0-3,0.1-4.5,0.3c-3.9,0.7-6.6,4.3-6.4,8.2c0.2,4,3.3,7.3,7.2,7.5C109.8,206.5,115.5,206.4,121.1,206.4z M125.2,218.6
		c-0.1-4.5,0.6-3.8-3.8-3.9c-0.1,0-0.2,0-0.2,0c-4,0-4,0-4,4c0,4.1,0,4.1,3.9,4.1C125.9,222.7,125.1,223.3,125.2,218.6z"/>
	
		<linearGradient id="SVGID_00000101080065019087637840000001899628816368301206_" gradientUnits="userSpaceOnUse" x1="107.7371" y1="103.5282" x2="334.2894" y2="270.5733">
		<stop  offset="0" style="stop-color:#F77560"/>
		<stop  offset="1" style="stop-color:#845B77"/>
	</linearGradient>
	<path style="fill:url(#SVGID_00000101080065019087637840000001899628816368301206_);" d="M124,107.8c-4.8,0-8.8,2.8-10.2,7.1
		c-1.6,4.5-0.3,9.2,4.1,12c4.5,2.9,6.8,6.4,6.6,11.9c-0.2,4.7,2.8,8.1,7,10c4.3,1.9,8.5,1.3,12.2-1.6c3.7-2.9,4.8-6.9,4.5-11.3
		c-0.2-2.9,0.8-5,3.2-6.6c1.7-1.1,3.3-2.4,4.8-3.8c3.2-3.2,3.9-8.3,1.7-12.2c-2.3-4.1-6.9-6.2-11.4-5.2c-2.1,0.5-3.7,1.6-5.4,2.8
		c-4.9,3.6-5.1,3.6-10-0.1c-0.8-0.6-1.5-1.1-2.3-1.6C127.2,108.3,125.4,107.9,124,107.8z"/>
	
		<linearGradient id="SVGID_00000029029048434338324820000006585696981172407185_" gradientUnits="userSpaceOnUse" x1="95.9322" y1="119.5385" x2="322.4845" y2="286.5835">
		<stop  offset="0" style="stop-color:#F77560"/>
		<stop  offset="1" style="stop-color:#845B77"/>
	</linearGradient>
	<path style="fill:url(#SVGID_00000029029048434338324820000006585696981172407185_);" d="M258.5,234.8c-0.3,0-0.6,0-0.9,0
		c-1.9,0.2-3.2,0.1-3.7-2.5c-0.6-3.3-4.3-5.6-7.6-5.5c-3.7,0.1-6.9,2.7-7.7,6.5c-0.3,1.3-0.6,1.7-1.9,1.6c-1.3-0.1-2.7-0.2-4,0
		c-2.4,0.4-2.5-0.9-2.2-2.6c1-7.7,8.6-13.9,16.6-13.5c8.1,0.3,15.1,7,15.5,14.7c0.1,1.2-0.4,1.5-1.4,1.4
		C260.2,234.7,259.3,234.8,258.5,234.8z"/>
	
		<linearGradient id="SVGID_00000000906677327443828010000004571897025919933084_" gradientUnits="userSpaceOnUse" x1="83.4876" y1="136.4162" x2="310.0399" y2="303.4613">
		<stop  offset="0" style="stop-color:#F77560"/>
		<stop  offset="1" style="stop-color:#845B77"/>
	</linearGradient>
	<path style="fill:url(#SVGID_00000000906677327443828010000004571897025919933084_);" d="M210,226.8c0,4,0,4-4,4
		c-4.1,0-4.1,0-4.1-4c0-4.3,0-4.3,4.3-4.3C210,222.6,210,222.6,210,226.8z"/>
	
		<linearGradient id="SVGID_00000164499910920662409490000008883280297019705003_" gradientUnits="userSpaceOnUse" x1="129.5752" y1="73.9107" x2="356.1274" y2="240.9558">
		<stop  offset="0" style="stop-color:#F77560"/>
		<stop  offset="1" style="stop-color:#845B77"/>
	</linearGradient>
	<path style="fill:url(#SVGID_00000164499910920662409490000008883280297019705003_);" d="M181.7,196c0-4.3,0-8.7,0-13
		c0-11.8,0-23.7,0-35.5c0-2.8,0.6-5.3,2.7-7.3c2.3-2.2,5.1-3,8.1-1.9c2.9,1,4.8,3.2,5.3,6.4c0.1,0.8,0.2,1.6,0.4,2.3
		c0.6,1.9,1.9,2.9,3.9,2.9c1.9,0,3.3-1.1,3.7-3c0.2-1.1,0.3-2.3,0.3-3.5c0-6-0.1-12,0.1-18c0.2-5.6,6.1-9.2,11.1-7
		c2.6,1.2,4.2,3.2,4.7,6.1c0.7,4.1,2,5.5,4.7,5.2c2.5-0.3,3.6-2.1,3.6-6c0-5.8,0-11.7,0-17.5c0-5.1,3.2-8.6,7.7-8.7
		c4.4-0.1,8.1,3.7,8.4,8.5c0,0.9,0.1,1.9,0,2.8c-0.1,2,0.6,3.6,2.5,4.4c1.9,0.8,3.5,0.1,4.9-1.3c3.4-3.3,6.7-6.7,10-10
		c1.9-1.9,4-3.3,6.6-4c5.4-1.3,11.1,0.8,13.9,5.2c3.2,5.1,3.1,11.3-0.9,15.8c-3.2,3.7-6.8,7-10.2,10.5c-0.6,0.6-1.3,1.2-1.8,1.9
		c-1.9,2.7-0.5,5.9,2.8,6.3c1.6,0.2,3.3,0.1,5,0.3c4.6,0.6,7.7,4.3,7.4,8.6c-0.2,4.2-3.6,7.2-8.3,7.4c-3.3,0.1-6.6,0-9.9,0
		c-1,0-2.1,0-3,0.3c-1.8,0.5-2.8,1.8-2.8,3.7c0,1.9,1,3.3,2.9,3.9c0.7,0.2,1.4,0.3,2.1,0.4c4,0.6,6.8,3.5,7,7.4
		c0.2,3.8-2.4,7.3-6.1,8.2c-1.2,0.3-2.5,0.4-3.7,0.4c-5.8,0-11.7,0-17.5,0c-2.9,0-4.7,1.5-4.8,3.8c-0.1,2.3,1.6,3.9,4.4,4.3
		c4.7,0.6,7.9,4,7.7,8.3c-0.2,4.3-3.7,7.8-8.3,7.8c-19.3,0.1-38.7,0-58.7,0c2.9-2.8,5.3-5.4,7.9-7.8c0.4-0.4,1.3-0.2,2-0.2
		c7.6,0,15.2,0,22.7,0c1.5,0,2-0.4,2.1-2c0.1-6.2,0.1-6.2-6.1-6.2c-3.9,0-7.9,0-11.8,0c-0.3-0.8,0.3-1,0.7-1.4
		c4.5-4.5,9-9,13.5-13.6c0.8-0.9,1.7-1.2,2.9-1.2c6.2,0,12.5,0,18.7,0.1c1.6,0,2.2-0.3,2.2-2.1c0-6.1,0.1-6.1-6-6.1
		c-2.6,0-5.2,0-7.8,0c0-1.2,0.8-1.5,1.3-2.1c4-4,8.1-8,12-12.1c1.4-1.4,2.7-2.1,4.7-2c4.6,0.2,9.2,0,13.7,0.1c1.6,0,2.2-0.3,2.2-2
		c0-6.2,0.1-6.2-6.3-6.2c-1.2,0-2.3,0-3.5,0c-0.1-0.2-0.3-0.4-0.4-0.6c1-0.9,2.1-1.8,3.1-2.7c4.2-4.2,8.4-8.4,12.6-12.5
		c1-1,1.3-1.6,0.1-2.6c-1.6-1.3-2.9-3.8-4.5-4c-1.6-0.1-3,2.5-4.4,3.9c-4.2,4.1-8.3,8.3-12.9,12.9c0-3.3-0.1-6,0-8.7
		c0-1.4-0.4-1.7-1.8-1.8c-6.4-0.2-6.4-0.2-6.4,6.1c0,3.6,0,7.1,0,10.7c0,0.9,0.1,1.7-0.6,2.4c-5,4.9-9.9,9.9-15.1,15
		c-0.8-1.8-0.3-3.6-0.4-5.2c-0.1-2.4-0.1-4.7,0-7.1c0-1.2-0.4-1.6-1.6-1.7c-6.7-0.3-6.7-0.4-6.7,6.3c0,4.8,0,9.6,0,14.4
		c0,0.9,0.1,1.9-0.7,2.6c-5,4.9-9.9,9.9-14.9,14.8c-0.8-0.5-0.5-1.2-0.5-1.7c0-4.7-0.1-9.5,0-14.2c0-1.5-0.4-2.1-2-2.1
		c-6.2-0.1-6.2-0.2-6.2,6.1c0,6.2-0.1,12.3,0,18.5c0,1.6-0.5,2.6-1.6,3.7c-2,2-3.9,4.1-5.8,6.2C182.1,196.4,181.9,196.2,181.7,196z"
		/>
	
		<linearGradient id="SVGID_00000084517242448821800070000017896227439411034540_" gradientUnits="userSpaceOnUse" x1="64.8315" y1="161.7183" x2="291.3837" y2="328.7634">
		<stop  offset="0" style="stop-color:#F77560"/>
		<stop  offset="1" style="stop-color:#845B77"/>
	</linearGradient>
	<path style="fill:url(#SVGID_00000084517242448821800070000017896227439411034540_);" d="M320.8,250.9c-17.4,0.1-34.7,0-52.1,0
		c-0.5,0-0.9,0.1-1.4,0.1c-0.8,0-1.6-0.1-2.4-0.1c-53.8,0-107.6,0-161.4,0c-1.6,0-3.2,0.1-4.7,0c-1.3-0.1-1.8,0.2-1.6,1.7
		c0.5,7,1.8,14,4.4,20.5c11.5,28.8,32.6,45.6,63.4,50c3.1,0.2,6.3,0.6,9.4,0.6c23.7,0.1,47.5,0.1,71.2,0c10.3,0,20.3-1.6,29.7-5.8
		c28.1-12.5,44.1-34.1,47.5-64.8C323,251.2,322.5,250.9,320.8,250.9z"/>
	
		<linearGradient id="SVGID_00000165943168172168154520000010133877308036619702_" gradientUnits="userSpaceOnUse" x1="127.2875" y1="77.0134" x2="353.8397" y2="244.0585">
		<stop  offset="0" style="stop-color:#F77560"/>
		<stop  offset="1" style="stop-color:#845B77"/>
	</linearGradient>
	<path style="fill:url(#SVGID_00000165943168172168154520000010133877308036619702_);" d="M282.8,206.2c0.3-11.3,9.5-20.2,20.7-19.8
		c11,0.3,20,9.7,19.6,20.4c-0.4,11.3-9.7,20.2-20.7,19.8C291.3,226.3,282.5,217.1,282.8,206.2z M290.9,206.5
		c0,6.6,5.3,12.1,11.9,12.1c6.7,0.1,12.2-5.4,12.3-12c0-6.5-5.4-12.1-12-12.1C296.4,194.4,290.9,199.7,290.9,206.5z"/>
	
		<linearGradient id="SVGID_00000178923249690130277900000012623015749856389562_" gradientUnits="userSpaceOnUse" x1="67.154" y1="158.5685" x2="293.7062" y2="325.6136">
		<stop  offset="0" style="stop-color:#F77560"/>
		<stop  offset="1" style="stop-color:#845B77"/>
	</linearGradient>
	<path style="fill:url(#SVGID_00000178923249690130277900000012623015749856389562_);" d="M121.1,206.4c-5.7,0-11.4,0.1-17,0
		c-3.9-0.1-7-3.5-7.2-7.5c-0.2-3.9,2.5-7.5,6.4-8.2c1.5-0.3,3-0.3,4.5-0.3c3.7-0.1,4.7-0.9,5.3-4.5c0.8-4.7,3.9-7.6,8.2-7.5
		c4.3,0.1,7.1,2.9,7.8,7.6c0.5,3.2,1.8,4.3,5,4.4c1.4,0,2.8,0,4.2,0.2c4.4,0.7,7.1,4,6.8,8.5c-0.2,4.1-3.4,7.3-7.8,7.4
		C132,206.5,126.6,206.4,121.1,206.4C121.1,206.4,121.1,206.4,121.1,206.4z"/>
	
		<linearGradient id="SVGID_00000067942727921676015270000011627102059496188824_" gradientUnits="userSpaceOnUse" x1="57.5177" y1="171.6376" x2="284.0699" y2="338.6827">
		<stop  offset="0" style="stop-color:#F77560"/>
		<stop  offset="1" style="stop-color:#845B77"/>
	</linearGradient>
	<path style="fill:url(#SVGID_00000067942727921676015270000011627102059496188824_);" d="M125.2,218.6c-0.1,4.6,0.7,4.1-4.1,4.1
		c-3.9,0-3.9,0-3.9-4.1c0-4,0-4,4-4c0.1,0,0.2,0,0.2,0C125.8,214.8,125.1,214.1,125.2,218.6z"/>
	
		<linearGradient id="SVGID_00000078758885598647517660000005453313194813353093_" gradientUnits="userSpaceOnUse" x1="107.7371" y1="103.5282" x2="334.2894" y2="270.5733">
		<stop  offset="0" style="stop-color:#F77560"/>
		<stop  offset="1" style="stop-color:#845B77"/>
	</linearGradient>
	<path style="fill:url(#SVGID_00000078758885598647517660000005453313194813353093_);" d="M124,107.8c1.5,0.1,3.2,0.5,4.8,1.5
		c0.8,0.5,1.6,1.1,2.3,1.6c4.9,3.7,5.1,3.7,10,0.1c1.6-1.2,3.3-2.4,5.4-2.8c4.5-1,9.1,1.1,11.4,5.2c2.2,3.9,1.5,9.1-1.7,12.2
		c-1.5,1.4-3.1,2.7-4.8,3.8c-2.4,1.6-3.4,3.7-3.2,6.6c0.3,4.5-0.8,8.4-4.5,11.3c-3.8,2.9-7.9,3.5-12.2,1.6c-4.3-1.9-7.3-5.3-7-10
		c0.3-5.6-2-9-6.6-11.9c-4.4-2.8-5.6-7.5-4.1-12C115.2,110.6,119.1,107.8,124,107.8z"/>
</g>
</svg>
