<?xml version="1.0" encoding="utf-8"?>
<!-- Generator: Adobe Illustrator 26.3.1, SVG Export Plug-In . SVG Version: 6.00 Build 0)  -->
<svg version="1.1" id="Layer_1" xmlns="http://www.w3.org/2000/svg" xmlns:xlink="http://www.w3.org/1999/xlink" x="0px" y="0px"
	 viewBox="0 0 400 400" style="enable-background:new 0 0 400 400;" xml:space="preserve">
<style type="text/css">
	.st0{fill:url(#SVGID_1_);}
	.st1{fill:none;stroke:url(#SVGID_00000075861413034631809840000002687119791916616618_);stroke-miterlimit:10;}
	.st2{fill:none;stroke:url(#SVGID_00000062900813255906567810000017692211312852374418_);stroke-miterlimit:10;}
	.st3{fill:url(#SVGID_00000041296708035442617130000010086169144638603702_);}
	.st4{fill:url(#SVGID_00000088833180729010193660000012625306304366813316_);}
	.st5{fill:url(#SVGID_00000024680285485847003170000017656635550881556635_);}
	.st6{fill:url(#SVGID_00000181076128463677523080000017818084408004598448_);}
	.st7{fill:url(#SVGID_00000014625529137519649920000011290477911489738627_);}
	.st8{fill:url(#SVGID_00000150093569006572979750000001285091515625630397_);}
	.st9{fill:url(#SVGID_00000142883794024901479050000003538470153672562353_);}
	.st10{fill:url(#SVGID_00000101818942932758308040000001208776716882070428_);}
	.st11{fill:url(#SVGID_00000183964563032331096120000010684082500403770778_);}
	.st12{fill:url(#SVGID_00000054944949283438821790000001270797004423634360_);}
	.st13{fill:url(#SVGID_00000169552474312453658170000004581053868875972029_);}
	.st14{fill:url(#SVGID_00000146500916015813346490000005671272677352061090_);}
	.st15{fill:url(#SVGID_00000058582429396017111120000017788432453444722102_);}
	.st16{fill:url(#SVGID_00000003787464313833707510000010392822908022215565_);}
	.st17{fill:url(#SVGID_00000096774882515673458310000010931934343231143358_);}
	.st18{fill:url(#SVGID_00000002358416850364996170000002572081075232719512_);}
	.st19{fill:url(#SVGID_00000173864781139809311640000006169601666270216888_);}
	.st20{fill:url(#SVGID_00000108299107160349954460000000416946337870694306_);}
	.st21{fill:url(#SVGID_00000178923065727029740200000008407932042056517764_);}
	.st22{fill:url(#SVGID_00000098200469521885758550000002194020322725436049_);}
	.st23{fill:url(#SVGID_00000109013418948263490510000012115607607291495571_);}
	.st24{fill:url(#SVGID_00000127735567252491353210000007283562169567840431_);}
	.st25{fill:url(#SVGID_00000170988016779363200380000017740461186208043190_);}
	.st26{fill:url(#SVGID_00000156576010343555844180000017407361706459493787_);}
	.st27{fill:url(#SVGID_00000099630804568400295980000014403150941657614009_);}
	.st28{fill:url(#SVGID_00000116232993802071569070000013423712533876783013_);}
	.st29{fill:url(#SVGID_00000022527926820942731000000001020815173014938241_);}
	.st30{fill:url(#SVGID_00000142894560021446480360000003013910091103687610_);}
	.st31{fill:url(#SVGID_00000140720850737711038970000003052987453782428351_);}
	.st32{fill:url(#SVGID_00000091697419386981143530000011082968612266504321_);}
	.st33{fill:url(#SVGID_00000067932016949841098100000000958821496480269758_);}
	.st34{fill:url(#SVGID_00000025422125413742274610000002115072604570549671_);}
	.st35{fill:url(#SVGID_00000177466024955733850740000007528596287489390777_);}
</style>
<g>
	<linearGradient id="SVGID_1_" gradientUnits="userSpaceOnUse" x1="-59.3469" y1="118.681" x2="335.7974" y2="439.6945">
		<stop  offset="0" style="stop-color:#F77560"/>
		<stop  offset="1" style="stop-color:#845B77"/>
	</linearGradient>
	<path class="st0" d="M351.5,316.7c-39,0-137.9,0-176.9,0c-2.8,0-4.8-0.7-6.8-2.6c-4.7-4.3-9.7-8.3-14.5-12.4
		c-1.7-1.4-3.3-2.9-5.6-4.8c1.9,0,2.9,0,3.8,0c12.3,0,0,0,12.3,0c6.8,0,12.5-4.3,14.3-10.5c2.9-9.7-4.2-19-14.6-19
		c-24.2,0-23.7,0-47.9-0.1c-1.3,0-2.9-0.3-3.9-1.1c-2.9-2.2-5.6-4.5-8.2-7C88.2,245,85.4,220,97.9,202.5c0.7,1,1.3,2.1,2.1,2.9
		c8.4,8.4,16.8,16.9,25.2,25.3c3.3,3.3,5.7,3.3,8.9,0.1c3.1-3.1,6.2-6.3,9.9-10.1c1,1.4,1.6,2.6,2.5,3.5c6.8,6.6,15.3,6.5,22.1-0.1
		c2.1-2.1,4.3-4.2,6.3-6.3c5.6-6,5.7-14.5,0.2-20.5c-1.1-1.3-2.3-2.5-3.5-3.6c0.3-0.4,0.3-0.6,0.5-0.7c2.7-2.7,5.4-5.4,8-8.1
		c4.3-4.3,4.3-6.1,0-10.5c-24.4-24.4-48.9-48.8-73.3-73.3c-3.9-3.9-6.1-3.9-10,0c-2.9,2.9-5.9,5.8-8.4,8.4
		c-4.8-4.8-9.3-9.2-13.9-13.8c0.3-0.4,0.7-0.9,1.1-1.5c4.3-6.2,3.4-14.5-1.9-19.3c-5.5-5-14.2-5.5-19.7-0.3
		C43.8,84,34,93.9,24.4,104c-4.2,4.5-4.7,10.2-1.9,15.8c2.7,5.5,7.4,8.4,13.4,8c3.6-0.3,7.1-1.9,10.5-2.9c4.2,4.2,8.6,8.7,13.2,13.2
		c0.1-0.1,0,0.1-0.1,0.2c-2.7,2.7-5.3,5.4-8,8.1c-4.3,4.3-4.3,6.2,0,10.5c6.2,6.2,12.4,12.4,18.8,18.8c-3.4,3.8-6.7,7.4-9.9,11.2
		c-4,4.8-7.6,9.6-10.7,14.5c-19.4,30.2-23.1,63.3-11.2,99.5c0.4,1.3,0.9,2.6,1.3,3.9c1.3,3.9,2.8,7.8,4.2,12
		c-1.1,0.2-1.7,0.4-2.3,0.5c-10.7,1.9-18.3,10.3-19.9,20.1h10c1.7-6.2,7.3-10.7,14.1-10.8c10.5-0.1,20.9,0,31.4,0
		c30.5,0,61.1,0,91.6,0c40.8,0,141.6,0,182.4,0c7.4,0,13.2,4.4,14.9,10.8h10C374.4,325.5,364.3,316.8,351.5,316.7z M162.7,277.4
		c0.5,0,1,0,1.5,0c2.7,0.3,4.6,2.2,4.7,4.8c0.1,2.7-1.9,4.7-4.8,5c-0.5,0-1,0-1.5,0c-34.8,0-36.8,0-71.6,0c-0.6,0-1.2,0-2.2,0
		c0-3.3,0-6.4,0-9.6c0.8-0.1,1.6-0.2,2.3-0.2C125.9,277.4,127.9,277.4,162.7,277.4z M168,210.6c-2.3,2.5-4.7,4.9-7.2,7.1
		c-2.1,2-4.8,1.9-6.9-0.1c-3.5-3.3-6.8-6.7-10.1-9.9c4.8-4.8,9.3-9.3,13.9-13.9c3.4,3.3,7,6.7,10.4,10.4
		C169.9,206.1,169.8,208.6,168,210.6z M170.6,179.8c-1.8,1.7-4.1,3.8-6.6,6.1c-0.8-0.8-1.9-2-3.2-3c-2.3-2-4.7-2-6.9,0.1
		c-6.9,6.8-13.8,13.7-20.7,20.6c-2.2,2.3-2.2,4.7-0.1,7.1c1,1.2,2.1,2.2,3.2,3.4c-2.3,2.2-4.5,4.3-6.4,6.2c-16-16-32.1-32.1-48-48
		c13.2-13.2,27.1-27,40.6-40.6C138.3,147.5,154.5,163.6,170.6,179.8z M51.2,114.9c-4.2-4.2-5.9-4.2-10.2,0c-3.5,3.5-6.4,4.1-8.7,1.9
		c-2.5-2.4-1.9-5.1,1.9-8.9c8.4-8.4,16.8-16.8,25.2-25.2c2.8-2.8,5.9-2.8,8-0.3c1.6,2,1.3,4.7-0.8,6.9c-6.2,6.8-6.2,6.9,0.4,13.5
		c4.6,4.6,9.1,9.1,13.6,13.6c-4.8,4.8-9.2,9.2-14,13.9C61.5,125.4,56.4,120.1,51.2,114.9z M61.1,151.6c13.4-13.4,27.2-27.1,41-40.9
		c4.2,4.2,8.6,8.6,12.9,12.8c-13.6,13.6-27.4,27.4-41,40.9C69.8,160.4,65.3,155.9,61.1,151.6z M152.1,316.7c-31.6,0-63.1,0-94.7,0.1
		c-2.3,0-3.4-0.6-4.1-2.9c-1.4-4.8-3.1-9.6-4.7-14.4c-2.2-6.7-4.4-13.4-5.6-20.3c-4.5-25.7,0.2-49.1,13-70.1
		c3.2-5.2,6.9-10.3,11.1-15.2c3.2-3.7,6.5-7.4,9.7-11c4.3,4.4,8.5,8.7,12.9,13.1c-15.1,25.3-13,49.1,7.5,71.5c-6.8,0-5.1,0-11.6,0
		c-5.4,0-6.9,1.5-6.9,6.9c0,5.5,0,11.1,0,16.6c0,4.2,1.8,6,6,6c17.7,0,27.3,0,45,0.1c1.6,0,3.4,0.7,4.6,1.7
		c6.9,5.7,13.7,11.6,21.2,17.9C153.9,316.7,153,316.7,152.1,316.7z"/>
</g>
<linearGradient id="SVGID_00000108993211784003874400000000436997669073060030_" gradientUnits="userSpaceOnUse" x1="60.0877" y1="-83.5249" x2="473.6628" y2="252.4616">
	<stop  offset="0" style="stop-color:#F77560"/>
	<stop  offset="1" style="stop-color:#845B77"/>
</linearGradient>
<path style="fill:url(#SVGID_00000108993211784003874400000000436997669073060030_);" d="M301.8,188.1c20.5,1.4,39.4-11.7,45.2-31.2
	c2.1-7,1.8-14.2,1.8-21.4c0-3.9-1.9-5.8-5.8-5.7c-9.3,0.2-17.7,3.1-25.1,8.7c-2.7,2-5.1,4.5-8,7c0-4.2,0.2-38.2-0.1-42.1
	c-0.2-2.9,0.3-4.9,3.5-5.9c1.9-0.6,3.7-2.1,5.2-3.6c8.8-8.8,12-19.9,10.4-31.8c-1.8-13.5-11-22.5-21.6-29.9c-1.2-0.8-4-0.3-5.5,0.5
	c-2.4,1.3-4.4,3.2-6.4,5.1c-10,9.5-16.9,20.2-14.2,34.9c2.1,11.2,6.3,21,17.7,25.8c0.6,0.2,1.1,1.4,1.1,2.1
	c0.1,4.8,0.1,39.5,0.1,45.1c-1.5-1.6-2.4-2.6-3.4-3.6c-8.3-8.1-18.3-12.2-29.8-12.6c-3.5-0.1-5.7,1.7-5.7,4.9
	c0,5.4-0.2,10.8,0.5,16.1C264.3,170.9,281.4,186.6,301.8,188.1z M338.8,140.1c2.5,21.9-14.9,36.7-28.7,37.6
	C307.6,155.9,324.9,141.1,338.8,140.1z M296.9,85.8c-7.5-8.3-8.7-23-2.3-32.2c2.8-4,6.4-7.5,9.9-11.5c5.7,4.9,10.4,9.6,13.2,15.8
	c3.7,8.3,1,22.2-5.5,28.6C307.5,91.3,301.6,91,296.9,85.8z M271.1,140.1c13.2,0.7,31.2,15,28.7,37.5
	C286.4,176.9,268.6,162.3,271.1,140.1z"/>
<linearGradient id="SVGID_00000095336511971750824460000001537669595608319162_" gradientUnits="userSpaceOnUse" x1="-100.7244" y1="-77.8611" x2="431.2986" y2="354.3518">
	<stop  offset="0" style="stop-color:#F77560"/>
	<stop  offset="1" style="stop-color:#845B77"/>
</linearGradient>
<rect x="231" y="230.8" style="fill:url(#SVGID_00000095336511971750824460000001537669595608319162_);" width="107.9" height="9.4"/>
<linearGradient id="SVGID_00000091737805291627986590000009821090943307743661_" gradientUnits="userSpaceOnUse" x1="-131.4025" y1="-130.2127" x2="465.1133" y2="354.3939">
	<stop  offset="0" style="stop-color:#F77560"/>
	<stop  offset="1" style="stop-color:#845B77"/>
</linearGradient>
<rect x="250.5" y="211.2" style="fill:url(#SVGID_00000091737805291627986590000009821090943307743661_);" width="88.3" height="9.4"/>
<linearGradient id="SVGID_00000124159143278823092830000012370691910728860819_" gradientUnits="userSpaceOnUse" x1="10.7281" y1="33.1679" x2="358.5679" y2="315.7514">
	<stop  offset="0" style="stop-color:#F77560"/>
	<stop  offset="1" style="stop-color:#845B77"/>
</linearGradient>
<rect x="231" y="211.2" style="fill:url(#SVGID_00000124159143278823092830000012370691910728860819_);" width="9.4" height="9.5"/>
<linearGradient id="SVGID_00000064315990113466435090000015577463457380884129_" gradientUnits="userSpaceOnUse" x1="-386.7913" y1="-116.2325" x2="593.8041" y2="680.3986">
	<stop  offset="0" style="stop-color:#F77560"/>
	<stop  offset="1" style="stop-color:#845B77"/>
</linearGradient>
<rect x="20.7" y="354.3" style="fill:url(#SVGID_00000064315990113466435090000015577463457380884129_);" width="355.6" height="9.8"/>
</svg>
