<?xml version="1.0" encoding="utf-8"?>
<!-- Generator: Adobe Illustrator 26.3.1, SVG Export Plug-In . SVG Version: 6.00 Build 0)  -->
<svg version="1.1" id="Layer_1" xmlns="http://www.w3.org/2000/svg" xmlns:xlink="http://www.w3.org/1999/xlink" x="0px" y="0px"
	 viewBox="0 0 400 400" style="enable-background:new 0 0 400 400;" xml:space="preserve">
<style type="text/css">
	.st0{fill:url(#SVGID_1_);}
	.st1{fill:none;stroke:url(#SVGID_00000056412233398530733550000006674368155408733329_);stroke-miterlimit:10;}
	.st2{fill:none;stroke:url(#SVGID_00000157991824714865102300000006527572715553377963_);stroke-miterlimit:10;}
	.st3{fill:url(#SVGID_00000115479529168140676160000013611268581628082853_);}
	.st4{fill:url(#SVGID_00000083061506642760080870000015238887508821301411_);}
	.st5{fill:url(#SVGID_00000041997238413866692530000014633575880110995129_);}
	.st6{fill:url(#SVGID_00000111152234191417915260000010315403139962318983_);}
	.st7{fill:url(#SVGID_00000117634961082229256550000003041134392322607543_);}
	.st8{fill:url(#SVGID_00000088111858179322225340000002954346709201973661_);}
	.st9{fill:url(#SVGID_00000093164041611990604240000003064151072711909016_);}
	.st10{fill:url(#SVGID_00000078042627398231779150000000954809559449811362_);}
	.st11{fill:url(#SVGID_00000119839338094451944320000008005544430126462651_);}
	.st12{fill:url(#SVGID_00000137095196239685341200000004530322983753406100_);}
	.st13{fill:url(#SVGID_00000170266364090918699200000008210081510758208405_);}
	.st14{fill:url(#SVGID_00000090258688511668890180000011786646829794383760_);}
	.st15{fill:url(#SVGID_00000010284931548205954220000013549554381657418916_);}
	.st16{fill:url(#SVGID_00000111905097945552382380000011015716678972016022_);}
	.st17{fill:url(#SVGID_00000057135451270239338620000007879369884840516503_);}
	.st18{fill:url(#SVGID_00000182492807741328213050000016364068464700854437_);}
	.st19{fill:url(#SVGID_00000101065413015491904760000000372782734799273102_);}
	.st20{fill:url(#SVGID_00000067948457040711644620000011699580994117393548_);}
	.st21{fill:url(#SVGID_00000147920617329168705600000005651276343331161754_);}
	.st22{fill:url(#SVGID_00000106142830039645334200000017356662197569507260_);}
	.st23{fill:url(#SVGID_00000172409254673156170320000008471990324186739860_);}
	.st24{fill:url(#SVGID_00000115506169536967852750000002535022697014313389_);}
	.st25{fill:url(#SVGID_00000159455149423966799800000011992044342087263929_);}
	.st26{fill:url(#SVGID_00000045585387858212486410000003359640345054067125_);}
	.st27{fill:url(#SVGID_00000076565289847914800790000005410244015064558236_);}
	.st28{fill:url(#SVGID_00000174598846468422162700000003603933236162125733_);}
	.st29{fill:url(#SVGID_00000078736430932418651480000004957656379122651796_);}
	.st30{fill:url(#SVGID_00000003811746103935171320000014545763401636404903_);}
	.st31{fill:url(#SVGID_00000027601669885736340500000003271369009115668648_);}
	.st32{fill:url(#SVGID_00000034077297060812097010000009918311545420341932_);}
	.st33{fill:url(#SVGID_00000155853062162737348750000004450581062457845409_);}
	.st34{fill:url(#SVGID_00000114780352672816527860000017013925649862027911_);}
	.st35{fill:url(#SVGID_00000169541848233025500800000012485549436463398327_);}
	.st36{fill:url(#SVGID_00000073716778081875410350000009140977308892948375_);}
	.st37{fill:url(#SVGID_00000011733067126874286310000007790434298730390150_);}
	.st38{fill:url(#SVGID_00000137121375383808120500000012121011740993065095_);}
	.st39{fill:url(#SVGID_00000039816189872083111270000012959499010669233043_);}
	.st40{fill:url(#SVGID_00000044866834126669514970000013743866124346242203_);}
	.st41{fill:url(#SVGID_00000144299042787154914970000011704356549650096559_);}
	.st42{fill:url(#SVGID_00000118386410548596190120000005439368298262186630_);}
	.st43{fill:url(#SVGID_00000015351726149864174360000013569887823846539681_);}
	.st44{fill:url(#SVGID_00000127751700046826062680000016314258489698347195_);}
	.st45{fill:url(#SVGID_00000119798908202062043440000003525989319417685137_);}
	.st46{fill:url(#SVGID_00000157284275299827336330000003514570949840526724_);}
	.st47{fill:url(#SVGID_00000176730411421981154280000001277480756977252263_);}
	.st48{fill:url(#SVGID_00000150066150578850567000000015243654808151923863_);}
	.st49{fill:url(#SVGID_00000065038287599237507320000001374933884069838985_);}
	.st50{fill:url(#SVGID_00000029753627470561997060000009229220980996902811_);}
	.st51{fill:url(#SVGID_00000139271953124647952640000003892332521489633951_);}
	.st52{fill:url(#SVGID_00000161622295821922373670000014417123035602905775_);}
	.st53{fill:url(#SVGID_00000112590394368100685420000017418290933912789169_);}
	.st54{fill:url(#SVGID_00000090270074683052623450000017631417286725040294_);}
	.st55{fill:url(#SVGID_00000128473870976927451830000003474840567277415819_);}
	.st56{fill:url(#SVGID_00000029724412705698709970000013218090087926271394_);}
	.st57{fill:url(#SVGID_00000016778243533612775380000015651102896217692586_);}
	.st58{fill:url(#SVGID_00000054226811943478748560000011610655467869480622_);}
	.st59{fill:url(#SVGID_00000062174076858526430320000012427267215952077744_);}
	.st60{fill:url(#SVGID_00000007396466170571319530000003637733346919314577_);}
	.st61{fill:url(#SVGID_00000043436243995133699960000004490664309843068345_);}
	.st62{fill:url(#SVGID_00000073680743652622871630000017601327339285823361_);}
	.st63{fill:url(#SVGID_00000078032712452709814880000006741902497164365189_);}
	.st64{fill:url(#SVGID_00000155830526426333862440000003250747238518813577_);}
	.st65{fill:url(#SVGID_00000153692535333641433580000008086331220645794469_);}
	.st66{fill:url(#SVGID_00000020370929072046548130000015156455469484512654_);}
	.st67{fill:url(#SVGID_00000148639250920247833400000003611491977171558050_);}
	.st68{fill:url(#SVGID_00000040574968755926232510000003707453059277300130_);}
	.st69{fill:url(#SVGID_00000026847757787972756550000012772533127016532364_);}
	.st70{fill:url(#SVGID_00000158007937791181183810000008217936982707999880_);}
	.st71{fill:url(#SVGID_00000116947446864200409390000002023312719725990830_);}
	.st72{fill:url(#SVGID_00000102534448399188442180000014919148337787326342_);}
	.st73{fill:url(#SVGID_00000088845774193256606420000000961425735719702938_);}
	.st74{fill:url(#SVGID_00000117644494624848495290000011726113688506927509_);}
	.st75{fill:url(#SVGID_00000051381045107960765090000002366747467368173452_);}
	.st76{fill:url(#SVGID_00000106858676489474713120000008750132513625313694_);}
	.st77{fill:url(#SVGID_00000181799696319509002720000007960157961837021329_);}
	.st78{fill:url(#SVGID_00000160887085209814898240000010811374048300413341_);}
	.st79{fill:url(#SVGID_00000013157688599897821310000005935757678396251061_);}
	.st80{fill:url(#SVGID_00000027581509996331220120000004296928645402861709_);}
	.st81{fill:url(#SVGID_00000136383644740656890240000000445481571608446630_);}
	.st82{fill:url(#SVGID_00000103961368091949318310000015233397869533816991_);}
	.st83{fill:url(#SVGID_00000004527201726652253230000014215964021589791145_);}
	.st84{fill:url(#SVGID_00000008116524308173631290000007374490375213865606_);}
	.st85{fill:url(#SVGID_00000034079735143778676930000005805717228055590566_);}
	.st86{fill:url(#SVGID_00000170971658974213506030000005201258738498517674_);}
	.st87{fill:url(#SVGID_00000163785161728408747260000012226495828080876443_);}
	.st88{fill:url(#SVGID_00000115507347399724437130000017066797469457978265_);}
	.st89{fill:url(#SVGID_00000069360952339119473080000006630575494923527043_);}
	.st90{fill:url(#SVGID_00000133486992259403894780000004408741533113887395_);}
	.st91{fill:url(#SVGID_00000085932630009046822830000008340074977148921279_);}
	.st92{fill:url(#SVGID_00000170992394444373143760000006406751637079332286_);}
	.st93{fill:url(#SVGID_00000171678931408235295840000006572453504873003930_);}
	.st94{fill:url(#SVGID_00000141441043444137867090000008481318890675363259_);}
	.st95{fill:url(#SVGID_00000050647696494685454470000005741502754527556025_);}
	.st96{fill:url(#SVGID_00000106138090204214443170000004169781062374565002_);}
	.st97{fill:url(#SVGID_00000169539889078354137090000001652570060697631396_);}
	.st98{fill:url(#SVGID_00000101824750600078783600000003530341485064705949_);}
	.st99{fill:url(#SVGID_00000070836258806252119750000011544016132653625501_);}
	.st100{fill:url(#SVGID_00000091728304247623135730000015532753580764197784_);}
	.st101{fill:url(#SVGID_00000022556717317532998320000002303420145002347163_);}
	.st102{fill:url(#SVGID_00000021099611665532843870000004430881816943166895_);}
	.st103{fill:url(#SVGID_00000101818692201054108040000014062221017377352346_);}
	.st104{fill:url(#SVGID_00000004532446235424741720000003087170132469703855_);}
	.st105{fill:url(#SVGID_00000139286818215803159200000012400201492116906940_);}
	.st106{fill:url(#SVGID_00000170271472134393474730000008347879212714172311_);}
	.st107{fill:url(#SVGID_00000101101117685167388910000016551029319167071390_);}
	.st108{fill:url(#SVGID_00000171719433642072739230000004379111495785447848_);}
	.st109{fill:url(#SVGID_00000114067670528681908570000016517510605295387805_);}
	.st110{fill:url(#SVGID_00000103952664031885426910000005851226784975199889_);}
	.st111{fill:url(#SVGID_00000121996277557457744010000014954173523952792244_);}
	.st112{fill:url(#SVGID_00000018916487546940363560000009167159342531022989_);}
	.st113{fill:url(#SVGID_00000011741828330511606850000017625506067824735627_);}
</style>
<g>
	<linearGradient id="SVGID_1_" gradientUnits="userSpaceOnUse" x1="9.4616" y1="4.2702" x2="417.8348" y2="362.3281">
		<stop  offset="0" style="stop-color:#F77560"/>
		<stop  offset="1" style="stop-color:#845B77"/>
	</linearGradient>
	<path class="st0" d="M27.3,92.8c1.1-3,2.4-5.8,5.2-7.7c2.6-1.8,5.4-2.3,8.5-2.3c22.3,0,52.9-0.1,75.2,0.1c7.5,0,14.2-1.7,20.5-5.9
		c17.3-11.3,34.9-22.1,52.4-33.2c4.6-2.9,9.6-4.4,15-4.4c26.9,0,130.8,0,157.7,0c8.5,0,13.6,5,13.6,13.5c0,45.8,0,179.1,0,224.8
		c0,8.3-5.1,13.4-13.4,13.4c-14.6,0-106.3,0-121,0.1c-1.1,0-2.5,0.6-3.1,1.5c-20.8,27.7-57.7,32.7-85.2,11.5
		c-0.3-0.2-0.6-0.4-0.7-0.5c-2.4,2.5-4.9,5-7.3,7.5c5,6.1,4.7,11.5-1.1,17.4c-10,10-20.1,20.1-30.1,30.1c-5.9,5.9-12.1,5.9-17.9,0.1
		c-2.5-2.5-5-4.9-7.4-7.4c-4.4-4.6-4.6-11.1-0.1-15.7c10.8-11,21.7-21.9,32.7-32.7c4.6-4.5,10.1-4.3,16.3,0.3
		c2.4-2.4,4.8-4.8,7.3-7.3c-0.7-0.9-1.5-1.8-2.1-2.8c-0.9-1.6-2.1-2.1-4-2.1c-16.2,0.1-32.3,0-48.5,0c-12.8,0-33.9-0.2-46.7,0.1
		c-7.7,0.2-13.1-2.4-15.7-9.8C27.3,247.7,27.3,126.5,27.3,92.8z M37.6,246.3c1,0,1.8,0,2.5,0c25.3,0,58.9,0,84.2,0
		c1.8,0,3.6-0.3,5.4-0.2c1.6,0,2.1-0.7,2.5-2.2c1.5-6.5,4.2-12.6,7.9-18.2c2.6-4,5.6-5.1,8.4-3.2c2.7,1.9,2.8,4.9,0.2,8.8
		c-4.9,7.5-7.6,15.7-7.9,24.6c-1.3,31.8,26.9,56,58.2,50.2c21.5-4,37.8-22.3,39.6-44.6c1.7-21.4-11.8-42.3-32.1-49.5
		c-6.8-2.4-13.7-3.3-20.9-2.9c-3.9,0.2-6.4-2.3-5.9-5.9c0.4-2.7,2.4-4.2,6.3-4.4c15.4-0.8,29.2,3.6,41.3,13.2
		c1.1,0.9,2.7,1.5,4.1,1.5c18,0.1,113,0.1,131,0.1c0.9,0,1.8,0,2.7,0c0-18.3,0-123.8,0-142c-1,0-1.8,0-2.6,0
		c-24.7,0-126.5,0-151.2,0c-3.7,0-7,1-10.1,3c-17.3,11-34.8,21.7-52,32.9c-8.1,5.3-16.8,7.6-26.4,7.5c-24.5-0.1-57.2,0-81.6,0
		c-1.1,0-2.2,0-3.4,0C37.6,129.8,37.6,231.6,37.6,246.3z M37.5,104.7c0.8,0.1,1.3,0.1,1.8,0.1c25.9,0,60.1,0,86,0
		c5.8,0,11.2-1.5,16.2-4.7c18-11.5,36.1-22.8,54.2-34.3c4.7-3,9.7-4.4,15.3-4.4c24.6,0,126.3,0,151,0c1,0,2,0,3.1,0
		c0-2.8,0-5.3,0-7.7c0-3.8-0.2-4.1-4.1-4.1c-26.5,0-130.1,0-156.6,0c-3.6,0-6.9,0.9-9.9,2.9c-17.5,11.1-35.1,21.9-52.4,33.2
		c-8,5.2-16.5,7.4-25.9,7.4c-21.9-0.1-52.1,0-74,0c-0.8,0-1.5,0-2.3,0c-1.5,0.1-2.4,0.8-2.4,2.4C37.5,98.5,37.5,101.4,37.5,104.7z
		 M244.5,280.9c1.1,0,1.8,0,2.6,0c12.4,0,101.9,0,114.3,0c3.4,0,3.8-0.3,3.8-3.9c0-16.8,0-33.7,0-50.5c0-0.8,0-1.6,0-2.4
		c-16.7,0-110.1,0-126.7,0c5.7,8.5,9.2,17.6,10.3,27.5C249.8,261.6,248.2,271.3,244.5,280.9z M134.2,280.9c-1.5-8.2-3-16.3-4.4-24.2
		c-27.7,0-64,0-92.2,0c0,7,0,13.6,0,20.3c0,3.6,0.3,3.9,4,3.9c27.5,0,63.3,0,90.8,0C133.1,280.9,133.9,280.9,134.2,280.9z
		 M104.8,352.6c0,0,0.3-0.1,0.6-0.4c10.5-10.5,21-21,31.6-31.5c1.1-1.1,0.9-1.8-0.1-2.8c-2.2-2.1-4.4-4.1-6.3-6.4
		c-1.5-1.8-2.5-1.5-4.1,0.1c-9.9,10-19.8,19.9-29.7,29.8c-0.6,0.6-1.1,1.2-1.5,1.6C98.4,346.3,101.6,349.4,104.8,352.6z"/>
	
		<linearGradient id="SVGID_00000097463687199766861550000016787405693059819433_" gradientUnits="userSpaceOnUse" x1="12.7414" y1="102.8056" x2="309.6245" y2="363.11">
		<stop  offset="0" style="stop-color:#F77560"/>
		<stop  offset="1" style="stop-color:#845B77"/>
	</linearGradient>
	<path style="fill:url(#SVGID_00000097463687199766861550000016787405693059819433_);" d="M189.8,219.3c21.3,0,38.7,17.4,38.7,38.7
		c0,21.4-17.5,38.9-38.9,38.8c-21.3-0.1-38.6-17.5-38.6-38.8C151.1,236.7,168.5,219.3,189.8,219.3z M218.2,258
		c0-15.6-12.8-28.4-28.4-28.4c-15.7,0-28.6,12.9-28.5,28.5c0,15.6,12.9,28.4,28.4,28.4C205.4,286.5,218.3,273.7,218.2,258z"/>
	
		<linearGradient id="SVGID_00000083074797538217446130000004162910261025601683_" gradientUnits="userSpaceOnUse" x1="24.2098" y1="89.7257" x2="321.0929" y2="350.0301">
		<stop  offset="0" style="stop-color:#F77560"/>
		<stop  offset="1" style="stop-color:#845B77"/>
	</linearGradient>
	<path style="fill:url(#SVGID_00000083074797538217446130000004162910261025601683_);" d="M157.6,211c0.1-2.8,2.4-5,5.1-5
		c2.8,0,5.2,2.5,5.1,5.3c-0.1,2.7-2.4,5-5.2,4.9C159.8,216.2,157.6,213.9,157.6,211z"/>
	
		<linearGradient id="SVGID_00000068649513421665494530000002965607624694069427_" gradientUnits="userSpaceOnUse" x1="-2.9211" y1="120.669" x2="293.9621" y2="380.9734">
		<stop  offset="0" style="stop-color:#F77560"/>
		<stop  offset="1" style="stop-color:#845B77"/>
	</linearGradient>
	<path style="fill:url(#SVGID_00000068649513421665494530000002965607624694069427_);" d="M108.3,223.4c-4-0.1-6.8-4.8-3.6-8.8
		c4.2-3.5,9-0.2,8.9,3.9C113.4,221.2,111,223.4,108.3,223.4z"/>
	
		<linearGradient id="SVGID_00000029041866649228960560000002774994669598612636_" gradientUnits="userSpaceOnUse" x1="74.1298" y1="-30.9902" x2="371.0129" y2="229.3143">
		<stop  offset="0" style="stop-color:#F77560"/>
		<stop  offset="1" style="stop-color:#845B77"/>
	</linearGradient>
	<path style="fill:url(#SVGID_00000029041866649228960560000002774994669598612636_);" d="M217.9,100c-2.8,0-5.1-2.1-5.2-4.9
		c-0.1-2.8,2.3-5.3,5.1-5.3c2.8,0,5,2.3,5.1,5.1C222.9,97.8,220.8,100,217.9,100z"/>
	
		<linearGradient id="SVGID_00000111911620327360338940000007146342969710590340_" gradientUnits="userSpaceOnUse" x1="94.3909" y1="-54.0984" x2="391.274" y2="206.206">
		<stop  offset="0" style="stop-color:#F77560"/>
		<stop  offset="1" style="stop-color:#845B77"/>
	</linearGradient>
	<path style="fill:url(#SVGID_00000111911620327360338940000007146342969710590340_);" d="M264.9,90.9c0,2.8-2.2,5.1-5,5.1
		c-2.9,0.1-5.3-2.2-5.2-5.1c0-2.8,2.3-5,5.1-5C262.6,85.9,264.9,88.1,264.9,90.9z"/>
	
		<linearGradient id="SVGID_00000122680000913773525540000012394942245068693141_" gradientUnits="userSpaceOnUse" x1="57.2599" y1="-11.7497" x2="354.1431" y2="248.5547">
		<stop  offset="0" style="stop-color:#F77560"/>
		<stop  offset="1" style="stop-color:#845B77"/>
	</linearGradient>
	<path style="fill:url(#SVGID_00000122680000913773525540000012394942245068693141_);" d="M204.3,122.1c-2.8,0-5.1-2.1-5.2-4.9
		c-0.1-2.8,2.3-5.3,5.1-5.3c2.8,0,5,2.3,5.1,5.1C209.3,119.9,207.2,122.1,204.3,122.1z"/>
	
		<linearGradient id="SVGID_00000176764632793828615310000005729720899225231772_" gradientUnits="userSpaceOnUse" x1="77.521" y1="-34.858" x2="374.4042" y2="225.4464">
		<stop  offset="0" style="stop-color:#F77560"/>
		<stop  offset="1" style="stop-color:#845B77"/>
	</linearGradient>
	<path style="fill:url(#SVGID_00000176764632793828615310000005729720899225231772_);" d="M251.3,113c0,2.8-2.2,5.1-5,5.1
		c-2.9,0.1-5.3-2.2-5.2-5.1c0-2.8,2.3-5,5.1-5C249,108,251.3,110.2,251.3,113z"/>
	
		<linearGradient id="SVGID_00000152949505285316809570000001550356088954539439_" gradientUnits="userSpaceOnUse" x1="79.2395" y1="21.1292" x2="376.1226" y2="281.4337">
		<stop  offset="0" style="stop-color:#F77560"/>
		<stop  offset="1" style="stop-color:#845B77"/>
	</linearGradient>
	<path style="fill:url(#SVGID_00000152949505285316809570000001550356088954539439_);" d="M223,152.2c-2.8,0-5.1-2.1-5.2-4.9
		c-0.1-2.8,2.3-5.3,5.1-5.3c2.8,0,5,2.3,5.1,5.1C228,149.9,225.9,152.1,223,152.2z"/>
	
		<linearGradient id="SVGID_00000105389887496755081130000004617428572493157023_" gradientUnits="userSpaceOnUse" x1="99.5006" y1="-1.979" x2="396.3838" y2="258.3254">
		<stop  offset="0" style="stop-color:#F77560"/>
		<stop  offset="1" style="stop-color:#845B77"/>
	</linearGradient>
	<path style="fill:url(#SVGID_00000105389887496755081130000004617428572493157023_);" d="M270,143c0,2.8-2.2,5.1-5,5.1
		c-2.9,0.1-5.3-2.2-5.2-5.1c0-2.8,2.3-5,5.1-5C267.7,138,270,140.2,270,143z"/>
	
		<linearGradient id="SVGID_00000049212006478708542680000009408141974685152395_" gradientUnits="userSpaceOnUse" x1="62.3696" y1="40.3697" x2="359.2528" y2="300.6741">
		<stop  offset="0" style="stop-color:#F77560"/>
		<stop  offset="1" style="stop-color:#845B77"/>
	</linearGradient>
	<path style="fill:url(#SVGID_00000049212006478708542680000009408141974685152395_);" d="M209.4,174.3c-2.8,0-5.1-2.1-5.2-4.9
		c-0.1-2.8,2.3-5.3,5.1-5.3c2.8,0,5,2.3,5.1,5.1C214.4,172,212.3,174.2,209.4,174.3z"/>
	
		<linearGradient id="SVGID_00000115473212409728960580000001038960969402309256_" gradientUnits="userSpaceOnUse" x1="14.1848" y1="23.0794" x2="311.0679" y2="283.3839">
		<stop  offset="0" style="stop-color:#F77560"/>
		<stop  offset="1" style="stop-color:#845B77"/>
	</linearGradient>
	<path style="fill:url(#SVGID_00000115473212409728960580000001038960969402309256_);" d="M158,154.1c-2.8,0-5.1-2.1-5.2-4.9
		c-0.1-2.8,2.3-5.3,5.1-5.3c2.8,0,5,2.3,5.1,5.1C163,151.9,160.8,154.1,158,154.1z"/>
	
		<linearGradient id="SVGID_00000112617327216628540290000000262113566108413320_" gradientUnits="userSpaceOnUse" x1="-2.6851" y1="42.3199" x2="294.1981" y2="302.6243">
		<stop  offset="0" style="stop-color:#F77560"/>
		<stop  offset="1" style="stop-color:#845B77"/>
	</linearGradient>
	<path style="fill:url(#SVGID_00000112617327216628540290000000262113566108413320_);" d="M144.4,176.2c-2.8,0-5.1-2.1-5.2-4.9
		c-0.1-2.8,2.3-5.3,5.1-5.3c2.8,0,5,2.3,5.1,5.1C149.4,174,147.2,176.2,144.4,176.2z"/>
	
		<linearGradient id="SVGID_00000140702137066494443490000006288527774387175611_" gradientUnits="userSpaceOnUse" x1="-68.4993" y1="39.2166" x2="228.3838" y2="299.521">
		<stop  offset="0" style="stop-color:#F77560"/>
		<stop  offset="1" style="stop-color:#845B77"/>
	</linearGradient>
	<path style="fill:url(#SVGID_00000140702137066494443490000006288527774387175611_);" d="M75.3,170.3c-2.8,0-5.1-2.1-5.2-4.9
		c-0.1-2.8,2.3-5.3,5.1-5.3c2.8,0,5,2.3,5.1,5.1C80.3,168,78.1,170.2,75.3,170.3z"/>
	
		<linearGradient id="SVGID_00000103955578107567345340000004433450685158553231_" gradientUnits="userSpaceOnUse" x1="-85.3692" y1="58.457" x2="211.514" y2="318.7615">
		<stop  offset="0" style="stop-color:#F77560"/>
		<stop  offset="1" style="stop-color:#845B77"/>
	</linearGradient>
	<path style="fill:url(#SVGID_00000103955578107567345340000004433450685158553231_);" d="M61.7,192.3c-2.8,0-5.1-2.1-5.2-4.9
		c-0.1-2.8,2.3-5.3,5.1-5.3c2.8,0,5,2.3,5.1,5.1C66.7,190.1,64.5,192.3,61.7,192.3z"/>
	
		<linearGradient id="SVGID_00000137830637333225144440000000073070085371608972_" gradientUnits="userSpaceOnUse" x1="82.6308" y1="17.2614" x2="379.5139" y2="277.5658">
		<stop  offset="0" style="stop-color:#F77560"/>
		<stop  offset="1" style="stop-color:#845B77"/>
	</linearGradient>
	<path style="fill:url(#SVGID_00000137830637333225144440000000073070085371608972_);" d="M256.4,165.1c0,2.8-2.2,5.1-5,5.1
		c-2.9,0.1-5.3-2.2-5.2-5.1c0-2.8,2.3-5,5.1-5C254.1,160.1,256.4,162.3,256.4,165.1z"/>
	
		<linearGradient id="SVGID_00000041293632809054958720000012875000386099157657_" gradientUnits="userSpaceOnUse" x1="156.0753" y1="-17.9358" x2="452.9585" y2="242.3686">
		<stop  offset="0" style="stop-color:#F77560"/>
		<stop  offset="1" style="stop-color:#845B77"/>
	</linearGradient>
	<path style="fill:url(#SVGID_00000041293632809054958720000012875000386099157657_);" d="M299.9,113.1c-2.8,0-5.1-2.1-5.2-4.9
		c-0.1-2.8,2.3-5.3,5.1-5.3c2.8,0,5,2.3,5.1,5.1C304.9,110.8,302.7,113.1,299.9,113.1z"/>
	
		<linearGradient id="SVGID_00000183953835784890143280000005703870506035696575_" gradientUnits="userSpaceOnUse" x1="176.3364" y1="-41.0441" x2="473.2196" y2="219.2603">
		<stop  offset="0" style="stop-color:#F77560"/>
		<stop  offset="1" style="stop-color:#845B77"/>
	</linearGradient>
	<path style="fill:url(#SVGID_00000183953835784890143280000005703870506035696575_);" d="M346.9,103.9c0,2.8-2.2,5.1-5,5.1
		c-2.9,0.1-5.3-2.2-5.2-5.1c0-2.8,2.3-5,5.1-5C344.6,98.9,346.8,101.2,346.9,103.9z"/>
	
		<linearGradient id="SVGID_00000047059209073968204230000007304780474449962146_" gradientUnits="userSpaceOnUse" x1="139.2055" y1="1.3046" x2="436.0886" y2="261.609">
		<stop  offset="0" style="stop-color:#F77560"/>
		<stop  offset="1" style="stop-color:#845B77"/>
	</linearGradient>
	<path style="fill:url(#SVGID_00000047059209073968204230000007304780474449962146_);" d="M286.3,135.2c-2.8,0-5.1-2.1-5.2-4.9
		c-0.1-2.8,2.3-5.3,5.1-5.3c2.8,0,5,2.3,5.1,5.1C291.3,132.9,289.1,135.1,286.3,135.2z"/>
	
		<linearGradient id="SVGID_00000176757717544846891820000000724465353594881726_" gradientUnits="userSpaceOnUse" x1="159.4666" y1="-21.8037" x2="456.3497" y2="238.5007">
		<stop  offset="0" style="stop-color:#F77560"/>
		<stop  offset="1" style="stop-color:#845B77"/>
	</linearGradient>
	<path style="fill:url(#SVGID_00000176757717544846891820000000724465353594881726_);" d="M333.3,126c0,2.8-2.2,5.1-5,5.1
		c-2.9,0.1-5.3-2.2-5.2-5.1c0-2.8,2.3-5,5.1-5C330.9,121,333.2,123.3,333.3,126z"/>
	
		<linearGradient id="SVGID_00000036952207561690825710000004822837321797416881_" gradientUnits="userSpaceOnUse" x1="156.0753" y1="43.2273" x2="452.9585" y2="303.5317">
		<stop  offset="0" style="stop-color:#F77560"/>
		<stop  offset="1" style="stop-color:#845B77"/>
	</linearGradient>
	<path style="fill:url(#SVGID_00000036952207561690825710000004822837321797416881_);" d="M299.9,174.3c-2.8,0-5.1-2.1-5.2-4.9
		c-0.1-2.8,2.3-5.3,5.1-5.3c2.8,0,5,2.3,5.1,5.1C304.9,172,302.7,174.2,299.9,174.3z"/>
	
		<linearGradient id="SVGID_00000005226301518065982930000015909196495777378483_" gradientUnits="userSpaceOnUse" x1="176.3364" y1="20.119" x2="473.2196" y2="280.4234">
		<stop  offset="0" style="stop-color:#F77560"/>
		<stop  offset="1" style="stop-color:#845B77"/>
	</linearGradient>
	<path style="fill:url(#SVGID_00000005226301518065982930000015909196495777378483_);" d="M346.9,165.1c0,2.8-2.2,5.1-5,5.1
		c-2.9,0.1-5.3-2.2-5.2-5.1c0-2.8,2.3-5,5.1-5C344.6,160.1,346.8,162.3,346.9,165.1z"/>
	
		<linearGradient id="SVGID_00000024718716418569577830000005886414472248837009_" gradientUnits="userSpaceOnUse" x1="139.2055" y1="62.4677" x2="436.0886" y2="322.7721">
		<stop  offset="0" style="stop-color:#F77560"/>
		<stop  offset="1" style="stop-color:#845B77"/>
	</linearGradient>
	<path style="fill:url(#SVGID_00000024718716418569577830000005886414472248837009_);" d="M286.3,196.4c-2.8,0-5.1-2.1-5.2-4.9
		c-0.1-2.8,2.3-5.3,5.1-5.3c2.8,0,5,2.3,5.1,5.1C291.3,194.1,289.1,196.3,286.3,196.4z"/>
	
		<linearGradient id="SVGID_00000070088105469592649890000013981488234378975935_" gradientUnits="userSpaceOnUse" x1="159.4666" y1="39.3594" x2="456.3497" y2="299.6638">
		<stop  offset="0" style="stop-color:#F77560"/>
		<stop  offset="1" style="stop-color:#845B77"/>
	</linearGradient>
	<path style="fill:url(#SVGID_00000070088105469592649890000013981488234378975935_);" d="M333.3,187.2c0,2.8-2.2,5.1-5,5.1
		c-2.9,0.1-5.3-2.2-5.2-5.1c0-2.8,2.3-5,5.1-5C330.9,182.2,333.2,184.4,333.3,187.2z"/>
	
		<linearGradient id="SVGID_00000158732492558323611420000002274866809975664265_" gradientUnits="userSpaceOnUse" x1="-26.3029" y1="147.3365" x2="270.5803" y2="407.6409">
		<stop  offset="0" style="stop-color:#F77560"/>
		<stop  offset="1" style="stop-color:#845B77"/>
	</linearGradient>
	<path style="fill:url(#SVGID_00000158732492558323611420000002274866809975664265_);" d="M68.4,235.4c-2.8,0-5.1-2.2-5.1-5
		c0-2.9,2.3-5.2,5.2-5.2c2.8,0.1,5,2.4,5,5.1C73.4,233.2,71.2,235.4,68.4,235.4z"/>
	
		<linearGradient id="SVGID_00000068640259811161202360000014980703969293731249_" gradientUnits="userSpaceOnUse" x1="17.0493" y1="34.1114" x2="313.9324" y2="294.4159">
		<stop  offset="0" style="stop-color:#F77560"/>
		<stop  offset="1" style="stop-color:#845B77"/>
	</linearGradient>
	<path style="fill:url(#SVGID_00000068640259811161202360000014980703969293731249_);" d="M123.2,132.4c-4-0.1-6.8-4.8-3.6-8.8
		c4.2-3.5,9-0.2,8.9,3.9C128.3,130.2,125.9,132.4,123.2,132.4z"/>
	
		<linearGradient id="SVGID_00000015347777482246234080000009541253020990160796_" gradientUnits="userSpaceOnUse" x1="-6.3325" y1="124.5598" x2="290.5506" y2="384.8643">
		<stop  offset="0" style="stop-color:#F77560"/>
		<stop  offset="1" style="stop-color:#845B77"/>
	</linearGradient>
	<path style="fill:url(#SVGID_00000015347777482246234080000009541253020990160796_);" d="M83.3,208.2c-2.8,0-5.1-2.2-5.1-5
		c0-2.9,2.3-5.2,5.2-5.2c2.8,0.1,5,2.4,5,5.1C88.3,205.9,86.1,208.2,83.3,208.2z"/>
</g>
</svg>
