<?xml version="1.0" encoding="utf-8"?>
<!-- Generator: Adobe Illustrator 26.3.1, SVG Export Plug-In . SVG Version: 6.00 Build 0)  -->
<svg version="1.1" id="Layer_1" xmlns="http://www.w3.org/2000/svg" xmlns:xlink="http://www.w3.org/1999/xlink" x="0px" y="0px"
	 viewBox="0 0 400 400" style="enable-background:new 0 0 400 400;" xml:space="preserve">
<style type="text/css">
	.st0{fill:url(#SVGID_1_);}
	.st1{fill:none;stroke:url(#SVGID_00000180346680069138298930000008681234917983364772_);stroke-miterlimit:10;}
	.st2{fill:none;stroke:url(#SVGID_00000085960382854756065660000003100382085211259828_);stroke-miterlimit:10;}
	.st3{fill:url(#SVGID_00000019673740115196920020000007411040249244925854_);}
	.st4{fill:url(#SVGID_00000021828385920088171690000003670169652119248811_);}
	.st5{fill:url(#SVGID_00000057840947227852958360000004646305464632232866_);}
	.st6{fill:url(#SVGID_00000131364889710176151110000008316083677307093430_);}
	.st7{fill:url(#SVGID_00000083805962015849216450000014874835411927294877_);}
	.st8{fill:url(#SVGID_00000132782309841633068530000016678178825696966821_);}
	.st9{fill:url(#SVGID_00000080919699639826092250000010768080004393250226_);}
	.st10{fill:url(#SVGID_00000081615416453449731400000008311167058451152296_);}
	.st11{fill:url(#SVGID_00000176018742829690928010000003126461255169705122_);}
	.st12{fill:url(#SVGID_00000134972414309634308170000009600896312826090383_);}
	.st13{fill:url(#SVGID_00000073703308468095299200000004897045254169850030_);}
	.st14{fill:url(#SVGID_00000175307896438591581130000008443332927054614403_);}
	.st15{fill:url(#SVGID_00000016789322147896320340000009553833839554019203_);}
	.st16{fill:url(#SVGID_00000173136997221934233720000014107520908096480923_);}
	.st17{fill:url(#SVGID_00000028305839010835055710000011785118656770312869_);}
	.st18{fill:url(#SVGID_00000071552903482804517710000007000334435643789490_);}
	.st19{fill:url(#SVGID_00000006695270303492872300000010564179662277225636_);}
	.st20{fill:url(#SVGID_00000012460620037274058080000011119432687283303610_);}
	.st21{fill:url(#SVGID_00000047030313546256535000000014271157983833061521_);}
	.st22{fill:url(#SVGID_00000157301483151799947350000018056646349716144550_);}
	.st23{fill:url(#SVGID_00000044169355865251059740000009332941497708746138_);}
	.st24{fill:url(#SVGID_00000058575181915799456650000009412383227419851434_);}
	.st25{fill:url(#SVGID_00000108995736804422676700000009146873903388691616_);}
	.st26{fill:url(#SVGID_00000117648712507618726540000001999306312638555528_);}
	.st27{fill:url(#SVGID_00000000936578847809612500000016939351007180230561_);}
	.st28{fill:url(#SVGID_00000042726414575644408550000009955197898415335561_);}
	.st29{fill:url(#SVGID_00000091733194194841765130000001739134799153684114_);}
	.st30{fill:url(#SVGID_00000021822006111970504870000014829809651817719450_);}
	.st31{fill:url(#SVGID_00000052807426488244606940000016133690430003568259_);}
	.st32{fill:url(#SVGID_00000083774021436502642990000018142238993304466866_);}
	.st33{fill:url(#SVGID_00000034776421563729582870000004587832506309015212_);}
	.st34{fill:url(#SVGID_00000006671761179569156680000008654766379172000163_);}
	.st35{fill:url(#SVGID_00000152967712315398724340000003842154012721650094_);}
</style>
<g>
	<linearGradient id="SVGID_1_" gradientUnits="userSpaceOnUse" x1="51.6462" y1="100.5116" x2="343.9448" y2="306.3026">
		<stop  offset="0" style="stop-color:#F77560"/>
		<stop  offset="1" style="stop-color:#845B77"/>
	</linearGradient>
	<path class="st0" d="M250.4,129.3c-16.8,11.3-35.8,13.3-54.2,16.4c-30.1,5-41.6,29-43.4,52.4c-0.7,9.5,1.5,18.6,5.6,27.1
		c0.5,1.1,1.2,2.1,2,3.6c2.4-3.4,4.5-6.4,6.7-9.4c13.7-18.7,29.7-35.3,47.5-50.1c0.7-0.6,1.4-1.1,2.1-1.6c3.4-2.3,7.3-2,9.8,0.9
		c2.6,3,2.3,7.1-0.9,10c-5,4.5-10.2,8.8-15.1,13.4c-20.1,19.3-37.8,40.4-49.9,65.8c-4.9,10.4-8.6,21.2-10.2,32.7
		c-0.1,0.5-0.2,1-0.3,1.5c-1,4.5-4.3,7.1-8.1,6.5c-4-0.7-6.8-4.1-5.8-8.5c2.5-10.6,5.4-21.2,8.6-31.6c1.4-4.5,3.7-8.7,6-12.9
		c1.1-2.1,1.1-3.6-0.2-5.7c-17.3-26.8-15.9-59.9,3.3-85.5c10-13.3,24-19.4,39.7-22.5c10-2,20.1-3.8,30-6.1
		c9.6-2.2,18.2-6.8,25.4-13.6c4.7-4.4,10.7-3.1,12.3,2.9c7.6,29.3,11.1,58.8,4.3,88.8c-4.5,19.8-14.2,36.4-32.2,47.1
		c-12,7.1-25.3,9.8-39,10.3c-4.3,0.2-7.3-2.8-7.5-6.7c-0.2-4.2,2.6-6.8,7.1-7.5c7.6-1.1,15.5-1.8,22.7-4.2
		c19.5-6.4,29.8-21.3,34.6-40.4c4.5-17.8,4.1-35.8,1.9-53.9C252.7,142.3,251.5,136.1,250.4,129.3z"/>
	
		<linearGradient id="SVGID_00000173126338553981672290000001815726956781666483_" gradientUnits="userSpaceOnUse" x1="56.4737" y1="93.6549" x2="348.7722" y2="299.4459">
		<stop  offset="0" style="stop-color:#F77560"/>
		<stop  offset="1" style="stop-color:#845B77"/>
	</linearGradient>
	<path style="fill:url(#SVGID_00000173126338553981672290000001815726956781666483_);" d="M202.4,352.4c5.6,6.9,10.5,13.1,15.5,19.3
		c1.9,2.3,2.9,5.1,1.2,7.6c-1.2,1.9-3.6,3.8-5.6,4c-2.1,0.2-5-1.1-6.4-2.7c-8.7-10.3-17.1-20.8-25.4-31.4c-3.1-3.9-2.7-7.7,1.2-10.8
		c10.4-8.5,20.9-17,31.5-25.3c3.5-2.8,7.8-2.3,10.3,0.8c2.6,3.2,2,7.3-1.5,10.2c-5.2,4.4-10.6,8.6-15.9,12.9c0.2,0.5,0.2,0.5,0.4,1
		c6.3-0.7,12.7-0.9,18.8-2.2c56.4-12,93.8-45.4,109.2-101.1C353.4,170.9,319.5,102,258.5,75c-1.1-0.5-2.3-0.9-3.4-1.5
		c-3.7-2-5.1-5.6-3.6-9.1c1.5-3.7,5.6-5.6,9.3-3.7c10.5,5.6,21.7,10.5,31.1,17.6c44,33.4,65.3,78.3,61.9,133.5
		c-4.1,66.8-53.7,123.2-119.1,137c-8.7,1.8-17.8,2.3-26.7,3.3C206.5,352.3,204.9,352.3,202.4,352.4z"/>
	
		<linearGradient id="SVGID_00000118387991432208663310000014812576750961238433_" gradientUnits="userSpaceOnUse" x1="52.7164" y1="98.9916" x2="345.0149" y2="304.7826">
		<stop  offset="0" style="stop-color:#F77560"/>
		<stop  offset="1" style="stop-color:#845B77"/>
	</linearGradient>
	<path style="fill:url(#SVGID_00000118387991432208663310000014812576750961238433_);" d="M202.8,48.7c-1.2-1.6-2-2.8-2.9-3.9
		c-3.9-4.9-7.8-9.7-11.7-14.6c-3.4-4.2-3.3-8.5,0.2-11.2c3.4-2.7,7.3-2,10.7,2.1c3.3,4,6.6,8.1,9.9,12.2c4.8,6,9.7,12,14.5,18.1
		c3.5,4.4,3.1,8.2-1.1,11.6c-10.1,8.2-20.2,16.3-30.3,24.4c-1.2,1-2.7,2-4.2,2.3c-3.2,0.7-5.9-0.6-7.6-3.5c-1.6-2.9-1.1-6.4,1.7-8.8
		c5.4-4.6,11-9,16.5-13.4c-0.2-0.5-0.2-0.5-0.4-1c-6.4,0.7-12.8,0.9-19.1,2.3c-56.7,12.1-94.2,45.7-109.3,101.9
		c-17.3,64.3,15.7,131.4,76.4,158.6c6.2,2.8,8.3,6.3,6.4,10.7c-1.9,4.3-6.1,5.2-12.2,2.3c-51.5-24.7-81.7-65.3-88.3-122
		c-9.2-79,46.5-152.3,124.8-165.6c7.2-1.2,14.6-1.5,21.9-2.2C199.9,48.9,201.1,48.8,202.8,48.7z"/>
</g>
</svg>
