<?xml version="1.0" encoding="utf-8"?>
<!-- Generator: Adobe Illustrator 26.3.1, SVG Export Plug-In . SVG Version: 6.00 Build 0)  -->
<svg version="1.1" id="Layer_1" xmlns="http://www.w3.org/2000/svg" xmlns:xlink="http://www.w3.org/1999/xlink" x="0px" y="0px"
	 viewBox="0 0 400 400" style="enable-background:new 0 0 400 400;" xml:space="preserve">
<style type="text/css">
	.st0{fill:url(#SVGID_1_);}
	.st1{fill:none;stroke:url(#SVGID_00000164504260026870474660000013388945117486425472_);stroke-miterlimit:10;}
	.st2{fill:none;stroke:url(#SVGID_00000134951827176993735670000016324135714429531008_);stroke-miterlimit:10;}
	.st3{fill:url(#SVGID_00000132055100453470276730000017013390835065289653_);}
	.st4{fill:url(#SVGID_00000088835503390024487710000015083771865171126672_);}
	.st5{fill:url(#SVGID_00000102505866644586311410000009208781739325355958_);}
	.st6{fill:url(#SVGID_00000117657065246862988770000003358107647703360700_);}
	.st7{fill:url(#SVGID_00000134234614309959242310000005696136795025146033_);}
	.st8{fill:url(#SVGID_00000021833796901655589360000000166058504130979242_);}
	.st9{fill:url(#SVGID_00000001631874978998387880000013480811245558951808_);}
	.st10{fill:url(#SVGID_00000022552342753214812070000003146010729302347947_);}
	.st11{fill:url(#SVGID_00000180341573541160981920000018191108945096136622_);}
	.st12{fill:url(#SVGID_00000114771263160597075340000009495195285965039026_);}
	.st13{fill:url(#SVGID_00000168812129934981309390000003012376948803231931_);}
	.st14{fill:url(#SVGID_00000085239561675592343810000011894723770704769713_);}
	.st15{fill:url(#SVGID_00000045619252227910153690000001222954243242413247_);}
	.st16{fill:url(#SVGID_00000089560594055337226100000008114298494897790628_);}
	.st17{fill:url(#SVGID_00000016755682600440485380000008418285148220979866_);}
	.st18{fill:url(#SVGID_00000044157808193905244920000005577412721448426886_);}
	.st19{fill:url(#SVGID_00000004543905790360861670000013804515239406299796_);}
	.st20{fill:url(#SVGID_00000041992656210467238180000000637309130933923724_);}
	.st21{fill:url(#SVGID_00000176029834063347896000000013428741177397254566_);}
	.st22{fill:url(#SVGID_00000070082037098359583140000003750746902080227766_);}
	.st23{fill:url(#SVGID_00000065053969079810210090000009333592969128465299_);}
	.st24{fill:url(#SVGID_00000163762934806215864980000012256058018505583801_);}
	.st25{fill:url(#SVGID_00000114062601967070074710000018301630993331255734_);}
	.st26{fill:url(#SVGID_00000021080961629082468590000011069088416756818054_);}
	.st27{fill:url(#SVGID_00000085220978499333586130000003433097728296163248_);}
	.st28{fill:url(#SVGID_00000158006056262666772560000015698410919790070936_);}
	.st29{fill:url(#SVGID_00000142153584916497463600000003553440863571663008_);}
	.st30{fill:url(#SVGID_00000052068596909697328930000008811310580578363797_);}
	.st31{fill:url(#SVGID_00000182510160814837732930000009736397875919254923_);}
	.st32{fill:url(#SVGID_00000157991824863320494190000015679332153224603059_);}
	.st33{fill:url(#SVGID_00000115512521797433360960000013257637444265872003_);}
	.st34{fill:url(#SVGID_00000026161450406770504770000018246393145579762825_);}
	.st35{fill:url(#SVGID_00000021097831513372809140000012358181584527052974_);}
</style>
<g>
	<linearGradient id="SVGID_1_" gradientUnits="userSpaceOnUse" x1="-22.1663" y1="116.8265" x2="347.762" y2="416.4431">
		<stop  offset="0" style="stop-color:#F77560"/>
		<stop  offset="1" style="stop-color:#845B77"/>
	</linearGradient>
	<path class="st0" d="M45.8,167c0.6-0.1,1.2-0.5,1.7-0.9c2.2-1.9,2.1-5.4-0.2-7.2c-0.6-0.4-1.1-0.7-1.7-0.8c-7.4-0.5-15-0.5-22.4,0
		c-0.6,0-1.2,0.4-1.8,0.8c-2.5,2-2.4,5.9,0.3,7.6c0.4,0.2,0.8,0.4,1.2,0.5c3.6,0.7,7.4,0.2,11.2,0.2C38,167.2,42,167.8,45.8,167z"/>
	
		<linearGradient id="SVGID_00000074434045036788782610000006355033517758865323_" gradientUnits="userSpaceOnUse" x1="-1.5077" y1="91.3199" x2="368.4206" y2="390.9365">
		<stop  offset="0" style="stop-color:#F77560"/>
		<stop  offset="1" style="stop-color:#845B77"/>
	</linearGradient>
	<path style="fill:url(#SVGID_00000074434045036788782610000006355033517758865323_);" d="M62.6,131.7c-7.6-2.5-15.4-4.6-23.3-6.3
		c-1.5-0.3-4.3,1.8-5,3.4c-0.5,1.2,1.1,4.6,2.5,5c7,2.3,14.2,4.1,21.9,6.2c2.3,0.6,4.9,0,6.5-1.8c0.4-0.4,0.6-0.9,0.6-1.3
		C65.8,135.2,64.1,132.2,62.6,131.7z"/>
	
		<linearGradient id="SVGID_00000019647314417661425950000004146547560247894455_" gradientUnits="userSpaceOnUse" x1="-30.4014" y1="126.9942" x2="339.5269" y2="426.6107">
		<stop  offset="0" style="stop-color:#F77560"/>
		<stop  offset="1" style="stop-color:#845B77"/>
	</linearGradient>
	<path style="fill:url(#SVGID_00000019647314417661425950000004146547560247894455_);" d="M60.2,184.7c-7.7,1.6-15.3,3.7-22.7,6.1
		c-1.6,0.5-3.3,3.5-3.2,5.2c0,0.5,0.3,1,0.7,1.4c1.5,1.8,4.1,2.5,6.3,1.8c7.8-2.1,14.9-3.9,21.8-6.2c1.4-0.5,3-4.1,2.5-5.5
		C65.1,186.1,61.8,184.3,60.2,184.7z"/>
	
		<linearGradient id="SVGID_00000034064582035232458720000005271398792156084403_" gradientUnits="userSpaceOnUse" x1="71.7144" y1="0.9147" x2="441.6426" y2="300.5312">
		<stop  offset="0" style="stop-color:#F77560"/>
		<stop  offset="1" style="stop-color:#845B77"/>
	</linearGradient>
	<path style="fill:url(#SVGID_00000034064582035232458720000005271398792156084403_);" d="M291.5,155.9c2.8-3,1-7.9-3.1-8.2
		c-2.4-0.2-4.8-0.3-7.2-0.3c-10.3,0-3.7,0.1-14,0.1c-8,0-9.3,1.5-8.2,9.6c1.5,11.6,1.2,14.3,2.6,25.8c0.5,3.9,5.3,5.5,8,2.7
		c1-1,1.4-2.4,1.3-3.8c-0.2-1.5-0.4-3-0.6-4.6c-1.2-9.5-0.4-10.2-1.7-21c12.4,0.6,7.4,0.2,18.9,1.2
		C289.1,157.5,290.5,157,291.5,155.9z"/>
	
		<linearGradient id="SVGID_00000008853394712279337410000007364514250592639401_" gradientUnits="userSpaceOnUse" x1="38.3616" y1="42.0945" x2="408.2898" y2="341.711">
		<stop  offset="0" style="stop-color:#F77560"/>
		<stop  offset="1" style="stop-color:#845B77"/>
	</linearGradient>
	<path style="fill:url(#SVGID_00000008853394712279337410000007364514250592639401_);" d="M193.9,136.7c1.3-8.4,4.1-11,12.4-11
		c42.3,0,84.6-0.3,126.8,0.1c9.8,0.1,19.4,1.5,28.4,4.1c1.7,0.5,3.5,0,4.7-1.3c2.5-2.6,1.4-6.9-2.1-7.9c-9.2-2.6-18.8-4.1-28.7-4.3
		c-24.3-0.4-48.6-0.1-72.9-0.2c-2.1,0-4.2-0.2-6.2-0.3V78.7c3.5,0,6.6,0.1,9.7,0c15-0.5,26.9-11.9,27.7-26.4
		c0.8-15.1-9.6-28.8-24.7-29.6c-19.3-1.1-38.7-1-58,0c-14.8,0.8-25.6,14.4-25,28.8c0.7,15,12.5,26.7,27.6,27.2c3.3,0.1,6.6,0,9.9,0
		v37.6c-6.6,0-12.8-0.1-19.1,0c-10.8,0.3-18,6.9-19.7,17.6c-0.5,2.8-1,5.7-1.4,8.3h-18.1c0-3.4,0-6.3,0-9.3c0-4.7-2.1-6.8-7-6.4
		l-77.3,8.6c-6.6,0.6-7.7,4.2-6.2,13l-0.2,29.2c-1.6,9.4,0.8,12.3,7.6,12.7c11.2,0.7,22.4,2,33.6,3c19.9,1.8,22.1,3.5,41.9,5.3
		c5.3,0.5,7.8-1.6,7.6-7c-0.1-2.9,0-5.8,0-8.5h12.4c-2.1,14.2-4,27.9-6.1,41.5c-0.2,1.3-1.9,2.9-3.2,3.5c-25.9,10.6-38,30.1-38,57.7
		c0,24.7,0,24.5,0,41.1c0,4.3,5.2,6.4,8.2,3.3c0.9-0.9,1.3-2.1,1.3-3.3c0-24.7,0-17.4,0-43.7c0-3.5,0.4-7.1,1-10.6
		c3.1-19.6,23.3-37.9,44.1-37.3c9.4,0.3,10.3,0.5,9.1,0.5c1.4,0,3.1,0,5.4,0c1.4,0,2.7-0.6,3.6-1.5c3.1-3.2,0.8-8.5-3.6-8.5h-18.2
		c1.2-9,2.4-17.9,3.7-26.7C187.8,178.1,190.8,157.4,193.9,136.7z M246.1,115.9c-4.1,0-8,0-12.4,0c0-12.1,0-24.2,0-36.8
		c3.9,0,7.9,0,12.4,0C246.1,91.4,246.1,103.5,246.1,115.9z M215,69.2c-11-0.2-19.1-8-19.5-18.2c-0.4-10.1,7.5-19.1,18.3-19.4
		c17.5-0.5,35.1-0.5,52.6,0c10.9,0.4,18.3,9.2,17.9,19.7c-0.4,10-8.4,17.7-19,17.9c-8.5,0.2-17,0-25.4,0
		C231.5,69.3,223.3,69.4,215,69.2z M155.4,188.7c-29.8-2.7-41.7-5.3-71.6-8c0-12.5,0-24.1,0-36.3c29.7-2.7,41.6-5.3,71.6-8
		C155.4,153.9,155.4,171,155.4,188.7z M179.5,169.5c-0.3,1.3-2.4,3.2-3.8,3.2c-5.9,0.1-6.3,0.1-5.6,0.1c-1,0-2.4,0-4.6,0
		c0-7.2,0-13.6,0-20.4c5.8,0,7.6,0,8.1,0c0.1,0,0.2,0,0.2,0c0.5,0,2.3,0,8.1,0C181.1,158.3,180.6,163.9,179.5,169.5z"/>
	
		<linearGradient id="SVGID_00000114753406710273131060000015599351261068750218_" gradientUnits="userSpaceOnUse" x1="4.4791" y1="83.9282" x2="374.4073" y2="383.5448">
		<stop  offset="0" style="stop-color:#F77560"/>
		<stop  offset="1" style="stop-color:#845B77"/>
	</linearGradient>
	<path style="fill:url(#SVGID_00000114753406710273131060000015599351261068750218_);" d="M193.9,235.6
		C185.5,235.7,192.1,235.8,193.9,235.6L193.9,235.6z"/>
	
		<linearGradient id="SVGID_00000168114458661776453830000013667694013930429114_" gradientUnits="userSpaceOnUse" x1="53.0209" y1="23.995" x2="422.9492" y2="323.6115">
		<stop  offset="0" style="stop-color:#F77560"/>
		<stop  offset="1" style="stop-color:#845B77"/>
	</linearGradient>
	<path style="fill:url(#SVGID_00000168114458661776453830000013667694013930429114_);" d="M378.3,213.6
		c-2.4-25.7-11.9-48.9-26.2-70.2c-6.6-9.9-20.5-9.4-27,0.7c-7.4,11.4-13.4,23.6-17.8,36.4c-7.8,22.5-10.5,45.5-5.7,69
		c4.6,22.3,15.3,41.4,30,58.5c1.2,1.4,2,3.6,2.1,5.5c0.3,6.5,0.1,13,0.1,19.5c0,1.5,0,2.9,0,3.7c-7.4-7-14.9-13.9-22.2-21.1
		c-1.2-1.2-1.8-3.1-2.1-4.8c-0.9-4.8-1.1-9.7-2.1-14.4c-8.9-42.6-40.4-63.2-72.6-70.3c-11.6-2.6-22.1,7.6-19.9,19.2
		c0.7,3.6,1.7,7.1,2.7,10.5c11.5,38.2,42.1,62.3,81.7,64.7c1.3,0.1,2.9,1,3.9,1.9c9.6,9.6,19.1,19.3,28.5,29.1c1.2,1.3,2,3.4,2,5.2
		c0.1,8.1,0.1,5.3,0.1,1.5l0.2,14.7c0,2.1,1.2,4.1,3.1,4.9c1.1,0.5,2.4,0.6,3.9-0.1c2.9-1.2,3.4-3.8,3.4-6.6l0.4-2.2
		c-0.2-0.5-0.3-0.7-0.3-0.9c0-17.9-0.1-34,0-51.9c0-1.1,0.8-2.2,1.4-3.1c5.1-7.4,10.9-14.5,15.4-22.3
		C375,266.9,380.9,241.1,378.3,213.6z M294.6,298.4c-14.4-14.6-4.7-5.3-19-19.9c-0.8-0.9-1.7-1.8-2.6-2.5c-2.3-1.6-4.6-1.5-6.6,0.4
		c-2.1,2-2.2,4.5-0.7,6.9c0.6,0.9,1.5,1.6,2.2,2.4c14.4,14.7,4.7,5.2,19,19.9c0.8,0.8,1.5,1.6,3,3.2c-8.5-1.3-15.7-3.7-22.5-7.1
		c-21.7-10.9-33.9-29.1-40.5-51.8c-0.6-1.9-1-3.8-1.4-5.8c-1.3-5.9,1.9-9.2,7.8-7.5c7.1,2,14.2,4.1,20.9,7.2
		c23.1,10.7,37.2,29,42.8,53.8c0.2,0.9,0.3,1.9,0.5,3.5C296.2,299.9,295.4,299.2,294.6,298.4z M353.3,284.4
		c-2.4,4.4-5.2,8.6-7.8,12.9c-0.3-0.1-0.6-0.2-1-0.4c0-1.3,0-2.6,0-3.9c0-32,0-6.8,0-38.8c0-1.3,0-2.7-0.3-3.9
		c-0.6-2.7-2.5-4.3-5.2-4.2c-2.8,0.1-4.7,1.7-5,4.7c-0.1,1.2-0.1,2.4-0.1,3.6c0,30.6,0,3.9,0,34.5c0,1.2,0,2.4,0,4.3
		c-1-1.1-1.6-1.6-2-2.2c-23.6-32.8-27.4-68.4-14.8-106.2c4-12.2,9.7-23.6,16.6-34.4c2.9-4.5,7.5-4.6,10.3-0.2
		c11.7,18.2,20.2,37.6,23.3,59.2C371.2,236,366.2,261,353.3,284.4z"/>
</g>
</svg>
