<?xml version="1.0" encoding="utf-8"?>
<!-- Generator: Adobe Illustrator 26.5.0, SVG Export Plug-In . SVG Version: 6.00 Build 0)  -->
<svg version="1.1" id="Layer_1" xmlns="http://www.w3.org/2000/svg" xmlns:xlink="http://www.w3.org/1999/xlink" x="0px" y="0px"
	 viewBox="0 0 400 400" style="enable-background:new 0 0 400 400;" xml:space="preserve">
<style type="text/css">
	.st0{fill:url(#SVGID_1_);}
	.st1{fill:url(#SVGID_00000037667229020759453400000010982585330130197143_);}
	.st2{fill:url(#SVGID_00000031916354878796159190000003901885619808180647_);}
	.st3{fill:url(#SVGID_00000046326090377965443770000012255037625198781089_);}
	.st4{fill:url(#SVGID_00000090294212791374782610000002183505861668930235_);}
	.st5{fill:url(#SVGID_00000134935274161781172410000003162867445604993435_);}
	.st6{fill:url(#SVGID_00000111899824926784805920000007917343008786071182_);}
	.st7{fill:url(#SVGID_00000065052683327583838140000007831921161168109701_);}
	.st8{fill:url(#SVGID_00000135652396702165916030000013422849819331310508_);}
	.st9{fill:url(#SVGID_00000153675280307213206430000017055318455438841998_);}
	.st10{fill:url(#SVGID_00000068639576855322508790000007687743789964956051_);}
</style>
<g>
	<linearGradient id="SVGID_1_" gradientUnits="userSpaceOnUse" x1="193.4064" y1="28.5033" x2="206.5726" y2="28.5033">
		<stop  offset="0" style="stop-color:#F77560"/>
		<stop  offset="1" style="stop-color:#845B77"/>
	</linearGradient>
	<path class="st0" d="M202,21.9c0.5,0.4,1.1,0.7,1.6,1.1c2.5,1.9,3.7,4.3,2.7,7.4c-1,3-3.2,4.7-6.4,4.6c-3-0.1-5.2-1.7-6.1-4.6
		c-1-3.1,0.1-5.5,2.7-7.4c0.5-0.4,1-0.7,1.6-1.1C199.3,21.9,200.6,21.9,202,21.9z"/>
	
		<linearGradient id="SVGID_00000142863896610638017500000014655023973036952749_" gradientUnits="userSpaceOnUse" x1="63.7905" y1="199.8871" x2="334.5682" y2="199.8871">
		<stop  offset="0" style="stop-color:#F77560"/>
		<stop  offset="1" style="stop-color:#845B77"/>
	</linearGradient>
	<path style="fill:url(#SVGID_00000142863896610638017500000014655023973036952749_);" d="M288.5,245.1c3.3,6.3,6.3,12,9.2,17.7
		c8.3,15.8,27.3,41.3,35.5,57.1c2.3,4.5,1.5,8.5-2.4,10c-2,0.7-4.5,0.6-6.6,0.1c-14.3-3.7-28.6-7.6-42.8-11.5
		c-0.9-0.3-1.9-0.4-3-0.7c-3.5,9.7-6.9,19.1-10.3,28.6c-2,5.6-4,11.1-5.9,16.7c-1.1,3.1-2.8,5.3-6.2,5.5c-3.4,0.2-5.4-1.8-6.9-4.6
		c-12.1-23.2-35-56-47.1-79.2c-0.5-1-1.1-2-1.9-3.4c-0.8,1.4-1.4,2.4-1.9,3.4c-11.9,22.7-36.1,60.6-48,83.4
		c-0.3,0.6-0.6,1.2-0.9,1.7c-1.4,2.8-3.5,4.6-6.7,4.3c-3.2-0.2-5-2.3-6.1-5.2c-4.2-11.8-8.4-23.5-12.6-35.3
		c-1.2-3.4-2.4-6.8-3.8-10.4c-8.1,2.2-16.1,4.3-24,6.4c-7.4,2-14.8,4-22.2,6c-3.3,0.9-6.4,0.9-8.7-2.1c-2.2-2.8-1.5-5.7,0-8.6
		c10.7-20.4,33.7-56,44.3-76.4c0.5-1.1,1-2.1,1.6-3.3c-8.8-8.5-16.3-17.9-22.6-28.3c-37.9-63-14-147.1,51.5-180.5
		c9-4.6,18.9-7.5,28.5-10.9c3.8-1.3,7.2,1,8.2,4.6c0.9,3.5-1.1,6.7-5.1,8c-1,0.3-2.1,0.7-3.1,0.9c-14,3.8-26.9,10-38.4,18.9
		c-32.1,25-47.9,58-46.1,98.7c2.2,51,37.2,93.6,86.7,106.9c62.5,16.7,128.2-23,142.5-86.1c14-62.1-22.2-122.2-83.7-139
		c-1.8-0.5-3.7-1.5-5-2.8c-2-2.1-2-4.8-0.5-7.3c1.6-2.7,4.5-4,8-2.7c9.3,3.3,18.9,6.1,27.5,10.6c37.3,19.9,60.8,50.8,67.8,92.6
		c7.4,43.6-5.2,81.7-36,113.7C290.6,243.8,289.5,244.4,288.5,245.1z M185.6,280.1c-23.8-2.9-45-11.4-64.1-25.8
		c-8.7,16.7-29.6,48.3-38.5,65.2c1.5-0.3,2.3-0.5,3.2-0.7c11.4-3.1,22.8-6.2,34.2-9.3c6-1.6,8.5-0.4,10.6,5.4
		c3.9,11,7.9,22.1,11.8,33.1c0.3,0.8,0.7,1.6,1.3,3C154,332.2,175.9,298.7,185.6,280.1z M214.3,280.1c9.8,18.8,30.1,46.6,40,65.5
		c0.6-1.6,1-2.5,1.3-3.4c3.9-11,7.9-22.1,11.8-33.1c1.9-5.4,4.6-6.8,10.1-5.3c11.5,3.1,23,6.2,34.6,9.4c0.8,0.2,1.7,0.3,3.1,0.5
		c-8.8-16.9-28.1-42.9-36.8-59.4C259.3,268.7,238.2,277.2,214.3,280.1z"/>
	
		<linearGradient id="SVGID_00000119828429749817212710000002539749259308530091_" gradientUnits="userSpaceOnUse" x1="142.0633" y1="151.4096" x2="257.865" y2="151.4096">
		<stop  offset="0" style="stop-color:#F77560"/>
		<stop  offset="1" style="stop-color:#845B77"/>
	</linearGradient>
	<path style="fill:url(#SVGID_00000119828429749817212710000002539749259308530091_);" d="M245.5,176.8c1.7,0.8,3.4,1.1,4.7,2.1
		c2.2,1.6,3,4,2.3,6.7c-0.7,2.7-2.6,4.3-5.3,4.8c-1,0.2-2,0.1-3,0.1c-29.4,0-58.8,0-88.2,0c-0.8,0-1.5,0-2.3,0
		c-3.3-0.3-5.8-2.6-6.2-5.7c-0.4-3.1,1.5-6,4.7-7.1c0.7-0.2,1.5-0.3,2.6-0.6c-2.5-6.6-5.1-13.1-7.6-19.5c-1.4-3.7-2.8-7.4-4.3-11
		c-1.1-2.7-0.9-5.2,1-7.4c2-2.3,4.6-2.5,7.3-1.9c8.9,2,17.8,3.9,26.6,6.1c2.3,0.6,3.3,0.1,4.2-2c3.7-8.1,7.7-16,11.5-24
		c1.4-2.9,3.2-5.1,6.6-5.1c3.4,0,5.3,2.1,6.6,5c3.8,7.9,7.7,15.8,11.4,23.7c1,2.2,2,3.1,4.7,2.4c8.5-2.2,17.1-3.9,25.6-5.9
		c3.1-0.7,5.9-0.8,8.1,1.9c2.1,2.5,1.7,5.2,0.6,8C253.1,157.2,249.3,167,245.5,176.8z M159.3,152.8c3.2,8.2,6.1,15.9,9.2,23.4
		c0.2,0.6,1.5,1.1,2.3,1.1c19.4,0.1,38.8,0.1,58.2,0c0.8,0,2.1-0.5,2.4-1.1c3.1-7.6,6-15.2,9.1-23.2c-1.1,0.2-1.8,0.2-2.4,0.4
		c-6.7,1.5-13.5,3-20.2,4.5c-4,0.9-6.5-0.3-8.4-4c-2.3-4.5-4.4-9.1-6.6-13.6c-0.9-1.9-1.9-3.8-3.1-6.2c-3,6.2-5.7,11.7-8.3,17.2
		c-3.5,7.2-4.7,7.8-12.6,6C172.7,155.7,166.3,154.3,159.3,152.8z"/>
</g>
</svg>
