<?xml version="1.0" encoding="utf-8"?>
<!-- Generator: Adobe Illustrator 26.3.1, SVG Export Plug-In . SVG Version: 6.00 Build 0)  -->
<svg version="1.1" id="Layer_1" xmlns="http://www.w3.org/2000/svg" xmlns:xlink="http://www.w3.org/1999/xlink" x="0px" y="0px"
	 viewBox="0 0 400 400" style="enable-background:new 0 0 400 400;" xml:space="preserve">
<style type="text/css">
	.st0{fill:url(#SVGID_1_);}
	.st1{fill:none;stroke:url(#SVGID_00000078766198118168415200000012895857452945533348_);stroke-miterlimit:10;}
	.st2{fill:none;stroke:url(#SVGID_00000140004159544875925340000002748048855684268942_);stroke-miterlimit:10;}
	.st3{fill:url(#SVGID_00000035500682324054465280000000587081555927861901_);}
	.st4{fill:url(#SVGID_00000161605010594273103100000006000676058615884940_);}
	.st5{fill:url(#SVGID_00000039100814636309261330000012448922066650704013_);}
	.st6{fill:url(#SVGID_00000151538953289112778650000005370691404788172936_);}
	.st7{fill:url(#SVGID_00000124882434893052989480000001403868320921769654_);}
	.st8{fill:url(#SVGID_00000072960743250578533240000009199767373016009090_);}
	.st9{fill:url(#SVGID_00000142158636265556216900000008950221048497021578_);}
	.st10{fill:url(#SVGID_00000175323438637196356780000002893083843436144776_);}
	.st11{fill:url(#SVGID_00000170272461948262789680000018003241970116276912_);}
	.st12{fill:url(#SVGID_00000114767621774637559250000003520194175699170476_);}
	.st13{fill:url(#SVGID_00000005952920425432264760000007706467916765995967_);}
	.st14{fill:url(#SVGID_00000037653710271212086530000008023188739915595185_);}
	.st15{fill:url(#SVGID_00000121239185518696639870000017625681444502093440_);}
	.st16{fill:url(#SVGID_00000114051462006261309220000003010749943852970904_);}
	.st17{fill:url(#SVGID_00000080179627347660584680000013046808508926892672_);}
	.st18{fill:url(#SVGID_00000139281302799581665910000012013479795462993025_);}
	.st19{fill:url(#SVGID_00000044144039093759844620000006976549595767205047_);}
	.st20{fill:url(#SVGID_00000158736885337812115440000017106394387375547551_);}
	.st21{fill:url(#SVGID_00000048488453559722175700000002887681939314482844_);}
	.st22{fill:url(#SVGID_00000152945781381709729350000013051659750073878171_);}
	.st23{fill:url(#SVGID_00000104707192401660380740000000264156256835513984_);}
	.st24{fill:url(#SVGID_00000082362748509704435090000000190874189690426300_);}
	.st25{fill:url(#SVGID_00000124845071458496675990000016912761501613878973_);}
	.st26{fill:url(#SVGID_00000087405519255269886000000012878010741774200249_);}
	.st27{fill:url(#SVGID_00000096752399436551668390000008221147535167676569_);}
	.st28{fill:url(#SVGID_00000067953803609506127400000000741500849119668613_);}
	.st29{fill:url(#SVGID_00000022544894214963817700000018253583499279698595_);}
	.st30{fill:url(#SVGID_00000130620223298065408850000013552023126120629154_);}
	.st31{fill:url(#SVGID_00000023996924474914814960000007186313575036485511_);}
	.st32{fill:url(#SVGID_00000106857285553931006080000011042072898041411205_);}
	.st33{fill:url(#SVGID_00000093859169762813999460000002919031158002712748_);}
	.st34{fill:url(#SVGID_00000182498106632361508480000015660278764211647902_);}
	.st35{fill:url(#SVGID_00000075854942248140386240000012434852614481500588_);}
</style>
<g>
	<linearGradient id="SVGID_1_" gradientUnits="userSpaceOnUse" x1="-78.4742" y1="157.4668" x2="319.1879" y2="479.3356">
		<stop  offset="0" style="stop-color:#F77560"/>
		<stop  offset="1" style="stop-color:#845B77"/>
	</linearGradient>
	<path class="st0" d="M19.7,233.7c1.9-2.6,4.4-3.4,7.6-3.3c10.9,0.1,21.8,0,32.7,0c1.3,0,2.5,0,4.1,0c0-7.8,0.1-15.1-0.1-22.5
		c0-0.9-1.3-2.1-2.2-2.7c-17.6-12.4-17.6-40.8,0.2-52.9c6-4.1,9.1-4.1,15,0c17.7,12.2,17.8,40.6,0,52.8c-1.8,1.2-2.4,2.4-2.4,4.6
		c0.1,6.8,0,13.5,0,20.7c1.7,0,2.9,0,4.2,0c11.1,0,22.3,0,33.4,0c5.1,0,6.8,1.7,6.8,6.7c0,8.6,0,17.1,0,25.7c0,4.1-2,6.6-5.2,6.5
		c-3.2,0-5.2-2.5-5.2-6.6c-0.1-7.1,0-14.3,0-21.6c-26.3,0-52.1,0-78.2,0c0,39.7,0,79.3,0,119.1c26,0,51.9,0,78.2,0
		c0-1.5,0-2.9,0-4.3c0-21.6,0-43.2,0-64.8c0-1.4,0-2.8,0.3-4.2c0.6-2.8,2.5-4.2,5.4-4c2.7,0.2,4.3,1.7,4.7,4.3
		c0.2,1,0.1,2.1,0.1,3.2c0,24.2,0,48.3,0,72.5c0,6.7-1.4,8.1-8,8.1c-28,0-56.1,0-84.1,0.1c-3.2,0-5.7-0.8-7.4-3.6
		C19.7,322.9,19.7,278.3,19.7,233.7z M79.7,178.8c0-6.8-2.9-13.4-7.6-17.5c-1.8-1.6-3.2-1.7-5.1-0.1c-10.3,8.8-10.3,26.5,0,35.2
		c2,1.7,3.4,1.5,5.1-0.2C77.1,191.5,79.8,185.7,79.7,178.8z"/>
	
		<linearGradient id="SVGID_00000093887444487706079260000017382320476637478025_" gradientUnits="userSpaceOnUse" x1="28.0476" y1="25.8614" x2="425.7097" y2="347.7302">
		<stop  offset="0" style="stop-color:#F77560"/>
		<stop  offset="1" style="stop-color:#845B77"/>
	</linearGradient>
	<path style="fill:url(#SVGID_00000093887444487706079260000017382320476637478025_);" d="M194.6,166.5c0.1-1.1,0.2-2.3,0.2-3.4
		c0-8.3-0.1-16.7,0.1-25c0-2.4-0.7-3.7-2.7-5.1c-19-13-18-44.1,1.6-56c4.5-2.7,8.3-2.6,12.7,0.1c19.4,11.9,20.4,42.6,1.6,55.8
		c-2.1,1.5-2.8,2.9-2.8,5.4c0.1,16.8,0.1,33.6,0.1,50.4c0,1.3,0.1,2.5,0.2,4.1c2.3,0,4.2,0,6.2,0c10.6,0,21.1,0,31.7,0
		c4.5,0,6.4,1.9,6.5,6.4c0.1,8.7,0.1,17.4,0,26.1c0,4.1-2.1,6.4-5.4,6.4c-3.3,0-5.1-2.3-5.1-6.6c0-7.1,0-14.2,0-21.5
		c-26.3,0-52.2,0-78.3,0c0,52.3,0,104.4,0,157.3c1.2-0.7,2.4-1.1,3.2-1.9c24.5-24.5,49-48.9,73.4-73.5c1-1,1.7-2.8,1.7-4.3
		c0.1-9.6,0.1-19.2,0.1-28.9c0-4.7,1.9-7.3,5.3-7.2c3.4,0.1,5.2,2.7,5.2,7.4c0,6.5,0,13.1,0,19.1c6.4-6.4,12.8-12.8,19.7-19.8
		c-2.4-2.4-5.5-5.4-8.6-8.3c-2-1.9-3.4-4-2.2-6.9c1.1-2.8,3.6-3.4,6.4-3.3c5,0,10.1,0,15.6,0c0-1.7,0-3.1,0-4.5
		c0-22.1,0-44.1,0-66.2c0-6.1,1.6-7.7,7.7-7.7c12.1,0,24.2,0,36.8,0c0-5.5,0.1-10.9-0.1-16.2c0-0.9-1-1.8-1.7-2.5
		c-4.1-4.2-8.4-8.2-12.4-12.5c-1.5-1.6-3-2.1-5.2-1.9c-14.1,1-26-11-24.9-25.1c0.5-6.8,2.9-9.4,9.6-10.3
		c14.2-2.1,27.7,11.1,26.1,25.2c-0.1,1.4,0.5,3.1,1.4,4.2c1.9,2.3,4.2,4.4,6.9,7.1c0.1-1.8,0.2-2.9,0.2-4c0-8.6-0.1-17.1,0.1-25.7
		c0-2.1-0.7-3.3-2.4-4.5C304.1,76,304.2,45.9,323,33.3c5.9-3.9,9-3.9,14.8-0.1c18.8,12.5,19.1,42.7,0.5,55.4
		c-1.9,1.3-2.5,2.6-2.5,4.8c0.1,9.5,0,19,0,29.6c3.2-3.3,6-5.8,8.5-8.7c0.5-0.6,0.2-2,0.1-3c-1.2-15.1,13.2-28,27.7-24.8
		c4.1,0.9,6.5,3.1,7.5,7.3c3.5,14.1-8.7,28.6-23.6,27.9c-2.8-0.1-4.8,0.5-6.7,2.6c-3.7,4.1-7.8,7.8-11.6,11.8
		c-1,1.1-1.7,2.8-1.8,4.2c-0.2,4.7-0.1,9.4-0.1,14.6c1.4,0,2.7,0,3.9,0c10.9,0,21.8,0,32.7,0c6.1,0,7.8,1.6,7.8,7.6
		c0,8.2,0,16.4,0,24.6c0,4.3-2.1,6.9-5.4,6.8c-3.2-0.1-5.1-2.5-5.1-6.7c0-7.1,0-14.3,0-21.6c-26.2,0-52.1,0-78.2,0
		c0,22.4,0,44.7,0,67.4c1.2,0.1,2.4,0.2,3.7,0.2c6.6,0,13.1,0,19.7,0c5.6,0,7.3,1.6,7.3,7.1c0,16.7,0,33.3,0,50
		c0,2.7-0.5,5.3-3.3,6.4c-2.8,1.1-4.9-0.2-6.9-2.2c-2.9-3.1-5.9-6-9-9.2c-3.9,3.8-7.6,7.3-11.2,11c-0.5,0.5-0.5,1.5-0.5,2.3
		c0,20.1,0,40.1,0,60.2c0,0.4,0.1,0.9,0.2,1.5c26,0,51.9,0,78.1,0c0-1.5,0-2.9,0-4.3c0-46.6,0-93.2,0-139.8c0-1.1,0-2.1,0-3.2
		c0.2-3.4,2.1-5.5,5.1-5.6c3.2-0.1,5.3,2.1,5.4,5.6c0.1,1.9,0,3.8,0,5.6c0,48,0,96,0,144c0,6.9-1.4,8.3-8.2,8.3
		c-27.7,0-55.4,0-83.1,0c-7,0-8.3-1.2-8.3-8.1c0-16.9,0-33.8,0-50.7c0-1.3,0-2.5,0-4.4c-1.1,0.9-1.9,1.4-2.5,2
		c-8.8,8.8-17.6,17.5-26.3,26.5c-1.1,1.2-1.9,3.2-2,4.8c-0.2,7.6-0.1,15.3-0.1,22.9c0,5.4-1.8,7.1-7.2,7.1c-28.4,0-56.8,0-85.2,0
		c-5.6,0-7.3-1.7-7.3-7.4c0-54.5,0-108.9,0-163.4c0-5.9,1.6-7.5,7.5-7.5c10.9,0,21.8,0,32.7,0c1.3,0,2.5,0,4,0
		c0.7-5.6,1.4-10.9-4-14.7c-2.2-1.5-3.9-3.7-5.8-5.7c-3.5-3.7-6.9-6.3-13-6.4c-13.4-0.2-23.4-13.7-21-26.6c1-5.5,3.3-7.6,8.8-8.5
		c13.7-2.1,27.2,9.4,26.6,23.2c-0.2,3.8,1.1,6.1,3.6,8.4c1.5,1.4,2.7,3.1,4,4.7C194,167,194.3,166.7,194.6,166.5z M276.9,244.2
		c0.8,0.9,1.2,1.4,1.7,1.9c6.1,6.3,6.1,7.2,0,13.3c-32.5,32.5-65,65-97.5,97.6c-0.9,0.9-1.8,1.9-3.2,3.4c10.9,0,21.1-0.1,31.3,0.1
		c2.6,0,4.3-0.8,6.1-2.6c26.9-27,53.9-54,80.8-80.9c0.7-0.7,1.3-1.3,2-2c3.5-3.4,5.9-3.4,9.3-0.1c1.2,1.2,2.4,2.3,4.1,4
		c0-12.1,0-23.3,0-34.7C300,244.2,288.7,244.2,276.9,244.2z M211.1,105.6c-0.1-7.3-2.8-13.5-8.2-18.6c-2-1.9-3.6-1.9-5.7-0.1
		c-10.9,9.4-10.9,27.9,0.1,37.4c2.2,1.9,3.8,1.7,5.7-0.2C208.2,119.1,210.9,113,211.1,105.6z M319.5,60.8
		c-0.2,7.8,2.8,14.1,8.5,19.3c1.7,1.5,3.1,1.5,4.9,0.1c11.3-9.1,11.4-28.4,0.2-37.9c-2.1-1.7-3.6-1.5-5.4,0.2
		C322.4,47.4,319.5,53.4,319.5,60.8z M355,111.6c9.6-0.5,15.8-7.1,14.3-15C360.4,96.4,354,103,355,111.6z M175.7,155.9
		c-0.3-9.7-6.7-15.8-14.9-14.5C160.7,150.3,167,156.5,175.7,155.9z M291.5,96.7c-0.6,9,5.7,15.3,14.5,14.5
		C306.7,102.7,300.5,96.6,291.5,96.7z M229.1,360.2c2.8,0,6.3,0,10,0c0-3.5,0-6.9,0-10.1C235.7,353.5,232.3,356.9,229.1,360.2z"/>
</g>
</svg>
