<?xml version="1.0" encoding="utf-8"?>
<!-- Generator: Adobe Illustrator 26.3.1, SVG Export Plug-In . SVG Version: 6.00 Build 0)  -->
<svg version="1.1" id="Layer_1" xmlns="http://www.w3.org/2000/svg" xmlns:xlink="http://www.w3.org/1999/xlink" x="0px" y="0px"
	 viewBox="0 0 400 400" style="enable-background:new 0 0 400 400;" xml:space="preserve">
<style type="text/css">
	.st0{fill:url(#SVGID_1_);}
	.st1{fill:none;stroke:url(#SVGID_00000140720566694726289220000005837546638312024722_);stroke-miterlimit:10;}
	.st2{fill:none;stroke:url(#SVGID_00000126315657975846250780000002709944872900497549_);stroke-miterlimit:10;}
	.st3{fill:url(#SVGID_00000072260699352754094060000013367798411327156628_);}
	.st4{fill:url(#SVGID_00000103264595627770834020000014459264819173356218_);}
	.st5{fill:url(#SVGID_00000142151800263326837780000003356993512514875068_);}
	.st6{fill:url(#SVGID_00000146467847218682872590000009400798404317772217_);}
	.st7{fill:url(#SVGID_00000047774756173388412160000005550116229680730544_);}
	.st8{fill:url(#SVGID_00000130633100301525184940000006965247088678003379_);}
	.st9{fill:url(#SVGID_00000064311909978306589670000017556205499494446527_);}
	.st10{fill:url(#SVGID_00000062907134193394958520000011803732568617326260_);}
	.st11{fill:url(#SVGID_00000005259040284656603230000013938135981035647135_);}
	.st12{fill:url(#SVGID_00000098920943214291600220000014358300815110093989_);}
	.st13{fill:url(#SVGID_00000131369544119692760950000010302283612545853373_);}
	.st14{fill:url(#SVGID_00000104671834112104982740000008943531627094727840_);}
	.st15{fill:url(#SVGID_00000043439742258016371450000002541465364630013067_);}
	.st16{fill:url(#SVGID_00000166651668076907610530000000154695553398704829_);}
	.st17{fill:url(#SVGID_00000174569286195216801370000016208877050755419557_);}
	.st18{fill:url(#SVGID_00000147211659191141075280000002674799880179885499_);}
	.st19{fill:url(#SVGID_00000092419759168426880040000012560717849249340593_);}
	.st20{fill:url(#SVGID_00000166657532117265780920000007041802939282836383_);}
	.st21{fill:url(#SVGID_00000166661423178203168220000008591364855977645487_);}
	.st22{fill:url(#SVGID_00000116230381216253294940000014732595475134240958_);}
	.st23{fill:url(#SVGID_00000121253368360428504470000010257478324191603375_);}
	.st24{fill:url(#SVGID_00000021809468249903049140000014659416951252192691_);}
	.st25{fill:url(#SVGID_00000159456651947686568610000017235012040021118611_);}
	.st26{fill:url(#SVGID_00000106853891448979500480000007461021673007739063_);}
	.st27{fill:url(#SVGID_00000124884399357798645700000013647301220966034816_);}
	.st28{fill:url(#SVGID_00000163783587314185098850000007732634590066608815_);}
	.st29{fill:url(#SVGID_00000101797526670150256650000016125402229038908089_);}
	.st30{fill:url(#SVGID_00000016768744601699307470000017949312004305035188_);}
	.st31{fill:url(#SVGID_00000039101102377679105880000003777173238739795135_);}
	.st32{fill:url(#SVGID_00000179646545321999521960000004592821793654545587_);}
	.st33{fill:url(#SVGID_00000072281466382190440080000000672917876917390734_);}
	.st34{fill:url(#SVGID_00000036216321334984925740000012022243088904949148_);}
	.st35{fill:url(#SVGID_00000136370095892734272220000001547618873983561358_);}
	.st36{fill:url(#SVGID_00000086678874269644345320000012463388185534978954_);}
	.st37{fill:url(#SVGID_00000046341751358347543660000012555599267682739612_);}
	.st38{fill:url(#SVGID_00000009562278232018388500000012327741006071307653_);}
	.st39{fill:url(#SVGID_00000070096607722629815340000008345821571780583609_);}
	.st40{fill:url(#SVGID_00000044172956672299279100000006066824528992822712_);}
	.st41{fill:url(#SVGID_00000078733343289443510000000005291894153171525022_);}
	.st42{fill:url(#SVGID_00000083798243667739704220000000399065933533948818_);}
	.st43{fill:url(#SVGID_00000070800486602528776820000001675481968697753001_);}
	.st44{fill:url(#SVGID_00000088851027604003590440000011304036929164217482_);}
	.st45{fill:url(#SVGID_00000140000427047693499260000000930970648502247060_);}
	.st46{fill:url(#SVGID_00000156587291511960403140000004956462542126683808_);}
	.st47{fill:url(#SVGID_00000030458897256649618660000002553691925363319682_);}
	.st48{fill:url(#SVGID_00000070817166020492277700000000791413600134749078_);}
	.st49{fill:url(#SVGID_00000152942310107178132160000008759141381989719455_);}
	.st50{fill:url(#SVGID_00000031180708942130019980000010312243909901864320_);}
	.st51{fill:url(#SVGID_00000177469651970020168770000018148435493262370968_);}
	.st52{fill:url(#SVGID_00000119833166430192466010000009208717046712806788_);}
	.st53{fill:url(#SVGID_00000132797839907536229300000015385247029899633287_);}
	.st54{fill:url(#SVGID_00000049185221933799548730000011464699531097925560_);}
	.st55{fill:url(#SVGID_00000039829656378168408250000004227938871083368592_);}
	.st56{fill:url(#SVGID_00000150101890139463700390000000872636372983034803_);}
	.st57{fill:url(#SVGID_00000128448744795335434090000003177936061591319471_);}
	.st58{fill:url(#SVGID_00000106825696202133239170000006382957174790531203_);}
	.st59{fill:url(#SVGID_00000159455780184853508080000008496474765830626437_);}
	.st60{fill:url(#SVGID_00000065043200658115383980000006734657588764838056_);}
	.st61{fill:url(#SVGID_00000052789551675044172070000002605023912750900624_);}
	.st62{fill:url(#SVGID_00000059295128560858353640000001947584502857525126_);}
	.st63{fill:url(#SVGID_00000031207286936028573550000003593575620164927410_);}
	.st64{fill:url(#SVGID_00000112602055549385559150000009358941517201651101_);}
	.st65{fill:url(#SVGID_00000181064899151910137900000013969874749112058276_);}
	.st66{fill:url(#SVGID_00000099624687183910448930000001714823802916024484_);}
	.st67{fill:url(#SVGID_00000016790283971764395530000014252971495699094152_);}
	.st68{fill:url(#SVGID_00000088106168510526730620000007643449032225534626_);}
	.st69{fill:url(#SVGID_00000133507206116142534170000003030524582818888636_);}
	.st70{fill:url(#SVGID_00000129203852649029448550000005655669878689325720_);}
	.st71{fill:url(#SVGID_00000049930474148011385010000000750845044922247347_);}
	.st72{fill:url(#SVGID_00000044874946784979903450000016911098834670235543_);}
	.st73{fill:url(#SVGID_00000020386126078682815350000010906372759327324306_);}
	.st74{fill:url(#SVGID_00000077303754067476609720000009233909549231868578_);}
	.st75{fill:url(#SVGID_00000142860465572606983560000015601211044294635928_);}
	.st76{fill:url(#SVGID_00000060722747837848678870000007943069418735622590_);}
	.st77{fill:url(#SVGID_00000139973226849783275060000004340818948570915989_);}
	.st78{fill:url(#SVGID_00000137834611282237427050000001741692679774143932_);}
	.st79{fill:url(#SVGID_00000132777765734427955470000018253680255520061073_);}
	.st80{fill:url(#SVGID_00000008847667108430713060000004230791246565860740_);}
	.st81{fill:url(#SVGID_00000099636412242936282800000002007448168419377342_);}
	.st82{fill:url(#SVGID_00000041275416138177717100000002729913047950431386_);}
	.st83{fill:url(#SVGID_00000014630099812198829080000013953196026974092729_);}
	.st84{fill:url(#SVGID_00000043427265472319991510000014357292436804862850_);}
	.st85{fill:url(#SVGID_00000052803923807725293440000008683059412553359293_);}
	.st86{fill:url(#SVGID_00000052065160329297759280000000279320652042168979_);}
	.st87{fill:url(#SVGID_00000148655683893641764210000016299340349246919610_);}
	.st88{fill:url(#SVGID_00000080888770595275694000000007044032049382242712_);}
	.st89{fill:url(#SVGID_00000082329990745538883440000012353881986473478786_);}
	.st90{fill:url(#SVGID_00000010287033700616560620000015913233780904332160_);}
	.st91{fill:url(#SVGID_00000008139561758405251380000006871298867351563399_);}
	.st92{fill:url(#SVGID_00000066514758717010312990000004606169074675352752_);}
	.st93{fill:url(#SVGID_00000159434502750558154690000009222156313861208455_);}
	.st94{fill:url(#SVGID_00000163042084187856364310000014303433694405505413_);}
	.st95{fill:url(#SVGID_00000008833791413347417810000014828763022543967145_);}
	.st96{fill:url(#SVGID_00000125584388680897626730000000725688564747856555_);}
	.st97{fill:url(#SVGID_00000103230956680866297620000018378551574739607479_);}
	.st98{fill:url(#SVGID_00000154406590923715768500000007948894366364663703_);}
	.st99{fill:url(#SVGID_00000034049311653910781580000011384652936936253571_);}
	.st100{fill:url(#SVGID_00000140693142547663788050000007005387725928686517_);}
	.st101{fill:url(#SVGID_00000119811912263693104420000009515234575571184046_);}
	.st102{fill:url(#SVGID_00000070815430205710004270000007810567662021169051_);}
	.st103{fill:url(#SVGID_00000050647127703340280500000009029479739659238326_);}
	.st104{fill:url(#SVGID_00000182501225850289462420000013349197305102364081_);}
	.st105{fill:url(#SVGID_00000135679235883806403400000004840391747343821494_);}
	.st106{fill:url(#SVGID_00000024000696078376319570000007831431239348755643_);}
	.st107{fill:url(#SVGID_00000142143138256386062550000002503043423456680849_);}
	.st108{fill:url(#SVGID_00000037668202354808723390000017238708470911020688_);}
	.st109{fill:url(#SVGID_00000091734076016960861720000004520722178717780876_);}
	.st110{fill:url(#SVGID_00000134933792392925597570000012026857998446409619_);}
	.st111{fill:url(#SVGID_00000072970531850981202490000006577379145633360521_);}
	.st112{fill:url(#SVGID_00000008127989467449168470000008494214415126707356_);}
	.st113{fill:url(#SVGID_00000147906221286344133000000006533722816015525258_);}
	.st114{fill:url(#SVGID_00000168108012738689513650000017597787514320790148_);}
	.st115{fill:url(#SVGID_00000036947217116207999180000007222778102441871038_);}
	.st116{fill:url(#SVGID_00000068673236670952597320000012057543559919341231_);}
	.st117{fill:url(#SVGID_00000174571536285429754630000003215331492656989079_);}
	.st118{fill:url(#SVGID_00000175296510862205912670000012158395594075643059_);}
	.st119{fill:url(#SVGID_00000045607994361091870070000005794008749423506611_);}
	.st120{fill:url(#SVGID_00000018195127139077419110000018098517636937302438_);}
	.st121{fill:url(#SVGID_00000039845002472124571380000016077208693206580655_);}
	.st122{fill:url(#SVGID_00000000937257115280752140000003285752115869127811_);}
	.st123{fill:url(#SVGID_00000098906331142203950030000010500056441464531617_);}
	.st124{fill:url(#SVGID_00000181087749267847140160000000382137456908722564_);}
	.st125{fill:url(#SVGID_00000046337822654404592700000011974097068871054269_);}
	.st126{fill:url(#SVGID_00000172411162395742461870000007292255402077166988_);}
	.st127{fill:url(#SVGID_00000083057267669964572600000008089416705976754360_);}
	.st128{fill:url(#SVGID_00000001659343307565245640000007146569917048090269_);}
	.st129{fill:url(#SVGID_00000161590420741208445710000008709874168262140811_);}
	.st130{fill:url(#SVGID_00000070119026877304689620000012523207450756265867_);}
	.st131{fill:url(#SVGID_00000016044815836712292510000007741318401199721879_);}
	.st132{fill:url(#SVGID_00000093153952195208582060000002445533895529434257_);}
	.st133{fill:url(#SVGID_00000127011596877679446280000003118411728624640939_);}
	.st134{fill:url(#SVGID_00000037691339306532087260000004195959570290681765_);}
	.st135{fill:url(#SVGID_00000016794996355612498480000002428582976921601434_);}
	.st136{fill:url(#SVGID_00000100366519789650798360000013365904289341511357_);}
	.st137{fill:url(#SVGID_00000055674545535777817650000010868666702193090196_);}
	.st138{fill:url(#SVGID_00000109716131686072070460000002875531826776919961_);}
	.st139{fill:url(#SVGID_00000122678909843863360570000011069477340534429876_);}
	.st140{fill:url(#SVGID_00000083786958508381741880000000228077569882795922_);}
	.st141{fill:url(#SVGID_00000011010260255712508280000010114459186014190780_);}
	.st142{fill:url(#SVGID_00000067954265449030047500000009207979218096854668_);}
	.st143{fill:url(#SVGID_00000134961454454983615780000006091420621567669141_);}
	.st144{fill:url(#SVGID_00000128459020582150004770000004081173092740590011_);}
	.st145{fill:url(#SVGID_00000128478763999896124320000012863410941420126848_);}
	.st146{fill:url(#SVGID_00000133513441636304340360000004554742446856240292_);}
	.st147{fill:url(#SVGID_00000120516397088133368750000000597115320858032018_);}
	.st148{fill:url(#SVGID_00000077314288179238670020000012936031369465592226_);}
	.st149{fill:url(#SVGID_00000164483053306878986770000001635435127486523296_);}
	.st150{fill:url(#SVGID_00000009576869649338655110000009864414502645478045_);}
	.st151{fill:url(#SVGID_00000043425110179660463990000013248726505584019123_);}
</style>
<g>
	<linearGradient id="SVGID_1_" gradientUnits="userSpaceOnUse" x1="-23.0475" y1="31.3745" x2="376.7137" y2="425.4044">
		<stop  offset="0" style="stop-color:#F77560"/>
		<stop  offset="1" style="stop-color:#845B77"/>
	</linearGradient>
	<path class="st0" d="M356.7,331.5c-37.2-61.8-74.5-123.5-111.8-185.2c-5.1-8.4-8.6-17.2-8.6-27c-0.1-37.9,0-22.8-0.1-60.7
		c0-2.5,0.9-3.6,3-4.8c4.4-2.3,6.7-6.1,6.8-11c0.1-6.2,0.2-12.4,0-18.5c-0.3-7.1-5.3-12.5-12.4-12.5c-22.3-0.2-44.5-0.2-66.8,0
		c-7.1,0.1-12.2,5.4-12.5,12.5c-0.2,6.2-0.1,12.4,0,18.5c0.1,4.8,2.2,8.7,6.4,10.8c3.1,1.5,3.5,3.5,3.4,6.5
		c-0.1,35.1-0.2,17.3,0.1,52.4c0.1,13.1-3.2,24.8-10,36C117.2,209.2,80.6,270.2,43.8,331c-3.8,6.2-6.3,12.8-6.5,20.1
		c-0.7,22,16.5,39.2,39.5,39.3c41,0.1,81.9,0,122.9,0c41,0,81.9,0,122.9,0c8.5,0,16.5-1.6,23.6-6.4
		C363.3,372.5,367.9,350.2,356.7,331.5z M164,39.7c0.2-4.4,0.1-8.8,0-13.2c-0.1-3.4,1.3-5.1,4.9-5c20.6,0.1,41.3,0.1,61.9,0
		c3.6,0,5,1.5,5,4.9c0,4.2-0.2,8.5,0,12.7c0.3,4.6-1.5,6.4-6.2,6.3c-9.9-0.2-19.8-0.1-29.8-0.1c-10.1,0-20.2-0.1-30.2,0
		C165.7,45.5,163.8,43.9,164,39.7z M351.8,359.5c-3.3,12.7-14.2,20.8-27.8,20.9c-42.4,0.1-84.9,0-127.3,0c-39.7,0-79.3-0.1-119,0
		c-11.5,0-20.7-4.1-26.5-14.2c-5.9-10.3-4.6-20.4,1.4-30.4c36.7-60.6,73.1-121.3,109.9-181.8c7.9-13.1,11.8-26.8,11.6-42
		c-0.3-34.3-0.1-15.7-0.1-50c0-1.9,0-3.8,0-6c17.7,0,34.6,0,51.9,0c0,2.2,0,4.1,0,6c0,35,0.1,17-0.1,52
		c-0.1,14.1,3.5,26.8,10.8,38.8c36.8,60.7,73.4,121.5,110.2,182.3C351.7,342.7,354.1,350.6,351.8,359.5z"/>
	
		<linearGradient id="SVGID_00000054983664464537945450000017936211358937482148_" gradientUnits="userSpaceOnUse" x1="-61.0338" y1="69.9133" x2="338.7274" y2="463.9431">
		<stop  offset="0" style="stop-color:#F77560"/>
		<stop  offset="1" style="stop-color:#845B77"/>
	</linearGradient>
	<path style="fill:url(#SVGID_00000054983664464537945450000017936211358937482148_);" d="M262.2,221.8c-3.3-5.4-4.9-5.8-10.7-2.8
		c-8.9,4.7-18.3,7.3-28.2,5.2c-9.3-2-18.4-5-27.5-8c-10.2-3.4-20.3-7.4-31.2-6.5c-12.5,1-23.3,4.9-30,17.3
		c-9.2,16.8-19.6,32.9-29.5,49.3c-13.6,22.5-27.2,45-40.8,67.6c-4.8,7.9-3.2,16.5,4,20.2c3,1.6,6.8,2,10.3,2
		c40.5,0.1,80.9,0.1,121.4,0.1c40.8,0,81.6,0,122.4,0c6.1,0,11.2-1.5,14.4-7.2c3.2-5.7,1.8-10.8-1.3-16
		C311,302.7,286.6,262.3,262.2,221.8z M327.5,354.3c-0.5,1.2-3.8,1.8-5.9,1.8c-80.9,0.1-161.9,0.1-242.8,0c-2.2,0-5.8-0.7-6.3-1.9
		c-0.6-1.9,0.4-4.9,1.6-6.9c22.7-37.9,45.9-75.5,68.2-113.6c6.7-11.4,16.2-15,27.6-13.4c10.1,1.5,20,5.1,29.9,8.4
		c12.9,4.3,25.8,8.3,39.5,5.3c5-1.1,9.9-2.9,15.5-4.5c9.2,15.2,18.4,30.4,27.6,45.7c14.6,24.2,29.2,48.4,43.7,72.6
		C327.4,349.6,328.2,352.6,327.5,354.3z"/>
	
		<linearGradient id="SVGID_00000128469428443099197330000007564126602597041798_" gradientUnits="userSpaceOnUse" x1="14.1059" y1="-6.3193" x2="413.8671" y2="387.7105">
		<stop  offset="0" style="stop-color:#F77560"/>
		<stop  offset="1" style="stop-color:#845B77"/>
	</linearGradient>
	<path style="fill:url(#SVGID_00000128469428443099197330000007564126602597041798_);" d="M200.2,195.6c0,10,8.2,18.3,18.3,18.5
		c10.3,0.2,18.7-8,18.8-18.4c0.1-10.4-8-18.6-18.4-18.7C208.6,177,200.2,185.3,200.2,195.6z M218.6,187.2c4.6-0.1,8.5,3.5,8.7,8.1
		c0.1,4.5-3.6,8.5-8.2,8.6c-4.7,0.1-8.4-3.4-8.5-8.1C210.4,191,213.9,187.3,218.6,187.2z"/>
	
		<linearGradient id="SVGID_00000021096071011438058790000001654018011421210552_" gradientUnits="userSpaceOnUse" x1="28.3268" y1="-20.7471" x2="428.088" y2="373.2828">
		<stop  offset="0" style="stop-color:#F77560"/>
		<stop  offset="1" style="stop-color:#845B77"/>
	</linearGradient>
	<path style="fill:url(#SVGID_00000021096071011438058790000001654018011421210552_);" d="M198.7,163.9c9.2,0,16.7-7.4,16.8-16.6
		c0.1-9.3-7.6-17-17-16.9c-9.2,0-16.7,7.4-16.8,16.6C181.6,156.3,189.3,164,198.7,163.9z M198.3,140.4c3.7-0.2,6.8,2.8,6.9,6.5
		c0.1,3.8-2.8,7.1-6.5,6.9c-3.8-0.2-6.3-2.2-6.6-6.3C191.8,143.8,194.6,140.6,198.3,140.4z"/>
	
		<linearGradient id="SVGID_00000020395994963656672570000000967286005279268784_" gradientUnits="userSpaceOnUse" x1="59.6895" y1="-52.566" x2="459.4507" y2="341.4639">
		<stop  offset="0" style="stop-color:#F77560"/>
		<stop  offset="1" style="stop-color:#845B77"/>
	</linearGradient>
	<path style="fill:url(#SVGID_00000020395994963656672570000000967286005279268784_);" d="M202.3,103c8.2-0.2,15.1-7.3,15-15.4
		c-0.1-8.3-7.1-15-15.4-14.9c-8.4,0.1-15,7-14.9,15.3C187.1,96.3,194.2,103.2,202.3,103z M202,83c2,0.2,3.8,2.3,5.7,3.5
		c0,0.8,0,1.5,0.1,2.3c-1.8,1.3-3.7,3.8-5.4,3.7c-1.8-0.1-4.5-2.4-5-4.3C196.5,85.1,198.9,82.6,202,83z"/>
	
		<linearGradient id="SVGID_00000130626252574602090260000015991707161267684486_" gradientUnits="userSpaceOnUse" x1="-39.7365" y1="48.3062" x2="360.0247" y2="442.336">
		<stop  offset="0" style="stop-color:#F77560"/>
		<stop  offset="1" style="stop-color:#845B77"/>
	</linearGradient>
	<path style="fill:url(#SVGID_00000130626252574602090260000015991707161267684486_);" d="M258.7,283.4c1.2-1.1,2.1-4.2,1.4-5.5
		c-0.8-1.6-3.5-2.9-5.3-3c-4.2-0.1-8.6,0.1-12.6,1.2c-8.5,2.4-17.4,4.5-25.1,8.6c-11.1,5.9-14.1,17.8-8.5,28.9
		c1.7,3.4,0,4.5-2.1,6.1c-2.8-4.5-5.5-8.7-8.1-13c10.5-15.9,4.8-32.7-11.4-41.5c-12.5-6.7-26-10.1-39.9-11.7c-2.3-0.3-6.1,1-6.8,2.6
		c-0.7,1.8,0.7,5.2,2.3,7c4.6,5.2,7.6,10.9,8.1,17.8c0.3,3.7,0.5,7.5,0.7,11.2c1.3,17,13.7,27.2,30,24.6c3.1-0.5,6.1-1.8,9.3-2.8
		c5.4,7.6,10.3,15.2,9.5,25c-0.3,3.7,1.1,6.7,5.2,6.7c3.9,0,4.5-3.1,5-6.5c0.7-4.1,2-8.1,3.6-11.9c1.3-3.2,3.6-4,7.4-2.6
		c9.9,3.6,20.6-0.5,25-9.4c1.7-3.6,2.8-7.7,3.2-11.6C250.3,295.8,252.4,288.8,258.7,283.4z M191,298.8c-3.4-3.7-6.7-7.1-9.9-10.6
		c-2.5-2.8-5.3-5.6-9-2.4c-3.7,3.3-1.3,6.3,1.4,9.1c3.2,3.4,6.4,6.9,10,10.8c-11.1,4.1-20.1-1.2-21.5-12.2
		c-1.2-9.1-2.4-18.2-3.6-27.6c10.5,2.4,21.7,5.2,30.5,13.6C194.2,284.4,194.8,291.5,191,298.8z M238.8,307.5
		c-1.1,5.9-7.3,9.6-13.5,7.8c2.1-4.2,9.3-7.5,3.5-12.4c-5.5-4.7-7.6,2.9-11.4,4.8c-2.3-5.4-1.1-10.3,3.7-13.8
		c6.3-4.5,13.7-6.4,21.4-7.5C241.2,293.7,240.1,300.6,238.8,307.5z"/>
	
		<linearGradient id="SVGID_00000090279996734511417040000004170811568158016657_" gradientUnits="userSpaceOnUse" x1="-95.0414" y1="104.4155" x2="304.7198" y2="498.4454">
		<stop  offset="0" style="stop-color:#F77560"/>
		<stop  offset="1" style="stop-color:#845B77"/>
	</linearGradient>
	<path style="fill:url(#SVGID_00000090279996734511417040000004170811568158016657_);" d="M127.6,305.2
		c-10.4-0.1-18.6,8.1-18.6,18.5c0,10.3,8.3,18.7,18.6,18.6c10-0.1,18.3-8.2,18.4-18.3C146.2,313.7,137.9,305.3,127.6,305.2z
		 M127.4,332.1c-4.6,0-8.3-3.8-8.3-8.4c0-4.6,3.9-8.4,8.4-8.4c4.5,0,8.3,3.9,8.3,8.5C135.7,328.4,132,332.1,127.4,332.1z"/>
	
		<linearGradient id="SVGID_00000043416524411240912530000004599737469620663701_" gradientUnits="userSpaceOnUse" x1="-22.8185" y1="31.1421" x2="376.9427" y2="425.172">
		<stop  offset="0" style="stop-color:#F77560"/>
		<stop  offset="1" style="stop-color:#845B77"/>
	</linearGradient>
	<path style="fill:url(#SVGID_00000043416524411240912530000004599737469620663701_);" d="M273.9,306.9c-9.3,0-16.6,7.4-16.7,16.6
		c-0.1,9.4,7.5,17,17,16.9c9.3,0,16.6-7.4,16.7-16.7C290.9,314.4,283.4,306.9,273.9,306.9z M273.7,330.5c-3.6-0.2-6.7-3.5-6.3-7.1
		c0.4-4,2.7-6.1,6.6-6.3c3.7-0.2,6.8,3.2,6.7,6.8C280.6,327.5,277.3,330.6,273.7,330.5z"/>
</g>
</svg>
