<?xml version="1.0" encoding="utf-8"?>
<!-- Generator: Adobe Illustrator 26.3.1, SVG Export Plug-In . SVG Version: 6.00 Build 0)  -->
<svg version="1.1" id="Layer_1" xmlns="http://www.w3.org/2000/svg" xmlns:xlink="http://www.w3.org/1999/xlink" x="0px" y="0px"
	 viewBox="0 0 400 400" style="enable-background:new 0 0 400 400;" xml:space="preserve">
<style type="text/css">
	.st0{fill:url(#SVGID_1_);}
	.st1{fill:none;stroke:url(#SVGID_00000113342469735166989980000005308879256105269160_);stroke-miterlimit:10;}
	.st2{fill:none;stroke:url(#SVGID_00000028282693694650246790000007910140476525370498_);stroke-miterlimit:10;}
	.st3{fill:url(#SVGID_00000016778288281265622270000002682296199954528951_);}
	.st4{fill:url(#SVGID_00000170960215513515664110000001957402412982005684_);}
	.st5{fill:url(#SVGID_00000100373522435347725590000003697737169259915965_);}
	.st6{fill:url(#SVGID_00000122715516471032918850000011869203569710868366_);}
	.st7{fill:url(#SVGID_00000061460751095538187980000001881867528017352065_);}
	.st8{fill:url(#SVGID_00000066494356662587660900000000739507488309979788_);}
	.st9{fill:url(#SVGID_00000108993432008280761400000004127791350354932158_);}
	.st10{fill:url(#SVGID_00000172407076429250823270000014567737476516619158_);}
	.st11{fill:url(#SVGID_00000026137786319281846990000010138976312016277687_);}
	.st12{fill:url(#SVGID_00000179610220522677394460000006630670759661149872_);}
	.st13{fill:url(#SVGID_00000005989648507334566100000010209828204609510823_);}
	.st14{fill:url(#SVGID_00000170268577045742164840000006315662232022114704_);}
	.st15{fill:url(#SVGID_00000127766700183101270270000003224927050699726775_);}
	.st16{fill:url(#SVGID_00000042715863448273348780000001360114690879560636_);}
	.st17{fill:url(#SVGID_00000047746454476048862020000006996624895432480391_);}
	.st18{fill:url(#SVGID_00000106863507542462076540000013526640560690357674_);}
	.st19{fill:url(#SVGID_00000077289732592741357010000008423916352566112401_);}
	.st20{fill:url(#SVGID_00000035506929605951002080000001277628167439306907_);}
	.st21{fill:url(#SVGID_00000170251116779092748910000014286936708553094044_);}
	.st22{fill:url(#SVGID_00000176041116105660148620000007515298047529493414_);}
	.st23{fill:url(#SVGID_00000088113023232471319180000014452787617669533100_);}
	.st24{fill:url(#SVGID_00000035491036298800104120000011716785508577303213_);}
	.st25{fill:url(#SVGID_00000050662721129963333440000008071785889190596031_);}
	.st26{fill:url(#SVGID_00000034067631233659218340000016623662315596733569_);}
	.st27{fill:url(#SVGID_00000049183531413596919230000006343143935102651313_);}
	.st28{fill:url(#SVGID_00000117654114490742669480000016804233180588236702_);}
	.st29{fill:url(#SVGID_00000158748442803539869750000004919483256811672482_);}
	.st30{fill:url(#SVGID_00000074443651156545028670000008891707285707370403_);}
	.st31{fill:url(#SVGID_00000168081714443682010830000000702526347785221805_);}
	.st32{fill:url(#SVGID_00000080927034145793938800000001777752299367318145_);}
	.st33{fill:url(#SVGID_00000101084426181420803620000015317134586895644290_);}
	.st34{fill:url(#SVGID_00000111192215764310873560000009382285407208259002_);}
	.st35{fill:url(#SVGID_00000108994490561399002450000005451459949163713682_);}
	.st36{fill:url(#SVGID_00000119832329065835414710000018107088583036478103_);}
	.st37{fill:url(#SVGID_00000121997420842912412930000005821024015903830458_);}
	.st38{fill:url(#SVGID_00000175303354945984443210000010582935389174590394_);}
	.st39{fill:url(#SVGID_00000138533758800753214330000011903111462469963160_);}
	.st40{fill:url(#SVGID_00000094599375679496603970000009882679495118628268_);}
	.st41{fill:url(#SVGID_00000046299698057083829730000007368293903278066573_);}
	.st42{fill:url(#SVGID_00000065758961353355305190000009104369629149846664_);}
	.st43{fill:url(#SVGID_00000047758183671109393760000009163227279912256656_);}
	.st44{fill:url(#SVGID_00000091737357167717350690000011066409466720221106_);}
	.st45{fill:url(#SVGID_00000057843399281080221880000015969399196325844353_);}
	.st46{fill:url(#SVGID_00000130647659634940327600000007752392631318375302_);}
	.st47{fill:url(#SVGID_00000012463942621657758630000011283204763990979469_);}
	.st48{fill:url(#SVGID_00000179616950889107169450000006596091192950016175_);}
	.st49{fill:url(#SVGID_00000041255678149316233770000017949029868193501863_);}
	.st50{fill:url(#SVGID_00000035532015241764032030000003949779321855213456_);}
	.st51{fill:url(#SVGID_00000100369347067123368590000010826282716457936773_);}
	.st52{fill:url(#SVGID_00000176043061927128019530000011353551571939277957_);}
	.st53{fill:url(#SVGID_00000103950697347999649210000006177574416881804709_);}
	.st54{fill:url(#SVGID_00000106116194543908674800000001588895818677421966_);}
	.st55{fill:url(#SVGID_00000005965728336395392710000006453903637625414279_);}
	.st56{fill:url(#SVGID_00000072255186416570111710000005724190495139805372_);}
	.st57{fill:url(#SVGID_00000006706768666612522720000016296135630281314440_);}
	.st58{fill:url(#SVGID_00000114753917597564135100000014302219909416603305_);}
	.st59{fill:url(#SVGID_00000134220083593737206680000002635327883447520906_);}
	.st60{fill:url(#SVGID_00000118370907334814036390000002699761606879584676_);}
	.st61{fill:url(#SVGID_00000086664824847725012090000001460908601057855110_);}
	.st62{fill:url(#SVGID_00000103237980746078847850000001636085805351913107_);}
	.st63{fill:url(#SVGID_00000018195232406931570250000009585338075947423139_);}
	.st64{fill:url(#SVGID_00000124160017976987200810000014652628510158486403_);}
	.st65{fill:url(#SVGID_00000164490038415277500990000011909847271954049673_);}
	.st66{fill:url(#SVGID_00000024723281555356159280000015330308644026639001_);}
	.st67{fill:url(#SVGID_00000099663123617762921800000006958637099872917170_);}
	.st68{fill:url(#SVGID_00000072972261045254032130000003855006593515502246_);}
	.st69{fill:url(#SVGID_00000025432955555801712290000006654950751886626977_);}
	.st70{fill:url(#SVGID_00000146478965399104153410000007520233122835181955_);}
	.st71{fill:url(#SVGID_00000004511450801547280040000010970763177706594960_);}
	.st72{fill:url(#SVGID_00000155831436789870891620000005496492164865603486_);}
	.st73{fill:url(#SVGID_00000070085491961651665970000010182880651756346010_);}
	.st74{fill:url(#SVGID_00000067933483782722554920000007181062754084495254_);}
	.st75{fill:url(#SVGID_00000136393489476835100330000013318792446809708932_);}
	.st76{fill:url(#SVGID_00000054977055062826692440000006286077278431332747_);}
	.st77{fill:url(#SVGID_00000018199857927666776030000015611381900715837313_);}
	.st78{fill:url(#SVGID_00000145757545045961634730000014119038753150258061_);}
	.st79{fill:url(#SVGID_00000049211871592529814450000013984854556207411620_);}
	.st80{fill:url(#SVGID_00000070107788995552057820000018200446531562913185_);}
	.st81{fill:url(#SVGID_00000061437200707745497710000007031044645380096936_);}
	.st82{fill:url(#SVGID_00000075124916905632024990000016351032636729477813_);}
	.st83{fill:url(#SVGID_00000084512134968093620480000002640972572383286925_);}
	.st84{fill:url(#SVGID_00000132794805856852961030000006486637300231940255_);}
	.st85{fill:url(#SVGID_00000100359092341715180260000007569989310174418346_);}
	.st86{fill:url(#SVGID_00000135657171577340467360000016267313844952146097_);}
	.st87{fill:url(#SVGID_00000178916605469046989530000004813806950331598508_);}
	.st88{fill:url(#SVGID_00000049215396751446626290000012265542832962643852_);}
	.st89{fill:url(#SVGID_00000068661714592651712240000017906108751326771130_);}
	.st90{fill:url(#SVGID_00000071545470239551630030000000221594684886081713_);}
	.st91{fill:url(#SVGID_00000145030910606763847150000017706092149000673157_);}
	.st92{fill:url(#SVGID_00000093866112838887545890000007746036886040097978_);}
	.st93{fill:url(#SVGID_00000003812178859969801400000013417285641074593439_);}
	.st94{fill:url(#SVGID_00000106107881370190765830000012098893427812346533_);}
	.st95{fill:url(#SVGID_00000178914296098800472100000006281075446337393049_);}
	.st96{fill:url(#SVGID_00000163782730347947399490000014314492945301517469_);}
	.st97{fill:url(#SVGID_00000130629452098660229070000012356065631628662712_);}
	.st98{fill:url(#SVGID_00000183220230110477196180000004342807192505937068_);}
	.st99{fill:url(#SVGID_00000072282325267653087440000012715236166462193076_);}
	.st100{fill:url(#SVGID_00000163791633147185704090000004603201847008116151_);}
	.st101{fill:url(#SVGID_00000052071668932299609260000010270665116656825760_);}
	.st102{fill:url(#SVGID_00000067221295623451534600000016555352233755436431_);}
	.st103{fill:url(#SVGID_00000005962549817781757060000013167879545218000526_);}
	.st104{fill:url(#SVGID_00000171697482550581963320000014444331899711267474_);}
	.st105{fill:url(#SVGID_00000085967738100287532920000012871715828184064902_);}
	.st106{fill:url(#SVGID_00000036223378962294903780000015468720744568715659_);}
	.st107{fill:url(#SVGID_00000143575786197770505330000011266298651088015016_);}
	.st108{fill:url(#SVGID_00000140715112483909402390000005068910252690227361_);}
	.st109{fill:url(#SVGID_00000063604413074745207770000013598226899648610988_);}
	.st110{fill:url(#SVGID_00000094609835132485856010000005607092667052198835_);}
	.st111{fill:url(#SVGID_00000181063453527874589230000011008387675366344593_);}
	.st112{fill:url(#SVGID_00000173849601894783020650000001865874087946832770_);}
	.st113{fill:url(#SVGID_00000063611793377095295150000002638170205877179826_);}
</style>
<g>
	<linearGradient id="SVGID_1_" gradientUnits="userSpaceOnUse" x1="2.3613" y1="-1.5392" x2="384.9284" y2="361.6847">
		<stop  offset="0" style="stop-color:#F77560"/>
		<stop  offset="1" style="stop-color:#845B77"/>
	</linearGradient>
	<path class="st0" d="M12.4,40c0.4-1.1,0.7-2.3,1.1-3.4c3.2-9.8,12-16.5,22.2-16.8c9.8-0.3,19.1,5.7,22.6,15.1
		c1.1,2.9,2.5,3.5,5.2,3.4c8.3-0.2,16.7,0,25-0.1c2.8,0,5,0.8,7.1,2.8c18.5,18.6,37,37.1,55.6,55.6c0.4,0.4,0.9,0.8,1.2,1.3
		c2.1,2.6,2.1,5.7-0.1,7.8c-2.2,2-5.1,2.1-7.5-0.1c-2.7-2.4-5.2-5.1-7.7-7.6C121.5,82.6,106,67,90.4,51.6c-1.3-1.3-3.5-2.2-5.3-2.2
		c-7.6-0.2-15.2-0.1-22.8-0.1c-1.7,0-2.8,0.2-3.5,2.1c-4.3,10.9-13.1,16.7-24,16.2C24.4,67,16.4,60.1,13,48.8
		c-0.1-0.3-0.4-0.6-0.6-0.9C12.4,45.3,12.4,42.7,12.4,40z M36.1,56.7c7,0.1,13-5.6,13.1-12.7c0.2-7.1-5.9-13.3-13-13.2
		c-7,0-12.9,5.9-12.9,12.9C23.3,50.7,29,56.6,36.1,56.7z"/>
	
		<linearGradient id="SVGID_00000078745046314556335510000010036005770648130963_" gradientUnits="userSpaceOnUse" x1="13.6794" y1="-13.4601" x2="396.2466" y2="349.7638">
		<stop  offset="0" style="stop-color:#F77560"/>
		<stop  offset="1" style="stop-color:#845B77"/>
	</linearGradient>
	<path style="fill:url(#SVGID_00000078745046314556335510000010036005770648130963_);" d="M27.2,266.6c10,5.8,19.5,11.4,29.1,17
		c12.7,7.4,25.4,14.9,38.2,22.1c1.3,0.7,3.6,0.9,4.8,0.3c28.8-16.2,57.6-32.5,86.3-48.8c0.3-0.2,0.6-0.4,1.1-0.9
		c-1.3-0.8-2.5-1.6-3.7-2.3c-21.3-12.1-42.6-24.2-63.9-36.3c-2.1-1.2-3.8-1.3-5.9,0c-4.8,3-9.8,5.8-14.8,8.4
		c-2.2,1.1-2.8,2.5-2.7,4.8c0.1,12.6,0.1,25.1,0,37.7c0,3.7-2.2,6-5.3,6.1c-3.1,0.1-5.4-2.3-5.6-5.9c0-0.8,0-1.7,0-2.5
		c0-9.4,0-18.8,0-28.3c0-1.2,0-2.3,0-4.1c-5.5,3.1-10.4,5.8-15.3,8.6c-2.6,1.5-5.1,1.5-7.3-0.7c-2.6-2.7-1.8-6.6,1.9-8.8
		c5.9-3.5,11.9-6.9,18-10.1c2-1.1,2.7-2.2,2.7-4.5c-0.2-5.5-0.1-11.1-0.1-17.3c-3,0-5.9,0.1-8.7,0c-15.4-0.6-27.9-12.5-29.1-27.9
		c-0.3-3.8-0.4-7.7-0.1-11.6c0.4-5.6,4.2-9.1,9.7-9.3c8.9-0.3,17.7-0.5,25.4,5c1.8,1.3,3.6,2.8,5.6,4.3
		c6.9-12.4,18.5-13.5,30.8-12.3c4.4,0.4,8,3.9,8.3,8.3c0.3,3.9,0.4,8-0.3,11.9c-1.9,11.2-10.7,18.7-22.1,19.3c-2.7,0.1-5.5,0-8.3,0
		c-0.1,1.1-0.2,1.7-0.2,2.3c0,7.7,0,15.4,0,23.8c1.4-0.7,2.4-1.2,3.4-1.8c30-17,60-34.1,90.1-51c2.2-1.2,3.1-2.5,3-5
		c-0.2-6.2-0.1-12.5-0.1-19.1c-3,0-5.7,0.1-8.3,0c-9.1-0.3-16.2-6.9-17.4-15.9c-0.1-0.6-0.2-1.2-0.2-1.8
		c-0.9-11.3,2.6-16.6,15.2-16.4c9.5,0.2,16.7,3.2,20.3,11.1c6.1-0.3,11.6-0.9,17-0.8c6.3,0.1,10.2,4.5,10.2,10.8c0,3.4,0,6.8-0.8,10
		c-1.9,7.6-8.9,12.8-16.8,13c-2.6,0.1-5.3,0-8.3,0c0,3.7-0.1,7.1,0.1,10.4c0,0.7,0.9,1.7,1.6,2.1c27.4,15.6,54.8,31.1,82.2,46.6
		c0.2,0.1,0.4,0,0.9,0.1c0-20.8,0-41.6,0-62.9c-4.8,0-9.4,0.1-14.1,0c-16.2-0.4-28.8-7.2-37.2-21.2c-3.5-5.9-5.4-12.4-5.5-19.3
		c-0.1-4.7-0.1-9.4,0-14.1c0.1-4.8,3-8.4,7.6-8.5c8.7-0.2,17.4-0.3,26,0.6c8,0.8,14.8,4.9,20.8,10.3c0.8,0.7,1.6,1.4,2.7,2.4
		c1.2-12.4,5.4-23.1,13.2-32.3c11.1-13,25.3-19.8,42.4-20.2c7.2-0.2,14.5-0.1,21.7,0c6.9,0.1,10.3,3.7,10.6,10.6
		c0.5,13.6-1,26.8-8.7,38.6c-1,1.5-2,3-3.1,4.5c-2.1,2.7-5.1,3.3-7.6,1.6c-2.7-1.8-3.3-5-1.1-7.9c4.1-5.7,7.4-11.7,8.5-18.6
		c0.9-5.7,1-11.4,1.6-17.7c-15.9,0.4-31.5-2.4-45.3,7c-13.2,8.9-20.6,21.1-21.2,37.1c-0.1,2.8,0,5.6,0,8.3c0,0.3,0.2,0.7,0.3,1.4
		c12.9-0.5,26,1.8,38.4-3.8c3.7-1.7,6.6-0.6,7.9,2.5c1.3,3,0,5.9-3.7,7.5c-6.9,3-14.2,4.7-21.8,4.7c-7.1,0-14.2,0-21.4,0
		c0,12.9,0,25.4,0,37.5c4.9-1.5,9.6-3.7,14.5-4.3c5.7-0.8,11.6-0.5,17.4-0.3c5.1,0.2,8.9,3.6,9.5,8.4c1,9.2,0.2,18.1-6,25.7
		c-5.4,6.6-12.4,10.3-21,10.5c-4.6,0.1-9.1,0-14.2,0c0,6.1-0.1,11.9,0.1,17.6c0,0.9,1.5,2,2.5,2.6c24.3,13.8,48.7,27.6,73.1,41.4
		c1.6,0.9,3.2,1.7,4.7,2.8c5.1,3.5,5.3,10.3,0,13.6c-8.2,5.1-16.6,9.9-25,14.6c-3,1.7-5.9,0.8-7.5-1.9c-1.5-2.6-0.8-5.7,2.2-7.5
		c5.5-3.3,11-6.5,16.6-9.7c1.1-0.7,2.2-1.4,3.7-2.3c-23.5-13.3-46.6-26.4-70.4-39.9c0,6.3,0,12,0,17.6c0,5.4,0.1,10.9,0,16.3
		c-0.1,4.2-2.2,6.6-5.7,6.5c-3.3-0.1-5.2-2.3-5.2-6.5c0-12.4,0-24.9,0-37.3c0-3.8-6.7-7.9-9.9-6c-22.5,12.7-44.9,25.5-67.4,38.2
		c-0.4,0.2-0.8,0.6-1.5,1c1.9,1.1,3.6,2.2,5.3,3.1c27.3,15.5,54.6,30.9,81.9,46.5c2,1.2,3.5,1.2,5.5,0c7.8-4.7,15.8-9.3,23.8-13.9
		c3.7-2.2,6.8-1.7,8.6,1.1c1.8,3,0.7,6.1-3.1,8.3c-42.6,24.8-85.3,49.7-128,74.5c-3.5,2-6.7,2-10.2,0
		c-58.3-34-116.6-67.9-174.9-101.9c-7-4.1-6.9-11.2,0.2-15.3c7.2-4.1,14.5-8.2,21.7-12.3c3.8-2.1,6.8-1.6,8.5,1.4
		c1.7,2.9,0.5,6-3.1,8.1C39.8,259.4,33.7,262.9,27.2,266.6z M288.4,313.9c-0.9-0.6-1.3-0.9-1.7-1.2c-28.8-16.3-57.5-32.6-86.2-48.9
		c-2.1-1.2-3.5-0.6-5.2,0.4c-26,14.8-52,29.5-78.1,44.3c-2.9,1.7-5.8,3.4-8.9,5.2c0.9,0.6,1.4,1,2,1.4c28.7,16.7,57.3,33.4,86,50.2
		c2,1.2,3.3,0.6,4.9-0.4c22.3-13,44.6-26,66.9-39C274.7,321.9,281.4,318,288.4,313.9z M203.2,172.1c0,2.1,0,3.4,0,4.7
		c0,10.7,0,21.5,0,32.2c0,3.7-2.1,6.1-5.2,6.2c-3.2,0.1-5.6-2.4-5.6-6.2c-0.1-6,0-12.1,0-18.1c0-5.8,0-11.5,0-18
		c-21.9,12.4-43.2,24.5-64.8,36.7c0.7,0.5,0.9,0.8,1.2,0.9c22.5,12.7,44.9,25.5,67.3,38.3c2,1.1,3.3,0.5,4.9-0.4
		c21.8-12.4,43.6-24.8,65.5-37.2c0.8-0.4,1.5-1,2.7-1.8C247.2,197,225.6,184.8,203.2,172.1z M242.1,92.4c0,3.5-0.1,7,0,10.5
		c0.3,14.1,9.7,26.3,23.6,29.2c6.6,1.4,13.7,0.9,20.5,1.1c0.7,0,1.9-1.6,2-2.5c0.1-3.6,0.1-7.3-0.2-10.8
		c-1.3-13.7-11.2-25.1-24.6-27.2C256.6,91.5,249.5,92.4,242.1,92.4z M299.7,184.4c3.6,0,7.3,0,11,0c13.2,0,21-9.5,18.6-23
		c-3.5,0-7.1,0-10.7,0C305,161.3,297.5,170.3,299.7,184.4z M84.5,189.8c2.7-18.1-8.9-29.7-26.4-26.3C55,181.1,66.6,192.8,84.5,189.8
		z M96.1,177.6c14.5,2,22.7-5.5,19.4-17.4C101,158.6,94.7,164.2,96.1,177.6z M203.4,136.8c11.9,1.7,16.2-1.7,14.5-11.4
		C206.7,123.5,202.6,126.7,203.4,136.8z M192,126.8c1.5-10-3.1-13.2-14.3-11.3C176.1,124,179.2,128.5,192,126.8z"/>
	
		<linearGradient id="SVGID_00000023253548481958665470000001036878155930877569_" gradientUnits="userSpaceOnUse" x1="-25.0635" y1="27.3461" x2="357.5036" y2="390.57">
		<stop  offset="0" style="stop-color:#F77560"/>
		<stop  offset="1" style="stop-color:#845B77"/>
	</linearGradient>
	<path style="fill:url(#SVGID_00000023253548481958665470000001036878155930877569_);" d="M59.5,112.9c-9.5,0-19.1,0-28.6,0
		c-1.3,0-2.7,0-4-0.3c-2.7-0.6-4.1-2.6-4.1-5.2c0-2.7,1.5-4.6,4.2-5.1c1.2-0.2,2.4-0.3,3.6-0.3c19.1,0,38.1,0,57.2,0
		c0.8,0,1.7,0,2.5,0.1c3.3,0.4,5.3,2.4,5.3,5.3c0.1,3.1-2,5.2-5.5,5.5c-1.1,0.1-2.2,0.1-3.3,0.1C77.9,112.9,68.7,112.9,59.5,112.9z"
		/>
	
		<linearGradient id="SVGID_00000039824336328510624040000015390772874800517527_" gradientUnits="userSpaceOnUse" x1="-36.3509" y1="39.2345" x2="346.2163" y2="402.4584">
		<stop  offset="0" style="stop-color:#F77560"/>
		<stop  offset="1" style="stop-color:#845B77"/>
	</linearGradient>
	<path style="fill:url(#SVGID_00000039824336328510624040000015390772874800517527_);" d="M59.4,124.7c9.9,0,19.8,0,29.7,0
		c4.3,0,6.7,1.9,6.7,5.3c0,3.4-2.4,5.5-6.6,5.6c-19.9,0-39.8,0-59.8,0c-4.1,0-6.7-2.3-6.6-5.6c0.1-3.2,2.4-5.2,6.5-5.2
		C39.3,124.7,49.3,124.7,59.4,124.7z"/>
	
		<linearGradient id="SVGID_00000080927993069283082750000001221104013961349022_" gradientUnits="userSpaceOnUse" x1="-6.0407" y1="7.3102" x2="376.5265" y2="370.5341">
		<stop  offset="0" style="stop-color:#F77560"/>
		<stop  offset="1" style="stop-color:#845B77"/>
	</linearGradient>
	<path style="fill:url(#SVGID_00000080927993069283082750000001221104013961349022_);" d="M75.6,90.2c-4.8,0-9.6,0.1-14.5,0
		c-3.7-0.1-6-2.2-6-5.4c0-3.1,2.3-5.4,5.9-5.5c9.6-0.1,19.3-0.1,28.9,0c3.6,0,5.8,2.4,5.8,5.6c-0.1,3.2-2.3,5.2-6.1,5.2
		C85,90.2,80.3,90.2,75.6,90.2z"/>
	
		<linearGradient id="SVGID_00000018231001762074929010000005654128356265122483_" gradientUnits="userSpaceOnUse" x1="-25.4253" y1="27.7271" x2="357.1419" y2="390.951">
		<stop  offset="0" style="stop-color:#F77560"/>
		<stop  offset="1" style="stop-color:#845B77"/>
	</linearGradient>
	<path style="fill:url(#SVGID_00000018231001762074929010000005654128356265122483_);" d="M34.6,90.1c-2.2,0-4.3,0.1-6.5,0
		c-3.1-0.1-5-2-5.2-5c-0.3-3.1,1.5-5.4,4.4-5.6c4.8-0.4,9.7-0.4,14.4,0c3,0.2,4.7,2.5,4.5,5.6c-0.2,3-2,4.9-5.2,5
		C39,90.2,36.8,90.1,34.6,90.1z"/>
	
		<linearGradient id="SVGID_00000154416919929269767240000008988293197618532996_" gradientUnits="userSpaceOnUse" x1="-60.1456" y1="64.2964" x2="322.4216" y2="427.5203">
		<stop  offset="0" style="stop-color:#F77560"/>
		<stop  offset="1" style="stop-color:#845B77"/>
	</linearGradient>
	<path style="fill:url(#SVGID_00000154416919929269767240000008988293197618532996_);" d="M192.3,326.3c-2.7,0-5.1,0-7.5,0
		c-9.9-0.2-17.4-7-18.3-16.9c-0.2-1.7-0.2-3.4-0.1-5.1c0.1-8,4.1-11.9,12.1-12c11.9-0.1,13,0.2,20.8,6.3c6.3-4.6,13.5-3.6,20.6-3.1
		c3.2,0.2,5.9,2.3,6.7,5.4c3,11.8-1.5,23.5-14.8,25.3c-2.6,0.4-5.3,0.1-8.5,0.1c0,3.9,0,7.6,0,11.3c0,4.2-2.1,6.7-5.4,6.7
		c-3.3,0-5.4-2.6-5.5-6.8C192.3,333.9,192.3,330.3,192.3,326.3z M177.8,303.6c-2,9.4,2.6,13.2,14.1,11.5
		C193.7,305.4,189.4,301.9,177.8,303.6z M203.6,315c9.7,1.9,14.2-1.9,12.3-8.5C207,304.9,202.1,307.8,203.6,315z"/>
</g>
</svg>
