<?xml version="1.0" encoding="utf-8"?>
<!-- Generator: Adobe Illustrator 26.3.1, SVG Export Plug-In . SVG Version: 6.00 Build 0)  -->
<svg version="1.1" id="Layer_1" xmlns="http://www.w3.org/2000/svg" xmlns:xlink="http://www.w3.org/1999/xlink" x="0px" y="0px"
	 viewBox="0 0 400 400" style="enable-background:new 0 0 400 400;" xml:space="preserve">
<style type="text/css">
	.st0{fill:url(#SVGID_1_);}
	.st1{fill:none;stroke:url(#SVGID_00000094602184768834258200000016927556555996485789_);stroke-miterlimit:10;}
	.st2{fill:none;stroke:url(#SVGID_00000150089234247545800170000005122438065322171526_);stroke-miterlimit:10;}
	.st3{fill:url(#SVGID_00000090269457671730663730000010279162207244158118_);}
	.st4{fill:url(#SVGID_00000038411225664157881150000008185836826487552673_);}
	.st5{fill:url(#SVGID_00000091727609983615742090000003817185520910046592_);}
	.st6{fill:url(#SVGID_00000155119814185515051690000006309014327896568717_);}
	.st7{fill:url(#SVGID_00000026123532341535685240000007566356974327545730_);}
	.st8{fill:url(#SVGID_00000080894605473879993340000009417259227481056689_);}
	.st9{fill:url(#SVGID_00000016775191037956940270000007585240144376923808_);}
	.st10{fill:url(#SVGID_00000027581166589000278140000009078611128224641466_);}
	.st11{fill:url(#SVGID_00000038397599360750350250000006884673096539014825_);}
	.st12{fill:url(#SVGID_00000183958336830337296490000017117979227094252440_);}
	.st13{fill:url(#SVGID_00000060718724811464856010000015802795483557602995_);}
	.st14{fill:url(#SVGID_00000183930535287519216560000001250889548197077419_);}
	.st15{fill:url(#SVGID_00000100376482134802687570000004469157100533860481_);}
	.st16{fill:url(#SVGID_00000183968299895306609160000006817318698188024212_);}
	.st17{fill:url(#SVGID_00000074404416498117023210000007946641198893807292_);}
	.st18{fill:url(#SVGID_00000043454071365160572020000002868381666124538533_);}
	.st19{fill:url(#SVGID_00000023260341380916549310000004066937731657038223_);}
	.st20{fill:url(#SVGID_00000111158022371160028860000012541371789279113116_);}
	.st21{fill:url(#SVGID_00000008136001676260982180000010188639120005597625_);}
	.st22{fill:url(#SVGID_00000036235792323266231150000003882178492919371655_);}
	.st23{fill:url(#SVGID_00000012440579129642095160000015768616988889613980_);}
	.st24{fill:url(#SVGID_00000138554267488568028130000005796955960461517738_);}
	.st25{fill:url(#SVGID_00000043433085362445206730000017177199159039219886_);}
	.st26{fill:url(#SVGID_00000143586107540302267410000002847302015905414036_);}
	.st27{fill:url(#SVGID_00000129920974018550830720000007346356701312375985_);}
	.st28{fill:url(#SVGID_00000077294218054613059080000011627218780568415674_);}
	.st29{fill:url(#SVGID_00000110467745395955500830000007240394814279675283_);}
	.st30{fill:url(#SVGID_00000177463139341894167520000004367704383692658863_);}
	.st31{fill:url(#SVGID_00000034077936460502470760000007360423072869142449_);}
	.st32{fill:url(#SVGID_00000070116461599013947250000000607719168383870084_);}
	.st33{fill:url(#SVGID_00000183206602534230981570000018338006941226979251_);}
	.st34{fill:url(#SVGID_00000054227953748741447210000015470751640231984559_);}
	.st35{fill:url(#SVGID_00000086661383527263122160000001785643222651463100_);}
	.st36{fill:url(#SVGID_00000160892408678017030250000006070332613907856268_);}
	.st37{fill:url(#SVGID_00000098189317465618457610000011577578099905358237_);}
	.st38{fill:url(#SVGID_00000082349274842168636410000002945937245327891603_);}
	.st39{fill:url(#SVGID_00000161614626372054742880000004193692947829510838_);}
	.st40{fill:url(#SVGID_00000154425103187418348310000006288399644429266348_);}
	.st41{fill:url(#SVGID_00000134957794160055510800000009093793169993363856_);}
	.st42{fill:url(#SVGID_00000173850258046227423960000004387982112994705077_);}
	.st43{fill:url(#SVGID_00000080911147732531780390000011812118700441213881_);}
	.st44{fill:url(#SVGID_00000127009787113911102720000012944668261572164019_);}
	.st45{fill:url(#SVGID_00000097497257819374753450000000804060730983458203_);}
	.st46{fill:url(#SVGID_00000173147929960708237610000015199761437749278390_);}
	.st47{fill:url(#SVGID_00000060741858274360236360000008944819416885112468_);}
	.st48{fill:url(#SVGID_00000039832054207726389940000006105074540575202179_);}
	.st49{fill:url(#SVGID_00000034777168995636827530000001393739580136637092_);}
	.st50{fill:url(#SVGID_00000008851520416761989580000013236687085243065023_);}
	.st51{fill:url(#SVGID_00000091006961703622444230000017151045609107801743_);}
	.st52{fill:url(#SVGID_00000041997917873929601720000008109840579753422232_);}
	.st53{fill:url(#SVGID_00000049186838145163270320000011464554794025436332_);}
	.st54{fill:url(#SVGID_00000047055726698452124930000000954365053768074929_);}
	.st55{fill:url(#SVGID_00000137126534130655976750000004648700598467935156_);}
	.st56{fill:url(#SVGID_00000003804372457819979830000001195927433795601312_);}
	.st57{fill:url(#SVGID_00000134237876952028034780000002111912578129842860_);}
	.st58{fill:url(#SVGID_00000072972954585011409650000004229617226455497639_);}
	.st59{fill:url(#SVGID_00000137811478317743588290000002894011272497175201_);}
	.st60{fill:url(#SVGID_00000170965349963455321520000012475491012341229228_);}
	.st61{fill:url(#SVGID_00000183971865762986743930000012258831917028892595_);}
	.st62{fill:url(#SVGID_00000156551678437983473650000015608445988266960547_);}
	.st63{fill:url(#SVGID_00000144315186167975789300000002793677996546327170_);}
	.st64{fill:url(#SVGID_00000134969181739262512800000008518989810500699781_);}
	.st65{fill:url(#SVGID_00000022539300206868143150000000182963090034397112_);}
	.st66{fill:url(#SVGID_00000071560578744282854540000004958694304042196358_);}
	.st67{fill:url(#SVGID_00000112592196276812900410000005728787870678868638_);}
	.st68{fill:url(#SVGID_00000128449240298767223820000002727227731473283742_);}
	.st69{fill:url(#SVGID_00000151516148497442074480000006043442040150023582_);}
	.st70{fill:url(#SVGID_00000043431534334742694330000002167103420408015514_);}
	.st71{fill:url(#SVGID_00000097469512270789339200000007078470797286271112_);}
	.st72{fill:url(#SVGID_00000093882574700877880300000001839081217498879143_);}
	.st73{fill:url(#SVGID_00000003063681148034779580000016062367775006325417_);}
	.st74{fill:url(#SVGID_00000183248613103176333860000005250931171355804320_);}
	.st75{fill:url(#SVGID_00000166647100435458741700000002990186002093050508_);}
	.st76{fill:url(#SVGID_00000011743272958984327690000014911868163725072822_);}
	.st77{fill:url(#SVGID_00000064356287420542043840000002174228772029865865_);}
	.st78{fill:url(#SVGID_00000007393748232747195690000007137959204877557162_);}
	.st79{fill:url(#SVGID_00000067935015784832555160000016543520960701453699_);}
	.st80{fill:url(#SVGID_00000132076016581321710580000008753642556517259184_);}
	.st81{fill:url(#SVGID_00000096030867238831535610000012850526203523989632_);}
	.st82{fill:url(#SVGID_00000156545481717018714130000017850348865727175602_);}
	.st83{fill:url(#SVGID_00000115512215171855943540000007466044506144062905_);}
	.st84{fill:url(#SVGID_00000153674735156559422670000012333765845785213836_);}
	.st85{fill:url(#SVGID_00000014627056414389155730000008650744852263999638_);}
	.st86{fill:url(#SVGID_00000100346251675698503180000007583729969064803977_);}
	.st87{fill:url(#SVGID_00000137116882379135849910000014720075093874004921_);}
	.st88{fill:url(#SVGID_00000084523995995118647320000016571273074462996111_);}
	.st89{fill:url(#SVGID_00000104684599531767914420000008336627690655906951_);}
	.st90{fill:url(#SVGID_00000123421994843207321960000004278997924727563920_);}
	.st91{fill:url(#SVGID_00000053515546492387488560000002979742663846685883_);}
	.st92{fill:url(#SVGID_00000004508375058789749250000001846578028282270859_);}
	.st93{fill:url(#SVGID_00000110437220666697836840000016512834030462028705_);}
	.st94{fill:url(#SVGID_00000029755059814446157010000015352834623011520433_);}
	.st95{fill:url(#SVGID_00000078745027251883684420000016716168784502265474_);}
	.st96{fill:url(#SVGID_00000085241640130232816100000013014640228112506527_);}
	.st97{fill:url(#SVGID_00000047044932912485901690000016277794455555798969_);}
	.st98{fill:url(#SVGID_00000005246088643624672220000004369871150181465783_);}
	.st99{fill:url(#SVGID_00000160154560303595552810000012368373421768134060_);}
	.st100{fill:url(#SVGID_00000012449744050037065260000000729608687183884183_);}
	.st101{fill:url(#SVGID_00000126303710141412815200000011163856637951781306_);}
	.st102{fill:url(#SVGID_00000009570505514264598930000017656733143359712654_);}
	.st103{fill:url(#SVGID_00000027587879877655368500000007711223148229341847_);}
	.st104{fill:url(#SVGID_00000025414809722106072980000012921421571724535218_);}
	.st105{fill:url(#SVGID_00000167357975484449817800000004564533808702463657_);}
	.st106{fill:url(#SVGID_00000155827954820153405910000003154048131252312451_);}
	.st107{fill:url(#SVGID_00000032618054559310337180000004919068584565039764_);}
	.st108{fill:url(#SVGID_00000011710676531385803370000015258953343868398219_);}
	.st109{fill:url(#SVGID_00000145021120228362694550000006181459206919898552_);}
	.st110{fill:url(#SVGID_00000109738147528851687110000011070614459094790794_);}
	.st111{fill:url(#SVGID_00000114775715414401053970000015938410670962692241_);}
	.st112{fill:url(#SVGID_00000055681787638382427900000017163180598737648284_);}
	.st113{fill:url(#SVGID_00000114774635129656864290000009209250342974108844_);}
	.st114{fill:url(#SVGID_00000031925953914168824440000002319119745895727516_);}
	.st115{fill:url(#SVGID_00000170256251513858201260000007298714433643374002_);}
	.st116{fill:url(#SVGID_00000183249308980805279270000013533468766091207574_);}
	.st117{fill:url(#SVGID_00000160150334367627598210000001912626310448493959_);}
	.st118{fill:url(#SVGID_00000121265861870480347960000010513686122746155162_);}
	.st119{fill:url(#SVGID_00000005961133947362433130000009421935058266295182_);}
	.st120{fill:url(#SVGID_00000050641146892098305630000012254653288893266100_);}
	.st121{fill:url(#SVGID_00000049925499982096255020000007175960340507737234_);}
	.st122{fill:url(#SVGID_00000076589513585832217890000013395763318699511179_);}
	.st123{fill:url(#SVGID_00000151520355851647452870000016472220151741872052_);}
	.st124{fill:url(#SVGID_00000178887757919474404370000001529183350087865986_);}
	.st125{fill:url(#SVGID_00000130647061229622351070000016376655471033560965_);}
	.st126{fill:url(#SVGID_00000180360953219567790470000008826518303450696581_);}
	.st127{fill:url(#SVGID_00000170958758999206808940000015607584598116337795_);}
	.st128{fill:url(#SVGID_00000096040021199492768020000006763677059926825137_);}
	.st129{fill:url(#SVGID_00000005960659581749269530000006227839778494868664_);}
	.st130{fill:url(#SVGID_00000155118373067585266640000012374912344083118466_);}
	.st131{fill:url(#SVGID_00000155122216927960848050000010931739621249476262_);}
	.st132{fill:url(#SVGID_00000067946262563670366340000013912573380141520559_);}
	.st133{fill:url(#SVGID_00000145778580571640400160000004224444815856065714_);}
	.st134{fill:url(#SVGID_00000109742328271031380640000017562545137514742666_);}
	.st135{fill:url(#SVGID_00000102504748534501493750000002384448981365227162_);}
	.st136{fill:url(#SVGID_00000047744198163075045370000011547005569235387783_);}
	.st137{fill:url(#SVGID_00000160874113912889067450000009719074144911999423_);}
	.st138{fill:url(#SVGID_00000159445866583736952580000008207785609250882994_);}
	.st139{fill:url(#SVGID_00000150795400684362195770000017395223153848304787_);}
	.st140{fill:url(#SVGID_00000017483467773172077530000004728983347447345811_);}
	.st141{fill:url(#SVGID_00000152985129200652058390000001859347843408298909_);}
	.st142{fill:url(#SVGID_00000042722215676713730010000013797059857102043578_);}
	.st143{fill:url(#SVGID_00000059283844550588323470000018255281243280892571_);}
	.st144{fill:url(#SVGID_00000134945692578348067580000009619157298976255123_);}
	.st145{fill:url(#SVGID_00000127030658298865021370000001781433871588541876_);}
	.st146{fill:url(#SVGID_00000096021015865950287510000009820643887225102234_);}
	.st147{fill:url(#SVGID_00000002359465389471355240000015689300395123501493_);}
	.st148{fill:url(#SVGID_00000163791765831484830220000012528384302138441401_);}
	.st149{fill:url(#SVGID_00000083778128026567827860000005702060309621343410_);}
	.st150{fill:url(#SVGID_00000086656720663443438420000003087493853352286903_);}
	.st151{fill:url(#SVGID_00000029027257733799128940000000115542385952337570_);}
</style>
<g>
	<linearGradient id="SVGID_1_" gradientUnits="userSpaceOnUse" x1="65.0307" y1="-53.7779" x2="443.2994" y2="350.2818">
		<stop  offset="0" style="stop-color:#F77560"/>
		<stop  offset="1" style="stop-color:#845B77"/>
	</linearGradient>
	<path class="st0" d="M213.8,16.7c1.1,0.4,2.2,0.8,3.3,1.2c9.7,3.1,16.4,11.5,16.8,21.7c0.3,5.5,0,11.1,0,17c5.2,0,9.8,0,14.4,0
		c15.3,0.1,25.5,10.2,25.5,25.5c0,6.5,0.2,13.1-0.1,19.6c-0.4,8.6-4.7,15.1-12,19.5c-3.5,2.1-6.9,1.3-8.8-1.7
		c-1.8-2.9-1-6.5,2.3-8.6c4.6-2.9,6.6-6.9,6.4-12.3c-0.2-5.7,0-11.4,0-17.1c-0.1-7.8-5-12.7-12.7-12.8c-6.5-0.1-13.1,0-19.6,0
		c-5.2,0-7.4-2.2-7.5-7.4c-0.1-6.4,0-12.9,0-19.3c-0.1-8.4-4.9-13.2-13.4-13.2c-5.8,0-11.7-0.1-17.5,0c-7.5,0.1-12.5,5-12.7,12.5
		c-0.1,6.7,0,13.3-0.1,20c0,5.2-2.2,7.3-7.4,7.4c-6.5,0-13.1,0-19.6,0c-7.4,0.1-12.4,4.7-12.7,12.1c-0.2,6.4-0.2,12.9,0,19.3
		c0.2,7.4,5.3,12.1,12.6,12.2c6.4,0.1,12.9,0,19.3,0c5.8,0,7.8,2,7.8,7.6c0,6.2,0,12.4,0,18.6c0.1,8.7,5,13.6,13.8,13.7
		c5.6,0,11.2,0,16.8,0c8-0.1,12.9-4.9,13-12.9c0.1-6.7,0-13.3,0.1-20c0.1-4.3,2.4-6.9,6-7c3.5,0,6,2.4,6.1,6.5
		c0.1,7.3,0.2,14.5,0,21.8c-0.4,12.7-9.3,22.5-22,23.5c-7.9,0.7-16,0.7-23.9,0c-12.9-1.1-21.8-11.3-22.1-24.3c-0.1-5,0-10,0-15.3
		c-4.9,0-9.5,0-14.1,0c-15.2,0-25.5-10.2-25.7-25.5c-0.1-5.8-0.1-11.7,0-17.5c0.3-14.9,10.5-24.9,25.4-25c4.6,0,9.2,0,14.4,0
		c0-3.5,0-6.8,0-10.1c0-17.5,4.5-24,20.6-29.8C195.7,16.7,204.8,16.7,213.8,16.7z"/>
	
		<linearGradient id="SVGID_00000125573700326071305710000001377035389623873185_" gradientUnits="userSpaceOnUse" x1="-0.4738" y1="7.5455" x2="377.7948" y2="411.6053">
		<stop  offset="0" style="stop-color:#F77560"/>
		<stop  offset="1" style="stop-color:#845B77"/>
	</linearGradient>
	<path style="fill:url(#SVGID_00000125573700326071305710000001377035389623873185_);" d="M197.9,360.9c0.9-1.6,1.6-2.5,2.1-3.5
		c18.2-34.2,38.7-66.9,61.5-98.2c5.1-7,5-15.2,4.7-23.3c-0.1-3.9-1.2-7.7-2-11.6c-0.9-4.1,0.6-7.4,4-8.3c3.5-0.9,6.6,0.9,7.7,5
		c1.2,4.7,2,9.4,3.1,14.6c5-6.2,9.7-12.1,14.6-17.9c6.8-8.1,13.7-16.1,20.7-24.1c2.7-3.1,6.2-3.3,8.8-0.9c2.6,2.3,2.7,5.8,0.2,8.9
		c-0.4,0.5-0.8,0.9-1.2,1.3c-9.9,11.8-19.9,23.4-29.6,35.3c-7.6,9.4-14.7,19.3-22,29c-0.6,0.8-1.2,1.7-2.1,3c3.4-0.3,6.3-1,9.2-0.8
		c6,0.4,12.1,0.8,18,1.9c4.6,0.8,6.7,4.3,5.7,7.9c-1.1,3.5-4.3,5.1-8.7,3.9c-12.4-3.3-24.1-1.5-35.1,4.8c-1.6,0.9-3.1,2.3-4.1,3.8
		c-17.1,25.3-32.6,51.4-46.6,78.5c-0.6,1.2-1.1,2.7-1,4c0.4,5.6-1.6,8-7.1,8.2c-19.1,0.5-37.9-1.5-55.9-7.8
		c-63.6-22-102.2-66.4-116.3-132c-6-28.1-3.5-56.1,5.5-83.4c3.9-11.9,13.4-18.7,26-18.2c45.3,1.8,84,18.9,115.9,51.2
		c3.2,3.2,3.4,6.8,0.6,9.4c-2.6,2.5-6.3,2.2-9.4-1c-17.5-17.9-38.1-31.1-61.8-39.2c-14.6-5-29.7-7.6-45.1-8.2
		c-7.7-0.3-12.4,2.9-14.7,10.4C27,218.4,37.1,268.4,72.6,312.8c25.2,31.5,58.6,49.8,98.5,55.8c5.1,0.8,10.2,1,15.3,1.4
		c0.4,0,0.9-0.1,1.6-0.2c-4.3-10.9-5.9-22.6-12.6-32.6c-10-15-19.2-30.6-28.9-45.9c-0.7-1.2-1.8-2.3-2.9-3
		c-11-6.5-22.7-8.8-35.3-5.5c-0.7,0.2-1.4,0.3-2.1,0.5c-3.5,0.7-6.6-1.2-7.4-4.5c-0.7-3.1,1-6.1,4.4-7.2c8-2.6,16.1-2.9,24.4-1.9
		c1.2,0.1,2.3,0.4,4.4,0.7c-1.1-1.6-1.7-2.6-2.4-3.5c-17-21.3-34.1-42.5-51.1-63.8c-0.5-0.6-1.1-1.2-1.6-1.9c-2.3-3-2.1-6.4,0.5-8.6
		c2.6-2.3,6-2.2,8.6,0.6c3.1,3.3,6.1,6.7,9,10.2c8.1,9.7,16.1,19.5,24.1,29.2c0.7,0.9,1.5,1.8,2.7,3.1c0.5-3.1,0.8-5.6,1.3-8.1
		c0.4-2,0.8-4,1.4-5.9c1.3-4.7,4.1-6.7,7.9-5.7c3.6,0.9,5.1,4.3,3.8,8.9c-2.3,8.5-2.7,17.2-0.7,25.8c0.6,2.7,1.8,5.4,3.3,7.7
		c12,18.2,24.2,36.2,36.3,54.3c0.6,1,1.3,1.9,2.4,3.6c0.1-1.9,0.2-3,0.2-4.1c0.1-80.3,55.5-149.9,133.8-167.4
		c10.2-2.3,20.7-3.2,31.1-3.8c12.6-0.8,21.9,6.2,25.9,18.2c21.7,64.8,0.7,138.5-51.9,182.8c-19.8,16.7-42.1,28.4-67.1,35
		c-1,0.3-2.1,0.6-3.1,0.7c-3.2,0.5-6-1.3-6.9-4.3c-0.9-2.9,0.6-6.1,3.6-7.3c1.9-0.7,3.9-1.1,5.8-1.7
		c61.5-19.3,99.1-60.7,113.1-123.3c5.8-26.1,3.5-52.1-4.8-77.5c-2.5-7.8-7-11.1-15.2-10.6c-63.3,4.2-109.1,35.1-136.9,91.6
		c-18,36.5-19.9,74.9-7.6,113.9C197.3,359.2,197.5,359.7,197.9,360.9z"/>
</g>
</svg>
