<?xml version="1.0" encoding="utf-8"?>
<!-- Generator: Adobe Illustrator 26.3.1, SVG Export Plug-In . SVG Version: 6.00 Build 0)  -->
<svg version="1.1" id="Layer_1" xmlns="http://www.w3.org/2000/svg" xmlns:xlink="http://www.w3.org/1999/xlink" x="0px" y="0px"
	 viewBox="0 0 450 596.1" style="enable-background:new 0 0 450 596.1;" xml:space="preserve">
<style type="text/css">
	.st0{fill:#D8D8D8;stroke:#41E09B;stroke-width:2;stroke-miterlimit:10;}
	.st1{fill:#C1C1C1;stroke:#41E09B;stroke-width:2;stroke-miterlimit:10;}
	.st2{fill:#D8D8D8;}
	.st3{fill:#18244C;}
	.st4{fill:#C1C1C1;}
</style>
<path class="st0" d="M400.7,561.8c1.3,0,2.3-1.1,2.3-2.3l0,0c0-1.3-1.1-2.3-2.3-2.3l0,0V556c1.4-12.7-11.1-25.2-14.1-33
	s-1.4-17,0-26.2c1.4-9.2-4.3-21.8-4.3-33.4s4.3-31.6,4.3-39.8s-2.9-31-3.4-42.7c-0.4-11.7,3.4-108.6,3.4-108.6s0.5-49,0-59.7
	c-0.5-10.7,7.2-40.2,10.7-47.6c3.4-7.2,3.4-23.8,3.4-23.8v-32.9H64.8V140c-1,8.2,0,14.6,0,14.6c0.4,16,12.7,37.8,12.7,44.7
	c0,6.8-1,45.1-0.4,54.8c0.4,9.7,3.9,109,4.3,115.3c0.4,6.3-1.4,22.3-2.9,28.1c-1.4,5.8-1.9,31-1.9,39.3s4.9,36.3,4.9,40.8
	c0,4.3-3.9,27.7-3.9,41.7c0,14.1-12.7,31.6-12.7,31.6v6.7c-1.2,0.1-2.1,1.1-2.1,2.3l0,0c0,1.2,0.9,2.2,2.1,2.3v3.8
	c-1.2,0.1-2.1,1.1-2.1,2.3l0,0c0,1.2,0.9,2.2,2.1,2.3v4.3c-1.2,0.1-2.1,1.1-2.1,2.3l0,0c0,1.2,0.9,2.2,2.1,2.3v7.5h335.8V579l0,0
	c1.3,0,2.3-1.1,2.3-2.3l0,0c0-1.3-1.1-2.3-2.3-2.3l0,0v-4.2l0,0c1.3,0,2.3-1.1,2.3-2.3l0,0c0-1.3-1.1-2.3-2.3-2.3l0,0V561.8
	L400.7,561.8z M180.9,136.1c0-4.4,3.6-8,8-8h87.3c4.4,0,8,3.6,8,8l0,0c0,4.4-3.6,8-8,8H189C184.5,144.1,180.9,140.5,180.9,136.1
	L180.9,136.1z"/>
<path class="st4" d="M389.6,560.5H76.2c-1.2,0-2.1-1-2.1-2.1l0,0c0-1.2,1-2.1,2.1-2.1h313.4c1.2,0,2.1,1,2.1,2.1l0,0
	C391.7,559.5,390.8,560.5,389.6,560.5z"/>
<path class="st4" d="M389.6,568.2H76.2c-1.2,0-2.1-1-2.1-2.1l0,0c0-1.2,1-2.1,2.1-2.1h313.4c1.2,0,2.1,1,2.1,2.1l0,0
	C391.7,567.3,390.8,568.2,389.6,568.2z"/>
<path class="st4" d="M389.6,587.8H76.2c-1.2,0-2.1-1-2.1-2.1l0,0c0-1.2,1-2.1,2.1-2.1h313.4c1.2,0,2.1,1,2.1,2.1l0,0
	C391.7,586.8,390.8,587.8,389.6,587.8z"/>
<g>
	<path class="st3" d="M208,504.6v8h-22.5v-8h7.3v-25.3c-0.4,2-1,3.5-1.9,4.6c-0.9,1.1-1.9,1.8-3,2.3c-1.1,0.4-2,0.7-2.9,0.7
		c-0.9,0.1-1.4,0.1-1.7,0.1v-10.4c0.3,0.1,1,0.1,2.1,0.1c1.1-0.1,2.2-0.3,3.4-0.7c1.2-0.4,2.3-1.2,3.3-2.4c1-1.1,1.5-2.8,1.6-4.8
		h8.4v35.9H208z"/>
	<path class="st3" d="M223.9,512.6h-9.5v-43.9h9.5v25.6l11.8-14h11.5l-12.9,13.5l13.1,18.8h-11.2l-8.4-11.9l-3.8,4.1V512.6z"/>
	<path class="st3" d="M259.5,527.5v-8.9h13.2v-11.1h-0.2c-0.1,0.1-0.2,0.5-0.6,1.1c-0.3,0.6-0.9,1.3-1.7,2c-0.8,0.7-1.8,1.4-3.1,2
		c-1.3,0.6-2.9,0.9-4.8,0.9c-4.8,0-8.2-1.5-10.1-4.4s-2.9-6.9-2.9-11.9c0-5.2,1-9.3,3-12.2c2-2.9,5.3-4.4,10.1-4.4
		c2,0,3.7,0.3,5,0.9c1.3,0.6,2.3,1.4,3.1,2.2c0.8,0.8,1.3,1.6,1.6,2.2c0.3,0.7,0.5,1,0.5,1.1h0.2v-6.4h9.7V514c0,5.1-1,8.7-3,10.6
		c-2,2-5.1,2.9-9.2,2.9H259.5z M265.4,505.5c2.9,0,4.8-0.8,5.7-2.5c1-1.6,1.4-3.6,1.4-6c0-2.3-0.5-4.3-1.4-5.9
		c-0.9-1.6-2.8-2.5-5.6-2.5c-2,0-3.5,0.4-4.6,1.2c-1,0.8-1.7,1.8-2.1,3.1c-0.4,1.3-0.5,2.6-0.5,4c0,1.5,0.2,2.8,0.5,4.1
		c0.3,1.3,1,2.3,2,3.1C261.9,505.1,263.4,505.5,265.4,505.5z"/>
</g>
</svg>
