<?xml version="1.0" encoding="utf-8"?>
<!-- Generator: Adobe Illustrator 26.1.0, SVG Export Plug-In . SVG Version: 6.00 Build 0)  -->
<svg version="1.1" id="Layer_1" xmlns="http://www.w3.org/2000/svg" xmlns:xlink="http://www.w3.org/1999/xlink" x="0px" y="0px"
	 viewBox="0 0 140.5 32.5" style="enable-background:new 0 0 140.5 32.5;" xml:space="preserve">
<style type="text/css">
	.st0{fill:#41E09B;}
	.st1{fill:#FEF0EE;}
	.st2{fill:#FFFFFF;}
	.st3{opacity:0.15;fill:#41E09B;stroke:#FFFFFF;stroke-miterlimit:10;}
	.st4{opacity:0.3;fill:#41E09B;stroke:#FFFFFF;stroke-miterlimit:10;}
	.st5{fill:#18244C;}
	.st6{fill:url(#SVGID_1_);}
	.st7{fill:url(#SVGID_00000004530408883559879160000016356321790930192574_);}
	.st8{fill:url(#SVGID_00000071559047786846019040000007368437143642006665_);}
	.st9{fill:url(#SVGID_00000103225367817899257540000012712391533667938697_);}
	.st10{fill:url(#SVGID_00000092453914641979677060000014152618684076900784_);}
	.st11{fill:url(#SVGID_00000152978607122423516260000015744814752661916300_);}
	.st12{fill:url(#SVGID_00000155138638692014007770000015059458739390986413_);}
	.st13{fill:url(#SVGID_00000168808822900454384410000010014578628210136227_);}
	.st14{fill:url(#SVGID_00000019673007162915364200000014183002080238257588_);}
	.st15{fill:url(#SVGID_00000099645649319448312270000014215645755210391690_);}
	.st16{fill:url(#SVGID_00000145766207824223974350000013957556387670171033_);}
	.st17{fill:url(#SVGID_00000124865232865491609390000006849286608358665919_);}
	.st18{fill:url(#SVGID_00000042018407566477942210000007734489806049295260_);}
	.st19{fill:url(#SVGID_00000075137108434517997760000001590969713609102736_);}
	.st20{fill:url(#SVGID_00000080897550254923591710000001825436560453924797_);}
	.st21{fill:url(#SVGID_00000111878313403249528530000010052640985353792433_);}
	.st22{fill:url(#SVGID_00000150825184706233515500000009110912597922092473_);}
	.st23{fill:url(#SVGID_00000102517112965705215470000002807841150334595502_);}
	.st24{fill:url(#SVGID_00000075878061581073055450000009043396440949008828_);}
	.st25{fill:url(#SVGID_00000010276983903810840070000014404471981052676287_);}
	.st26{fill:url(#SVGID_00000173851708010775815290000011899400351751558023_);}
	.st27{fill-rule:evenodd;clip-rule:evenodd;fill:#FFFFFF;}
	.st28{fill:url(#SVGID_00000036944657808070710760000000051657774572997055_);}
</style>
<g>
	<path class="st5" d="M136.4,17.7c-0.2,0-0.4,0-0.6,0c-13.8,0-120,0-133.8,0c-0.2,0-0.5,0-0.7,0c-0.5-0.1-0.8-0.5-0.8-0.9
		c0-0.5,0.3-0.9,0.8-0.9c0.2,0,0.4,0,0.6,0c13.8,0,120,0,133.8,0c0.2,0,0.4,0,0.7,0c-0.2-0.2-0.3-0.3-0.4-0.4
		c-1.7-1.7-10.8-10.9-12.5-12.6c-0.1-0.1-0.2-0.2-0.3-0.4C123,2,123,1.5,123.4,1.1c0.3-0.3,0.8-0.4,1.2-0.1c0.1,0.1,0.2,0.2,0.3,0.3
		c2.4,2.4,12.1,12.2,14.6,14.6c0.5,0.5,0.5,1,0,1.5c-2.4,2.4-11.6,11.2-14.1,13.6c-0.5,0.5-1.1,0.6-1.5,0.1c-0.4-0.4-0.4-1,0.2-1.5
		c1.7-1.8,10.2-9.8,12-11.6c0.1-0.1,0.3-0.2,0.4-0.3C136.5,17.8,136.4,17.7,136.4,17.7z"/>
</g>
</svg>
