<?xml version="1.0" encoding="UTF-8"?>
<svg id="Layer_1" data-name="Layer 1" xmlns="http://www.w3.org/2000/svg" viewBox="0 0 503.58 338.1">
  <defs>
    <style>
      .cls-1 {
        fill: #e6e6e6;
      }
    </style>
  </defs>
  <path class="cls-1" d="M251.79,169.01l75.52-107.2C355.19,22.23,393,0,432.43,0h71.16l-25.97,36.86c-124.2,176.27-327.43,176.27-451.63,0L0,0h58.94c47.25,0,92.56,26.64,125.96,74.06l66.89,94.94"/>
  <path class="cls-1" d="M251.79,169.12l-75.52,107.2c-27.88,39.57-65.69,61.8-105.11,61.8H0l25.97-36.86c124.2-176.27,327.43-176.27,451.63,0l25.97,36.86h-58.94c-47.25,0-92.56-26.64-125.96-74.06l-66.89-94.94"/>
</svg>