<?xml version="1.0" encoding="UTF-8"?>
<svg id="Layer_2" data-name="Layer 2" xmlns="http://www.w3.org/2000/svg" viewBox="0 0 125.39 84.19">
  <defs>
    <style>
      .cls-1 {
        fill: #1a244f;
      }
    </style>
  </defs>
  <g id="Layer_1-2" data-name="Layer 1">
    <path class="cls-1" d="M62.69,42.08l18.8-26.69C88.44,5.54,97.85,0,107.67,0h17.72l-6.47,9.18c-30.92,43.89-81.53,43.89-112.45,0L0,0h14.68c11.76,0,23.05,6.63,31.36,18.44l16.65,23.64"/>
    <path class="cls-1" d="M62.69,42.11l-18.8,26.69c-6.94,9.85-16.36,15.39-26.17,15.39H0l6.47-9.18c30.92-43.89,81.53-43.89,112.45,0l6.47,9.18h-14.68c-11.76,0-23.05-6.63-31.36-18.44l-16.65-23.64"/>
  </g>
</svg>