<?xml version="1.0" encoding="utf-8"?>
<!-- Generator: Adobe Illustrator 26.2.1, SVG Export Plug-In . SVG Version: 6.00 Build 0)  -->
<svg version="1.1" id="Layer_1" xmlns="http://www.w3.org/2000/svg" xmlns:xlink="http://www.w3.org/1999/xlink" x="0px" y="0px"
	 viewBox="0 0 100 100" style="enable-background:new 0 0 100 100;" xml:space="preserve">
<style type="text/css">
	.st0{fill:url(#SVGID_1_);}
	.st1{fill:url(#SVGID_00000167379312401544494040000013774890990641019570_);}
	.st2{fill:url(#SVGID_00000000911782582866673170000010212875397605626045_);}
	.st3{fill:#FFFFFF;}
	.st4{fill:none;}
	.st5{fill:url(#SVGID_00000124138648584848138840000012864990327560429211_);}
	.st6{fill:url(#SVGID_00000111183479449201925750000005855932774146509451_);}
	.st7{fill:url(#SVGID_00000150797461296560387610000017226905438922294930_);}
	.st8{fill:url(#SVGID_00000026160748331464845810000015378469771852674177_);}
	.st9{fill:url(#SVGID_00000121979073623883831230000002651295420464167601_);}
	.st10{fill:url(#SVGID_00000021830474671550216690000000297408225160583600_);}
	.st11{fill:url(#SVGID_00000052826204743680348990000008431647502757360770_);}
	.st12{fill:url(#SVGID_00000041984134518337760980000000184240994045454769_);}
	.st13{fill:url(#SVGID_00000170974609644509445950000009154625608981276596_);}
	.st14{fill:url(#SVGID_00000072994358666986430090000011122429232092353190_);}
	.st15{fill:url(#SVGID_00000170253337897176282900000006247494786755908286_);}
	.st16{fill:url(#SVGID_00000071522074909419661250000002314798644851242125_);}
	.st17{fill:url(#SVGID_00000060732159708378345440000002392885922848696767_);}
	.st18{fill:url(#SVGID_00000162331108097808465160000016194499760103097749_);}
	.st19{fill:url(#SVGID_00000057862539861255720610000004326523807867226509_);}
	.st20{fill:url(#SVGID_00000116950745825294319550000002950927759470464909_);}
	.st21{fill:url(#SVGID_00000012465504480743882480000015492310234404855682_);}
	.st22{fill:url(#SVGID_00000133530832220260362600000017466015149861294515_);}
	.st23{fill:url(#SVGID_00000086692049086426311340000010438270023095215754_);}
	.st24{fill:url(#SVGID_00000124852657090415200870000010881972335251372184_);}
	.st25{fill:url(#SVGID_00000147939597397672850250000002282006577171735716_);}
	.st26{fill:url(#SVGID_00000159462378744215900120000009317405025665840260_);}
	.st27{fill:url(#SVGID_00000065787863573685271740000014418250895610455715_);}
</style>
<g>
	<path class="st4" d="M33.3,80.8c-2.7,0-4.8,2.2-4.8,4.9c0,2.7,2.2,5,4.9,5c2.7,0,4.9-2.3,4.9-5C38.2,83,35.9,80.8,33.3,80.8z
		 M33.2,87.3c-0.8,0-1.6-0.8-1.6-1.6c0-0.9,0.8-1.6,1.8-1.6c0.8,0.1,1.5,0.8,1.5,1.6C34.9,86.6,34.1,87.4,33.2,87.3z"/>
	<path class="st4" d="M66.1,80.8c-2.7,0.1-4.9,2.3-4.8,5c0,2.7,2.3,4.9,4.9,4.8c2.7,0,4.9-2.3,4.9-5C71,83,68.8,80.8,66.1,80.8z
		 M66.1,87.3c-0.8,0-1.6-0.8-1.5-1.6c0-0.9,0.8-1.6,1.7-1.6c0.9,0,1.6,0.8,1.6,1.7C67.8,86.7,66.9,87.4,66.1,87.3z"/>
	<path class="st4" d="M49.7,80.8c-2.7,0-5,2.3-4.9,5c0.1,2.7,2.3,4.9,4.9,4.9c2.7,0,5-2.3,4.9-4.9C54.7,83,52.4,80.8,49.7,80.8z
		 M49.8,87.3c-0.9,0-1.6-0.6-1.6-1.5c0-0.9,0.6-1.7,1.6-1.7c0.9,0,1.6,0.7,1.6,1.6C51.3,86.7,50.6,87.3,49.8,87.3z"/>
	<path class="st4" d="M27.9,38.9c4.1,0,7.4-3.3,7.4-7.4c0-4-3.4-7.4-7.4-7.4c-4,0-7.4,3.4-7.4,7.4C20.5,35.5,23.8,38.9,27.9,38.9z"
		/>
	<path class="st4" d="M17.1,80.8c-2.6-0.1-5,2.1-5.1,4.8c-0.1,2.7,2.1,5,4.8,5.1c2.6,0.1,5-2.1,5.1-4.8
		C21.9,83.2,19.7,80.9,17.1,80.8z M17,87.3c-0.9,0-1.6-0.6-1.6-1.6c0-1,0.6-1.6,1.6-1.6c0.9,0,1.6,0.7,1.6,1.6
		C18.5,86.6,17.8,87.3,17,87.3z"/>
	<path class="st4" d="M82.5,80.8c-2.7,0-4.9,2.3-4.9,5c0.1,2.7,2.3,4.9,4.9,4.9c2.7,0,4.9-2.3,4.9-4.9C87.5,83,85.2,80.8,82.5,80.8z
		 M82.6,87.3c-0.9,0-1.6-0.7-1.6-1.5c0-0.9,0.6-1.6,1.6-1.7c0.9,0,1.6,0.6,1.6,1.6C84.2,86.7,83.5,87.3,82.6,87.3z"/>
	<linearGradient id="SVGID_1_" gradientUnits="userSpaceOnUse" x1="85.2096" y1="110.3682" x2="-16.3959" y2="39.8304">
		<stop  offset="0" style="stop-color:#845B77"/>
		<stop  offset="0.114" style="stop-color:#A06171"/>
		<stop  offset="0.2689" style="stop-color:#BF686B"/>
		<stop  offset="0.4307" style="stop-color:#D86E66"/>
		<stop  offset="0.6003" style="stop-color:#E97263"/>
		<stop  offset="0.7825" style="stop-color:#F47461"/>
		<stop  offset="1" style="stop-color:#F77560"/>
	</linearGradient>
	<path class="st0" d="M97.1,82.8c-0.5-2.3-2.5-3.6-5.2-3.6c-14.1,0-28.2,0-42.2,0c-10.2,0-20.3,0-30.5,0c-4,0-8,0-12,0
		c-2.4,0-4.3,1.3-4.8,3.5c-0.5,2-0.5,4,0,6c0.5,2.3,2.5,3.6,5.2,3.6c28.1,0,56.3,0,84.4,0c0.3,0,0.6,0,0.9,0
		c2.1-0.2,3.8-1.6,4.3-3.6C97.6,86.8,97.6,84.7,97.1,82.8z M21.8,85.8c-0.1,2.7-2.4,5-5.1,4.8c-2.7-0.1-4.9-2.4-4.8-5.1
		c0.1-2.7,2.4-4.9,5.1-4.8C19.7,80.9,21.9,83.2,21.8,85.8z M33.3,90.7c-2.7,0-4.9-2.2-4.9-5c0-2.7,2.2-4.9,4.8-4.9
		c2.7,0,4.9,2.2,5,4.9C38.2,88.4,36,90.7,33.3,90.7z M49.7,90.7c-2.6,0-4.9-2.2-4.9-4.9c-0.1-2.7,2.2-5,4.9-5c2.7,0,5,2.2,5,4.9
		C54.7,88.4,52.4,90.7,49.7,90.7z M66.2,90.7c-2.6,0-4.9-2.2-4.9-4.8c0-2.7,2.1-5,4.8-5c2.7-0.1,4.9,2.2,5,4.9
		C71.1,88.4,68.9,90.7,66.2,90.7z M82.6,90.7c-2.6,0-4.9-2.2-4.9-4.9c-0.1-2.7,2.2-5,4.9-5c2.7,0,5,2.2,5,4.9
		C87.5,88.4,85.2,90.7,82.6,90.7z"/>
	
		<linearGradient id="SVGID_00000140731854580006538680000013392922088113054104_" gradientUnits="userSpaceOnUse" x1="130.0302" y1="83.4577" x2="-31.6602" y2="-28.7931">
		<stop  offset="0" style="stop-color:#845B77"/>
		<stop  offset="0.114" style="stop-color:#A06171"/>
		<stop  offset="0.2689" style="stop-color:#BF686B"/>
		<stop  offset="0.4307" style="stop-color:#D86E66"/>
		<stop  offset="0.6003" style="stop-color:#E97263"/>
		<stop  offset="0.7825" style="stop-color:#F47461"/>
		<stop  offset="1" style="stop-color:#F77560"/>
	</linearGradient>
	<path style="fill:url(#SVGID_00000140731854580006538680000013392922088113054104_);" d="M61.3,55.7c7.1,0,14.3-0.1,21.4,0
		c1.4,0,1.7-0.5,1.7-1.8c-0.1-3.5,0-7.1,0-10.6c0-3.7,0-7.4,0-11c0-1.3-0.4-1.7-1.8-1.7c-2.8,0-5.6,0-8.4,0v9.9h-4.5v-9.9
		c-2.8,0-5.7,0-8.5,0c-1.4,0-1.7,0.5-1.7,1.8c0,7.2,0,14.4,0,21.6C59.5,55.3,60,55.7,61.3,55.7z"/>
	
		<linearGradient id="SVGID_00000064347521897498863980000014498257618417382068_" gradientUnits="userSpaceOnUse" x1="97.1917" y1="93.1087" x2="-4.4138" y2="22.5709">
		<stop  offset="0" style="stop-color:#845B77"/>
		<stop  offset="0.114" style="stop-color:#A06171"/>
		<stop  offset="0.2689" style="stop-color:#BF686B"/>
		<stop  offset="0.4307" style="stop-color:#D86E66"/>
		<stop  offset="0.6003" style="stop-color:#E97263"/>
		<stop  offset="0.7825" style="stop-color:#F47461"/>
		<stop  offset="1" style="stop-color:#F77560"/>
	</linearGradient>
	<path style="fill:url(#SVGID_00000064347521897498863980000014498257618417382068_);" d="M54.2,75.8c2.3,0,4.5,0,6.8,0
		c2.3,0,4.6,0,6.9,0c0.8,0,1-0.2,1-1c0-4.5,0-9.1,0-13.6c0-0.8-0.3-1-1-1c-1.8,0-3.6,0-5.5,0v6.2h-2.8v-6.2c-1.8,0-3.6,0-5.5,0
		c-0.8,0-1,0.2-1,1c0,4.5,0,9.1,0,13.6C53.2,75.6,53.5,75.9,54.2,75.8z"/>
	
		<linearGradient id="SVGID_00000031170286695689629560000013270198801258216832_" gradientUnits="userSpaceOnUse" x1="103.7513" y1="83.66" x2="2.1458" y2="13.1222">
		<stop  offset="0" style="stop-color:#845B77"/>
		<stop  offset="0.114" style="stop-color:#A06171"/>
		<stop  offset="0.2689" style="stop-color:#BF686B"/>
		<stop  offset="0.4307" style="stop-color:#D86E66"/>
		<stop  offset="0.6003" style="stop-color:#E97263"/>
		<stop  offset="0.7825" style="stop-color:#F47461"/>
		<stop  offset="1" style="stop-color:#F77560"/>
	</linearGradient>
	<path style="fill:url(#SVGID_00000031170286695689629560000013270198801258216832_);" d="M80.1,66.5v-6.2c-1.9,0-3.8,0-5.7,0
		c-0.8,0-1,0.3-1,1c0,4.5,0,9.1,0,13.6c0,0.8,0.3,1,1,1c4.6,0,9.1,0,13.7,0c0.8,0,1-0.3,1-1c0-4.5,0-9.1,0-13.6c0-0.8-0.3-1-1-1
		c-1.7,0-3.5,0-5.2,0v6.2H80.1z"/>
	
		<linearGradient id="SVGID_00000070080796145677119040000010557442627440693156_" gradientUnits="userSpaceOnUse" x1="79.8696" y1="118.0602" x2="-21.7359" y2="47.5223">
		<stop  offset="0" style="stop-color:#F77560"/>
		<stop  offset="0.161" style="stop-color:#F27461"/>
		<stop  offset="0.3589" style="stop-color:#E37064"/>
		<stop  offset="0.576" style="stop-color:#CA6B69"/>
		<stop  offset="0.8054" style="stop-color:#A76370"/>
		<stop  offset="1" style="stop-color:#845B77"/>
	</linearGradient>
	<path style="fill:url(#SVGID_00000070080796145677119040000010557442627440693156_);" d="M33.4,84.1c-1-0.1-1.8,0.6-1.8,1.6
		c0,0.8,0.7,1.6,1.6,1.6c0.9,0,1.7-0.7,1.7-1.5C35,85,34.3,84.2,33.4,84.1z"/>
	
		<linearGradient id="SVGID_00000081625962585088303080000018012014316205865092_" gradientUnits="userSpaceOnUse" x1="90.5545" y1="102.6692" x2="-11.051" y2="32.1313">
		<stop  offset="0" style="stop-color:#F77560"/>
		<stop  offset="0.161" style="stop-color:#F27461"/>
		<stop  offset="0.3589" style="stop-color:#E37064"/>
		<stop  offset="0.576" style="stop-color:#CA6B69"/>
		<stop  offset="0.8054" style="stop-color:#A76370"/>
		<stop  offset="1" style="stop-color:#845B77"/>
	</linearGradient>
	<path style="fill:url(#SVGID_00000081625962585088303080000018012014316205865092_);" d="M66.2,84.1c-0.9,0-1.7,0.7-1.7,1.6
		c0,0.8,0.7,1.6,1.5,1.6c0.9,0,1.7-0.7,1.7-1.5C67.8,84.9,67.1,84.2,66.2,84.1z"/>
	
		<linearGradient id="SVGID_00000119809448770737981340000004570780524300515479_" gradientUnits="userSpaceOnUse" x1="74.5281" y1="125.7543" x2="-27.0774" y2="55.2164">
		<stop  offset="0" style="stop-color:#F77560"/>
		<stop  offset="0.161" style="stop-color:#F27461"/>
		<stop  offset="0.3589" style="stop-color:#E37064"/>
		<stop  offset="0.576" style="stop-color:#CA6B69"/>
		<stop  offset="0.8054" style="stop-color:#A76370"/>
		<stop  offset="1" style="stop-color:#845B77"/>
	</linearGradient>
	<path style="fill:url(#SVGID_00000119809448770737981340000004570780524300515479_);" d="M16.9,84.1c-0.9,0-1.6,0.7-1.6,1.6
		c0,0.9,0.7,1.6,1.6,1.6c0.9,0,1.5-0.7,1.6-1.6C18.5,84.8,17.8,84.1,16.9,84.1z"/>
	
		<linearGradient id="SVGID_00000070102394861591353070000014701346429131091133_" gradientUnits="userSpaceOnUse" x1="95.8922" y1="94.9806" x2="-5.7133" y2="24.4427">
		<stop  offset="0" style="stop-color:#F77560"/>
		<stop  offset="0.161" style="stop-color:#F27461"/>
		<stop  offset="0.3589" style="stop-color:#E37064"/>
		<stop  offset="0.576" style="stop-color:#CA6B69"/>
		<stop  offset="0.8054" style="stop-color:#A76370"/>
		<stop  offset="1" style="stop-color:#845B77"/>
	</linearGradient>
	<path style="fill:url(#SVGID_00000070102394861591353070000014701346429131091133_);" d="M82.5,84.1c-0.9,0-1.6,0.7-1.6,1.7
		c0,0.9,0.7,1.5,1.6,1.5c0.9,0,1.6-0.7,1.6-1.6C84.2,84.8,83.5,84.1,82.5,84.1z"/>
	
		<linearGradient id="SVGID_00000148652354107242321580000012404431313512836484_" gradientUnits="userSpaceOnUse" x1="85.2083" y1="110.37" x2="-16.3971" y2="39.8321">
		<stop  offset="0" style="stop-color:#F77560"/>
		<stop  offset="0.161" style="stop-color:#F27461"/>
		<stop  offset="0.3589" style="stop-color:#E37064"/>
		<stop  offset="0.576" style="stop-color:#CA6B69"/>
		<stop  offset="0.8054" style="stop-color:#A76370"/>
		<stop  offset="1" style="stop-color:#845B77"/>
	</linearGradient>
	<path style="fill:url(#SVGID_00000148652354107242321580000012404431313512836484_);" d="M49.7,84.1c-0.9,0-1.6,0.7-1.6,1.7
		c0,0.9,0.7,1.5,1.6,1.5c0.9,0,1.6-0.7,1.6-1.6C51.3,84.8,50.6,84.1,49.7,84.1z"/>
	<path class="st3" d="M27.9,45.1c7.8,0,13.6-6.3,13.5-13.5c0-7.5-6.1-13.6-13.6-13.6c-7.5,0-13.6,6.1-13.6,13.6
		C14.2,38.8,20.2,45.1,27.9,45.1z M28,21.6c5.4,0,9.9,4.6,9.8,9.9c0.2,5-4.1,9.9-9.9,9.8c-5.3,0-9.8-4.1-9.8-9.9
		C18,25.7,22.7,21.6,28,21.6z"/>
	<path class="st3" d="M27.9,46.4c8.2,0,14.9-6.7,14.9-14.9s-6.7-14.9-14.9-14.9S13,23.3,13,31.5S19.7,46.4,27.9,46.4z M27.9,17.9
		c7.5,0,13.5,6.1,13.6,13.6c0,7.2-5.8,13.5-13.5,13.5c-7.7,0-13.7-6.3-13.6-13.6C14.3,24,20.4,17.9,27.9,17.9z"/>
	<g>
		
			<linearGradient id="SVGID_00000004514029482055437650000017805373166112042926_" gradientUnits="userSpaceOnUse" x1="75.0904" y1="64.3101" x2="7.4514" y2="17.3529">
			<stop  offset="0" style="stop-color:#845B77"/>
			<stop  offset="0.114" style="stop-color:#A06171"/>
			<stop  offset="0.2689" style="stop-color:#BF686B"/>
			<stop  offset="0.4307" style="stop-color:#D86E66"/>
			<stop  offset="0.6003" style="stop-color:#E97263"/>
			<stop  offset="0.7825" style="stop-color:#F47461"/>
			<stop  offset="1" style="stop-color:#F77560"/>
		</linearGradient>
		<path style="fill:url(#SVGID_00000004514029482055437650000017805373166112042926_);" d="M28,21.6c-5.3,0-10,4.1-10,9.9
			c0,5.7,4.5,9.8,9.8,9.9c5.8,0,10-4.8,9.9-9.8C37.9,26.3,33.4,21.7,28,21.6z M27.9,38.9c-4.1,0-7.4-3.4-7.4-7.4
			c0-4,3.4-7.4,7.4-7.4c4,0,7.4,3.4,7.4,7.4C35.3,35.6,31.9,38.9,27.9,38.9z"/>
		
			<linearGradient id="SVGID_00000057121472816657976020000013903386209406782865_" gradientUnits="userSpaceOnUse" x1="139.9492" y1="109.3207" x2="-20.5422" y2="-2.0978">
			<stop  offset="0" style="stop-color:#845B77"/>
			<stop  offset="0.114" style="stop-color:#A06171"/>
			<stop  offset="0.2689" style="stop-color:#BF686B"/>
			<stop  offset="0.4307" style="stop-color:#D86E66"/>
			<stop  offset="0.6003" style="stop-color:#E97263"/>
			<stop  offset="0.7825" style="stop-color:#F47461"/>
			<stop  offset="1" style="stop-color:#F77560"/>
		</linearGradient>
		<path style="fill:url(#SVGID_00000057121472816657976020000013903386209406782865_);" d="M51.3,29.7c0-0.5-0.2-0.6-0.7-0.6
			c-1.8,0-3.6,0-5.4,0c-1.2,0-1.6-0.3-1.9-1.4c-0.4-1.6-1-3.1-1.8-4.5c-0.6-1-0.5-1.4,0.3-2.2c1.3-1.3,2.5-2.6,3.8-3.8
			c0.4-0.4,0.4-0.6,0-1c-0.8-0.8-1.6-1.6-2.4-2.4c-0.4-0.4-0.6-0.5-1.1,0c-1.3,1.3-2.6,2.6-3.9,3.9c-0.7,0.7-1.2,0.8-1.9,0.3
			c-1.5-0.9-3.1-1.6-4.8-2c-1-0.3-1.2-0.6-1.2-1.7c0-1.8,0-3.7,0-5.5c0-0.5-0.1-0.7-0.7-0.7c-1.2,0-2.4,0-3.7,0
			c-0.5,0-0.6,0.1-0.6,0.6c0,1.8,0,3.6,0,5.4c0,1.3-0.2,1.6-1.5,1.9c-1.5,0.4-3,1-4.3,1.8c-1,0.6-1.4,0.6-2.3-0.3
			c-1.3-1.3-2.6-2.6-3.9-3.9c-0.3-0.3-0.5-0.4-0.9,0c-0.9,0.9-1.7,1.8-2.6,2.6c-0.4,0.3-0.3,0.5,0,0.8c1.3,1.3,2.6,2.6,3.9,3.9
			c0.8,0.8,0.9,1.2,0.3,2.2c-0.9,1.5-1.5,3-1.9,4.7c-0.3,1-0.5,1.2-1.5,1.2c-1.9,0-3.7,0-5.6,0c-0.5,0-0.7,0.2-0.7,0.7
			c0,1.2,0,2.3,0,3.5c0,0.6,0.2,0.8,0.8,0.8c1.7,0,3.5,0,5.2,0c1.2,0,1.6,0.3,1.9,1.4c0.4,1.6,1,3.1,1.9,4.5c0.6,1,0.5,1.4-0.3,2.3
			c-1.2,1.3-2.5,2.5-3.8,3.7c-0.4,0.4-0.4,0.7,0,1.1c0.9,0.8,1.7,1.6,2.5,2.5c0.4,0.4,0.6,0.3,0.9,0c1.2-1.3,2.5-2.5,3.7-3.8
			c1-1,1.3-1,2.5-0.3c1.4,0.8,2.8,1.4,4.3,1.8c1.1,0.3,1.4,0.6,1.4,1.7c0,1.9,0,3.7,0,5.6c0,0.4,0.1,0.6,0.5,0.6c1.3,0,2.6,0,3.9,0
			c0.4,0,0.5-0.2,0.5-0.6c0-1,0-1.9,0-2.9c0-0.9,0-1.9,0-2.8c0-0.9,0.3-1.3,1.2-1.5c1.6-0.4,3.2-1,4.6-1.9c1-0.6,1.4-0.5,2.3,0.3
			c1.3,1.3,2.6,2.6,3.9,3.9c0.4,0.4,0.6,0.3,0.9,0c0.8-0.9,1.7-1.7,2.5-2.5c0.4-0.4,0.4-0.6,0-1c-1.3-1.2-2.5-2.5-3.8-3.7
			c-0.9-0.9-0.9-1.3-0.3-2.4c0.8-1.3,1.4-2.7,1.7-4.2c0.3-1.4,0.7-1.6,2.1-1.6c1.7,0,3.4,0,5.2,0c0.5,0,0.7-0.1,0.7-0.7
			C51.3,32.1,51.3,30.9,51.3,29.7z M27.9,45.1c-7.7,0-13.7-6.3-13.6-13.6c0-7.5,6.1-13.6,13.6-13.6c7.5,0,13.5,6.1,13.6,13.6
			C41.5,38.8,35.7,45.1,27.9,45.1z"/>
	</g>
	<path class="st3" d="M74.2,30.6L74.2,30.6l-4.5,0v0C71.2,30.6,72.7,30.6,74.2,30.6z"/>
	<path class="st3" d="M74.2,40.5v-9.9c-1.5,0-3,0-4.5,0v9.9H74.2z"/>
	<path class="st3" d="M80.1,60.2L80.1,60.2c0.4,0,0.8,0,1.2,0c0.5,0,1.1,0,1.6,0v0H80.1z"/>
	<path class="st3" d="M80.1,60.2v6.2h2.8v-6.2c-0.5,0-1.1,0-1.6,0C80.9,60.2,80.5,60.2,80.1,60.2z"/>
	<path class="st3" d="M62.5,60.2L62.5,60.2l-2.8,0v0C60.6,60.2,61.5,60.2,62.5,60.2z"/>
	<path class="st3" d="M62.5,66.5v-6.2c-0.9,0-1.9,0-2.8,0v6.2H62.5z"/>
</g>
</svg>
