<?xml version="1.0" encoding="utf-8"?>
<!-- Generator: Adobe Illustrator 26.2.1, SVG Export Plug-In . SVG Version: 6.00 Build 0)  -->
<svg version="1.1" id="Layer_1" xmlns="http://www.w3.org/2000/svg" xmlns:xlink="http://www.w3.org/1999/xlink" x="0px" y="0px"
	 viewBox="0 0 100 100" style="enable-background:new 0 0 100 100;" xml:space="preserve">
<style type="text/css">
	.st0{fill:url(#SVGID_1_);}
	.st1{fill:url(#SVGID_00000052076223784476759630000009242566908961036990_);}
	.st2{fill:url(#SVGID_00000018233929076292910720000004786459347279792268_);}
	.st3{fill:#FFFFFF;}
	.st4{fill:none;}
	.st5{fill:url(#SVGID_00000049935128220399114780000003840999162923370143_);}
	.st6{fill:url(#SVGID_00000086656205573218165690000002820923441063265721_);}
	.st7{fill:url(#SVGID_00000016758361168617721620000011027154296679223988_);}
	.st8{fill:url(#SVGID_00000111158634215178299140000005292050443871315874_);}
	.st9{fill:url(#SVGID_00000124141780801468559720000016007482354403278232_);}
	.st10{fill:url(#SVGID_00000063598007864049123630000011140182601058453412_);}
	.st11{fill:url(#SVGID_00000052824286760097006240000017005410221005723037_);}
	.st12{fill:url(#SVGID_00000120528965278474110520000010354645684146802110_);}
	.st13{fill:url(#SVGID_00000147916048802889892030000002994196140677668265_);}
	.st14{fill:url(#SVGID_00000097471083371331469270000006744081660240414116_);}
	.st15{fill:url(#SVGID_00000177464888920565988430000003648645716566225852_);}
	.st16{fill:url(#SVGID_00000021101793555486975790000016367561004562768771_);}
	.st17{fill:url(#SVGID_00000107590617687934383770000005202481440653508248_);}
	.st18{fill:url(#SVGID_00000030486194686448515530000004278836875440373126_);}
	.st19{fill:url(#SVGID_00000028327322175634365170000006406614697349691017_);}
	.st20{fill:url(#SVGID_00000096018025825600455250000015526051704119145125_);}
	.st21{fill:url(#SVGID_00000050654387967759208840000003224158901377028226_);}
	.st22{fill:url(#SVGID_00000145758926077642663990000016756044092887848382_);}
	.st23{fill:url(#SVGID_00000155848025993533945500000002196522381041676418_);}
	.st24{fill:url(#SVGID_00000181060233656982138280000015816826450321931649_);}
	.st25{fill:url(#SVGID_00000181048930369034356650000013815407934077827765_);}
	.st26{fill:url(#SVGID_00000170999597147752458710000003736175179326683060_);}
	.st27{fill:url(#SVGID_00000094590235008383239910000013904469096375862402_);}
</style>
<g>
	<linearGradient id="SVGID_1_" gradientUnits="userSpaceOnUse" x1="76.9226" y1="70.8773" x2="27.7899" y2="11.9379">
		<stop  offset="0.1184" style="stop-color:#845B77"/>
		<stop  offset="0.29" style="stop-color:#A76370"/>
		<stop  offset="0.4922" style="stop-color:#CA6B69"/>
		<stop  offset="0.6836" style="stop-color:#E37064"/>
		<stop  offset="0.858" style="stop-color:#F27461"/>
		<stop  offset="1" style="stop-color:#F77560"/>
	</linearGradient>
	<path class="st0" d="M57.8,36.7c-2.8,0.4-4.4,2.1-4.4,4.5c0,2.3,1.7,4,4.4,4.4c0,2.9,0,5.8,0,8.8c-2.5,0-5.1,0-7.7,0
		c0-1.1,0-2.2,0-3.2c0-0.3-0.2-0.7-0.4-0.9c-1.5-1.3-3.1-2.5-4.6-3.8c-4.2-3.5-6.6-8.1-7-13.6c0-0.1,0-0.3,0-0.5c2.9,0,5.8,0,8.8,0
		c0-0.7,0-1.4,0-2c0-1.5,0.9-2.5,2.2-2.5c1.3,0,2.2,1,2.2,2.5c0,0.6,0,1.2,0,1.9c2.2,0,4.4,0,6.6,0C57.8,33.8,57.8,35.2,57.8,36.7z"
		/>
	
		<linearGradient id="SVGID_00000087383945277791844220000017426653983025134006_" gradientUnits="userSpaceOnUse" x1="85.7207" y1="63.5431" x2="36.588" y2="4.6037">
		<stop  offset="0.1184" style="stop-color:#845B77"/>
		<stop  offset="0.29" style="stop-color:#A76370"/>
		<stop  offset="0.4922" style="stop-color:#CA6B69"/>
		<stop  offset="0.6836" style="stop-color:#E37064"/>
		<stop  offset="0.858" style="stop-color:#F27461"/>
		<stop  offset="1" style="stop-color:#F77560"/>
	</linearGradient>
	<path style="fill:url(#SVGID_00000087383945277791844220000017426653983025134006_);" d="M65.6,54.4c-1.9,0-3.7,0-5.5,0
		c0-3.7,0-7.3,0-11c-0.3,0-0.6,0-0.9,0c-2.5,0-3.5-0.7-3.5-2.2c0-1.6,1-2.2,3.6-2.2c0.3,0,0.5,0,0.8,0c0-2.2,0-4.4,0-6.6
		c2.2,0,4.4,0,6.7,0c0-0.8,0-1.4,0-2.1c0-1.3,1-2.3,2.2-2.3c1.2,0,2.2,1,2.2,2.3c0,0.7,0,1.4,0,2.1c2.2,0,4.4,0,6.6,0
		c-0.1,2.9-0.8,5.5-2.1,8c-1.2,2.3-2.8,4.3-4.9,6c-1.6,1.3-3.2,2.6-4.7,3.9c-0.2,0.2-0.4,0.6-0.4,0.8C65.5,52.2,65.6,53.2,65.6,54.4
		z"/>
	
		<linearGradient id="SVGID_00000056418477620831896440000003780887681598691754_" gradientUnits="userSpaceOnUse" x1="84.2374" y1="64.7796" x2="35.1047" y2="5.8402">
		<stop  offset="0.1184" style="stop-color:#845B77"/>
		<stop  offset="0.29" style="stop-color:#A76370"/>
		<stop  offset="0.4922" style="stop-color:#CA6B69"/>
		<stop  offset="0.6836" style="stop-color:#E37064"/>
		<stop  offset="0.858" style="stop-color:#F27461"/>
		<stop  offset="1" style="stop-color:#F77560"/>
	</linearGradient>
	<path style="fill:url(#SVGID_00000056418477620831896440000003780887681598691754_);" d="M57.8,17.9c-2.6,0.3-4.4,2.1-4.4,4.4
		c0,2.4,1.7,4.1,4.4,4.5c0,0.5,0,1.1,0,1.6c0,0.5,0,1,0,1.6c-1.5,0-2.9,0-4.4,0c-0.4-2.8-2.2-4.4-4.6-4.4c-2.3,0.1-4,1.8-4.3,4.4
		c-2.1,0-4.3,0-6.4,0c0.2-8.5,8.2-18,19.7-17.6C57.8,14.3,57.8,16.1,57.8,17.9z"/>
	
		<linearGradient id="SVGID_00000064333388588993174520000001096551165020500370_" gradientUnits="userSpaceOnUse" x1="72.1675" y1="74.8412" x2="23.0348" y2="15.9018">
		<stop  offset="0.1184" style="stop-color:#845B77"/>
		<stop  offset="0.29" style="stop-color:#A76370"/>
		<stop  offset="0.4922" style="stop-color:#CA6B69"/>
		<stop  offset="0.6836" style="stop-color:#E37064"/>
		<stop  offset="0.858" style="stop-color:#F27461"/>
		<stop  offset="1" style="stop-color:#F77560"/>
	</linearGradient>
	<path style="fill:url(#SVGID_00000064333388588993174520000001096551165020500370_);" d="M57.8,58.8c-2.8,0-5.6,0-8.4,0
		c-0.3,0-0.8,0-1-0.2c-0.3-0.3-0.5-0.8-0.4-1.1c0.1-0.3,0.6-0.7,1-0.8c0.6-0.1,1.3,0,2,0c5,0,10.1,0,15.1,0c0.2,0,0.4,0,0.6,0
		c0.7,0,1.2,0.5,1.2,1.1c0,0.6-0.5,1.1-1.2,1.1c-1.4,0-2.8,0-4.2,0C60.9,58.8,59.3,58.8,57.8,58.8z"/>
	
		<linearGradient id="SVGID_00000171704938445082641150000002391833014340297656_" gradientUnits="userSpaceOnUse" x1="68.0604" y1="78.2649" x2="18.9277" y2="19.3255">
		<stop  offset="0.1184" style="stop-color:#845B77"/>
		<stop  offset="0.29" style="stop-color:#A76370"/>
		<stop  offset="0.4922" style="stop-color:#CA6B69"/>
		<stop  offset="0.6836" style="stop-color:#E37064"/>
		<stop  offset="0.858" style="stop-color:#F27461"/>
		<stop  offset="1" style="stop-color:#F77560"/>
	</linearGradient>
	<path style="fill:url(#SVGID_00000171704938445082641150000002391833014340297656_);" d="M63.2,65.5c-0.4,2.5-2.8,4.4-5.4,4.4
		c-2.6,0-4.9-1.9-5.3-4.4C56,65.5,59.6,65.5,63.2,65.5z"/>
	
		<linearGradient id="SVGID_00000042730021495348126090000015891317258094649784_" gradientUnits="userSpaceOnUse" x1="69.9659" y1="76.6765" x2="20.8332" y2="17.7371">
		<stop  offset="0.1184" style="stop-color:#845B77"/>
		<stop  offset="0.29" style="stop-color:#A76370"/>
		<stop  offset="0.4922" style="stop-color:#CA6B69"/>
		<stop  offset="0.6836" style="stop-color:#E37064"/>
		<stop  offset="0.858" style="stop-color:#F27461"/>
		<stop  offset="1" style="stop-color:#F77560"/>
	</linearGradient>
	<path style="fill:url(#SVGID_00000042730021495348126090000015891317258094649784_);" d="M57.8,63.2c-2.1,0-4.2,0-6.3,0
		c-0.9,0-1.4-0.4-1.4-1.1c0-0.7,0.5-1.1,1.4-1.1c4.2,0,8.5,0,12.7,0c0.9,0,1.4,0.4,1.4,1.1c0,0.7-0.5,1.1-1.4,1.1
		C62.1,63.2,60,63.2,57.8,63.2z"/>
</g>
<g>
	
		<linearGradient id="SVGID_00000093141618538314849900000007261757711279757191_" gradientUnits="userSpaceOnUse" x1="106.3755" y1="46.325" x2="57.2428" y2="-12.6144">
		<stop  offset="0.1184" style="stop-color:#845B77"/>
		<stop  offset="0.29" style="stop-color:#A76370"/>
		<stop  offset="0.4922" style="stop-color:#CA6B69"/>
		<stop  offset="0.6836" style="stop-color:#E37064"/>
		<stop  offset="0.858" style="stop-color:#F27461"/>
		<stop  offset="1" style="stop-color:#F77560"/>
	</linearGradient>
	<path style="fill:url(#SVGID_00000093141618538314849900000007261757711279757191_);" d="M68.9,18c-2.8-0.5-4.4-2.1-4.4-4.4
		c0-2.4,1.5-4,4.4-4.6c0-0.7,0-1.4,0-2c0-2,1.4-3.4,3.4-3.4c5.1,0,10.2,0,15.3,0c1.9,0,3.4,1.4,3.4,3.4c0,4.4,0,8.8,0,13.2
		c0,1.9-1.4,3.3-3.3,3.3c-1.7,0-3.5,0-5.2,0c-0.1,0-0.1,0-0.3-0.1c0-0.7,0-1.4,0-2c0-1.3-1-2.3-2.2-2.3c-1.3,0-2.2,1-2.2,2.3
		c0,0.7,0,1.3,0,2c-2.9,0-5.9,0-8.8,0C68.9,21.6,68.9,19.8,68.9,18z M84.3,21.3c1,0,1.9,0,2.9,0c1.2,0,1.5-0.3,1.5-1.5
		c0-4.1,0-8.3,0-12.4c0-1.2-0.3-1.5-1.5-1.5c-4.7,0-9.4,0-14.1,0c-1.9,0-2.1,0.1-2.1,2.1c0,1.1,0,2.3,0,3.5c-0.7,0-1.4,0-2,0
		c-1.4,0-2.4,0.9-2.4,2.2c0,1.3,1,2.2,2.4,2.2c0.7,0,1.3,0,2,0c0,1,0,1.9,0,2.8c0,0.9,0,1.8,0,2.7c1.5,0,2.9,0,4.4,0
		c0.4-2.8,2.1-4.4,4.6-4.4C82.3,16.9,84,18.6,84.3,21.3z"/>
</g>
<path class="st3" d="M84.3,21.3c-0.3-2.7-2-4.4-4.4-4.4c-2.4,0-4.1,1.6-4.6,4.4c-1.4,0-2.9,0-4.4,0c0-0.9,0-1.8,0-2.7
	c0-0.9,0-1.8,0-2.8c-0.7,0-1.3,0-2,0c-1.4,0-2.4-0.9-2.4-2.2c0-1.3,1-2.2,2.4-2.2c0.6,0,1.3,0,2,0c0-1.2,0-2.3,0-3.5
	c0-1.9,0.1-2.1,2.1-2.1c4.7,0,9.4,0,14.1,0c1.2,0,1.5,0.3,1.5,1.5c0,4.1,0,8.3,0,12.4c0,1.2-0.3,1.5-1.5,1.5
	C86.3,21.3,85.3,21.3,84.3,21.3z"/>
<g>
	
		<linearGradient id="SVGID_00000144319054496757895440000016116461879138805637_" gradientUnits="userSpaceOnUse" x1="9.2636" y1="78.6043" x2="76.1141" y2="78.6043">
		<stop  offset="0" style="stop-color:#F77560"/>
		<stop  offset="0.142" style="stop-color:#F27461"/>
		<stop  offset="0.3164" style="stop-color:#E37064"/>
		<stop  offset="0.5078" style="stop-color:#CA6B69"/>
		<stop  offset="0.71" style="stop-color:#A76370"/>
		<stop  offset="0.8816" style="stop-color:#845B77"/>
	</linearGradient>
	<path style="fill:url(#SVGID_00000144319054496757895440000016116461879138805637_);" d="M75.3,67.5c-1.3-1.9-3.6-2.4-5.8-1.3
		c-6.9,3.5-13.8,7-20.7,10.4c-0.3,0.1-0.7,0.2-1,0.2c-0.8-0.1-1.6-0.3-2.4-0.4c-0.9-0.2-1.7-0.3-2.6-0.5c0,0,0-0.1,0-0.1
		c0.9-0.1,1.7-0.1,2.6-0.2c2.3-0.1,4-1.9,4-4.2c0-2.2-1.7-4-3.9-4.2c-3.4-0.2-6.7-0.4-10.1-0.6c-0.4,0-0.9-0.1-1.3-0.3
		c-1.7-0.7-3.4-1.5-5.1-2c-1.4-0.4-2.8-0.5-4.3-0.8c-0.5-1.6-1.4-2.4-2.9-2.4c-3.2,0-6.5,0-9.7,0c-1.7,0-2.9,1.3-2.9,3
		c0,0.4,0,0.8,0,1.2c0,8.4,0,16.8,0,25.2c0,2,1.2,3.2,3.2,3.2c3,0,6,0,9,0c2.1,0,3.3-1.1,3.3-3.3c0-0.2,0-0.5,0-0.8
		c0.3,0.1,0.5,0.2,0.7,0.2c5.5,1.9,10.9,3.8,16.4,5.8c3.4,1.2,6.5,0.6,9.2-1.7c7.8-6.8,15.7-13.7,23.5-20.5
		C76.3,71.8,76.6,69.4,75.3,67.5z M17.1,89.6c-1.7,0-3.2-1.4-3.2-3.1c0-1.7,1.4-3.2,3.1-3.2c1.7,0,3.2,1.4,3.2,3.2
		C20.2,88.1,18.7,89.5,17.1,89.6z M73.9,71.2c-0.2,0.3-0.4,0.5-0.6,0.7c-7.9,6.9-15.7,13.7-23.6,20.6c-2,1.8-4.3,2.2-6.9,1.3
		c-5.8-2-11.6-4.1-17.4-6.1c-0.4-0.1-0.6-0.3-0.6-0.7c0-7,0-14,0-21c0-0.1,0-0.2,0-0.4c2,0.1,3.8,0.5,5.6,1.2
		c0.9,0.4,1.8,0.7,2.6,1.2c0.8,0.4,1.7,0.6,2.6,0.6c3,0.1,6,0.3,9,0.5c0.3,0,0.6,0,0.9,0.1c1.2,0.2,2,1.1,2,2.3
		c0,1.2-0.9,2.1-2.1,2.1c-3.6,0.3-7.2,0.5-10.9,0.8c-0.8,0.1-1.1,0.3-1.1,0.9c0,0.6,0.3,0.9,1.1,1c4.4,0.8,8.9,1.5,13.3,2.3
		c0.7,0.1,1.3,0,1.9-0.3c6.9-3.5,13.9-7,20.8-10.5c1.1-0.6,2.2-0.4,3,0.4C74.3,69,74.4,70.2,73.9,71.2z"/>
	
		<linearGradient id="SVGID_00000178168795633052164880000013524495177600544703_" gradientUnits="userSpaceOnUse" x1="15.7748" y1="86.4074" x2="18.2442" y2="86.4074">
		<stop  offset="0" style="stop-color:#F77560"/>
		<stop  offset="0.142" style="stop-color:#F27461"/>
		<stop  offset="0.3164" style="stop-color:#E37064"/>
		<stop  offset="0.5078" style="stop-color:#CA6B69"/>
		<stop  offset="0.71" style="stop-color:#A76370"/>
		<stop  offset="0.8816" style="stop-color:#845B77"/>
	</linearGradient>
	<path style="fill:url(#SVGID_00000178168795633052164880000013524495177600544703_);" d="M17,85.2c-0.7,0-1.3,0.6-1.3,1.2
		c0,0.7,0.6,1.2,1.2,1.2c0.7,0,1.2-0.5,1.2-1.2C18.3,85.8,17.7,85.2,17,85.2z"/>
</g>
</svg>
