<?xml version="1.0" encoding="utf-8"?>
<!-- Generator: Adobe Illustrator 26.5.0, SVG Export Plug-In . SVG Version: 6.00 Build 0)  -->
<svg version="1.1" id="Layer_1" xmlns="http://www.w3.org/2000/svg" xmlns:xlink="http://www.w3.org/1999/xlink" x="0px" y="0px"
	 viewBox="0 0 350 350" style="enable-background:new 0 0 350 350;" xml:space="preserve">
<style type="text/css">
	.st0{fill:#717171;}
	.st1{fill:#E91D2D;}
	.st2{fill:#FFFFFF;}
</style>
<path class="st2" d="M313.72,340.1c-6.2-2.24-10.3-7.09-14.67-11.64c-23.64-24.6-47.3-49.17-70.96-73.75
	c-0.74-0.77-1.49-1.55-2.35-2.45c-38.55,25.19-79.7,31.29-123.09,15.68c-31.44-11.31-55.37-32.29-71.39-61.64
	C-0.18,148.71,14.58,78.67,64.85,38.16C118.67-5.21,194.34-0.76,243.2,47.35c45.69,44.99,56.28,122.36,8.37,181.06
	c0.76,0.83,1.52,1.7,2.32,2.53c25.14,26.15,50.29,52.3,75.42,78.45c7.5,7.8,8,18.46,0.82,25.41c-2.37,2.29-5.73,3.57-8.64,5.31
	C318.9,340.1,316.31,340.1,313.72,340.1z M148.89,241.14c54.59-0.07,98.8-44.27,98.81-98.79c0.01-54.43-44.28-98.83-98.75-98.98
	c-54.37-0.15-99.07,44.57-99.02,99.07C49.99,196.88,94.45,241.22,148.89,241.14z"/>
</svg>
