<?xml version="1.0" encoding="utf-8"?>
<!-- Generator: Adobe Illustrator 26.5.0, SVG Export Plug-In . SVG Version: 6.00 Build 0)  -->
<svg version="1.1" id="Layer_1" xmlns="http://www.w3.org/2000/svg" xmlns:xlink="http://www.w3.org/1999/xlink" x="0px" y="0px"
	 viewBox="0 0 384 384" style="enable-background:new 0 0 384 384;" xml:space="preserve">
<style type="text/css">
	.st0{fill:#FFFFFF;}
</style>
<g id="Background_Complete">
</g>
<g id="Floor">
</g>
<g id="Device">
</g>
<g id="Icons">
</g>
<g id="Character_3">
</g>
<g id="Character_2">
</g>
<g id="Character_1">
</g>
<g id="Goal">
	<path class="st0" d="M241.2,57.4c4.7,0.4,9.5,0.7,14.2,1.1c2.9,0.2,5.9,0.5,8.9,0.8c0,14.7,0,29.1,0,43.9c-1.2,0-2.3,0-3.5,0
		c-9.3,0.2-18.7-0.1-28,0.6c-10,0.7-15.9,5.9-16.5,15.9c-0.9,13.6-0.2,27.2-0.2,41.2c14.5,0,29.2,0,44.1,0c-2,16.5-4.1,32.7-6.1,49
		c-12.8,0-25.4,0-38.4,0c0,41.2,0,82.2,0,123.3c-16.6,0-32.8,0-49.2,0c0-41,0-82,0-123.1c-13.4,0-26.5,0-39.9,0
		c0-16.4,0-32.6,0-49.1c13.1,0,26.2,0,39.8,0c0-1.3,0-2.3,0-3.4c0.1-14.5-0.3-28.9,0.5-43.4c0.9-17,6.7-32.1,20.1-43.5
		c9-7.6,19.6-11.4,31.1-12.9c0.9-0.1,1.7-0.4,2.6-0.5C227.6,57.4,234.4,57.4,241.2,57.4z"/>
</g>
</svg>
