<?xml version="1.0" encoding="utf-8"?>
<!-- Generator: Adobe Illustrator 26.2.1, SVG Export Plug-In . SVG Version: 6.00 Build 0)  -->
<svg version="1.1" id="Layer_1" xmlns="http://www.w3.org/2000/svg" xmlns:xlink="http://www.w3.org/1999/xlink" x="0px" y="0px"
	 viewBox="0 0 420 420" style="enable-background:new 0 0 420 420;" xml:space="preserve">
<style type="text/css">
	.st0{fill:#FEF0EE;}
	.st1{fill:url(#SVGID_1_);}
	.st2{fill:url(#SVGID_00000182510926025420254820000013880704724366977196_);}
	.st3{fill:url(#SVGID_00000119116499480060110840000016958053480505368753_);}
	.st4{fill:url(#SVGID_00000158012879190324556840000009620702742984231813_);}
	.st5{fill:url(#SVGID_00000021093587444983092790000014292436999375396761_);}
	.st6{fill:url(#SVGID_00000107572856816019534960000009358723026085782688_);}
	.st7{fill:url(#SVGID_00000029755397639536401350000016493300351070065283_);}
	.st8{fill:url(#SVGID_00000088836285005379299760000003556631802484681348_);}
	.st9{fill:url(#SVGID_00000130631445036994778210000007023933724882520453_);}
	.st10{fill:url(#SVGID_00000045577679807336261320000006728227456620561813_);}
	.st11{fill:url(#SVGID_00000051345149849972960590000014954469082293598110_);}
	.st12{fill:url(#SVGID_00000086688451459987603380000007393986089009421193_);}
	.st13{fill:url(#SVGID_00000136389385429219824930000011648203493870209694_);}
	.st14{fill:url(#SVGID_00000121981212646276010370000010476657414735715212_);}
	.st15{fill:url(#SVGID_00000126294753100500987540000000903080209446597035_);}
	.st16{fill:url(#SVGID_00000036211613755095652950000002045782377244610456_);}
	.st17{fill:url(#SVGID_00000085935833203019815190000002927365999714715034_);}
	.st18{fill:url(#SVGID_00000164482432455288541820000009267169083189076364_);}
	.st19{fill:url(#SVGID_00000018213990323232621640000002328908386253585292_);}
	.st20{fill:url(#SVGID_00000153676741525534236070000016553594858863664273_);}
	.st21{fill:url(#SVGID_00000163043163122072088200000013424291800540855953_);}
	.st22{fill:url(#SVGID_00000052821053998934391990000015702306539432941957_);}
	.st23{fill:url(#SVGID_00000045578049831087426870000008774366080842227618_);}
	.st24{fill:url(#SVGID_00000150081424512563826090000012484228290369346233_);}
	.st25{fill:url(#SVGID_00000004519096992465348110000007510149503286407577_);}
	.st26{fill:url(#SVGID_00000065761699123918800410000003069483541367687865_);}
	.st27{fill:url(#SVGID_00000062900376138681727180000001319868331296155279_);}
	.st28{fill:url(#SVGID_00000013163179486151320640000003442936897285994894_);}
	.st29{fill:none;}
	.st30{fill:url(#SVGID_00000127761975376047317390000001156560723627212169_);}
	.st31{fill:url(#SVGID_00000003820595244017090810000004420609082458325421_);}
	.st32{fill:url(#SVGID_00000115502366399586705170000006473798996262069406_);}
	.st33{fill:url(#SVGID_00000079455373849235049800000011447992743835085981_);}
</style>
<circle class="st0" cx="209.8" cy="210" r="201.2"/>
<g>
	<linearGradient id="SVGID_1_" gradientUnits="userSpaceOnUse" x1="330.6923" y1="274.3171" x2="83.4828" y2="129.4797">
		<stop  offset="0" style="stop-color:#845B77"/>
		<stop  offset="1" style="stop-color:#F77560"/>
	</linearGradient>
	<path class="st1" d="M84.9,225.6c4.3-2,8.6-4,13-6c0,0,0,0,0,0c0,0,0,0,0,0c0.4-0.1,0.7-0.2,1.1-0.4c20.6-9.3,54.2-24.4,80.7-36.4
		c5.9-2.6,11.4-5.1,16.3-7.4c0.5-0.3,1-0.6,1.6-0.8c4.8-2,9.6-4.3,14.4-6.4c15.5-7,31.1-14.1,46.6-21.1c1.4-0.6,1.9-1.4,1.5-2.8
		c-1.5-5.3-4-9.9-8.8-12.9c-0.6-0.5-1.1-1-1.8-1.3c-8.4-4.6-16.6-4.3-24.7,1c-3.9,2.6-5.7,2.3-8.5-1.4c-1.4-1.9-2.8-3.8-4.4-5.5
		c-12.4-12.7-27.5-17.7-44.9-14.6c-0.9,0.1-1.7,0.3-2.5,0.5c-1.7,0.4-3.3,0.8-4.8,1.3c-1.6,0.5-3.1,1.1-4.6,1.8
		c-0.5,0.2-1,0.5-1.5,0.7c-7.5,3.7-13.7,9.3-18.5,16.9c-2.7,2.9-5.5,1.9-8.2,0c-1.1-1.1-2.4-1.9-3.8-2.5c-0.5-0.2-0.9-0.4-1.4-0.5
		c-0.3-0.1-0.6-0.2-0.8-0.2c-11.2-3.1-22,3.2-25.1,14.5c-0.1,0.3-0.2,0.6-0.3,1c-0.2,0.5-0.3,0.9-0.6,1.3c-0.1,0.2-0.2,0.4-0.3,0.5
		c-0.8,1.2-2,1.9-3.9,1.9c0,0,0,0,0,0c0,0,0,0.1,0,0.1c0.2,3.7,2.4,6.9,5.6,8.8c0.9,0.6,1.7,1.4,2.4,2.6c1,1.9,2.8,3.3,4.4,4.7
		c3.8,3.2,4.1,4.6,1.3,8.7c-6.2,8.9-9.6,18.6-9,29.5c0.2,3.8-1,6.1-4.5,7.8c-5.6,2.7-8.5,8.5-7.8,14.6
		C82.7,225.2,82.9,226.5,84.9,225.6z M238.3,142.9c2.7,0,4.1,1.4,4.2,4.1c0,2.3-1.8,4.3-4.1,4.4c-2.2,0.1-4.3-2-4.3-4.2
		C234,144.9,236.1,142.9,238.3,142.9z M206.7,155.8c2.8,0,4.2,1.4,4.2,4.1c0,2.2-1.8,4.3-3.9,4.3c-2.2,0.1-4.5-2-4.6-4.1
		C202.5,157.9,204.5,155.9,206.7,155.8z M132.5,158.7c2.3,0,4.1,1.9,4.1,4c0,2.4-1.9,4.4-4.2,4.4c-2.4,0-4.3-2.1-4.2-4.6
		C128.3,160.3,130.2,158.6,132.5,158.7z M188.4,147c2.1,0,4.4,2.3,4.3,4.4c0,2.2-1.9,3.9-4.2,3.9c-2.8,0-4-1.1-4-3.8
		C184.4,148.9,186.1,147,188.4,147z M176.8,129.9c2.3-0.1,4.3,1.9,4.3,4.2c0,2.3-1.7,4.2-3.9,4.3c-2.4,0.1-4.4-1.7-4.6-4
		C172.5,132.1,174.5,130,176.8,129.9z M161.7,146.9c2.2,0,4.2,2.1,4.2,4.5c0,2.5-1.4,3.9-4.1,3.9c-2.8,0.1-4.4-1.4-4.3-4
		C157.5,149,159.5,146.9,161.7,146.9z M154.6,185.6c0,2.2-1.8,4-4.1,4c-2.8,0.1-4.3-1.3-4.4-3.9c0-2.5,1.8-4.4,4.1-4.4
		C152.5,181.2,154.6,183.3,154.6,185.6z M124.1,184c2.6,0.1,4,1.4,4,3.9c0,2.5-1.8,4.4-4.1,4.4c-2.1,0-4.4-2.4-4.3-4.6
		C119.8,185.6,121.8,184,124.1,184z M97.4,218.6C97.4,218.6,97.4,218.6,97.4,218.6c0-0.1,0.1-0.1,0.1-0.2
		C97.5,218.5,97.4,218.5,97.4,218.6z M97.4,218.7C97.4,218.7,97.4,218.7,97.4,218.7C97.4,218.6,97.4,218.6,97.4,218.7L97.4,218.7
		C97.4,218.6,97.4,218.6,97.4,218.7z M97.4,218.7C97.4,218.7,97.4,218.7,97.4,218.7c0,0.1,0,0.1,0,0.2
		C97.3,218.8,97.4,218.7,97.4,218.7z"/>
	
		<linearGradient id="SVGID_00000054980633268675571870000018268682562517319323_" gradientUnits="userSpaceOnUse" x1="323.433" y1="286.7073" x2="76.2235" y2="141.8699">
		<stop  offset="0" style="stop-color:#845B77"/>
		<stop  offset="1" style="stop-color:#F77560"/>
	</linearGradient>
	<path style="fill:url(#SVGID_00000054980633268675571870000018268682562517319323_);" d="M280.8,161.1c0-6.4-6.2-11.9-13.3-8.6
		c-20.8,9.7-41.8,19-62.7,28.4c-0.4,0.2-0.8,0.4-1.3,0.6c-12.1,5.5-35.5,16-53.9,24.3c-7,3.2-13.2,6-17.8,8.1
		c-13.6,6.2-27.2,12.4-40.8,18.6c-2,0.8-4,1.6-5.9,2.5c-4.5,2-6.7,6.6-5.6,11.4c1.1,4.9,4.5,7.6,9.7,7.6c48,0,96.1,0,144.1,0
		c4.7,0,9.4-0.6,13.8-2.1c9.8-3.2,17.8-8.9,23.6-17.6c0.4-0.4,0.8-0.8,1.1-1.3c6.2-9,8.9-19.1,8.9-29.9c0-11.9,0-23.8,0-35.7
		C280.8,165.2,280.8,163.1,280.8,161.1z"/>
	
		<linearGradient id="SVGID_00000016762617064044612000000009814940129243292327_" gradientUnits="userSpaceOnUse" x1="379.4835" y1="191.0399" x2="132.2741" y2="46.2025">
		<stop  offset="0" style="stop-color:#845B77"/>
		<stop  offset="1" style="stop-color:#F77560"/>
	</linearGradient>
	<path style="fill:url(#SVGID_00000016762617064044612000000009814940129243292327_);" d="M339.4,127c-4.4-2.4-8.9-2.8-13.5-0.8
		c-9.8,4.3-19.6,8.8-29.4,13.2c-4.8,2.2-9.6,4.3-14.7,6.6c5.3,4.3,7.4,9.7,7.6,16c0,5.1,0.1,10.1-0.1,15.2c-0.1,2.5,0.7,2.3,2.5,1.4
		c7.2-3.4,14.5-6.6,21.7-9.9c8.6-3.9,17.3-7.7,25.8-11.8c6.2-3,9.5-8.3,9.4-15.1C348.7,135.3,345.7,130,339.4,127z"/>
	
		<linearGradient id="SVGID_00000150819405454959604060000013988290602848656772_" gradientUnits="userSpaceOnUse" x1="263.3888" y1="389.1913" x2="16.1793" y2="244.3538">
		<stop  offset="0" style="stop-color:#845B77"/>
		<stop  offset="1" style="stop-color:#F77560"/>
	</linearGradient>
	<path style="fill:url(#SVGID_00000150819405454959604060000013988290602848656772_);" d="M85.2,276.5c-1.3-0.7-2.5-1-3.7-0.9
		c-0.3,0-0.7,0.1-1,0.1c-0.2,0-0.3,0.1-0.5,0.1c-0.3,0.1-0.5,0.2-0.8,0.3c-0.8,0.3-1.5,0.8-2.2,1.4c-0.5,0.2-1,0.3-1.5,0.3
		c-1.1,0-2.1-0.2-3.1-0.5c-1.5,2.4-1.8,4.9-0.9,7.6c2.6-0.7,4.4,0.6,6.3,2.1c2.8,2.2,4.8,2.2,7.8,0.3c1.8-0.8,2.6-2.2,2.8-4.1
		C88.5,280.3,87.7,277.9,85.2,276.5z"/>
	
		<linearGradient id="SVGID_00000147921118011391645240000008339265688729966220_" gradientUnits="userSpaceOnUse" x1="265.39" y1="385.7756" x2="18.1805" y2="240.9381">
		<stop  offset="0" style="stop-color:#845B77"/>
		<stop  offset="1" style="stop-color:#F77560"/>
	</linearGradient>
	<path style="fill:url(#SVGID_00000147921118011391645240000008339265688729966220_);" d="M127.6,297.8c-5.1,0.4-5.3,0.3-7.3-4.4
		c-2-4.7-7.3-5.7-10.9-2c-2.2,2-2.1,4.5-1.2,7c0.9,2.4,2.9,4,5.4,3.7c4.3-0.4,6.4,1.5,7.2,5.6c0.5,2.4,2.3,4.1,4.6,4.9
		c0.6,0.2,1.1,0.3,1.7,0.4c0.6,0.1,1.2,0.1,1.7,0c0.7-0.1,1.4-0.3,2.1-0.6c0.4-0.2,0.7-0.4,1.1-0.7c0.2-0.1,0.4-0.3,0.6-0.4
		c0.4-0.3,0.7-0.6,1-0.9c2-2,2.6-4.6,1.7-7.5C134.4,299.8,131,297.6,127.6,297.8z"/>
</g>
</svg>
