<?xml version="1.0" encoding="utf-8"?>
<!-- Generator: Adobe Illustrator 26.3.1, SVG Export Plug-In . SVG Version: 6.00 Build 0)  -->
<svg version="1.1" id="Layer_1" xmlns="http://www.w3.org/2000/svg" xmlns:xlink="http://www.w3.org/1999/xlink" x="0px" y="0px"
	 viewBox="0 0 450 596.1" style="enable-background:new 0 0 450 596.1;" xml:space="preserve">
<style type="text/css">
	.st0{fill:#D8D8D8;stroke:#41E09B;stroke-width:2;stroke-miterlimit:10;}
	.st1{fill:#C1C1C1;stroke:#41E09B;stroke-width:2;stroke-miterlimit:10;}
	.st2{fill:#D8D8D8;}
	.st3{fill:#18244C;}
	.st4{fill:#C1C1C1;}
</style>
<g>
	<path class="st0" d="M394.2,256.6c0-3,2.6-5.4,5.7-5.5l0.5-19.3c2.9-22-12.8-22-12.8-22s-300.1,0-320.6,0s-18.1,22-18.1,22
		l0.6,19.4c0.2,0,0.3,0,0.5,0c3.2,0,5.9,2.5,5.9,5.5c0,2.9-2.5,5.4-5.7,5.5L70,572.4c0,0,42.7,16.3,163.3,16.3
		s148.4-20.1,148.4-20.1l17.5-306.4C396.4,261.7,394.2,259.4,394.2,256.6z"/>
</g>
<path class="st4" d="M228.3,271.4c-18.5,0-34.9-0.4-48.6-1.1c-43.3-1.9-113.6-5.9-113.9-5.9l0.8-4.5c0.2,0,70.4,4,113.5,5.9
	c39.7,1.8,133.9,2.3,203.1-5.9l0.6,4.5C338.2,269.7,263.3,271.4,228.3,271.4z"/>
<path class="st4" d="M228.3,279.7c-18.5,0-34.9-0.4-48.6-1.1c-43.3-1.9-113.6-5.9-113.9-5.9l0.8-4.5c0.2,0,70.4,4,113.5,5.9
	c39.7,1.8,133.9,2.3,203.1-5.9l0.6,4.5C338.2,278,263.3,279.7,228.3,279.7z"/>
<g>
	<path class="st3" d="M161.9,515.4c-3.7,0-6.9-0.7-9.3-2s-4.4-3-5.7-5c-1.3-2-2.1-4-2.5-6l9.4-1.4c0.1,0.6,0.4,1.4,0.9,2.4
		c0.6,1,1.5,2,2.7,2.8c1.2,0.9,2.8,1.3,4.8,1.3c2.5,0,4.4-0.8,5.8-2.3c1.4-1.5,2.1-3.2,2.3-5c0.1-1.4-0.1-2.8-0.7-4.1
		c-0.5-1.3-1.4-2.4-2.7-3.2c-1.2-0.8-2.8-1.2-4.6-1.2c-1.7,0-3.1,0.3-4.1,1c-1,0.7-1.7,1.3-2.1,2c-0.4,0.7-0.7,1-0.7,1.1l-9.8-1.6
		l2.4-23.5h29.5v8h-22.9l-1.4,12.9c0.8-1.2,1.7-2.3,2.7-3.1c0.9-0.8,2.2-1.5,3.7-2.1c1.5-0.6,3.4-0.9,5.6-0.9c3.5,0,6.3,0.7,8.5,2.1
		c2.2,1.4,3.8,3.3,4.8,5.6c1,2.3,1.4,4.7,1.2,7.1c-0.2,2.5-1.1,4.9-2.5,7.2c-1.5,2.3-3.5,4.2-6,5.7
		C168.4,514.7,165.4,515.4,161.9,515.4z"/>
	<path class="st3" d="M204.5,515.7c-6.6,0-11.5-2.1-14.7-6.2c-3.2-4.1-4.8-9.7-4.8-16.7c0-4.6,0.7-8.6,2.1-12.1
		c1.4-3.4,3.5-6.1,6.4-8c2.9-1.9,6.6-2.8,11.1-2.8c6.7,0,11.6,2.1,14.8,6.2c3.2,4.1,4.8,9.7,4.8,16.7c0,4.5-0.7,8.5-2.1,12
		c-1.4,3.5-3.5,6.2-6.4,8.1S209,515.7,204.5,515.7z M204.5,507.9c3.7,0,6.5-1.3,8.3-3.8c1.8-2.5,2.7-6.3,2.7-11.3
		c0-5-0.9-8.8-2.6-11.3c-1.7-2.5-4.5-3.7-8.3-3.7c-3.6,0-6.3,1.2-8.1,3.6c-1.8,2.4-2.7,6.2-2.7,11.4c0,5,0.9,8.8,2.6,11.3
		C198,506.7,200.7,507.9,204.5,507.9z"/>
	<path class="st3" d="M248.2,515.7c-6.6,0-11.5-2.1-14.7-6.2c-3.2-4.1-4.8-9.7-4.8-16.7c0-4.6,0.7-8.6,2.1-12.1
		c1.4-3.4,3.5-6.1,6.4-8c2.9-1.9,6.6-2.8,11.1-2.8c6.7,0,11.6,2.1,14.8,6.2c3.2,4.1,4.8,9.7,4.8,16.7c0,4.5-0.7,8.5-2.1,12
		c-1.4,3.5-3.5,6.2-6.4,8.1S252.7,515.7,248.2,515.7z M248.1,507.9c3.7,0,6.5-1.3,8.3-3.8c1.8-2.5,2.7-6.3,2.7-11.3
		c0-5-0.9-8.8-2.6-11.3c-1.7-2.5-4.5-3.7-8.3-3.7c-3.6,0-6.3,1.2-8.1,3.6c-1.8,2.4-2.7,6.2-2.7,11.4c0,5,0.9,8.8,2.6,11.3
		C241.7,506.7,244.4,507.9,248.1,507.9z"/>
	<path class="st3" d="M282.4,529.5v-8.9h13.2v-11.1h-0.2c-0.1,0.1-0.2,0.5-0.6,1.1c-0.3,0.6-0.9,1.3-1.7,2c-0.8,0.7-1.8,1.4-3.1,2
		c-1.3,0.6-2.9,0.9-4.8,0.9c-4.8,0-8.2-1.5-10.1-4.4s-2.9-6.9-2.9-11.9c0-5.2,1-9.3,3-12.2c2-2.9,5.3-4.4,10.1-4.4
		c2,0,3.7,0.3,5,0.9c1.3,0.6,2.3,1.4,3.1,2.2c0.8,0.8,1.3,1.6,1.6,2.2c0.3,0.7,0.5,1,0.5,1.1h0.2v-6.4h9.7V516c0,5.1-1,8.7-3,10.6
		c-2,2-5.1,2.9-9.2,2.9H282.4z M288.3,507.5c2.9,0,4.8-0.8,5.7-2.5c1-1.6,1.4-3.6,1.4-6c0-2.3-0.5-4.3-1.4-5.9
		c-0.9-1.6-2.8-2.5-5.6-2.5c-2,0-3.5,0.4-4.6,1.2c-1,0.8-1.7,1.8-2.1,3.1c-0.4,1.3-0.5,2.6-0.5,4c0,1.5,0.2,2.8,0.5,4.1
		c0.3,1.3,1,2.3,2,3.1C284.8,507.1,286.3,507.5,288.3,507.5z"/>
</g>
</svg>
