<?xml version="1.0" encoding="utf-8"?>
<!-- Generator: Adobe Illustrator 26.3.1, SVG Export Plug-In . SVG Version: 6.00 Build 0)  -->
<svg version="1.1" id="Layer_1" xmlns="http://www.w3.org/2000/svg" xmlns:xlink="http://www.w3.org/1999/xlink" x="0px" y="0px"
	 viewBox="0 0 450 596.1" style="enable-background:new 0 0 450 596.1;" xml:space="preserve">
<style type="text/css">
	.st0{fill:#D8D8D8;stroke:#41E09B;stroke-width:2;stroke-miterlimit:10;}
	.st1{fill:#C1C1C1;stroke:#41E09B;stroke-width:2;stroke-miterlimit:10;}
	.st2{fill:#D8D8D8;}
	.st3{fill:#18244C;}
	.st4{fill:#C1C1C1;}
</style>
<g>
	<path class="st0" d="M350.5,375.4c0-1.9,1.5-3.5,3.5-3.6l0.3-12.4c1.7-14.2-7.7-14.1-7.7-14.1s-220.5,0-232.7,0
		s-10.8,14.1-10.8,14.1l0.3,12.4c0.1,0,0.2,0,0.3,0c1.9,0,3.6,1.6,3.6,3.6s-1.5,3.5-3.4,3.6l11.8,199.3c0,0,42.9,10.5,114.9,10.5
		s112.5-12.9,112.5-12.9l10.5-196.9C351.8,378.6,350.5,377.2,350.5,375.4z"/>
</g>
<path class="st4" d="M227.7,384.8c-11,0-20.8-0.3-29-0.6c-25.8-1.3-85.3-3.8-85.4-3.9l0.4-2.9c0.1,0,59.5,2.6,85.2,3.8
	c23.7,1.2,103.8,1.4,145.1-3.8l0.3,2.9C317.2,383.7,248.6,384.8,227.7,384.8z"/>
<path class="st4" d="M227.7,390.1c-11,0-20.8-0.3-29-0.6c-25.8-1.3-85.3-3.8-85.4-3.9l0.4-2.9c0.1,0,59.5,2.6,85.2,3.8
	c23.7,1.2,103.8,1.4,145.1-3.8l0.3,2.9C317.2,389,248.6,390.1,227.7,390.1z"/>
<g>
	<path class="st3" d="M178.1,506.6v8h-22.5v-8h7.3v-25.3c-0.4,2-1,3.5-1.9,4.6c-0.9,1.1-1.9,1.8-3,2.3c-1.1,0.4-2,0.7-2.9,0.7
		c-0.9,0.1-1.4,0.1-1.7,0.1v-10.4c0.3,0.1,1,0.1,2.1,0.1c1.1-0.1,2.2-0.3,3.4-0.7c1.2-0.4,2.3-1.2,3.3-2.4c1-1.1,1.5-2.8,1.6-4.8
		h8.4v35.9H178.1z"/>
	<path class="st3" d="M203.4,515.7c-6.6,0-11.5-2.1-14.7-6.2c-3.2-4.1-4.8-9.7-4.8-16.7c0-4.6,0.7-8.6,2.1-12.1
		c1.4-3.4,3.5-6.1,6.4-8c2.9-1.9,6.6-2.8,11.1-2.8c6.7,0,11.6,2.1,14.8,6.2c3.2,4.1,4.8,9.7,4.8,16.7c0,4.5-0.7,8.5-2.1,12
		c-1.4,3.5-3.5,6.2-6.4,8.1S207.9,515.7,203.4,515.7z M203.3,507.9c3.7,0,6.5-1.3,8.3-3.8c1.8-2.5,2.7-6.3,2.7-11.3
		c0-5-0.9-8.8-2.6-11.3c-1.7-2.5-4.5-3.7-8.3-3.7c-3.6,0-6.3,1.2-8.1,3.6c-1.8,2.4-2.7,6.2-2.7,11.4c0,5,0.9,8.8,2.6,11.3
		C196.9,506.7,199.6,507.9,203.3,507.9z"/>
	<path class="st3" d="M247.1,515.7c-6.6,0-11.5-2.1-14.7-6.2c-3.2-4.1-4.8-9.7-4.8-16.7c0-4.6,0.7-8.6,2.1-12.1
		c1.4-3.4,3.5-6.1,6.4-8c2.9-1.9,6.6-2.8,11.1-2.8c6.7,0,11.6,2.1,14.8,6.2c3.2,4.1,4.8,9.7,4.8,16.7c0,4.5-0.7,8.5-2.1,12
		c-1.4,3.5-3.5,6.2-6.4,8.1S251.6,515.7,247.1,515.7z M247,507.9c3.7,0,6.5-1.3,8.3-3.8c1.8-2.5,2.7-6.3,2.7-11.3
		c0-5-0.9-8.8-2.6-11.3c-1.7-2.5-4.5-3.7-8.3-3.7c-3.6,0-6.3,1.2-8.1,3.6c-1.8,2.4-2.7,6.2-2.7,11.4c0,5,0.9,8.8,2.6,11.3
		C240.5,506.7,243.3,507.9,247,507.9z"/>
	<path class="st3" d="M281.2,529.5v-8.9h13.2v-11.1h-0.2c-0.1,0.1-0.2,0.5-0.6,1.1c-0.3,0.6-0.9,1.3-1.7,2c-0.8,0.7-1.8,1.4-3.1,2
		c-1.3,0.6-2.9,0.9-4.8,0.9c-4.8,0-8.2-1.5-10.1-4.4s-2.9-6.9-2.9-11.9c0-5.2,1-9.3,3-12.2c2-2.9,5.3-4.4,10.1-4.4
		c2,0,3.7,0.3,5,0.9c1.3,0.6,2.3,1.4,3.1,2.2c0.8,0.8,1.3,1.6,1.6,2.2c0.3,0.7,0.5,1,0.5,1.1h0.2v-6.4h9.7V516c0,5.1-1,8.7-3,10.6
		c-2,2-5.1,2.9-9.2,2.9H281.2z M287.2,507.5c2.9,0,4.8-0.8,5.7-2.5c1-1.6,1.4-3.6,1.4-6c0-2.3-0.5-4.3-1.4-5.9
		c-0.9-1.6-2.8-2.5-5.6-2.5c-2,0-3.5,0.4-4.6,1.2c-1,0.8-1.7,1.8-2.1,3.1c-0.4,1.3-0.5,2.6-0.5,4c0,1.5,0.2,2.8,0.5,4.1
		c0.3,1.3,1,2.3,2,3.1C283.7,507.1,285.2,507.5,287.2,507.5z"/>
</g>
</svg>
