<?xml version="1.0" encoding="UTF-8"?>
<svg id="Layer_1" data-name="Layer 1" xmlns="http://www.w3.org/2000/svg" viewBox="0 0 415.5 128.2">
  <defs>
    <style>
      .cls-1 {
        fill: #00baf1;
      }

      .cls-2 {
        fill: #b3cf34;
      }
    </style>
  </defs>
  <path d="M157.8,83.7l.2-52.8-19.3-.1v-4.7c0-1.9.7-3.4,2-4.7,1.3-1.3,2.9-2,4.8-1.9l45.1.1v11.4h-19.1l-.2,52.8-13.5-.1ZM185.1,83.8l.1-24.1c0-4.8.8-8.9,2.2-12.2,1.5-3.3,3.5-5.9,6-7.9,2.4-1.9,5.2-3.2,8.5-4.1,3.2-.9,6.6-1.3,10-1.3h1.9v13.2h-4.4c-3.7,0-6.4.9-8.2,2.6-1.8,1.7-2.7,4.5-2.7,8.2l-.1,25.6h-13.3ZM222,34.3h6.8c1.8,0,3.3.6,4.5,1.9,1.3,1.3,1.9,2.7,1.9,4.5v43.3h-13.3l.1-49.7ZM222.1,19.8h6.8c1.8,0,3.3.6,4.5,1.9,1.3,1.2,1.9,2.7,1.9,4.5v3.9h-13.3l.1-10.3ZM240.5,67.6h12.9c.1,2.5,1.1,4.4,2.8,5.6,1.9,1.3,4.4,1.9,7.6,1.9,2.3,0,4.2-.4,5.9-1.3,1.5-.9,2.3-2,2.3-3.5,0-2.2-2.6-3.9-8-5.1-2.3-.4-4-.8-5.1-1.1-6.7-1.6-11.2-3.6-13.4-5.8-2.5-2.2-3.8-5.2-3.8-9,0-4.7,1.9-8.6,5.5-11.7,3.8-2.8,8.7-4.3,14.8-4.2,6.6,0,11.8,1.5,15.7,4.3,3.7,3.1,5.6,7.2,5.8,12.1h-8.2c-2.4,0-4.2-1.1-5.5-3.2l-1.5-1.5c-1.5-1.1-3.6-1.7-6.3-1.7-2.5,0-4.4.4-5.7,1.1-1.1.7-1.7,1.9-1.7,3.4,0,2,3.3,3.7,9.8,5.1.8.3,1.4.4,2,.6.6.1,1.1.2,1.6.2,6.4,1.6,10.9,3.5,13.5,5.6,2.4,2.2,3.6,5.2,3.6,9,0,5.5-2.1,9.7-6.1,12.7-3.8,2.7-9.5,4.1-17.1,4-7.2,0-12.6-1.5-16.1-4.3-3.7-2.9-5.5-7-5.5-12.5l.2-.7h0ZM324.9,48.7c-1.9-2.6-4.5-3.9-7.8-3.9-3.5,0-6.3,1.2-8.2,3.7-1.9,2.5-2.9,5.9-2.9,10.2v25.5h-12.9l.2-64.2h6.4c1.8,0,3.3.6,4.5,1.9,1.3,1.2,1.9,2.7,1.9,4.5v14.7c2.3-3.7,5.5-6.1,9.7-7.1s8.2-.7,12,.8c3.5,1.5,6.5,3.9,8.9,7.1,2.4,3.2,3.6,7.7,3.6,13.5l-.1,28.9h-12.7l.1-25.7c0-1.9-.1-3.6-.5-5.1-.4-1.6-1.1-3.2-2.2-4.8M392.4,34.9l-.1,29.1c0,8.8-2.4,14.6-7.1,17.3-4.7,2.7-9.8,4.1-15.4,4.1-5.4-.3-10.4-1.8-14.9-4.5s-6.7-8.4-6.7-17l.1-29.1,13.3.1-.1,31.7c0,3,.9,5.2,2.6,6.5,1.8,1.4,3.8,2.1,6.1,2.1s4.3-.7,6.2-2c1.8-1.4,2.8-3.5,2.8-6.5l.1-25.4c0-1.7.6-3.2,1.8-4.5,1.2-1.2,2.8-1.9,4.6-1.8,0,0,6.7-.1,6.7-.1ZM400.9,20.4h6.8c1.8,0,3.3.6,4.5,1.8,1.3,1.2,1.9,2.7,1.9,4.4l-.2,58h-13.3l.3-64.2h0Z"/>
  <path class="cls-2" d="M38.4,43.2c-7.8,23.6,9.9,40.3,26.1,40.2-.1-18-10.8-33.5-26.1-40.2"/>
  <path class="cls-2" d="M37.3,75.1c-7-9.5-8.6-21.4-4.6-33.7l.1-.2c-3.7-1.1-7.6-1.6-11.6-1.6-7.4,0-14.3,1.8-20.4,5.1.2,24.1,19.4,43.7,43.3,43.7,3.4,0,6.7-.4,9.9-1.1-6.5-2.2-12.5-6.5-16.7-12.2M108,39.8c-4,0-7.9.5-11.6,1.6l.1.2c4,12.3,2.3,24.3-4.8,33.7-4.2,5.7-10.2,9.9-16.7,12.1,3.2.8,6.4,1.2,9.8,1.2,23.8.1,43.3-19.4,43.5-43.5-6-3.4-12.9-5.3-20.3-5.3"/>
  <path class="cls-2" d="M90.9,43.3c-15.4,6.7-26.2,22-26.4,40,16.2.3,34-16.3,26.4-40"/>
  <path class="cls-1" d="M64.6,60.2c5.2-9.7,13.5-17.6,23.9-22.1l.4-.2C80.8,18.3,64.8.9,64.8.9c0,0-16.2,17.3-24.4,36.8l.4.2c10.4,4.6,18.6,12.5,23.8,22.3"/>
  <path d="M214.9,114.8c1.7-.9,3.3-2.3,3.3-5v-.1c0-1.5-.5-2.7-1.5-3.7-1.3-1.3-3.4-2-6-2h-10.3v22.6h10.6c5.1,0,8.5-2.2,8.5-6.2v-.1c0-3.1-1.9-4.6-4.6-5.5ZM204.5,107.5h5.8c2.6,0,4,1.1,4,2.9v.1c-.1,2-1.8,3-4.4,3h-5.4v-6h0ZM215.4,119.9c0,2-1.6,3.1-4.4,3.1h-6.7v-6.2h6.4c3.2,0,4.7,1.1,4.7,3.1Z"/>
  <path d="M226.09,126.63l.07-22.5h4.1s-.07,22.51-.07,22.51h-4.1Z"/>
  <path d="M264.9,107.9h7.3v18.8l4,.1.1-18.9h7.3v-3.7h-18.7v3.7ZM293.7,117.2l11.5.1v-3.6h-11.5v-5.9l13,.1v-3.6h-17l-.1,22.5,17.2.1v-3.6h-13.2l.1-6.1ZM354.5,104.5v9.4l-11-.1v-9.4h-4l-.1,22.6h4.1v-9.5h11l-.1,9.5h4.1l.1-22.5h-4.1ZM249.1,103.7c-7.1,0-12.1,5.3-12.1,11.7s4.9,11.6,12,11.6c7.1.1,12.1-5.3,12.1-11.6v-.1c0-6.3-4.9-11.6-12-11.6ZM249.1,123.5c-4.6-.1-7.8-3.7-7.8-8.1v-.1c0-4.4,3.2-7.9,7.8-7.9s7.8,3.7,7.8,8.1-3.2,7.9-7.8,8h0ZM324.3,123.6c-4.4,0-7.6-3.6-7.6-8v-.1c0-4.4,3.2-7.9,7.6-7.9,2.6,0,4.6,1.1,6.4,2.8l2.6-2.9c-2.2-2-4.8-3.5-9-3.5-7,0-11.9,5.2-11.9,11.7s5,11.6,11.8,11.6c4.3,0,6.9-1.6,9.3-4l-2.6-2.6c-2,1.8-3.8,2.9-6.6,2.9h0Z"/>
</svg>