<?xml version="1.0" encoding="utf-8"?>
<!-- Generator: Adobe Illustrator 26.1.0, SVG Export Plug-In . SVG Version: 6.00 Build 0)  -->
<svg version="1.1" id="Layer_1" xmlns="http://www.w3.org/2000/svg" xmlns:xlink="http://www.w3.org/1999/xlink" x="0px" y="0px"
	 viewBox="0 0 415.5 128.2" style="enable-background:new 0 0 415.5 128.2;" xml:space="preserve">
<style type="text/css">
	.st0{fill:#41E09B;}
	.st1{fill:#FEF0EE;}
	.st2{fill:#FFFFFF;}
	.st3{opacity:0.15;fill:#41E09B;stroke:#FFFFFF;stroke-miterlimit:10;}
	.st4{opacity:0.3;fill:#41E09B;stroke:#FFFFFF;stroke-miterlimit:10;}
	.st5{fill:#18244C;}
	.st6{fill:url(#SVGID_1_);}
	.st7{fill:url(#SVGID_00000157288927889980619390000002794419411724654250_);}
	.st8{fill:url(#SVGID_00000148627124041732271560000007388327466144582055_);}
	.st9{fill:url(#SVGID_00000166672438814525396800000010939313744494244255_);}
	.st10{fill:url(#SVGID_00000042003129860999859470000000243488195107916171_);}
	.st11{fill:url(#SVGID_00000099638936927615637600000008986776863512424346_);}
	.st12{fill:url(#SVGID_00000035491585167115370550000016959992068744705426_);}
	.st13{fill:url(#SVGID_00000041257766226573229020000004092706358052490415_);}
	.st14{fill:url(#SVGID_00000152225070104849866230000009852894951838551231_);}
	.st15{fill:url(#SVGID_00000115483061894673668040000013706118713911820950_);}
	.st16{fill:url(#SVGID_00000000182669976056692110000016835178658982952583_);}
	.st17{fill:url(#SVGID_00000008110234306305750940000004288888567303942053_);}
	.st18{fill:url(#SVGID_00000180329088291228015810000015983763145307420560_);}
	.st19{fill:url(#SVGID_00000150800520980664444550000001954792638357193102_);}
	.st20{fill:url(#SVGID_00000036953550138950912130000012814964133680512158_);}
	.st21{fill:url(#SVGID_00000092438083858415143100000011715820415455360183_);}
	.st22{fill:url(#SVGID_00000005262221898654991720000003601238573091443632_);}
	.st23{fill:url(#SVGID_00000108299525596391489250000007114317391258568872_);}
	.st24{fill:url(#SVGID_00000091712853669737709010000008628904369664279737_);}
	.st25{fill:url(#SVGID_00000106840251952579597770000012981326646027327658_);}
	.st26{fill:url(#SVGID_00000145047068386750030500000000628259143827742104_);}
	.st27{fill-rule:evenodd;clip-rule:evenodd;fill:#FFFFFF;}
	.st28{fill:url(#SVGID_00000029018836817308347070000016013346909928351398_);}
</style>
<g>
	<g>
		<path class="st2" d="M157.8,83.7l0.2-52.8l-19.3-0.1l0-4.7c0-1.9,0.7-3.4,2-4.7c1.3-1.3,2.9-2,4.8-1.9l45.1,0.1l0,11.4L171.5,31
			l-0.2,52.8L157.8,83.7z"/>
		<path class="st2" d="M185.1,83.8l0.1-24.1c0-4.8,0.8-8.9,2.2-12.2c1.5-3.3,3.5-5.9,6-7.9c2.4-1.9,5.2-3.2,8.5-4.1
			c3.2-0.9,6.6-1.3,10-1.3l1,0l0.9,0l0,13.2l-4.4,0c-3.7,0-6.4,0.9-8.2,2.6c-1.8,1.7-2.7,4.5-2.7,8.2l-0.1,25.6L185.1,83.8z"/>
		<path class="st2" d="M222,34.3l6.8,0c1.8,0,3.3,0.6,4.5,1.9c1.3,1.3,1.9,2.7,1.9,4.5L235.2,84l-13.3,0L222,34.3z M222.1,19.8
			l6.8,0c1.8,0,3.3,0.6,4.5,1.9c1.3,1.2,1.9,2.7,1.9,4.5l0,3.9l-13.3,0L222.1,19.8z"/>
		<path class="st2" d="M240.5,67.6l12.9,0c0.1,2.5,1.1,4.4,2.8,5.6c1.9,1.3,4.4,1.9,7.6,1.9c2.3,0,4.2-0.4,5.9-1.3
			c1.5-0.9,2.3-2,2.3-3.5c0-2.2-2.6-3.9-8-5.1c-2.3-0.4-4-0.8-5.1-1.1c-6.7-1.6-11.2-3.6-13.4-5.8c-2.5-2.2-3.8-5.2-3.8-9
			c0-4.7,1.9-8.6,5.5-11.7c3.8-2.8,8.7-4.3,14.8-4.2c6.6,0,11.8,1.5,15.7,4.3c3.7,3.1,5.6,7.2,5.8,12.1l-8.2,0
			c-2.4,0-4.2-1.1-5.5-3.2c-0.5-0.5-1-1-1.5-1.5c-1.5-1.1-3.6-1.7-6.3-1.7c-2.5,0-4.4,0.4-5.7,1.1c-1.1,0.7-1.7,1.9-1.7,3.4
			c0,2,3.3,3.7,9.8,5.1c0.8,0.3,1.4,0.4,2,0.6c0.6,0.1,1.1,0.2,1.6,0.2c6.4,1.6,10.9,3.5,13.5,5.6c2.4,2.2,3.6,5.2,3.6,9
			c0,5.5-2.1,9.7-6.1,12.7c-3.8,2.7-9.5,4.1-17.1,4c-7.2,0-12.6-1.5-16.1-4.3c-3.7-2.9-5.5-7-5.5-12.5L240.5,67.6z"/>
		<path class="st2" d="M324.9,48.7c-1.9-2.6-4.5-3.9-7.8-3.9c-3.5,0-6.3,1.2-8.2,3.7c-1.9,2.5-2.9,5.9-2.9,10.2L306,84.2l-12.9,0
			l0.2-64.2l6.4,0c1.8,0,3.3,0.6,4.5,1.9c1.3,1.2,1.9,2.7,1.9,4.5l0,14.7c2.3-3.7,5.5-6.1,9.7-7.1c4.2-1,8.2-0.7,12,0.8
			c3.5,1.5,6.5,3.9,8.9,7.1c2.4,3.2,3.6,7.7,3.6,13.5l-0.1,28.9l-12.7,0l0.1-25.7c0-1.9-0.1-3.6-0.5-5.1
			C326.7,51.9,326,50.3,324.9,48.7"/>
		<path class="st2" d="M392.4,34.9L392.3,64c0,8.8-2.4,14.6-7.1,17.3c-4.7,2.7-9.8,4.1-15.4,4.1c-5.4-0.3-10.4-1.8-14.9-4.5
			c-4.5-2.7-6.7-8.4-6.7-17l0.1-29.1l13.3,0.1l-0.1,31.7c0,3,0.9,5.2,2.6,6.5c1.8,1.4,3.8,2.1,6.1,2.1c2.3,0,4.3-0.7,6.2-2
			c1.8-1.4,2.8-3.5,2.8-6.5l0.1-25.4c0-1.7,0.6-3.2,1.8-4.5c1.2-1.2,2.8-1.9,4.6-1.8L392.4,34.9z"/>
		<path class="st2" d="M400.9,20.4l6.8,0c1.8,0,3.3,0.6,4.5,1.8c1.3,1.2,1.9,2.7,1.9,4.4l-0.2,58l-13.3,0L400.9,20.4z"/>
		<path class="st2" d="M211,123c2.8,0,4.4-1.1,4.4-3.1l0-0.1c0-1.9-1.5-3-4.7-3l-6.4,0l0,6.2L211,123z M209.9,113.5
			c2.6,0,4.3-1,4.4-3v-0.1c0-1.8-1.4-2.9-4-2.9l-5.8,0l0,6L209.9,113.5z M200.4,104l10.3,0c2.6,0,4.7,0.7,6,2c1,1,1.5,2.2,1.5,3.7
			l0,0.1c0,2.7-1.6,4.1-3.3,5c2.7,0.9,4.6,2.4,4.6,5.5l0,0.1c0,4-3.4,6.2-8.5,6.2l-10.6,0L200.4,104z"/>
		
			<rect x="216.8" y="113.3" transform="matrix(3.211102e-03 -1 1 3.211102e-03 112.0531 343.0887)" class="st2" width="22.5" height="4.1"/>
		<polygon class="st2" points="264.9,104.2 264.9,107.9 272.2,107.9 272.2,126.7 276.2,126.8 276.3,107.9 283.6,107.9 283.6,104.2 
					"/>
		<polygon class="st2" points="289.7,104.3 289.6,126.8 306.8,126.9 306.8,123.3 293.6,123.3 293.7,117.2 305.2,117.3 305.2,113.7 
			293.7,113.7 293.7,107.8 306.7,107.9 306.7,104.3 		"/>
		<polygon class="st2" points="354.5,104.5 354.5,113.9 343.5,113.8 343.5,104.4 339.5,104.4 339.4,127 343.5,127 343.5,117.5 
			354.5,117.5 354.4,127 358.5,127 358.6,104.5 		"/>
		<path class="st2" d="M38.4,43.2c-7.8,23.6,9.9,40.3,26.1,40.2l0,0C64.4,65.4,53.7,49.9,38.4,43.2"/>
		<path class="st2" d="M64.6,60.2c5.2-9.7,13.5-17.6,23.9-22.1l0.4-0.2c-8.1-19.6-24.1-37-24.1-37S48.6,18.2,40.4,37.7l0.4,0.2
			C51.2,42.5,59.4,50.4,64.6,60.2"/>
		<path class="st2" d="M37.3,75.1c-7-9.5-8.6-21.4-4.6-33.7l0.1-0.2c-3.7-1.1-7.6-1.6-11.6-1.6c-7.4,0-14.3,1.8-20.4,5.1
			C1,68.8,20.2,88.4,44.1,88.4c3.4,0,6.7-0.4,9.9-1.1C47.5,85.1,41.5,80.8,37.3,75.1"/>
		<path class="st2" d="M108,39.8c-4,0-7.9,0.5-11.6,1.6l0.1,0.2c4,12.3,2.3,24.3-4.8,33.7c-4.2,5.7-10.2,9.9-16.7,12.1
			c3.2,0.8,6.4,1.2,9.8,1.2c23.8,0.1,43.3-19.4,43.5-43.5C122.3,41.7,115.4,39.8,108,39.8"/>
		<path class="st2" d="M90.9,43.3c-15.4,6.7-26.2,22-26.4,40l0,0C80.7,83.6,98.5,67,90.9,43.3"/>
		<path class="st2" d="M256.9,115.5L256.9,115.5c0-4.4-3.2-8.1-7.8-8.1c-4.6,0-7.8,3.5-7.8,7.9l0,0.1c0,4.4,3.2,8,7.8,8.1
			C253.7,123.4,256.9,119.9,256.9,115.5 M237,115.4L237,115.4c0-6.4,5-11.7,12.1-11.7c7.1,0,12,5.3,12,11.6l0,0.1
			c0,6.3-5,11.7-12.1,11.6C241.9,127,237,121.8,237,115.4"/>
		<path class="st2" d="M312.4,115.7L312.4,115.7c0-6.5,4.9-11.7,11.9-11.7c4.2,0,6.8,1.5,9,3.5l-2.6,2.9c-1.8-1.7-3.8-2.8-6.4-2.8
			c-4.4,0-7.6,3.5-7.6,7.9l0,0.1c0,4.4,3.2,8,7.6,8c2.8,0,4.6-1.1,6.6-2.9l2.6,2.6c-2.4,2.4-5,4-9.3,4
			C317.4,127.3,312.4,122.2,312.4,115.7"/>
	</g>
</g>
</svg>
